solid OpenSCAD_Model
  facet normal -0 0 1
    outer loop
      vertex 0 5 6.3
      vertex 10.3 -5 6.3
      vertex 10.3 5 6.3
    endloop
  endfacet
  facet normal 0 0 1
    outer loop
      vertex 10.3 -5 6.3
      vertex 0 5 6.3
      vertex 0 -5 6.3
    endloop
  endfacet
  facet normal 0 1 -0
    outer loop
      vertex 9.90442 5 6.28757
      vertex 0 5 6.3
      vertex 10.3 5 6.3
    endloop
  endfacet
  facet normal 0 1 -0
    outer loop
      vertex 9.5104 5 6.25032
      vertex 0 5 6.3
      vertex 9.90442 5 6.28757
    endloop
  endfacet
  facet normal 0 1 -0
    outer loop
      vertex 9.1195 5 6.18841
      vertex 0 5 6.3
      vertex 9.5104 5 6.25032
    endloop
  endfacet
  facet normal 0 1 -0
    outer loop
      vertex 8.73325 5 6.10207
      vertex 0 5 6.3
      vertex 9.1195 5 6.18841
    endloop
  endfacet
  facet normal 0 1 -0
    outer loop
      vertex 8.35319 5 5.99166
      vertex 0 5 6.3
      vertex 8.73325 5 6.10207
    endloop
  endfacet
  facet normal 0 1 -0
    outer loop
      vertex 7.98081 5 5.85759
      vertex 0 5 6.3
      vertex 8.35319 5 5.99166
    endloop
  endfacet
  facet normal 0 1 -0
    outer loop
      vertex 7.61759 5 5.70041
      vertex 0 5 6.3
      vertex 7.98081 5 5.85759
    endloop
  endfacet
  facet normal 0 1 -0
    outer loop
      vertex 7.26495 5 5.52073
      vertex 0 5 6.3
      vertex 7.61759 5 5.70041
    endloop
  endfacet
  facet normal 0 1 -0
    outer loop
      vertex 6.92429 5 5.31927
      vertex 0 5 6.3
      vertex 7.26495 5 5.52073
    endloop
  endfacet
  facet normal 0 1 -0
    outer loop
      vertex 6.59695 5 5.09681
      vertex 0 5 6.3
      vertex 6.92429 5 5.31927
    endloop
  endfacet
  facet normal 0 1 -0
    outer loop
      vertex 6.28423 5 4.85423
      vertex 0 5 6.3
      vertex 6.59695 5 5.09681
    endloop
  endfacet
  facet normal 0 1 -0
    outer loop
      vertex 5.98735 5 4.5925
      vertex 0 5 6.3
      vertex 6.28423 5 4.85423
    endloop
  endfacet
  facet normal 0 1 -0
    outer loop
      vertex 5.7075 5 4.31265
      vertex 0 5 6.3
      vertex 5.98735 5 4.5925
    endloop
  endfacet
  facet normal 0 1 -0
    outer loop
      vertex 5.44577 5 4.01577
      vertex 0 5 6.3
      vertex 5.7075 5 4.31265
    endloop
  endfacet
  facet normal 0 1 -0
    outer loop
      vertex 5.20319 5 3.70305
      vertex 0 5 6.3
      vertex 5.44577 5 4.01577
    endloop
  endfacet
  facet normal 0 1 -0
    outer loop
      vertex 4.98073 5 3.37571
      vertex 0 5 6.3
      vertex 5.20319 5 3.70305
    endloop
  endfacet
  facet normal 0 1 -0
    outer loop
      vertex 4.77927 5 3.03505
      vertex 0 5 6.3
      vertex 4.98073 5 3.37571
    endloop
  endfacet
  facet normal 0 1 -0
    outer loop
      vertex 4.59959 5 2.68241
      vertex 0 5 6.3
      vertex 4.77927 5 3.03505
    endloop
  endfacet
  facet normal 0 1 -0
    outer loop
      vertex 4.44241 5 2.31918
      vertex 0 5 6.3
      vertex 4.59959 5 2.68241
    endloop
  endfacet
  facet normal 0 1 -0
    outer loop
      vertex 4.30834 5 1.94681
      vertex 0 5 6.3
      vertex 4.44241 5 2.31918
    endloop
  endfacet
  facet normal 0 1 -0
    outer loop
      vertex 4.19793 5 1.56675
      vertex 0 5 6.3
      vertex 4.30834 5 1.94681
    endloop
  endfacet
  facet normal 0 1 -0
    outer loop
      vertex 4.11159 5 1.1805
      vertex 0 5 6.3
      vertex 4.19793 5 1.56675
    endloop
  endfacet
  facet normal 0 1 -0
    outer loop
      vertex 4.04968 5 0.789598
      vertex 0 5 6.3
      vertex 4.11159 5 1.1805
    endloop
  endfacet
  facet normal 0 1 -0
    outer loop
      vertex 4.01243 5 0.395579
      vertex 0 5 6.3
      vertex 4.04968 5 0.789598
    endloop
  endfacet
  facet normal 0 1 -0
    outer loop
      vertex 4 5 0
      vertex 0 5 6.3
      vertex 4.01243 5 0.395579
    endloop
  endfacet
  facet normal 0 1 0
    outer loop
      vertex 0 5 -6.3
      vertex 4 5 0
      vertex 4.01243 5 -0.395579
    endloop
  endfacet
  facet normal 0 1 0
    outer loop
      vertex 0 5 -6.3
      vertex 4.01243 5 -0.395579
      vertex 4.04968 5 -0.789598
    endloop
  endfacet
  facet normal 0 1 0
    outer loop
      vertex 0 5 -6.3
      vertex 4.04968 5 -0.789598
      vertex 4.11159 5 -1.1805
    endloop
  endfacet
  facet normal 0 1 0
    outer loop
      vertex 0 5 -6.3
      vertex 4.11159 5 -1.1805
      vertex 4.19793 5 -1.56675
    endloop
  endfacet
  facet normal 0 1 0
    outer loop
      vertex 0 5 -6.3
      vertex 4.19793 5 -1.56675
      vertex 4.30834 5 -1.94681
    endloop
  endfacet
  facet normal 0 1 0
    outer loop
      vertex 0 5 -6.3
      vertex 4.30834 5 -1.94681
      vertex 4.44241 5 -2.31918
    endloop
  endfacet
  facet normal 0 1 0
    outer loop
      vertex 0 5 -6.3
      vertex 4.44241 5 -2.31918
      vertex 4.59959 5 -2.68241
    endloop
  endfacet
  facet normal 0 1 0
    outer loop
      vertex 0 5 -6.3
      vertex 4.59959 5 -2.68241
      vertex 4.77927 5 -3.03505
    endloop
  endfacet
  facet normal 0 1 0
    outer loop
      vertex 4 5 0
      vertex 0 5 -6.3
      vertex 0 5 6.3
    endloop
  endfacet
  facet normal 0 1 0
    outer loop
      vertex 4.98073 5 -3.37571
      vertex 0 5 -6.3
      vertex 4.77927 5 -3.03505
    endloop
  endfacet
  facet normal 0 1 0
    outer loop
      vertex 5.20319 5 -3.70305
      vertex 0 5 -6.3
      vertex 4.98073 5 -3.37571
    endloop
  endfacet
  facet normal 0 1 0
    outer loop
      vertex 5.44577 5 -4.01577
      vertex 0 5 -6.3
      vertex 5.20319 5 -3.70305
    endloop
  endfacet
  facet normal 0 1 0
    outer loop
      vertex 5.7075 5 -4.31265
      vertex 0 5 -6.3
      vertex 5.44577 5 -4.01577
    endloop
  endfacet
  facet normal 0 1 0
    outer loop
      vertex 5.98735 5 -4.5925
      vertex 0 5 -6.3
      vertex 5.7075 5 -4.31265
    endloop
  endfacet
  facet normal 0 1 0
    outer loop
      vertex 6.28423 5 -4.85423
      vertex 0 5 -6.3
      vertex 5.98735 5 -4.5925
    endloop
  endfacet
  facet normal 0 1 0
    outer loop
      vertex 6.59695 5 -5.09681
      vertex 0 5 -6.3
      vertex 6.28423 5 -4.85423
    endloop
  endfacet
  facet normal 0 1 0
    outer loop
      vertex 6.92429 5 -5.31927
      vertex 0 5 -6.3
      vertex 6.59695 5 -5.09681
    endloop
  endfacet
  facet normal 0 1 0
    outer loop
      vertex 7.26495 5 -5.52073
      vertex 0 5 -6.3
      vertex 6.92429 5 -5.31927
    endloop
  endfacet
  facet normal 0 1 0
    outer loop
      vertex 7.61759 5 -5.70041
      vertex 0 5 -6.3
      vertex 7.26495 5 -5.52073
    endloop
  endfacet
  facet normal 0 1 0
    outer loop
      vertex 7.98081 5 -5.85759
      vertex 0 5 -6.3
      vertex 7.61759 5 -5.70041
    endloop
  endfacet
  facet normal 0 1 0
    outer loop
      vertex 8.35319 5 -5.99166
      vertex 0 5 -6.3
      vertex 7.98081 5 -5.85759
    endloop
  endfacet
  facet normal 0 1 0
    outer loop
      vertex 8.73325 5 -6.10207
      vertex 0 5 -6.3
      vertex 8.35319 5 -5.99166
    endloop
  endfacet
  facet normal 0 1 0
    outer loop
      vertex 9.1195 5 -6.18841
      vertex 0 5 -6.3
      vertex 8.73325 5 -6.10207
    endloop
  endfacet
  facet normal 0 1 0
    outer loop
      vertex 9.5104 5 -6.25032
      vertex 0 5 -6.3
      vertex 9.1195 5 -6.18841
    endloop
  endfacet
  facet normal 0 1 0
    outer loop
      vertex 9.90442 5 -6.28757
      vertex 0 5 -6.3
      vertex 9.5104 5 -6.25032
    endloop
  endfacet
  facet normal 0 1 0
    outer loop
      vertex 0 5 -6.3
      vertex 9.90442 5 -6.28757
      vertex 10.3 5 -6.3
    endloop
  endfacet
  facet normal 0 0 -1
    outer loop
      vertex 0 -5 -6.3
      vertex 10.3 5 -6.3
      vertex 10.3 -5 -6.3
    endloop
  endfacet
  facet normal -0 0 -1
    outer loop
      vertex 10.3 5 -6.3
      vertex 0 -5 -6.3
      vertex 0 5 -6.3
    endloop
  endfacet
  facet normal 0 -1 0
    outer loop
      vertex 0 -5 6.3
      vertex 9.90442 -5 6.28757
      vertex 10.3 -5 6.3
    endloop
  endfacet
  facet normal 0 -1 0
    outer loop
      vertex 0 -5 6.3
      vertex 9.5104 -5 6.25032
      vertex 9.90442 -5 6.28757
    endloop
  endfacet
  facet normal 0 -1 0
    outer loop
      vertex 0 -5 6.3
      vertex 9.1195 -5 6.18841
      vertex 9.5104 -5 6.25032
    endloop
  endfacet
  facet normal 0 -1 0
    outer loop
      vertex 0 -5 6.3
      vertex 8.73325 -5 6.10207
      vertex 9.1195 -5 6.18841
    endloop
  endfacet
  facet normal 0 -1 0
    outer loop
      vertex 0 -5 6.3
      vertex 8.35319 -5 5.99166
      vertex 8.73325 -5 6.10207
    endloop
  endfacet
  facet normal 0 -1 0
    outer loop
      vertex 0 -5 6.3
      vertex 7.98081 -5 5.85759
      vertex 8.35319 -5 5.99166
    endloop
  endfacet
  facet normal 0 -1 0
    outer loop
      vertex 0 -5 6.3
      vertex 7.61759 -5 5.70041
      vertex 7.98081 -5 5.85759
    endloop
  endfacet
  facet normal 0 -1 0
    outer loop
      vertex 0 -5 6.3
      vertex 7.26495 -5 5.52073
      vertex 7.61759 -5 5.70041
    endloop
  endfacet
  facet normal 0 -1 0
    outer loop
      vertex 0 -5 6.3
      vertex 6.92429 -5 5.31927
      vertex 7.26495 -5 5.52073
    endloop
  endfacet
  facet normal 0 -1 0
    outer loop
      vertex 0 -5 6.3
      vertex 6.59695 -5 5.09681
      vertex 6.92429 -5 5.31927
    endloop
  endfacet
  facet normal 0 -1 0
    outer loop
      vertex 0 -5 6.3
      vertex 6.28423 -5 4.85423
      vertex 6.59695 -5 5.09681
    endloop
  endfacet
  facet normal 0 -1 0
    outer loop
      vertex 0 -5 6.3
      vertex 5.98735 -5 4.5925
      vertex 6.28423 -5 4.85423
    endloop
  endfacet
  facet normal 0 -1 0
    outer loop
      vertex 0 -5 6.3
      vertex 5.7075 -5 4.31265
      vertex 5.98735 -5 4.5925
    endloop
  endfacet
  facet normal 0 -1 0
    outer loop
      vertex 0 -5 6.3
      vertex 5.44577 -5 4.01577
      vertex 5.7075 -5 4.31265
    endloop
  endfacet
  facet normal 0 -1 0
    outer loop
      vertex 0 -5 6.3
      vertex 5.20319 -5 3.70305
      vertex 5.44577 -5 4.01577
    endloop
  endfacet
  facet normal 0 -1 0
    outer loop
      vertex 0 -5 6.3
      vertex 4.98073 -5 3.37571
      vertex 5.20319 -5 3.70305
    endloop
  endfacet
  facet normal 0 -1 0
    outer loop
      vertex 0 -5 6.3
      vertex 4.77927 -5 3.03505
      vertex 4.98073 -5 3.37571
    endloop
  endfacet
  facet normal 0 -1 0
    outer loop
      vertex 0 -5 6.3
      vertex 4.59959 -5 2.68241
      vertex 4.77927 -5 3.03505
    endloop
  endfacet
  facet normal 0 -1 0
    outer loop
      vertex 0.904754 -5 0.816878
      vertex 4.59959 -5 2.68241
      vertex 0 -5 6.3
    endloop
  endfacet
  facet normal 0 -1 0
    outer loop
      vertex 4.59959 -5 2.68241
      vertex 0.904754 -5 0.816878
      vertex 4.44241 -5 2.31918
    endloop
  endfacet
  facet normal 0 -1 0
    outer loop
      vertex 2.64174 -5 0.733871
      vertex 4.44241 -5 2.31918
      vertex 0.904754 -5 0.816878
    endloop
  endfacet
  facet normal 0 -1 0
    outer loop
      vertex 2.98674 -5 0.733871
      vertex 4.30834 -5 1.94681
      vertex 2.64174 -5 0.733871
    endloop
  endfacet
  facet normal 0 -1 0
    outer loop
      vertex 0.904754 -5 0.816878
      vertex 0 -5 6.3
      vertex 0.593749 -5 0.816878
    endloop
  endfacet
  facet normal 0 -1 0
    outer loop
      vertex 0 -5 6.3
      vertex 0.59375 -5 -0.527859
      vertex 0.593749 -5 0.816878
    endloop
  endfacet
  facet normal 0 -1 0
    outer loop
      vertex 0 -5 -6.3
      vertex 0.59375 -5 -0.527859
      vertex 0 -5 6.3
    endloop
  endfacet
  facet normal 0 -1 0
    outer loop
      vertex 0 -5 -6.3
      vertex 0.904755 -5 -0.976105
      vertex 0.59375 -5 -0.976105
    endloop
  endfacet
  facet normal 0 -1 0
    outer loop
      vertex 0.904755 -5 -0.976105
      vertex 4.19793 -5 -1.56675
      vertex 4.11159 -5 -1.1805
    endloop
  endfacet
  facet normal 0 -1 0
    outer loop
      vertex 0.904755 -5 -0.976105
      vertex 4.30834 -5 -1.94681
      vertex 4.19793 -5 -1.56675
    endloop
  endfacet
  facet normal 0 -1 0
    outer loop
      vertex 0.904755 -5 -0.976105
      vertex 4.44241 -5 -2.31918
      vertex 4.30834 -5 -1.94681
    endloop
  endfacet
  facet normal 0 -1 0
    outer loop
      vertex 0.904755 -5 -0.976105
      vertex 4.59959 -5 -2.68241
      vertex 4.44241 -5 -2.31918
    endloop
  endfacet
  facet normal 0 -1 -0
    outer loop
      vertex 0.904755 -5 -0.976105
      vertex 0 -5 -6.3
      vertex 4.59959 -5 -2.68241
    endloop
  endfacet
  facet normal 0 -1 -0
    outer loop
      vertex 4.59959 -5 -2.68241
      vertex 0 -5 -6.3
      vertex 4.77927 -5 -3.03505
    endloop
  endfacet
  facet normal 0 -1 -0
    outer loop
      vertex 4.77927 -5 -3.03505
      vertex 0 -5 -6.3
      vertex 4.98073 -5 -3.37571
    endloop
  endfacet
  facet normal 0 -1 -0
    outer loop
      vertex 4.98073 -5 -3.37571
      vertex 0 -5 -6.3
      vertex 5.20319 -5 -3.70305
    endloop
  endfacet
  facet normal 0 -1 -0
    outer loop
      vertex 5.20319 -5 -3.70305
      vertex 0 -5 -6.3
      vertex 5.44577 -5 -4.01577
    endloop
  endfacet
  facet normal 0 -1 -0
    outer loop
      vertex 5.44577 -5 -4.01577
      vertex 0 -5 -6.3
      vertex 5.7075 -5 -4.31265
    endloop
  endfacet
  facet normal 0 -1 -0
    outer loop
      vertex 5.7075 -5 -4.31265
      vertex 0 -5 -6.3
      vertex 5.98735 -5 -4.5925
    endloop
  endfacet
  facet normal 0 -1 -0
    outer loop
      vertex 5.98735 -5 -4.5925
      vertex 0 -5 -6.3
      vertex 6.28423 -5 -4.85423
    endloop
  endfacet
  facet normal 0 -1 -0
    outer loop
      vertex 0.59375 -5 -0.527859
      vertex 0 -5 -6.3
      vertex 0.59375 -5 -0.976105
    endloop
  endfacet
  facet normal 0 -1 -0
    outer loop
      vertex 6.28423 -5 -4.85423
      vertex 0 -5 -6.3
      vertex 6.59695 -5 -5.09681
    endloop
  endfacet
  facet normal 0 -1 0
    outer loop
      vertex 0 -5 -6.3
      vertex 6.92429 -5 -5.31927
      vertex 6.59695 -5 -5.09681
    endloop
  endfacet
  facet normal 0 -1 0
    outer loop
      vertex 0 -5 -6.3
      vertex 7.26495 -5 -5.52073
      vertex 6.92429 -5 -5.31927
    endloop
  endfacet
  facet normal 0 -1 0
    outer loop
      vertex 0 -5 -6.3
      vertex 7.61759 -5 -5.70041
      vertex 7.26495 -5 -5.52073
    endloop
  endfacet
  facet normal 0 -1 0
    outer loop
      vertex 0 -5 -6.3
      vertex 7.98081 -5 -5.85759
      vertex 7.61759 -5 -5.70041
    endloop
  endfacet
  facet normal 0 -1 0
    outer loop
      vertex 0 -5 -6.3
      vertex 8.35319 -5 -5.99166
      vertex 7.98081 -5 -5.85759
    endloop
  endfacet
  facet normal 0 -1 0
    outer loop
      vertex 0 -5 -6.3
      vertex 8.73325 -5 -6.10207
      vertex 8.35319 -5 -5.99166
    endloop
  endfacet
  facet normal 0 -1 0
    outer loop
      vertex 0 -5 -6.3
      vertex 9.1195 -5 -6.18841
      vertex 8.73325 -5 -6.10207
    endloop
  endfacet
  facet normal 0 -1 0
    outer loop
      vertex 0 -5 -6.3
      vertex 9.5104 -5 -6.25032
      vertex 9.1195 -5 -6.18841
    endloop
  endfacet
  facet normal 0 -1 0
    outer loop
      vertex 0 -5 -6.3
      vertex 9.90442 -5 -6.28757
      vertex 9.5104 -5 -6.25032
    endloop
  endfacet
  facet normal 0 -1 -0
    outer loop
      vertex 9.90442 -5 -6.28757
      vertex 0 -5 -6.3
      vertex 10.3 -5 -6.3
    endloop
  endfacet
  facet normal 0 -1 0
    outer loop
      vertex 4.44241 -5 2.31918
      vertex 2.64174 -5 0.733871
      vertex 4.30834 -5 1.94681
    endloop
  endfacet
  facet normal 0 -1 0
    outer loop
      vertex 4.30834 -5 1.94681
      vertex 2.98674 -5 0.733871
      vertex 4.19793 -5 1.56675
    endloop
  endfacet
  facet normal 0 -1 0
    outer loop
      vertex 4.19793 -5 1.56675
      vertex 2.98674 -5 0.733871
      vertex 4.11159 -5 1.1805
    endloop
  endfacet
  facet normal 0 -1 0
    outer loop
      vertex 0.904754 -5 0.634627
      vertex 2.64174 -5 0.733871
      vertex 0.904754 -5 0.816878
    endloop
  endfacet
  facet normal 0 -1 0
    outer loop
      vertex 0.904755 -5 0.0878744
      vertex 2.64174 -5 0.733871
      vertex 0.904754 -5 0.634627
    endloop
  endfacet
  facet normal 0 -1 -0
    outer loop
      vertex 2.64174 -5 0.733871
      vertex 0.904755 -5 0.0878744
      vertex 3.12474 -5 0.0878754
    endloop
  endfacet
  facet normal 0 -1 0
    outer loop
      vertex 4.11159 -5 1.1805
      vertex 2.98674 -5 0.733871
      vertex 4.04968 -5 0.789598
    endloop
  endfacet
  facet normal 0 -1 0
    outer loop
      vertex 2.98674 -5 0.733871
      vertex 4.01243 -5 0.395579
      vertex 4.04968 -5 0.789598
    endloop
  endfacet
  facet normal 0 -1 0
    outer loop
      vertex 3.47374 -5 0.0568695
      vertex 4.01243 -5 0.395579
      vertex 2.98674 -5 0.733871
    endloop
  endfacet
  facet normal 0 -1 0
    outer loop
      vertex 3.47374 -5 0.0568695
      vertex 4 -5 0
      vertex 4.01243 -5 0.395579
    endloop
  endfacet
  facet normal 0 -1 0
    outer loop
      vertex 3.47374 -5 -0.280105
      vertex 4 -5 0
      vertex 3.47374 -5 0.0568695
    endloop
  endfacet
  facet normal 0 -1 0
    outer loop
      vertex 3.47374 -5 -0.280105
      vertex 4.01243 -5 -0.395579
      vertex 4 -5 0
    endloop
  endfacet
  facet normal 0 -1 0
    outer loop
      vertex 0.904755 -5 -0.976105
      vertex 3.47374 -5 -0.280105
      vertex 0.904755 -5 -0.280106
    endloop
  endfacet
  facet normal 0 -1 0
    outer loop
      vertex 4.11159 -5 -1.1805
      vertex 3.47374 -5 -0.280105
      vertex 0.904755 -5 -0.976105
    endloop
  endfacet
  facet normal 0 -1 0
    outer loop
      vertex 3.47374 -5 -0.280105
      vertex 4.04968 -5 -0.789598
      vertex 4.01243 -5 -0.395579
    endloop
  endfacet
  facet normal 0 -1 0
    outer loop
      vertex 3.47374 -5 -0.280105
      vertex 4.11159 -5 -1.1805
      vertex 4.04968 -5 -0.789598
    endloop
  endfacet
  facet normal 0.0314096 0 -0.999507
    outer loop
      vertex 9.90442 -5 6.28757
      vertex 10.3 5 6.3
      vertex 10.3 -5 6.3
    endloop
  endfacet
  facet normal 0.0314096 0 -0.999507
    outer loop
      vertex 10.3 5 6.3
      vertex 9.90442 -5 6.28757
      vertex 9.90442 5 6.28757
    endloop
  endfacet
  facet normal 0.612907 0 0.790155
    outer loop
      vertex 6.28423 5 -4.85423
      vertex 6.59695 -5 -5.09681
      vertex 6.59695 5 -5.09681
    endloop
  endfacet
  facet normal 0.612907 0 0.790155
    outer loop
      vertex 6.59695 -5 -5.09681
      vertex 6.28423 5 -4.85423
      vertex 6.28423 -5 -4.85423
    endloop
  endfacet
  facet normal 0.707108 0 -0.707106
    outer loop
      vertex 5.98735 -5 4.5925
      vertex 5.7075 5 4.31265
      vertex 5.98735 5 4.5925
    endloop
  endfacet
  facet normal 0.707108 0 -0.707106
    outer loop
      vertex 5.7075 5 4.31265
      vertex 5.98735 -5 4.5925
      vertex 5.7075 -5 4.31265
    endloop
  endfacet
  facet normal 0.827081 0 -0.562083
    outer loop
      vertex 5.20319 -5 3.70305
      vertex 4.98073 5 3.37571
      vertex 5.20319 5 3.70305
    endloop
  endfacet
  facet normal 0.827081 0 -0.562083
    outer loop
      vertex 4.98073 5 3.37571
      vertex 5.20319 -5 3.70305
      vertex 4.98073 -5 3.37571
    endloop
  endfacet
  facet normal 0.0941083 0 -0.995562
    outer loop
      vertex 9.5104 -5 6.25032
      vertex 9.90442 5 6.28757
      vertex 9.90442 -5 6.28757
    endloop
  endfacet
  facet normal 0.0941083 0 -0.995562
    outer loop
      vertex 9.90442 5 6.28757
      vertex 9.5104 -5 6.25032
      vertex 9.5104 5 6.25032
    endloop
  endfacet
  facet normal 0.45399 0 -0.891007
    outer loop
      vertex 7.26495 -5 5.52073
      vertex 7.61759 5 5.70041
      vertex 7.61759 -5 5.70041
    endloop
  endfacet
  facet normal 0.45399 0 -0.891007
    outer loop
      vertex 7.61759 5 5.70041
      vertex 7.26495 -5 5.52073
      vertex 7.26495 5 5.52073
    endloop
  endfacet
  facet normal 0.940881 0 -0.338737
    outer loop
      vertex 4.44241 -5 2.31918
      vertex 4.30834 5 1.94681
      vertex 4.44241 5 2.31918
    endloop
  endfacet
  facet normal 0.940881 0 -0.338737
    outer loop
      vertex 4.30834 5 1.94681
      vertex 4.44241 -5 2.31918
      vertex 4.30834 -5 1.94681
    endloop
  endfacet
  facet normal 0.661312 0 -0.750111
    outer loop
      vertex 5.98735 -5 4.5925
      vertex 6.28423 5 4.85423
      vertex 6.28423 -5 4.85423
    endloop
  endfacet
  facet normal 0.661312 0 -0.750111
    outer loop
      vertex 6.28423 5 4.85423
      vertex 5.98735 -5 4.5925
      vertex 5.98735 5 4.5925
    endloop
  endfacet
  facet normal 0.338737 0 -0.940881
    outer loop
      vertex 7.98081 -5 5.85759
      vertex 8.35319 5 5.99166
      vertex 8.35319 -5 5.99166
    endloop
  endfacet
  facet normal 0.338737 0 -0.940881
    outer loop
      vertex 8.35319 5 5.99166
      vertex 7.98081 -5 5.85759
      vertex 7.98081 5 5.85759
    endloop
  endfacet
  facet normal 0.999507 -0 0.0314097
    outer loop
      vertex 4 -5 0
      vertex 4.01243 5 -0.395579
      vertex 4 5 0
    endloop
  endfacet
  facet normal 0.999507 0 0.0314097
    outer loop
      vertex 4.01243 5 -0.395579
      vertex 4 -5 0
      vertex 4.01243 -5 -0.395579
    endloop
  endfacet
  facet normal 0.975917 -0 0.218144
    outer loop
      vertex 4.11159 -5 -1.1805
      vertex 4.19793 5 -1.56675
      vertex 4.11159 5 -1.1805
    endloop
  endfacet
  facet normal 0.975917 0 0.218144
    outer loop
      vertex 4.19793 5 -1.56675
      vertex 4.11159 -5 -1.1805
      vertex 4.19793 -5 -1.56675
    endloop
  endfacet
  facet normal 0.75011 -0 0.661313
    outer loop
      vertex 5.44577 -5 -4.01577
      vertex 5.7075 5 -4.31265
      vertex 5.44577 5 -4.01577
    endloop
  endfacet
  facet normal 0.75011 0 0.661313
    outer loop
      vertex 5.7075 5 -4.31265
      vertex 5.44577 -5 -4.01577
      vertex 5.7075 -5 -4.31265
    endloop
  endfacet
  facet normal 0.790155 0 -0.612907
    outer loop
      vertex 5.44577 -5 4.01577
      vertex 5.20319 5 3.70305
      vertex 5.44577 5 4.01577
    endloop
  endfacet
  facet normal 0.790155 0 -0.612907
    outer loop
      vertex 5.20319 5 3.70305
      vertex 5.44577 -5 4.01577
      vertex 5.20319 -5 3.70305
    endloop
  endfacet
  facet normal 0.917754 0 -0.397148
    outer loop
      vertex 4.59959 -5 2.68241
      vertex 4.44241 5 2.31918
      vertex 4.59959 5 2.68241
    endloop
  endfacet
  facet normal 0.917754 0 -0.397148
    outer loop
      vertex 4.44241 5 2.31918
      vertex 4.59959 -5 2.68241
      vertex 4.44241 -5 2.31918
    endloop
  endfacet
  facet normal 0.562083 0 -0.827081
    outer loop
      vertex 6.59695 -5 5.09681
      vertex 6.92429 5 5.31927
      vertex 6.92429 -5 5.31927
    endloop
  endfacet
  facet normal 0.562083 0 -0.827081
    outer loop
      vertex 6.92429 5 5.31927
      vertex 6.59695 -5 5.09681
      vertex 6.59695 5 5.09681
    endloop
  endfacet
  facet normal 0.509042 0 -0.860742
    outer loop
      vertex 6.92429 -5 5.31927
      vertex 7.26495 5 5.52073
      vertex 7.26495 -5 5.52073
    endloop
  endfacet
  facet normal 0.509042 0 -0.860742
    outer loop
      vertex 7.26495 5 5.52073
      vertex 6.92429 -5 5.31927
      vertex 6.92429 5 5.31927
    endloop
  endfacet
  facet normal 0.397148 0 -0.917754
    outer loop
      vertex 7.61759 -5 5.70041
      vertex 7.98081 5 5.85759
      vertex 7.98081 -5 5.85759
    endloop
  endfacet
  facet normal 0.397148 0 -0.917754
    outer loop
      vertex 7.98081 5 5.85759
      vertex 7.61759 -5 5.70041
      vertex 7.61759 5 5.70041
    endloop
  endfacet
  facet normal 0.218142 0 -0.975917
    outer loop
      vertex 8.73325 -5 6.10207
      vertex 9.1195 5 6.18841
      vertex 9.1195 -5 6.18841
    endloop
  endfacet
  facet normal 0.218142 0 -0.975917
    outer loop
      vertex 9.1195 5 6.18841
      vertex 8.73325 -5 6.10207
      vertex 8.73325 5 6.10207
    endloop
  endfacet
  facet normal 0.860742 -0 0.509042
    outer loop
      vertex 4.77927 -5 -3.03505
      vertex 4.98073 5 -3.37571
      vertex 4.77927 5 -3.03505
    endloop
  endfacet
  facet normal 0.860742 0 0.509042
    outer loop
      vertex 4.98073 5 -3.37571
      vertex 4.77927 -5 -3.03505
      vertex 4.98073 -5 -3.37571
    endloop
  endfacet
  facet normal 0.987689 0 -0.156433
    outer loop
      vertex 4.11159 -5 1.1805
      vertex 4.04968 5 0.789598
      vertex 4.11159 5 1.1805
    endloop
  endfacet
  facet normal 0.987689 0 -0.156433
    outer loop
      vertex 4.04968 5 0.789598
      vertex 4.11159 -5 1.1805
      vertex 4.04968 -5 0.789598
    endloop
  endfacet
  facet normal 0.995562 0 -0.0941083
    outer loop
      vertex 4.04968 -5 0.789598
      vertex 4.01243 5 0.395579
      vertex 4.04968 5 0.789598
    endloop
  endfacet
  facet normal 0.995562 0 -0.0941083
    outer loop
      vertex 4.01243 5 0.395579
      vertex 4.04968 -5 0.789598
      vertex 4.01243 -5 0.395579
    endloop
  endfacet
  facet normal 0.999507 0 -0.0314097
    outer loop
      vertex 4.01243 -5 0.395579
      vertex 4 5 0
      vertex 4.01243 5 0.395579
    endloop
  endfacet
  facet normal 0.999507 0 -0.0314097
    outer loop
      vertex 4 5 0
      vertex 4.01243 -5 0.395579
      vertex 4 -5 0
    endloop
  endfacet
  facet normal 0.75011 0 -0.661313
    outer loop
      vertex 5.7075 -5 4.31265
      vertex 5.44577 5 4.01577
      vertex 5.7075 5 4.31265
    endloop
  endfacet
  facet normal 0.75011 0 -0.661313
    outer loop
      vertex 5.44577 5 4.01577
      vertex 5.7075 -5 4.31265
      vertex 5.44577 -5 4.01577
    endloop
  endfacet
  facet normal 0.860742 0 -0.509042
    outer loop
      vertex 4.98073 -5 3.37571
      vertex 4.77927 5 3.03505
      vertex 4.98073 5 3.37571
    endloop
  endfacet
  facet normal 0.860742 0 -0.509042
    outer loop
      vertex 4.77927 5 3.03505
      vertex 4.98073 -5 3.37571
      vertex 4.77927 -5 3.03505
    endloop
  endfacet
  facet normal 0.612907 0 -0.790155
    outer loop
      vertex 6.28423 -5 4.85423
      vertex 6.59695 5 5.09681
      vertex 6.59695 -5 5.09681
    endloop
  endfacet
  facet normal 0.612907 0 -0.790155
    outer loop
      vertex 6.59695 5 5.09681
      vertex 6.28423 -5 4.85423
      vertex 6.28423 5 4.85423
    endloop
  endfacet
  facet normal 0.278992 0 -0.960293
    outer loop
      vertex 8.35319 -5 5.99166
      vertex 8.73325 5 6.10207
      vertex 8.73325 -5 6.10207
    endloop
  endfacet
  facet normal 0.278992 0 -0.960293
    outer loop
      vertex 8.73325 5 6.10207
      vertex 8.35319 -5 5.99166
      vertex 8.35319 5 5.99166
    endloop
  endfacet
  facet normal 0.156436 0 -0.987688
    outer loop
      vertex 9.1195 -5 6.18841
      vertex 9.5104 5 6.25032
      vertex 9.5104 -5 6.25032
    endloop
  endfacet
  facet normal 0.156436 0 -0.987688
    outer loop
      vertex 9.5104 5 6.25032
      vertex 9.1195 -5 6.18841
      vertex 9.1195 5 6.18841
    endloop
  endfacet
  facet normal 0.338737 0 0.940881
    outer loop
      vertex 7.98081 5 -5.85759
      vertex 8.35319 -5 -5.99166
      vertex 8.35319 5 -5.99166
    endloop
  endfacet
  facet normal 0.338737 0 0.940881
    outer loop
      vertex 8.35319 -5 -5.99166
      vertex 7.98081 5 -5.85759
      vertex 7.98081 -5 -5.85759
    endloop
  endfacet
  facet normal 0.960293 -0 0.278992
    outer loop
      vertex 4.19793 -5 -1.56675
      vertex 4.30834 5 -1.94681
      vertex 4.19793 5 -1.56675
    endloop
  endfacet
  facet normal 0.960293 0 0.278992
    outer loop
      vertex 4.30834 5 -1.94681
      vertex 4.19793 -5 -1.56675
      vertex 4.30834 -5 -1.94681
    endloop
  endfacet
  facet normal 0.995562 -0 0.0941083
    outer loop
      vertex 4.01243 -5 -0.395579
      vertex 4.04968 5 -0.789598
      vertex 4.01243 5 -0.395579
    endloop
  endfacet
  facet normal 0.995562 0 0.0941083
    outer loop
      vertex 4.04968 5 -0.789598
      vertex 4.01243 -5 -0.395579
      vertex 4.04968 -5 -0.789598
    endloop
  endfacet
  facet normal 0.790155 -0 0.612907
    outer loop
      vertex 5.20319 -5 -3.70305
      vertex 5.44577 5 -4.01577
      vertex 5.20319 5 -3.70305
    endloop
  endfacet
  facet normal 0.790155 0 0.612907
    outer loop
      vertex 5.44577 5 -4.01577
      vertex 5.20319 -5 -3.70305
      vertex 5.44577 -5 -4.01577
    endloop
  endfacet
  facet normal 0.707108 -0 0.707106
    outer loop
      vertex 5.7075 -5 -4.31265
      vertex 5.98735 5 -4.5925
      vertex 5.7075 5 -4.31265
    endloop
  endfacet
  facet normal 0.707108 0 0.707106
    outer loop
      vertex 5.98735 5 -4.5925
      vertex 5.7075 -5 -4.31265
      vertex 5.98735 -5 -4.5925
    endloop
  endfacet
  facet normal 0.827081 -0 0.562083
    outer loop
      vertex 4.98073 -5 -3.37571
      vertex 5.20319 5 -3.70305
      vertex 4.98073 5 -3.37571
    endloop
  endfacet
  facet normal 0.827081 0 0.562083
    outer loop
      vertex 5.20319 5 -3.70305
      vertex 4.98073 -5 -3.37571
      vertex 5.20319 -5 -3.70305
    endloop
  endfacet
  facet normal 0.960293 0 -0.278992
    outer loop
      vertex 4.30834 -5 1.94681
      vertex 4.19793 5 1.56675
      vertex 4.30834 5 1.94681
    endloop
  endfacet
  facet normal 0.960293 0 -0.278992
    outer loop
      vertex 4.19793 5 1.56675
      vertex 4.30834 -5 1.94681
      vertex 4.19793 -5 1.56675
    endloop
  endfacet
  facet normal 0.975917 0 -0.218144
    outer loop
      vertex 4.19793 -5 1.56675
      vertex 4.11159 5 1.1805
      vertex 4.19793 5 1.56675
    endloop
  endfacet
  facet normal 0.975917 0 -0.218144
    outer loop
      vertex 4.11159 5 1.1805
      vertex 4.19793 -5 1.56675
      vertex 4.11159 -5 1.1805
    endloop
  endfacet
  facet normal 0.891007 0 -0.45399
    outer loop
      vertex 4.77927 -5 3.03505
      vertex 4.59959 5 2.68241
      vertex 4.77927 5 3.03505
    endloop
  endfacet
  facet normal 0.891007 0 -0.45399
    outer loop
      vertex 4.59959 5 2.68241
      vertex 4.77927 -5 3.03505
      vertex 4.59959 -5 2.68241
    endloop
  endfacet
  facet normal 0.156436 0 0.987688
    outer loop
      vertex 9.1195 5 -6.18841
      vertex 9.5104 -5 -6.25032
      vertex 9.5104 5 -6.25032
    endloop
  endfacet
  facet normal 0.156436 0 0.987688
    outer loop
      vertex 9.5104 -5 -6.25032
      vertex 9.1195 5 -6.18841
      vertex 9.1195 -5 -6.18841
    endloop
  endfacet
  facet normal 0.218142 0 0.975917
    outer loop
      vertex 8.73325 5 -6.10207
      vertex 9.1195 -5 -6.18841
      vertex 9.1195 5 -6.18841
    endloop
  endfacet
  facet normal 0.218142 0 0.975917
    outer loop
      vertex 9.1195 -5 -6.18841
      vertex 8.73325 5 -6.10207
      vertex 8.73325 -5 -6.10207
    endloop
  endfacet
  facet normal 0.940881 -0 0.338737
    outer loop
      vertex 4.30834 -5 -1.94681
      vertex 4.44241 5 -2.31918
      vertex 4.30834 5 -1.94681
    endloop
  endfacet
  facet normal 0.940881 0 0.338737
    outer loop
      vertex 4.44241 5 -2.31918
      vertex 4.30834 -5 -1.94681
      vertex 4.44241 -5 -2.31918
    endloop
  endfacet
  facet normal 0.987689 -0 0.156433
    outer loop
      vertex 4.04968 -5 -0.789598
      vertex 4.11159 5 -1.1805
      vertex 4.04968 5 -0.789598
    endloop
  endfacet
  facet normal 0.987689 0 0.156433
    outer loop
      vertex 4.11159 5 -1.1805
      vertex 4.04968 -5 -0.789598
      vertex 4.11159 -5 -1.1805
    endloop
  endfacet
  facet normal 0.661312 0 0.750111
    outer loop
      vertex 5.98735 5 -4.5925
      vertex 6.28423 -5 -4.85423
      vertex 6.28423 5 -4.85423
    endloop
  endfacet
  facet normal 0.661312 0 0.750111
    outer loop
      vertex 6.28423 -5 -4.85423
      vertex 5.98735 5 -4.5925
      vertex 5.98735 -5 -4.5925
    endloop
  endfacet
  facet normal 0.509042 0 0.860742
    outer loop
      vertex 6.92429 5 -5.31927
      vertex 7.26495 -5 -5.52073
      vertex 7.26495 5 -5.52073
    endloop
  endfacet
  facet normal 0.509042 0 0.860742
    outer loop
      vertex 7.26495 -5 -5.52073
      vertex 6.92429 5 -5.31927
      vertex 6.92429 -5 -5.31927
    endloop
  endfacet
  facet normal 0.891007 -0 0.45399
    outer loop
      vertex 4.59959 -5 -2.68241
      vertex 4.77927 5 -3.03505
      vertex 4.59959 5 -2.68241
    endloop
  endfacet
  facet normal 0.891007 0 0.45399
    outer loop
      vertex 4.77927 5 -3.03505
      vertex 4.59959 -5 -2.68241
      vertex 4.77927 -5 -3.03505
    endloop
  endfacet
  facet normal 0.562083 0 0.827081
    outer loop
      vertex 6.59695 5 -5.09681
      vertex 6.92429 -5 -5.31927
      vertex 6.92429 5 -5.31927
    endloop
  endfacet
  facet normal 0.562083 0 0.827081
    outer loop
      vertex 6.92429 -5 -5.31927
      vertex 6.59695 5 -5.09681
      vertex 6.59695 -5 -5.09681
    endloop
  endfacet
  facet normal 0.917754 -0 0.397148
    outer loop
      vertex 4.44241 -5 -2.31918
      vertex 4.59959 5 -2.68241
      vertex 4.44241 5 -2.31918
    endloop
  endfacet
  facet normal 0.917754 0 0.397148
    outer loop
      vertex 4.59959 5 -2.68241
      vertex 4.44241 -5 -2.31918
      vertex 4.59959 -5 -2.68241
    endloop
  endfacet
  facet normal 0.0941083 0 0.995562
    outer loop
      vertex 9.5104 5 -6.25032
      vertex 9.90442 -5 -6.28757
      vertex 9.90442 5 -6.28757
    endloop
  endfacet
  facet normal 0.0941083 0 0.995562
    outer loop
      vertex 9.90442 -5 -6.28757
      vertex 9.5104 5 -6.25032
      vertex 9.5104 -5 -6.25032
    endloop
  endfacet
  facet normal 0.0314096 0 0.999507
    outer loop
      vertex 9.90442 5 -6.28757
      vertex 10.3 -5 -6.3
      vertex 10.3 5 -6.3
    endloop
  endfacet
  facet normal 0.0314096 0 0.999507
    outer loop
      vertex 10.3 -5 -6.3
      vertex 9.90442 5 -6.28757
      vertex 9.90442 -5 -6.28757
    endloop
  endfacet
  facet normal 0.278992 0 0.960293
    outer loop
      vertex 8.35319 5 -5.99166
      vertex 8.73325 -5 -6.10207
      vertex 8.73325 5 -6.10207
    endloop
  endfacet
  facet normal 0.278992 0 0.960293
    outer loop
      vertex 8.73325 -5 -6.10207
      vertex 8.35319 5 -5.99166
      vertex 8.35319 -5 -5.99166
    endloop
  endfacet
  facet normal 0.45399 0 0.891007
    outer loop
      vertex 7.26495 5 -5.52073
      vertex 7.61759 -5 -5.70041
      vertex 7.61759 5 -5.70041
    endloop
  endfacet
  facet normal 0.45399 0 0.891007
    outer loop
      vertex 7.61759 -5 -5.70041
      vertex 7.26495 5 -5.52073
      vertex 7.26495 -5 -5.52073
    endloop
  endfacet
  facet normal 0.397148 0 0.917754
    outer loop
      vertex 7.61759 5 -5.70041
      vertex 7.98081 -5 -5.85759
      vertex 7.98081 5 -5.85759
    endloop
  endfacet
  facet normal 0.397148 0 0.917754
    outer loop
      vertex 7.98081 -5 -5.85759
      vertex 7.61759 5 -5.70041
      vertex 7.61759 -5 -5.70041
    endloop
  endfacet
  facet normal -1 0 0
    outer loop
      vertex 0 -5 -6.3
      vertex 0 5 6.3
      vertex 0 5 -6.3
    endloop
  endfacet
  facet normal -1 -0 0
    outer loop
      vertex 0 5 6.3
      vertex 0 -5 -6.3
      vertex 0 -5 6.3
    endloop
  endfacet
  facet normal 0 -1 0
    outer loop
      vertex 0.593749 -4.5 0.816878
      vertex 0.904755 -4.5 0.0878744
      vertex 0.904754 -4.5 0.816878
    endloop
  endfacet
  facet normal 0 -1 0
    outer loop
      vertex 3.12474 -4.5 0.0878754
      vertex 3.47374 -4.5 -0.280105
      vertex 3.47374 -4.5 0.0568695
    endloop
  endfacet
  facet normal 0 -1 -0
    outer loop
      vertex 3.12474 -4.5 0.0878754
      vertex 0.904755 -4.5 -0.280106
      vertex 3.47374 -4.5 -0.280105
    endloop
  endfacet
  facet normal 0 -1 0
    outer loop
      vertex 0.59375 -4.5 -0.976105
      vertex 0.904755 -4.5 0.0878744
      vertex 0.593749 -4.5 0.816878
    endloop
  endfacet
  facet normal 0 -1 -0
    outer loop
      vertex 0.904755 -4.5 0.0878744
      vertex 0.59375 -4.5 -0.976105
      vertex 0.904755 -4.5 -0.280106
    endloop
  endfacet
  facet normal 0 -1 -0
    outer loop
      vertex 0.904755 -4.5 -0.280106
      vertex 0.59375 -4.5 -0.976105
      vertex 0.904755 -4.5 -0.976105
    endloop
  endfacet
  facet normal 0 -1 0
    outer loop
      vertex 3.12474 -4.5 0.0878754
      vertex 2.98674 -4.5 0.733871
      vertex 2.64174 -4.5 0.733871
    endloop
  endfacet
  facet normal 0 -1 0
    outer loop
      vertex 3.12474 -4.5 0.0878754
      vertex 3.47374 -4.5 0.0568695
      vertex 2.98674 -4.5 0.733871
    endloop
  endfacet
  facet normal 0 -1 0
    outer loop
      vertex 0.904755 -4.5 -0.280106
      vertex 3.12474 -4.5 0.0878754
      vertex 0.904755 -4.5 0.0878744
    endloop
  endfacet
  facet normal -1 0 0
    outer loop
      vertex 0.904755 -5 -0.976105
      vertex 0.904755 -4.5 -0.280106
      vertex 0.904755 -4.5 -0.976105
    endloop
  endfacet
  facet normal -1 -0 0
    outer loop
      vertex 0.904755 -4.5 -0.280106
      vertex 0.904755 -5 -0.976105
      vertex 0.904755 -5 -0.280106
    endloop
  endfacet
  facet normal -3.71226e-07 0 1
    outer loop
      vertex 0.904755 -4.5 -0.280106
      vertex 3.47374 -5 -0.280105
      vertex 3.47374 -4.5 -0.280105
    endloop
  endfacet
  facet normal -3.71226e-07 0 1
    outer loop
      vertex 3.47374 -5 -0.280105
      vertex 0.904755 -4.5 -0.280106
      vertex 0.904755 -5 -0.280106
    endloop
  endfacet
  facet normal -1 0 0
    outer loop
      vertex 3.47374 -5 -0.280105
      vertex 3.47374 -4.5 0.0568695
      vertex 3.47374 -4.5 -0.280105
    endloop
  endfacet
  facet normal -1 -0 0
    outer loop
      vertex 3.47374 -4.5 0.0568695
      vertex 3.47374 -5 -0.280105
      vertex 3.47374 -5 0.0568695
    endloop
  endfacet
  facet normal -0.811786 0 -0.583956
    outer loop
      vertex 3.47374 -5 0.0568695
      vertex 2.98674 -4.5 0.733871
      vertex 3.47374 -4.5 0.0568695
    endloop
  endfacet
  facet normal -0.811786 -0 -0.583956
    outer loop
      vertex 2.98674 -4.5 0.733871
      vertex 3.47374 -5 0.0568695
      vertex 2.98674 -5 0.733871
    endloop
  endfacet
  facet normal 0 0 -1
    outer loop
      vertex 2.64174 -5 0.733871
      vertex 2.98674 -4.5 0.733871
      vertex 2.98674 -5 0.733871
    endloop
  endfacet
  facet normal -0 0 -1
    outer loop
      vertex 2.98674 -4.5 0.733871
      vertex 2.64174 -5 0.733871
      vertex 2.64174 -4.5 0.733871
    endloop
  endfacet
  facet normal 0.800889 -0 0.598813
    outer loop
      vertex 2.64174 -5 0.733871
      vertex 3.12474 -4.5 0.0878754
      vertex 2.64174 -4.5 0.733871
    endloop
  endfacet
  facet normal 0.800889 0 0.598813
    outer loop
      vertex 3.12474 -4.5 0.0878754
      vertex 2.64174 -5 0.733871
      vertex 3.12474 -5 0.0878754
    endloop
  endfacet
  facet normal 4.29586e-07 0 -1
    outer loop
      vertex 0.904755 -5 0.0878744
      vertex 3.12474 -4.5 0.0878754
      vertex 3.12474 -5 0.0878754
    endloop
  endfacet
  facet normal 4.29586e-07 0 -1
    outer loop
      vertex 3.12474 -4.5 0.0878754
      vertex 0.904755 -5 0.0878744
      vertex 0.904755 -4.5 0.0878744
    endloop
  endfacet
  facet normal -1 0 -1.30819e-06
    outer loop
      vertex 0.904754 -5 0.634627
      vertex 0.904755 -4.5 0.0878744
      vertex 0.904755 -5 0.0878744
    endloop
  endfacet
  facet normal -1 0 -1.30819e-06
    outer loop
      vertex 0.904755 -4.5 0.0878744
      vertex 0.904754 -5 0.634627
      vertex 0.904754 -4.5 0.816878
    endloop
  endfacet
  facet normal -1 -4.76837e-07 -0
    outer loop
      vertex 0.904754 -5 0.816878
      vertex 0.904754 -4.5 0.816878
      vertex 0.904754 -5 0.634627
    endloop
  endfacet
  facet normal 0 0 -1
    outer loop
      vertex 0.593749 -5 0.816878
      vertex 0.904754 -4.5 0.816878
      vertex 0.904754 -5 0.816878
    endloop
  endfacet
  facet normal -0 0 -1
    outer loop
      vertex 0.904754 -4.5 0.816878
      vertex 0.593749 -5 0.816878
      vertex 0.593749 -4.5 0.816878
    endloop
  endfacet
  facet normal 1 4.76837e-07 5.31893e-07
    outer loop
      vertex 0.59375 -5 -0.527859
      vertex 0.593749 -4.5 0.816878
      vertex 0.593749 -5 0.816878
    endloop
  endfacet
  facet normal 1 4.76837e-07 5.31893e-07
    outer loop
      vertex 0.593749 -4.5 0.816878
      vertex 0.59375 -5 -0.527859
      vertex 0.59375 -4.5 -0.976105
    endloop
  endfacet
  facet normal 1 0 0
    outer loop
      vertex 0.59375 -5 -0.527859
      vertex 0.59375 -5 -0.976105
      vertex 0.59375 -4.5 -0.976105
    endloop
  endfacet
  facet normal -0 0 1
    outer loop
      vertex 0.59375 -4.5 -0.976105
      vertex 0.904755 -5 -0.976105
      vertex 0.904755 -4.5 -0.976105
    endloop
  endfacet
  facet normal 0 0 1
    outer loop
      vertex 0.904755 -5 -0.976105
      vertex 0.59375 -4.5 -0.976105
      vertex 0.59375 -5 -0.976105
    endloop
  endfacet
endsolid OpenSCAD_Model
