solid OpenSCAD_Model
  facet normal -0 0 1
    outer loop
      vertex 0 5 7.8
      vertex 11.8 -5 7.8
      vertex 11.8 5 7.8
    endloop
  endfacet
  facet normal 0 0 1
    outer loop
      vertex 11.8 -5 7.8
      vertex 0 5 7.8
      vertex 0 -5 7.8
    endloop
  endfacet
  facet normal 0 0 -1
    outer loop
      vertex 0 -5 -7.8
      vertex 11.8 5 -7.8
      vertex 11.8 -5 -7.8
    endloop
  endfacet
  facet normal -0 0 -1
    outer loop
      vertex 11.8 5 -7.8
      vertex 0 -5 -7.8
      vertex 0 5 -7.8
    endloop
  endfacet
  facet normal 0 -1 0
    outer loop
      vertex 0 -5 7.8
      vertex 11.3102 -5 7.78461
      vertex 11.8 -5 7.8
    endloop
  endfacet
  facet normal 0 -1 0
    outer loop
      vertex 0 -5 7.8
      vertex 10.8224 -5 7.73849
      vertex 11.3102 -5 7.78461
    endloop
  endfacet
  facet normal 0 -1 0
    outer loop
      vertex 0 -5 7.8
      vertex 10.3384 -5 7.66184
      vertex 10.8224 -5 7.73849
    endloop
  endfacet
  facet normal 0 -1 0
    outer loop
      vertex 0 -5 7.8
      vertex 9.86022 -5 7.55495
      vertex 10.3384 -5 7.66184
    endloop
  endfacet
  facet normal 0 -1 0
    outer loop
      vertex 0 -5 7.8
      vertex 9.38967 -5 7.41824
      vertex 9.86022 -5 7.55495
    endloop
  endfacet
  facet normal 0 -1 0
    outer loop
      vertex 0 -5 7.8
      vertex 8.92863 -5 7.25226
      vertex 9.38967 -5 7.41824
    endloop
  endfacet
  facet normal 0 -1 0
    outer loop
      vertex 0 -5 7.8
      vertex 8.47892 -5 7.05765
      vertex 8.92863 -5 7.25226
    endloop
  endfacet
  facet normal 0 -1 0
    outer loop
      vertex 0 -5 7.8
      vertex 8.04232 -5 6.83519
      vertex 8.47892 -5 7.05765
    endloop
  endfacet
  facet normal 0 -1 0
    outer loop
      vertex 0 -5 7.8
      vertex 7.62055 -5 6.58576
      vertex 8.04232 -5 6.83519
    endloop
  endfacet
  facet normal 0 -1 0
    outer loop
      vertex 0 -5 7.8
      vertex 7.21527 -5 6.31033
      vertex 7.62055 -5 6.58576
    endloop
  endfacet
  facet normal 0 -1 0
    outer loop
      vertex 0 -5 7.8
      vertex 6.82809 -5 6.01
      vertex 7.21527 -5 6.31033
    endloop
  endfacet
  facet normal 0 -1 0
    outer loop
      vertex 0 -5 7.8
      vertex 6.46053 -5 5.68596
      vertex 6.82809 -5 6.01
    endloop
  endfacet
  facet normal 0 -1 0
    outer loop
      vertex 0 -5 7.8
      vertex 6.11404 -5 5.33947
      vertex 6.46053 -5 5.68596
    endloop
  endfacet
  facet normal 0 -1 0
    outer loop
      vertex 0 -5 7.8
      vertex 5.79 -5 4.97191
      vertex 6.11404 -5 5.33947
    endloop
  endfacet
  facet normal 0 -1 0
    outer loop
      vertex 0 -5 7.8
      vertex 5.48967 -5 4.58472
      vertex 5.79 -5 4.97191
    endloop
  endfacet
  facet normal 0 -1 0
    outer loop
      vertex 0 -5 7.8
      vertex 5.21424 -5 4.17945
      vertex 5.48967 -5 4.58472
    endloop
  endfacet
  facet normal 0 -1 0
    outer loop
      vertex 0 -5 7.8
      vertex 4.96481 -5 3.75768
      vertex 5.21424 -5 4.17945
    endloop
  endfacet
  facet normal 0 -1 0
    outer loop
      vertex 0 -5 7.8
      vertex 4.74235 -5 3.32108
      vertex 4.96481 -5 3.75768
    endloop
  endfacet
  facet normal 0 -1 0
    outer loop
      vertex 1.54976 -5 1.03488
      vertex 4.74235 -5 3.32108
      vertex 0 -5 7.8
    endloop
  endfacet
  facet normal 0 -1 0
    outer loop
      vertex 4.74235 -5 3.32108
      vertex 1.54976 -5 1.03488
      vertex 4.54774 -5 2.87137
    endloop
  endfacet
  facet normal 0 -1 0
    outer loop
      vertex 4.54774 -5 2.87137
      vertex 1.54976 -5 1.03488
      vertex 4.38176 -5 2.41033
    endloop
  endfacet
  facet normal 0 -1 0
    outer loop
      vertex 4.38176 -5 2.41033
      vertex 1.54976 -5 1.03488
      vertex 4.24505 -5 1.93978
    endloop
  endfacet
  facet normal 0 -1 0
    outer loop
      vertex 2.03075 -5 0.708634
      vertex 4.24505 -5 1.93978
      vertex 1.54976 -5 1.03488
    endloop
  endfacet
  facet normal 0 -1 0
    outer loop
      vertex 0 -5 7.8
      vertex 1.26576 -5 1.03488
      vertex 1.54976 -5 1.03488
    endloop
  endfacet
  facet normal 0 -1 0
    outer loop
      vertex 0.59375 -5 -0.306107
      vertex 1.26576 -5 1.03488
      vertex 0 -5 7.8
    endloop
  endfacet
  facet normal 0 -1 -0
    outer loop
      vertex 1.26576 -5 1.03488
      vertex 0.59375 -5 -0.306107
      vertex 1.26576 -5 0.0291402
    endloop
  endfacet
  facet normal 0 -1 0
    outer loop
      vertex 0 -5 7.8
      vertex 0.59375 -5 -0.652115
      vertex 0.59375 -5 -0.306107
    endloop
  endfacet
  facet normal 0 -1 0
    outer loop
      vertex 0.59375 -5 -0.652115
      vertex 1.26576 -5 -1.05411
      vertex 1.26576 -5 -0.652115
    endloop
  endfacet
  facet normal 0 -1 0
    outer loop
      vertex 0 -5 -7.8
      vertex 1.55376 -5 -1.05411
      vertex 1.26576 -5 -1.05411
    endloop
  endfacet
  facet normal 0 -1 0
    outer loop
      vertex 1.55376 -5 -1.05411
      vertex 4.24505 -5 -1.93978
      vertex 4.13816 -5 -1.46157
    endloop
  endfacet
  facet normal 0 -1 0
    outer loop
      vertex 1.55376 -5 -1.05411
      vertex 4.38176 -5 -2.41033
      vertex 4.24505 -5 -1.93978
    endloop
  endfacet
  facet normal 0 -1 0
    outer loop
      vertex 1.55376 -5 -1.05411
      vertex 4.54774 -5 -2.87137
      vertex 4.38176 -5 -2.41033
    endloop
  endfacet
  facet normal 0 -1 0
    outer loop
      vertex 1.55376 -5 -1.05411
      vertex 4.74235 -5 -3.32108
      vertex 4.54774 -5 -2.87137
    endloop
  endfacet
  facet normal 0 -1 0
    outer loop
      vertex 0 -5 -7.8
      vertex 1.26576 -5 -1.05411
      vertex 0.59375 -5 -0.652115
    endloop
  endfacet
  facet normal 0 -1 -0
    outer loop
      vertex 1.55376 -5 -1.05411
      vertex 0 -5 -7.8
      vertex 4.74235 -5 -3.32108
    endloop
  endfacet
  facet normal 0 -1 -0
    outer loop
      vertex 4.74235 -5 -3.32108
      vertex 0 -5 -7.8
      vertex 4.96481 -5 -3.75768
    endloop
  endfacet
  facet normal 0 -1 -0
    outer loop
      vertex 4.96481 -5 -3.75768
      vertex 0 -5 -7.8
      vertex 5.21424 -5 -4.17945
    endloop
  endfacet
  facet normal 0 -1 -0
    outer loop
      vertex 5.21424 -5 -4.17945
      vertex 0 -5 -7.8
      vertex 5.48967 -5 -4.58472
    endloop
  endfacet
  facet normal 0 -1 -0
    outer loop
      vertex 5.48967 -5 -4.58472
      vertex 0 -5 -7.8
      vertex 5.79 -5 -4.97191
    endloop
  endfacet
  facet normal 0 -1 -0
    outer loop
      vertex 5.79 -5 -4.97191
      vertex 0 -5 -7.8
      vertex 6.11404 -5 -5.33947
    endloop
  endfacet
  facet normal 0 -1 -0
    outer loop
      vertex 6.11404 -5 -5.33947
      vertex 0 -5 -7.8
      vertex 6.46053 -5 -5.68596
    endloop
  endfacet
  facet normal 0 -1 0
    outer loop
      vertex 0 -5 -7.8
      vertex 0.59375 -5 -0.652115
      vertex 0 -5 7.8
    endloop
  endfacet
  facet normal 0 -1 -0
    outer loop
      vertex 6.46053 -5 -5.68596
      vertex 0 -5 -7.8
      vertex 6.82809 -5 -6.01
    endloop
  endfacet
  facet normal 0 -1 0
    outer loop
      vertex 0 -5 -7.8
      vertex 7.21527 -5 -6.31033
      vertex 6.82809 -5 -6.01
    endloop
  endfacet
  facet normal 0 -1 0
    outer loop
      vertex 0 -5 -7.8
      vertex 7.62055 -5 -6.58576
      vertex 7.21527 -5 -6.31033
    endloop
  endfacet
  facet normal 0 -1 0
    outer loop
      vertex 0 -5 -7.8
      vertex 8.04232 -5 -6.83519
      vertex 7.62055 -5 -6.58576
    endloop
  endfacet
  facet normal 0 -1 0
    outer loop
      vertex 0 -5 -7.8
      vertex 8.47892 -5 -7.05765
      vertex 8.04232 -5 -6.83519
    endloop
  endfacet
  facet normal 0 -1 0
    outer loop
      vertex 0 -5 -7.8
      vertex 8.92863 -5 -7.25226
      vertex 8.47892 -5 -7.05765
    endloop
  endfacet
  facet normal 0 -1 0
    outer loop
      vertex 0 -5 -7.8
      vertex 9.38967 -5 -7.41824
      vertex 8.92863 -5 -7.25226
    endloop
  endfacet
  facet normal 0 -1 0
    outer loop
      vertex 0 -5 -7.8
      vertex 9.86022 -5 -7.55495
      vertex 9.38967 -5 -7.41824
    endloop
  endfacet
  facet normal 0 -1 0
    outer loop
      vertex 0 -5 -7.8
      vertex 10.3384 -5 -7.66184
      vertex 9.86022 -5 -7.55495
    endloop
  endfacet
  facet normal 0 -1 0
    outer loop
      vertex 0 -5 -7.8
      vertex 10.8224 -5 -7.73849
      vertex 10.3384 -5 -7.66184
    endloop
  endfacet
  facet normal 0 -1 0
    outer loop
      vertex 0 -5 -7.8
      vertex 11.3102 -5 -7.78461
      vertex 10.8224 -5 -7.73849
    endloop
  endfacet
  facet normal 0 -1 -0
    outer loop
      vertex 11.3102 -5 -7.78461
      vertex 0 -5 -7.8
      vertex 11.8 -5 -7.8
    endloop
  endfacet
  facet normal 0 -1 0
    outer loop
      vertex 4.24505 -5 1.93978
      vertex 2.03075 -5 0.708634
      vertex 4.13816 -5 1.46157
    endloop
  endfacet
  facet normal 0 -1 0
    outer loop
      vertex 4.13816 -5 1.46157
      vertex 2.03075 -5 0.708634
      vertex 4.06151 -5 0.977599
    endloop
  endfacet
  facet normal 0 -1 0
    outer loop
      vertex 2.03075 -5 0.708634
      vertex 4.01539 -5 0.489765
      vertex 4.06151 -5 0.977599
    endloop
  endfacet
  facet normal 0 -1 0
    outer loop
      vertex 3.47374 -5 -0.27011
      vertex 4.01539 -5 0.489765
      vertex 2.03075 -5 0.708634
    endloop
  endfacet
  facet normal 0 -1 0
    outer loop
      vertex 4.01539 -5 0.489765
      vertex 3.47374 -5 -0.27011
      vertex 4 -5 0
    endloop
  endfacet
  facet normal 0 -1 0
    outer loop
      vertex 3.47374 -5 -0.27011
      vertex 4.01539 -5 -0.489765
      vertex 4 -5 0
    endloop
  endfacet
  facet normal 0 -1 0
    outer loop
      vertex 3.47374 -5 -0.652114
      vertex 4.01539 -5 -0.489765
      vertex 3.47374 -5 -0.27011
    endloop
  endfacet
  facet normal 0 -1 0
    outer loop
      vertex 3.47374 -5 -0.652114
      vertex 4.06151 -5 -0.977599
      vertex 4.01539 -5 -0.489765
    endloop
  endfacet
  facet normal 0 -1 0
    outer loop
      vertex 1.55376 -5 -1.05411
      vertex 3.47374 -5 -0.652114
      vertex 1.55376 -5 -0.652115
    endloop
  endfacet
  facet normal 0 -1 0
    outer loop
      vertex 4.13816 -5 -1.46157
      vertex 3.47374 -5 -0.652114
      vertex 1.55376 -5 -1.05411
    endloop
  endfacet
  facet normal 0 -1 0
    outer loop
      vertex 3.47374 -5 -0.652114
      vertex 4.13816 -5 -1.46157
      vertex 4.06151 -5 -0.977599
    endloop
  endfacet
  facet normal 0 -1 -0
    outer loop
      vertex 1.26576 -5 0.0291402
      vertex 0.59375 -5 -0.306107
      vertex 1.26576 -5 -0.306107
    endloop
  endfacet
  facet normal 0 -1 0
    outer loop
      vertex 1.55376 -5 -0.0553629
      vertex 1.59375 -5 0.66487
      vertex 1.55376 -5 0.696868
    endloop
  endfacet
  facet normal 0 -1 0
    outer loop
      vertex 1.55376 -5 -0.0553629
      vertex 1.63125 -5 0.637622
      vertex 1.59375 -5 0.66487
    endloop
  endfacet
  facet normal 0 -1 0
    outer loop
      vertex 1.55376 -5 -0.0553629
      vertex 1.74376 -5 0.555877
      vertex 1.63125 -5 0.637622
    endloop
  endfacet
  facet normal 0 -1 0
    outer loop
      vertex 1.55376 -5 -0.0553629
      vertex 2.82074 -5 -0.171111
      vertex 1.74376 -5 0.555877
    endloop
  endfacet
  facet normal 0 -1 0
    outer loop
      vertex 1.55376 -5 -0.306107
      vertex 2.82074 -5 -0.171111
      vertex 1.55376 -5 -0.0553629
    endloop
  endfacet
  facet normal 0 -1 -0
    outer loop
      vertex 2.82074 -5 -0.171111
      vertex 1.55376 -5 -0.306107
      vertex 2.89763 -5 -0.21733
    endloop
  endfacet
  facet normal 0 -1 -0
    outer loop
      vertex 2.89763 -5 -0.21733
      vertex 1.55376 -5 -0.306107
      vertex 3.04453 -5 -0.298003
    endloop
  endfacet
  facet normal 0 -1 -0
    outer loop
      vertex 3.04453 -5 -0.298003
      vertex 1.55376 -5 -0.306107
      vertex 3.06174 -5 -0.306106
    endloop
  endfacet
  facet normal 0 1 -0
    outer loop
      vertex 11.3102 5 7.78461
      vertex 0 5 7.8
      vertex 11.8 5 7.8
    endloop
  endfacet
  facet normal 0 1 -0
    outer loop
      vertex 10.8224 5 7.73849
      vertex 0 5 7.8
      vertex 11.3102 5 7.78461
    endloop
  endfacet
  facet normal 0 1 -0
    outer loop
      vertex 10.3384 5 7.66184
      vertex 0 5 7.8
      vertex 10.8224 5 7.73849
    endloop
  endfacet
  facet normal 0 1 -0
    outer loop
      vertex 9.86022 5 7.55495
      vertex 0 5 7.8
      vertex 10.3384 5 7.66184
    endloop
  endfacet
  facet normal 0 1 -0
    outer loop
      vertex 9.38967 5 7.41824
      vertex 0 5 7.8
      vertex 9.86022 5 7.55495
    endloop
  endfacet
  facet normal 0 1 -0
    outer loop
      vertex 8.92863 5 7.25226
      vertex 0 5 7.8
      vertex 9.38967 5 7.41824
    endloop
  endfacet
  facet normal 0 1 -0
    outer loop
      vertex 8.47892 5 7.05765
      vertex 0 5 7.8
      vertex 8.92863 5 7.25226
    endloop
  endfacet
  facet normal 0 1 -0
    outer loop
      vertex 8.04232 5 6.83519
      vertex 0 5 7.8
      vertex 8.47892 5 7.05765
    endloop
  endfacet
  facet normal 0 1 -0
    outer loop
      vertex 7.62055 5 6.58576
      vertex 0 5 7.8
      vertex 8.04232 5 6.83519
    endloop
  endfacet
  facet normal 0 1 -0
    outer loop
      vertex 7.21527 5 6.31033
      vertex 0 5 7.8
      vertex 7.62055 5 6.58576
    endloop
  endfacet
  facet normal 0 1 -0
    outer loop
      vertex 6.82809 5 6.01
      vertex 0 5 7.8
      vertex 7.21527 5 6.31033
    endloop
  endfacet
  facet normal 0 1 -0
    outer loop
      vertex 6.46053 5 5.68596
      vertex 0 5 7.8
      vertex 6.82809 5 6.01
    endloop
  endfacet
  facet normal 0 1 -0
    outer loop
      vertex 6.11404 5 5.33947
      vertex 0 5 7.8
      vertex 6.46053 5 5.68596
    endloop
  endfacet
  facet normal 0 1 -0
    outer loop
      vertex 5.79 5 4.97191
      vertex 0 5 7.8
      vertex 6.11404 5 5.33947
    endloop
  endfacet
  facet normal 0 1 -0
    outer loop
      vertex 5.48967 5 4.58472
      vertex 0 5 7.8
      vertex 5.79 5 4.97191
    endloop
  endfacet
  facet normal 0 1 -0
    outer loop
      vertex 5.21424 5 4.17945
      vertex 0 5 7.8
      vertex 5.48967 5 4.58472
    endloop
  endfacet
  facet normal 0 1 -0
    outer loop
      vertex 4.96481 5 3.75768
      vertex 0 5 7.8
      vertex 5.21424 5 4.17945
    endloop
  endfacet
  facet normal 0 1 -0
    outer loop
      vertex 4.74235 5 3.32108
      vertex 0 5 7.8
      vertex 4.96481 5 3.75768
    endloop
  endfacet
  facet normal 0 1 -0
    outer loop
      vertex 4.54774 5 2.87137
      vertex 0 5 7.8
      vertex 4.74235 5 3.32108
    endloop
  endfacet
  facet normal 0 1 -0
    outer loop
      vertex 4.38176 5 2.41033
      vertex 0 5 7.8
      vertex 4.54774 5 2.87137
    endloop
  endfacet
  facet normal 0 1 -0
    outer loop
      vertex 4.24505 5 1.93978
      vertex 0 5 7.8
      vertex 4.38176 5 2.41033
    endloop
  endfacet
  facet normal 0 1 -0
    outer loop
      vertex 4.13816 5 1.46157
      vertex 0 5 7.8
      vertex 4.24505 5 1.93978
    endloop
  endfacet
  facet normal 0 1 -0
    outer loop
      vertex 4.06151 5 0.977599
      vertex 0 5 7.8
      vertex 4.13816 5 1.46157
    endloop
  endfacet
  facet normal 0 1 -0
    outer loop
      vertex 4.01539 5 0.489765
      vertex 0 5 7.8
      vertex 4.06151 5 0.977599
    endloop
  endfacet
  facet normal 0 1 -0
    outer loop
      vertex 4 5 0
      vertex 0 5 7.8
      vertex 4.01539 5 0.489765
    endloop
  endfacet
  facet normal 0 1 0
    outer loop
      vertex 0 5 -7.8
      vertex 4 5 0
      vertex 4.01539 5 -0.489765
    endloop
  endfacet
  facet normal 0 1 0
    outer loop
      vertex 0 5 -7.8
      vertex 4.01539 5 -0.489765
      vertex 4.06151 5 -0.977599
    endloop
  endfacet
  facet normal 0 1 0
    outer loop
      vertex 0 5 -7.8
      vertex 4.06151 5 -0.977599
      vertex 4.13816 5 -1.46157
    endloop
  endfacet
  facet normal 0 1 0
    outer loop
      vertex 0 5 -7.8
      vertex 4.13816 5 -1.46157
      vertex 4.24505 5 -1.93978
    endloop
  endfacet
  facet normal 0 1 0
    outer loop
      vertex 0 5 -7.8
      vertex 4.24505 5 -1.93978
      vertex 4.38176 5 -2.41033
    endloop
  endfacet
  facet normal 0 1 0
    outer loop
      vertex 0 5 -7.8
      vertex 4.38176 5 -2.41033
      vertex 4.54774 5 -2.87137
    endloop
  endfacet
  facet normal 0 1 0
    outer loop
      vertex 4 5 0
      vertex 0 5 -7.8
      vertex 0 5 7.8
    endloop
  endfacet
  facet normal 0 1 0
    outer loop
      vertex 4.74235 5 -3.32108
      vertex 0 5 -7.8
      vertex 4.54774 5 -2.87137
    endloop
  endfacet
  facet normal 0 1 0
    outer loop
      vertex 4.96481 5 -3.75768
      vertex 0 5 -7.8
      vertex 4.74235 5 -3.32108
    endloop
  endfacet
  facet normal 0 1 0
    outer loop
      vertex 5.21424 5 -4.17945
      vertex 0 5 -7.8
      vertex 4.96481 5 -3.75768
    endloop
  endfacet
  facet normal 0 1 0
    outer loop
      vertex 5.48967 5 -4.58472
      vertex 0 5 -7.8
      vertex 5.21424 5 -4.17945
    endloop
  endfacet
  facet normal 0 1 0
    outer loop
      vertex 5.79 5 -4.97191
      vertex 0 5 -7.8
      vertex 5.48967 5 -4.58472
    endloop
  endfacet
  facet normal 0 1 0
    outer loop
      vertex 6.11404 5 -5.33947
      vertex 0 5 -7.8
      vertex 5.79 5 -4.97191
    endloop
  endfacet
  facet normal 0 1 0
    outer loop
      vertex 6.46053 5 -5.68596
      vertex 0 5 -7.8
      vertex 6.11404 5 -5.33947
    endloop
  endfacet
  facet normal 0 1 0
    outer loop
      vertex 6.82809 5 -6.01
      vertex 0 5 -7.8
      vertex 6.46053 5 -5.68596
    endloop
  endfacet
  facet normal 0 1 0
    outer loop
      vertex 7.21527 5 -6.31033
      vertex 0 5 -7.8
      vertex 6.82809 5 -6.01
    endloop
  endfacet
  facet normal 0 1 0
    outer loop
      vertex 7.62055 5 -6.58576
      vertex 0 5 -7.8
      vertex 7.21527 5 -6.31033
    endloop
  endfacet
  facet normal 0 1 0
    outer loop
      vertex 8.04232 5 -6.83519
      vertex 0 5 -7.8
      vertex 7.62055 5 -6.58576
    endloop
  endfacet
  facet normal 0 1 0
    outer loop
      vertex 8.47892 5 -7.05765
      vertex 0 5 -7.8
      vertex 8.04232 5 -6.83519
    endloop
  endfacet
  facet normal 0 1 0
    outer loop
      vertex 8.92863 5 -7.25226
      vertex 0 5 -7.8
      vertex 8.47892 5 -7.05765
    endloop
  endfacet
  facet normal 0 1 0
    outer loop
      vertex 9.38967 5 -7.41824
      vertex 0 5 -7.8
      vertex 8.92863 5 -7.25226
    endloop
  endfacet
  facet normal 0 1 0
    outer loop
      vertex 9.86022 5 -7.55495
      vertex 0 5 -7.8
      vertex 9.38967 5 -7.41824
    endloop
  endfacet
  facet normal 0 1 0
    outer loop
      vertex 10.3384 5 -7.66184
      vertex 0 5 -7.8
      vertex 9.86022 5 -7.55495
    endloop
  endfacet
  facet normal 0 1 0
    outer loop
      vertex 10.8224 5 -7.73849
      vertex 0 5 -7.8
      vertex 10.3384 5 -7.66184
    endloop
  endfacet
  facet normal 0 1 0
    outer loop
      vertex 11.3102 5 -7.78461
      vertex 0 5 -7.8
      vertex 10.8224 5 -7.73849
    endloop
  endfacet
  facet normal 0 1 0
    outer loop
      vertex 0 5 -7.8
      vertex 11.3102 5 -7.78461
      vertex 11.8 5 -7.8
    endloop
  endfacet
  facet normal 0.999507 0 -0.0314105
    outer loop
      vertex 4.01539 -5 0.489765
      vertex 4 5 0
      vertex 4.01539 5 0.489765
    endloop
  endfacet
  facet normal 0.999507 0 -0.0314105
    outer loop
      vertex 4 5 0
      vertex 4.01539 -5 0.489765
      vertex 4 -5 0
    endloop
  endfacet
  facet normal 0.0314104 0 -0.999507
    outer loop
      vertex 11.3102 -5 7.78461
      vertex 11.8 5 7.8
      vertex 11.8 -5 7.8
    endloop
  endfacet
  facet normal 0.0314104 0 -0.999507
    outer loop
      vertex 11.8 5 7.8
      vertex 11.3102 -5 7.78461
      vertex 11.3102 5 7.78461
    endloop
  endfacet
  facet normal 0.827081 0 -0.562083
    outer loop
      vertex 5.48967 -5 4.58472
      vertex 5.21424 5 4.17945
      vertex 5.48967 5 4.58472
    endloop
  endfacet
  facet normal 0.827081 0 -0.562083
    outer loop
      vertex 5.21424 5 4.17945
      vertex 5.48967 -5 4.58472
      vertex 5.21424 -5 4.17945
    endloop
  endfacet
  facet normal 0.707107 0 -0.707107
    outer loop
      vertex 6.46053 -5 5.68596
      vertex 6.11404 5 5.33947
      vertex 6.46053 5 5.68596
    endloop
  endfacet
  facet normal 0.707107 0 -0.707107
    outer loop
      vertex 6.11404 5 5.33947
      vertex 6.46053 -5 5.68596
      vertex 6.11404 -5 5.33947
    endloop
  endfacet
  facet normal 0.156433 0 -0.987689
    outer loop
      vertex 10.3384 -5 7.66184
      vertex 10.8224 5 7.73849
      vertex 10.8224 -5 7.73849
    endloop
  endfacet
  facet normal 0.156433 0 -0.987689
    outer loop
      vertex 10.8224 5 7.73849
      vertex 10.3384 -5 7.66184
      vertex 10.3384 5 7.66184
    endloop
  endfacet
  facet normal 0.453991 0 -0.891006
    outer loop
      vertex 8.04232 -5 6.83519
      vertex 8.47892 5 7.05765
      vertex 8.47892 -5 7.05765
    endloop
  endfacet
  facet normal 0.453991 0 -0.891006
    outer loop
      vertex 8.47892 5 7.05765
      vertex 8.04232 -5 6.83519
      vertex 8.04232 5 6.83519
    endloop
  endfacet
  facet normal 0.218144 0 -0.975917
    outer loop
      vertex 9.86022 -5 7.55495
      vertex 10.3384 5 7.66184
      vertex 10.3384 -5 7.66184
    endloop
  endfacet
  facet normal 0.218144 0 -0.975917
    outer loop
      vertex 10.3384 5 7.66184
      vertex 9.86022 -5 7.55495
      vertex 9.86022 5 7.55495
    endloop
  endfacet
  facet normal 0.860742 0 -0.509042
    outer loop
      vertex 5.21424 -5 4.17945
      vertex 4.96481 5 3.75768
      vertex 5.21424 5 4.17945
    endloop
  endfacet
  facet normal 0.860742 0 -0.509042
    outer loop
      vertex 4.96481 5 3.75768
      vertex 5.21424 -5 4.17945
      vertex 4.96481 -5 3.75768
    endloop
  endfacet
  facet normal 0.975917 0 -0.218143
    outer loop
      vertex 4.24505 -5 1.93978
      vertex 4.13816 5 1.46157
      vertex 4.24505 5 1.93978
    endloop
  endfacet
  facet normal 0.975917 0 -0.218143
    outer loop
      vertex 4.13816 5 1.46157
      vertex 4.24505 -5 1.93978
      vertex 4.13816 -5 1.46157
    endloop
  endfacet
  facet normal 0.509041 0 -0.860742
    outer loop
      vertex 7.62055 -5 6.58576
      vertex 8.04232 5 6.83519
      vertex 8.04232 -5 6.83519
    endloop
  endfacet
  facet normal 0.509041 0 -0.860742
    outer loop
      vertex 8.04232 5 6.83519
      vertex 7.62055 -5 6.58576
      vertex 7.62055 5 6.58576
    endloop
  endfacet
  facet normal 0.612907 0 -0.790155
    outer loop
      vertex 6.82809 -5 6.01
      vertex 7.21527 5 6.31033
      vertex 7.21527 -5 6.31033
    endloop
  endfacet
  facet normal 0.612907 0 -0.790155
    outer loop
      vertex 7.21527 5 6.31033
      vertex 6.82809 -5 6.01
      vertex 6.82809 5 6.01
    endloop
  endfacet
  facet normal 0.562084 0 -0.82708
    outer loop
      vertex 7.21527 -5 6.31033
      vertex 7.62055 5 6.58576
      vertex 7.62055 -5 6.58576
    endloop
  endfacet
  facet normal 0.562084 0 -0.82708
    outer loop
      vertex 7.62055 5 6.58576
      vertex 7.21527 -5 6.31033
      vertex 7.21527 5 6.31033
    endloop
  endfacet
  facet normal 0.27899 0 -0.960294
    outer loop
      vertex 9.38967 -5 7.41824
      vertex 9.86022 5 7.55495
      vertex 9.86022 -5 7.55495
    endloop
  endfacet
  facet normal 0.27899 0 -0.960294
    outer loop
      vertex 9.86022 5 7.55495
      vertex 9.38967 -5 7.41824
      vertex 9.38967 5 7.41824
    endloop
  endfacet
  facet normal 0.960293 0 -0.278992
    outer loop
      vertex 4.38176 -5 2.41033
      vertex 4.24505 5 1.93978
      vertex 4.38176 5 2.41033
    endloop
  endfacet
  facet normal 0.960293 0 -0.278992
    outer loop
      vertex 4.24505 5 1.93978
      vertex 4.38176 -5 2.41033
      vertex 4.24505 -5 1.93978
    endloop
  endfacet
  facet normal 0.917754 0 -0.397148
    outer loop
      vertex 4.74235 -5 3.32108
      vertex 4.54774 5 2.87137
      vertex 4.74235 5 3.32108
    endloop
  endfacet
  facet normal 0.917754 0 -0.397148
    outer loop
      vertex 4.54774 5 2.87137
      vertex 4.74235 -5 3.32108
      vertex 4.54774 -5 2.87137
    endloop
  endfacet
  facet normal 0.661312 0 -0.750111
    outer loop
      vertex 6.46053 -5 5.68596
      vertex 6.82809 5 6.01
      vertex 6.82809 -5 6.01
    endloop
  endfacet
  facet normal 0.661312 0 -0.750111
    outer loop
      vertex 6.82809 5 6.01
      vertex 6.46053 -5 5.68596
      vertex 6.46053 5 5.68596
    endloop
  endfacet
  facet normal 0.397148 0 -0.917754
    outer loop
      vertex 8.47892 -5 7.05765
      vertex 8.92863 5 7.25226
      vertex 8.92863 -5 7.25226
    endloop
  endfacet
  facet normal 0.397148 0 -0.917754
    outer loop
      vertex 8.92863 5 7.25226
      vertex 8.47892 -5 7.05765
      vertex 8.47892 5 7.05765
    endloop
  endfacet
  facet normal 0.338738 0 -0.940881
    outer loop
      vertex 8.92863 -5 7.25226
      vertex 9.38967 5 7.41824
      vertex 9.38967 -5 7.41824
    endloop
  endfacet
  facet normal 0.338738 0 -0.940881
    outer loop
      vertex 9.38967 5 7.41824
      vertex 8.92863 -5 7.25226
      vertex 8.92863 5 7.25226
    endloop
  endfacet
  facet normal 0.0941087 0 -0.995562
    outer loop
      vertex 10.8224 -5 7.73849
      vertex 11.3102 5 7.78461
      vertex 11.3102 -5 7.78461
    endloop
  endfacet
  facet normal 0.0941087 0 -0.995562
    outer loop
      vertex 11.3102 5 7.78461
      vertex 10.8224 -5 7.73849
      vertex 10.8224 5 7.73849
    endloop
  endfacet
  facet normal 0.27899 0 0.960294
    outer loop
      vertex 9.38967 5 -7.41824
      vertex 9.86022 -5 -7.55495
      vertex 9.86022 5 -7.55495
    endloop
  endfacet
  facet normal 0.27899 0 0.960294
    outer loop
      vertex 9.86022 -5 -7.55495
      vertex 9.38967 5 -7.41824
      vertex 9.38967 -5 -7.41824
    endloop
  endfacet
  facet normal 0.987689 0 -0.156433
    outer loop
      vertex 4.13816 -5 1.46157
      vertex 4.06151 5 0.977599
      vertex 4.13816 5 1.46157
    endloop
  endfacet
  facet normal 0.987689 0 -0.156433
    outer loop
      vertex 4.06151 5 0.977599
      vertex 4.13816 -5 1.46157
      vertex 4.06151 -5 0.977599
    endloop
  endfacet
  facet normal 0.995562 0 -0.0941085
    outer loop
      vertex 4.06151 -5 0.977599
      vertex 4.01539 5 0.489765
      vertex 4.06151 5 0.977599
    endloop
  endfacet
  facet normal 0.995562 0 -0.0941085
    outer loop
      vertex 4.01539 5 0.489765
      vertex 4.06151 -5 0.977599
      vertex 4.01539 -5 0.489765
    endloop
  endfacet
  facet normal 0.891006 0 -0.453991
    outer loop
      vertex 4.96481 -5 3.75768
      vertex 4.74235 5 3.32108
      vertex 4.96481 5 3.75768
    endloop
  endfacet
  facet normal 0.891006 0 -0.453991
    outer loop
      vertex 4.74235 5 3.32108
      vertex 4.96481 -5 3.75768
      vertex 4.74235 -5 3.32108
    endloop
  endfacet
  facet normal 0.750111 0 -0.661312
    outer loop
      vertex 6.11404 -5 5.33947
      vertex 5.79 5 4.97191
      vertex 6.11404 5 5.33947
    endloop
  endfacet
  facet normal 0.750111 0 -0.661312
    outer loop
      vertex 5.79 5 4.97191
      vertex 6.11404 -5 5.33947
      vertex 5.79 -5 4.97191
    endloop
  endfacet
  facet normal 0.790155 0 -0.612907
    outer loop
      vertex 5.79 -5 4.97191
      vertex 5.48967 5 4.58472
      vertex 5.79 5 4.97191
    endloop
  endfacet
  facet normal 0.790155 0 -0.612907
    outer loop
      vertex 5.48967 5 4.58472
      vertex 5.79 -5 4.97191
      vertex 5.48967 -5 4.58472
    endloop
  endfacet
  facet normal 0.940881 0 -0.338737
    outer loop
      vertex 4.54774 -5 2.87137
      vertex 4.38176 5 2.41033
      vertex 4.54774 5 2.87137
    endloop
  endfacet
  facet normal 0.940881 0 -0.338737
    outer loop
      vertex 4.38176 5 2.41033
      vertex 4.54774 -5 2.87137
      vertex 4.38176 -5 2.41033
    endloop
  endfacet
  facet normal 0.218144 0 0.975917
    outer loop
      vertex 9.86022 5 -7.55495
      vertex 10.3384 -5 -7.66184
      vertex 10.3384 5 -7.66184
    endloop
  endfacet
  facet normal 0.218144 0 0.975917
    outer loop
      vertex 10.3384 -5 -7.66184
      vertex 9.86022 5 -7.55495
      vertex 9.86022 -5 -7.55495
    endloop
  endfacet
  facet normal 0.975917 -0 0.218143
    outer loop
      vertex 4.13816 -5 -1.46157
      vertex 4.24505 5 -1.93978
      vertex 4.13816 5 -1.46157
    endloop
  endfacet
  facet normal 0.975917 0 0.218143
    outer loop
      vertex 4.24505 5 -1.93978
      vertex 4.13816 -5 -1.46157
      vertex 4.24505 -5 -1.93978
    endloop
  endfacet
  facet normal 0.509041 0 0.860742
    outer loop
      vertex 7.62055 5 -6.58576
      vertex 8.04232 -5 -6.83519
      vertex 8.04232 5 -6.83519
    endloop
  endfacet
  facet normal 0.509041 0 0.860742
    outer loop
      vertex 8.04232 -5 -6.83519
      vertex 7.62055 5 -6.58576
      vertex 7.62055 -5 -6.58576
    endloop
  endfacet
  facet normal 0.397148 0 0.917754
    outer loop
      vertex 8.47892 5 -7.05765
      vertex 8.92863 -5 -7.25226
      vertex 8.92863 5 -7.25226
    endloop
  endfacet
  facet normal 0.397148 0 0.917754
    outer loop
      vertex 8.92863 -5 -7.25226
      vertex 8.47892 5 -7.05765
      vertex 8.47892 -5 -7.05765
    endloop
  endfacet
  facet normal 0.827081 -0 0.562083
    outer loop
      vertex 5.21424 -5 -4.17945
      vertex 5.48967 5 -4.58472
      vertex 5.21424 5 -4.17945
    endloop
  endfacet
  facet normal 0.827081 0 0.562083
    outer loop
      vertex 5.48967 5 -4.58472
      vertex 5.21424 -5 -4.17945
      vertex 5.48967 -5 -4.58472
    endloop
  endfacet
  facet normal 0.891006 -0 0.453991
    outer loop
      vertex 4.74235 -5 -3.32108
      vertex 4.96481 5 -3.75768
      vertex 4.74235 5 -3.32108
    endloop
  endfacet
  facet normal 0.891006 0 0.453991
    outer loop
      vertex 4.96481 5 -3.75768
      vertex 4.74235 -5 -3.32108
      vertex 4.96481 -5 -3.75768
    endloop
  endfacet
  facet normal 0.860742 -0 0.509042
    outer loop
      vertex 4.96481 -5 -3.75768
      vertex 5.21424 5 -4.17945
      vertex 4.96481 5 -3.75768
    endloop
  endfacet
  facet normal 0.860742 0 0.509042
    outer loop
      vertex 5.21424 5 -4.17945
      vertex 4.96481 -5 -3.75768
      vertex 5.21424 -5 -4.17945
    endloop
  endfacet
  facet normal 0.940881 -0 0.338737
    outer loop
      vertex 4.38176 -5 -2.41033
      vertex 4.54774 5 -2.87137
      vertex 4.38176 5 -2.41033
    endloop
  endfacet
  facet normal 0.940881 0 0.338737
    outer loop
      vertex 4.54774 5 -2.87137
      vertex 4.38176 -5 -2.41033
      vertex 4.54774 -5 -2.87137
    endloop
  endfacet
  facet normal 0.156433 0 0.987689
    outer loop
      vertex 10.3384 5 -7.66184
      vertex 10.8224 -5 -7.73849
      vertex 10.8224 5 -7.73849
    endloop
  endfacet
  facet normal 0.156433 0 0.987689
    outer loop
      vertex 10.8224 -5 -7.73849
      vertex 10.3384 5 -7.66184
      vertex 10.3384 -5 -7.66184
    endloop
  endfacet
  facet normal 0.999507 -0 0.0314105
    outer loop
      vertex 4 -5 0
      vertex 4.01539 5 -0.489765
      vertex 4 5 0
    endloop
  endfacet
  facet normal 0.999507 0 0.0314105
    outer loop
      vertex 4.01539 5 -0.489765
      vertex 4 -5 0
      vertex 4.01539 -5 -0.489765
    endloop
  endfacet
  facet normal 0.960293 -0 0.278992
    outer loop
      vertex 4.24505 -5 -1.93978
      vertex 4.38176 5 -2.41033
      vertex 4.24505 5 -1.93978
    endloop
  endfacet
  facet normal 0.960293 0 0.278992
    outer loop
      vertex 4.38176 5 -2.41033
      vertex 4.24505 -5 -1.93978
      vertex 4.38176 -5 -2.41033
    endloop
  endfacet
  facet normal 0.707107 -0 0.707107
    outer loop
      vertex 6.11404 -5 -5.33947
      vertex 6.46053 5 -5.68596
      vertex 6.11404 5 -5.33947
    endloop
  endfacet
  facet normal 0.707107 0 0.707107
    outer loop
      vertex 6.46053 5 -5.68596
      vertex 6.11404 -5 -5.33947
      vertex 6.46053 -5 -5.68596
    endloop
  endfacet
  facet normal 0.661312 0 0.750111
    outer loop
      vertex 6.46053 5 -5.68596
      vertex 6.82809 -5 -6.01
      vertex 6.82809 5 -6.01
    endloop
  endfacet
  facet normal 0.661312 0 0.750111
    outer loop
      vertex 6.82809 -5 -6.01
      vertex 6.46053 5 -5.68596
      vertex 6.46053 -5 -5.68596
    endloop
  endfacet
  facet normal 0.453991 0 0.891006
    outer loop
      vertex 8.04232 5 -6.83519
      vertex 8.47892 -5 -7.05765
      vertex 8.47892 5 -7.05765
    endloop
  endfacet
  facet normal 0.453991 0 0.891006
    outer loop
      vertex 8.47892 -5 -7.05765
      vertex 8.04232 5 -6.83519
      vertex 8.04232 -5 -6.83519
    endloop
  endfacet
  facet normal 0.338738 0 0.940881
    outer loop
      vertex 8.92863 5 -7.25226
      vertex 9.38967 -5 -7.41824
      vertex 9.38967 5 -7.41824
    endloop
  endfacet
  facet normal 0.338738 0 0.940881
    outer loop
      vertex 9.38967 -5 -7.41824
      vertex 8.92863 5 -7.25226
      vertex 8.92863 -5 -7.25226
    endloop
  endfacet
  facet normal 0.750111 -0 0.661312
    outer loop
      vertex 5.79 -5 -4.97191
      vertex 6.11404 5 -5.33947
      vertex 5.79 5 -4.97191
    endloop
  endfacet
  facet normal 0.750111 0 0.661312
    outer loop
      vertex 6.11404 5 -5.33947
      vertex 5.79 -5 -4.97191
      vertex 6.11404 -5 -5.33947
    endloop
  endfacet
  facet normal 0.917754 -0 0.397148
    outer loop
      vertex 4.54774 -5 -2.87137
      vertex 4.74235 5 -3.32108
      vertex 4.54774 5 -2.87137
    endloop
  endfacet
  facet normal 0.917754 0 0.397148
    outer loop
      vertex 4.74235 5 -3.32108
      vertex 4.54774 -5 -2.87137
      vertex 4.74235 -5 -3.32108
    endloop
  endfacet
  facet normal 0.995562 -0 0.0941085
    outer loop
      vertex 4.01539 -5 -0.489765
      vertex 4.06151 5 -0.977599
      vertex 4.01539 5 -0.489765
    endloop
  endfacet
  facet normal 0.995562 0 0.0941085
    outer loop
      vertex 4.06151 5 -0.977599
      vertex 4.01539 -5 -0.489765
      vertex 4.06151 -5 -0.977599
    endloop
  endfacet
  facet normal 0.987689 -0 0.156433
    outer loop
      vertex 4.06151 -5 -0.977599
      vertex 4.13816 5 -1.46157
      vertex 4.06151 5 -0.977599
    endloop
  endfacet
  facet normal 0.987689 0 0.156433
    outer loop
      vertex 4.13816 5 -1.46157
      vertex 4.06151 -5 -0.977599
      vertex 4.13816 -5 -1.46157
    endloop
  endfacet
  facet normal 0.612907 0 0.790155
    outer loop
      vertex 6.82809 5 -6.01
      vertex 7.21527 -5 -6.31033
      vertex 7.21527 5 -6.31033
    endloop
  endfacet
  facet normal 0.612907 0 0.790155
    outer loop
      vertex 7.21527 -5 -6.31033
      vertex 6.82809 5 -6.01
      vertex 6.82809 -5 -6.01
    endloop
  endfacet
  facet normal 0.562084 0 0.82708
    outer loop
      vertex 7.21527 5 -6.31033
      vertex 7.62055 -5 -6.58576
      vertex 7.62055 5 -6.58576
    endloop
  endfacet
  facet normal 0.562084 0 0.82708
    outer loop
      vertex 7.62055 -5 -6.58576
      vertex 7.21527 5 -6.31033
      vertex 7.21527 -5 -6.31033
    endloop
  endfacet
  facet normal 0.790155 -0 0.612907
    outer loop
      vertex 5.48967 -5 -4.58472
      vertex 5.79 5 -4.97191
      vertex 5.48967 5 -4.58472
    endloop
  endfacet
  facet normal 0.790155 0 0.612907
    outer loop
      vertex 5.79 5 -4.97191
      vertex 5.48967 -5 -4.58472
      vertex 5.79 -5 -4.97191
    endloop
  endfacet
  facet normal 0.0941087 0 0.995562
    outer loop
      vertex 10.8224 5 -7.73849
      vertex 11.3102 -5 -7.78461
      vertex 11.3102 5 -7.78461
    endloop
  endfacet
  facet normal 0.0941087 0 0.995562
    outer loop
      vertex 11.3102 -5 -7.78461
      vertex 10.8224 5 -7.73849
      vertex 10.8224 -5 -7.73849
    endloop
  endfacet
  facet normal 0.0314104 0 0.999507
    outer loop
      vertex 11.3102 5 -7.78461
      vertex 11.8 -5 -7.8
      vertex 11.8 5 -7.8
    endloop
  endfacet
  facet normal 0.0314104 0 0.999507
    outer loop
      vertex 11.8 -5 -7.8
      vertex 11.3102 5 -7.78461
      vertex 11.3102 -5 -7.78461
    endloop
  endfacet
  facet normal -1 0 0
    outer loop
      vertex 0 -5 -7.8
      vertex 0 5 7.8
      vertex 0 5 -7.8
    endloop
  endfacet
  facet normal -1 -0 0
    outer loop
      vertex 0 5 7.8
      vertex 0 -5 -7.8
      vertex 0 -5 7.8
    endloop
  endfacet
  facet normal 0 -1 0
    outer loop
      vertex 1.26576 -4.5 -0.652115
      vertex 1.26576 -4.5 -0.306107
      vertex 0.59375 -4.5 -0.306107
    endloop
  endfacet
  facet normal 0 -1 0
    outer loop
      vertex 1.26576 -4.5 -0.306107
      vertex 1.26576 -4.5 -0.652115
      vertex 1.55376 -4.5 -0.306107
    endloop
  endfacet
  facet normal 0 -1 0
    outer loop
      vertex 1.26576 -4.5 -0.652115
      vertex 0.59375 -4.5 -0.306107
      vertex 0.59375 -4.5 -0.652115
    endloop
  endfacet
  facet normal 0 -1 -0
    outer loop
      vertex 1.55376 -4.5 -0.306107
      vertex 1.26576 -4.5 -0.652115
      vertex 1.55376 -4.5 -0.652115
    endloop
  endfacet
  facet normal 0 -1 0
    outer loop
      vertex 1.55376 -4.5 -0.306107
      vertex 1.55376 -4.5 -0.652115
      vertex 3.47374 -4.5 -0.652114
    endloop
  endfacet
  facet normal 0 -1 0
    outer loop
      vertex 1.26576 -4.5 -1.05411
      vertex 1.55376 -4.5 -0.652115
      vertex 1.26576 -4.5 -0.652115
    endloop
  endfacet
  facet normal 0 -1 -0
    outer loop
      vertex 1.55376 -4.5 -0.652115
      vertex 1.26576 -4.5 -1.05411
      vertex 1.55376 -4.5 -1.05411
    endloop
  endfacet
  facet normal 0 -1 0
    outer loop
      vertex 1.26576 -4.5 -0.306107
      vertex 1.55376 -4.5 0.696868
      vertex 1.26576 -4.5 1.03488
    endloop
  endfacet
  facet normal 0 -1 -0
    outer loop
      vertex 1.55376 -4.5 0.696868
      vertex 1.26576 -4.5 -0.306107
      vertex 1.55376 -4.5 -0.306107
    endloop
  endfacet
  facet normal 0 -1 0
    outer loop
      vertex 1.55376 -4.5 0.696868
      vertex 1.54976 -4.5 1.03488
      vertex 1.26576 -4.5 1.03488
    endloop
  endfacet
  facet normal 0 -1 0
    outer loop
      vertex 1.59375 -4.5 0.66487
      vertex 1.54976 -4.5 1.03488
      vertex 1.55376 -4.5 0.696868
    endloop
  endfacet
  facet normal 0 -1 0
    outer loop
      vertex 1.74376 -4.5 0.555877
      vertex 1.54976 -4.5 1.03488
      vertex 1.59375 -4.5 0.66487
    endloop
  endfacet
  facet normal 0 -1 0
    outer loop
      vertex 2.82074 -4.5 -0.171111
      vertex 1.54976 -4.5 1.03488
      vertex 1.74376 -4.5 0.555877
    endloop
  endfacet
  facet normal 0 -1 0
    outer loop
      vertex 3.47374 -4.5 -0.27011
      vertex 2.82074 -4.5 -0.171111
      vertex 2.89763 -4.5 -0.21733
    endloop
  endfacet
  facet normal 0 -1 0
    outer loop
      vertex 2.82074 -4.5 -0.171111
      vertex 3.47374 -4.5 -0.27011
      vertex 1.54976 -4.5 1.03488
    endloop
  endfacet
  facet normal 0 -1 0
    outer loop
      vertex 3.04453 -4.5 -0.298003
      vertex 3.47374 -4.5 -0.27011
      vertex 2.89763 -4.5 -0.21733
    endloop
  endfacet
  facet normal 0 -1 0
    outer loop
      vertex 3.06174 -4.5 -0.306106
      vertex 3.47374 -4.5 -0.27011
      vertex 3.04453 -4.5 -0.298003
    endloop
  endfacet
  facet normal 0 -1 0
    outer loop
      vertex 3.06174 -4.5 -0.306106
      vertex 3.47374 -4.5 -0.652114
      vertex 3.47374 -4.5 -0.27011
    endloop
  endfacet
  facet normal 0 -1 0
    outer loop
      vertex 3.47374 -4.5 -0.652114
      vertex 3.06174 -4.5 -0.306106
      vertex 1.55376 -4.5 -0.306107
    endloop
  endfacet
  facet normal 1 -0 0
    outer loop
      vertex 1.26576 -5 -0.652115
      vertex 1.26576 -4.5 -1.05411
      vertex 1.26576 -4.5 -0.652115
    endloop
  endfacet
  facet normal 1 0 0
    outer loop
      vertex 1.26576 -4.5 -1.05411
      vertex 1.26576 -5 -0.652115
      vertex 1.26576 -5 -1.05411
    endloop
  endfacet
  facet normal -0 0 1
    outer loop
      vertex 1.26576 -4.5 -1.05411
      vertex 1.55376 -5 -1.05411
      vertex 1.55376 -4.5 -1.05411
    endloop
  endfacet
  facet normal 0 0 1
    outer loop
      vertex 1.55376 -5 -1.05411
      vertex 1.26576 -4.5 -1.05411
      vertex 1.26576 -5 -1.05411
    endloop
  endfacet
  facet normal -1 0 0
    outer loop
      vertex 1.55376 -5 -1.05411
      vertex 1.55376 -4.5 -0.652115
      vertex 1.55376 -4.5 -1.05411
    endloop
  endfacet
  facet normal -1 -0 0
    outer loop
      vertex 1.55376 -4.5 -0.652115
      vertex 1.55376 -5 -1.05411
      vertex 1.55376 -5 -0.652115
    endloop
  endfacet
  facet normal -4.9671e-07 0 1
    outer loop
      vertex 1.55376 -4.5 -0.652115
      vertex 3.47374 -5 -0.652114
      vertex 3.47374 -4.5 -0.652114
    endloop
  endfacet
  facet normal -4.9671e-07 0 1
    outer loop
      vertex 3.47374 -5 -0.652114
      vertex 1.55376 -4.5 -0.652115
      vertex 1.55376 -5 -0.652115
    endloop
  endfacet
  facet normal -1 0 0
    outer loop
      vertex 3.47374 -5 -0.652114
      vertex 3.47374 -4.5 -0.27011
      vertex 3.47374 -4.5 -0.652114
    endloop
  endfacet
  facet normal -1 -0 0
    outer loop
      vertex 3.47374 -4.5 -0.27011
      vertex 3.47374 -5 -0.652114
      vertex 3.47374 -5 -0.27011
    endloop
  endfacet
  facet normal -0.561334 0 -0.827589
    outer loop
      vertex 2.03075 -5 0.708634
      vertex 3.47374 -4.5 -0.27011
      vertex 3.47374 -5 -0.27011
    endloop
  endfacet
  facet normal -0.561334 0 -0.827589
    outer loop
      vertex 3.47374 -4.5 -0.27011
      vertex 2.03075 -5 0.708634
      vertex 1.54976 -4.5 1.03488
    endloop
  endfacet
  facet normal -0.561335 -2.67665e-07 -0.827589
    outer loop
      vertex 1.54976 -5 1.03488
      vertex 1.54976 -4.5 1.03488
      vertex 2.03075 -5 0.708634
    endloop
  endfacet
  facet normal 3.35805e-06 1.60124e-12 -1
    outer loop
      vertex 1.26576 -5 1.03488
      vertex 1.54976 -4.5 1.03488
      vertex 1.54976 -5 1.03488
    endloop
  endfacet
  facet normal 3.35805e-06 1.60124e-12 -1
    outer loop
      vertex 1.54976 -4.5 1.03488
      vertex 1.26576 -5 1.03488
      vertex 1.26576 -4.5 1.03488
    endloop
  endfacet
  facet normal 1 4.76837e-07 7.11173e-07
    outer loop
      vertex 1.26576 -5 0.0291402
      vertex 1.26576 -4.5 1.03488
      vertex 1.26576 -5 1.03488
    endloop
  endfacet
  facet normal 1 4.76837e-07 7.11173e-07
    outer loop
      vertex 1.26576 -4.5 1.03488
      vertex 1.26576 -5 0.0291402
      vertex 1.26576 -4.5 -0.306107
    endloop
  endfacet
  facet normal 1 0 0
    outer loop
      vertex 1.26576 -5 0.0291402
      vertex 1.26576 -5 -0.306107
      vertex 1.26576 -4.5 -0.306107
    endloop
  endfacet
  facet normal 0 0 -1
    outer loop
      vertex 0.59375 -5 -0.306107
      vertex 1.26576 -4.5 -0.306107
      vertex 1.26576 -5 -0.306107
    endloop
  endfacet
  facet normal -0 0 -1
    outer loop
      vertex 1.26576 -4.5 -0.306107
      vertex 0.59375 -5 -0.306107
      vertex 0.59375 -4.5 -0.306107
    endloop
  endfacet
  facet normal 1 -0 0
    outer loop
      vertex 0.59375 -5 -0.306107
      vertex 0.59375 -4.5 -0.652115
      vertex 0.59375 -4.5 -0.306107
    endloop
  endfacet
  facet normal 1 0 0
    outer loop
      vertex 0.59375 -4.5 -0.652115
      vertex 0.59375 -5 -0.306107
      vertex 0.59375 -5 -0.652115
    endloop
  endfacet
  facet normal -0 0 1
    outer loop
      vertex 0.59375 -4.5 -0.652115
      vertex 1.26576 -5 -0.652115
      vertex 1.26576 -4.5 -0.652115
    endloop
  endfacet
  facet normal 0 0 1
    outer loop
      vertex 1.26576 -5 -0.652115
      vertex 0.59375 -4.5 -0.652115
      vertex 0.59375 -5 -0.652115
    endloop
  endfacet
  facet normal 0.624731 2.97895e-07 0.78084
    outer loop
      vertex 1.59375 -4.5 0.66487
      vertex 1.55376 -5 0.696868
      vertex 1.59375 -5 0.66487
    endloop
  endfacet
  facet normal 0.624731 2.97895e-07 0.78084
    outer loop
      vertex 1.55376 -5 0.696868
      vertex 1.59375 -4.5 0.66487
      vertex 1.55376 -4.5 0.696868
    endloop
  endfacet
  facet normal 0.587802 0 0.809005
    outer loop
      vertex 1.74376 -4.5 0.555877
      vertex 1.63125 -5 0.637622
      vertex 1.74376 -5 0.555877
    endloop
  endfacet
  facet normal 0.587802 0 0.809005
    outer loop
      vertex 1.63125 -5 0.637622
      vertex 1.74376 -4.5 0.555877
      vertex 1.59375 -4.5 0.66487
    endloop
  endfacet
  facet normal 0.587805 2.80287e-07 0.809003
    outer loop
      vertex 1.63125 -5 0.637622
      vertex 1.59375 -4.5 0.66487
      vertex 1.59375 -5 0.66487
    endloop
  endfacet
  facet normal 0.559487 0 0.828839
    outer loop
      vertex 1.74376 -4.5 0.555877
      vertex 2.82074 -5 -0.171111
      vertex 2.82074 -4.5 -0.171111
    endloop
  endfacet
  facet normal 0.559487 0 0.828839
    outer loop
      vertex 2.82074 -5 -0.171111
      vertex 1.74376 -4.5 0.555877
      vertex 1.74376 -5 0.555877
    endloop
  endfacet
  facet normal 0.515196 0 0.857072
    outer loop
      vertex 2.82074 -4.5 -0.171111
      vertex 2.89763 -5 -0.21733
      vertex 2.89763 -4.5 -0.21733
    endloop
  endfacet
  facet normal 0.515196 0 0.857072
    outer loop
      vertex 2.89763 -5 -0.21733
      vertex 2.82074 -4.5 -0.171111
      vertex 2.82074 -5 -0.171111
    endloop
  endfacet
  facet normal 0.48137 0 0.876518
    outer loop
      vertex 2.89763 -4.5 -0.21733
      vertex 3.04453 -5 -0.298003
      vertex 3.04453 -4.5 -0.298003
    endloop
  endfacet
  facet normal 0.48137 0 0.876518
    outer loop
      vertex 3.04453 -5 -0.298003
      vertex 2.89763 -4.5 -0.21733
      vertex 2.89763 -5 -0.21733
    endloop
  endfacet
  facet normal 0.425913 0 0.904764
    outer loop
      vertex 3.04453 -4.5 -0.298003
      vertex 3.06174 -5 -0.306106
      vertex 3.06174 -4.5 -0.306106
    endloop
  endfacet
  facet normal 0.425913 0 0.904764
    outer loop
      vertex 3.06174 -5 -0.306106
      vertex 3.04453 -4.5 -0.298003
      vertex 3.04453 -5 -0.298003
    endloop
  endfacet
  facet normal 6.32418e-07 0 -1
    outer loop
      vertex 1.55376 -5 -0.306107
      vertex 3.06174 -4.5 -0.306106
      vertex 3.06174 -5 -0.306106
    endloop
  endfacet
  facet normal 6.32418e-07 0 -1
    outer loop
      vertex 3.06174 -4.5 -0.306106
      vertex 1.55376 -5 -0.306107
      vertex 1.55376 -4.5 -0.306107
    endloop
  endfacet
  facet normal -1 -4.76837e-07 -9.50846e-07
    outer loop
      vertex 1.55376 -5 -0.0553629
      vertex 1.55376 -4.5 0.696868
      vertex 1.55376 -4.5 -0.306107
    endloop
  endfacet
  facet normal -1 -4.76837e-07 -9.50846e-07
    outer loop
      vertex 1.55376 -4.5 0.696868
      vertex 1.55376 -5 -0.0553629
      vertex 1.55376 -5 0.696868
    endloop
  endfacet
  facet normal -1 0 0
    outer loop
      vertex 1.55376 -4.5 -0.306107
      vertex 1.55376 -5 -0.306107
      vertex 1.55376 -5 -0.0553629
    endloop
  endfacet
endsolid OpenSCAD_Model
