solid OpenSCAD_Model
  facet normal -0 0 1
    outer loop
      vertex 0 5 7.3
      vertex 11.3 -5 7.3
      vertex 11.3 5 7.3
    endloop
  endfacet
  facet normal 0 0 1
    outer loop
      vertex 11.3 -5 7.3
      vertex 0 5 7.3
      vertex 0 -5 7.3
    endloop
  endfacet
  facet normal 0 0 -1
    outer loop
      vertex 0 -5 -7.3
      vertex 11.3 5 -7.3
      vertex 11.3 -5 -7.3
    endloop
  endfacet
  facet normal -0 0 -1
    outer loop
      vertex 11.3 5 -7.3
      vertex 0 -5 -7.3
      vertex 0 5 -7.3
    endloop
  endfacet
  facet normal 0 -1 0
    outer loop
      vertex 2.03975 -5 -0.316116
      vertex 2.10252 -5 -0.494781
      vertex 2.04774 -5 -0.316116
    endloop
  endfacet
  facet normal 0 -1 0
    outer loop
      vertex 2.00008 -5 -0.513672
      vertex 2.10252 -5 -0.494781
      vertex 2.03975 -5 -0.316116
    endloop
  endfacet
  facet normal 0 -1 0
    outer loop
      vertex 2.00008 -5 -0.513672
      vertex 2.18285 -5 -0.642776
      vertex 2.10252 -5 -0.494781
    endloop
  endfacet
  facet normal 0 -1 0
    outer loop
      vertex 1.92776 -5 -0.679672
      vertex 2.18285 -5 -0.642776
      vertex 2.00008 -5 -0.513672
    endloop
  endfacet
  facet normal 0 -1 0
    outer loop
      vertex 1.92776 -5 -0.679672
      vertex 2.28874 -5 -0.760116
      vertex 2.18285 -5 -0.642776
    endloop
  endfacet
  facet normal 0 -1 0
    outer loop
      vertex 1.82275 -5 -0.814102
      vertex 2.28874 -5 -0.760116
      vertex 1.92776 -5 -0.679672
    endloop
  endfacet
  facet normal 0 -1 0
    outer loop
      vertex 1.82275 -5 -0.814102
      vertex 2.4193 -5 -0.845107
      vertex 2.28874 -5 -0.760116
    endloop
  endfacet
  facet normal 0 -1 0
    outer loop
      vertex 1.69109 -5 -0.912994
      vertex 2.4193 -5 -0.845107
      vertex 1.82275 -5 -0.814102
    endloop
  endfacet
  facet normal 0 -1 -0
    outer loop
      vertex 2.4193 -5 -0.845107
      vertex 1.69109 -5 -0.912994
      vertex 2.57362 -5 -0.896102
    endloop
  endfacet
  facet normal 0 -1 0
    outer loop
      vertex 1.53876 -5 -0.972336
      vertex 2.57362 -5 -0.896102
      vertex 1.69109 -5 -0.912994
    endloop
  endfacet
  facet normal 0 -1 0
    outer loop
      vertex 4.35729 -5 -2.25582
      vertex 2.57362 -5 -0.896102
      vertex 1.53876 -5 -0.972336
    endloop
  endfacet
  facet normal 0 -1 0
    outer loop
      vertex 2.57362 -5 -0.896102
      vertex 4.35729 -5 -2.25582
      vertex 2.75174 -5 -0.913116
    endloop
  endfacet
  facet normal 0 -1 0
    outer loop
      vertex 4.51263 -5 -2.68731
      vertex 1.53876 -5 -0.972336
      vertex 1.36575 -5 -0.992111
    endloop
  endfacet
  facet normal 0 -1 0
    outer loop
      vertex 2.75174 -5 -0.913116
      vertex 4.1293 -5 -1.36788
      vertex 4.05756 -5 -0.914932
    endloop
  endfacet
  facet normal 0 -1 0
    outer loop
      vertex 1.87675 -5 0.288879
      vertex 1.30575 -5 0.971877
      vertex 1.31451 -5 0.877376
    endloop
  endfacet
  facet normal 0 -1 0
    outer loop
      vertex 1.87675 -5 0.288879
      vertex 1.31451 -5 0.877376
      vertex 1.34076 -5 0.593871
    endloop
  endfacet
  facet normal 0 -1 0
    outer loop
      vertex 1.30575 -5 0.971877
      vertex 1.87675 -5 0.288879
      vertex 2.19374 -5 0.288879
    endloop
  endfacet
  facet normal 0 -1 0
    outer loop
      vertex 2.79175 -5 0.923874
      vertex 2.19374 -5 0.288879
      vertex 2.76375 -5 0.555878
    endloop
  endfacet
  facet normal 0 -1 0
    outer loop
      vertex 1.87675 -5 0.0828695
      vertex 1.34076 -5 0.593871
      vertex 1.05853 -5 0.49266
    endloop
  endfacet
  facet normal 0 -1 0
    outer loop
      vertex 1.30575 -5 0.971877
      vertex 2.19374 -5 0.288879
      vertex 2.79175 -5 0.923874
    endloop
  endfacet
  facet normal -0 -1 0
    outer loop
      vertex 3.22296 -5 0.14476
      vertex 2.76375 -5 0.555878
      vertex 2.19374 -5 0.0908813
    endloop
  endfacet
  facet normal 0 -1 0
    outer loop
      vertex 2.19374 -5 0.0908813
      vertex 2.76375 -5 0.555878
      vertex 2.19374 -5 0.288879
    endloop
  endfacet
  facet normal 0 -1 0
    outer loop
      vertex 1.87675 -5 0.0828695
      vertex 1.05853 -5 0.49266
      vertex 0.889206 -5 0.286315
    endloop
  endfacet
  facet normal 0 -1 0
    outer loop
      vertex 1.34076 -5 0.593871
      vertex 1.87675 -5 0.0828695
      vertex 1.87675 -5 0.288879
    endloop
  endfacet
  facet normal 0 -1 0
    outer loop
      vertex 0.832764 -5 -0.025116
      vertex 1.87675 -5 0.0828695
      vertex 0.889206 -5 0.286315
    endloop
  endfacet
  facet normal 0 -1 0
    outer loop
      vertex 0.832764 -5 -0.025116
      vertex 1.86209 -5 -0.124222
      vertex 1.87675 -5 0.0828695
    endloop
  endfacet
  facet normal 0 -1 0
    outer loop
      vertex 0.847977 -5 -0.194672
      vertex 1.86209 -5 -0.124222
      vertex 0.832764 -5 -0.025116
    endloop
  endfacet
  facet normal 0 -1 0
    outer loop
      vertex 0.847977 -5 -0.194672
      vertex 1.81808 -5 -0.296219
      vertex 1.86209 -5 -0.124222
    endloop
  endfacet
  facet normal 0 -1 0
    outer loop
      vertex 1.21198 -5 -0.594666
      vertex 0.847977 -5 -0.194672
      vertex 0.893646 -5 -0.337997
    endloop
  endfacet
  facet normal 0 -1 0
    outer loop
      vertex 0.847977 -5 -0.194672
      vertex 1.37776 -5 -0.612106
      vertex 1.81808 -5 -0.296219
    endloop
  endfacet
  facet normal 0 -1 0
    outer loop
      vertex 1.21198 -5 -0.594666
      vertex 0.893646 -5 -0.337997
      vertex 0.969757 -5 -0.455109
    endloop
  endfacet
  facet normal 0 -1 0
    outer loop
      vertex 1.81808 -5 -0.296219
      vertex 1.37776 -5 -0.612106
      vertex 1.74475 -5 -0.433105
    endloop
  endfacet
  facet normal 0 -1 0
    outer loop
      vertex 1.21198 -5 -0.594666
      vertex 0.969757 -5 -0.455109
      vertex 1.07597 -5 -0.542328
    endloop
  endfacet
  facet normal -0 -1 0
    outer loop
      vertex 1.52298 -5 -0.592224
      vertex 1.74475 -5 -0.433105
      vertex 1.37776 -5 -0.612106
    endloop
  endfacet
  facet normal 0 -1 0
    outer loop
      vertex 0.847977 -5 -0.194672
      vertex 1.21198 -5 -0.594666
      vertex 1.37776 -5 -0.612106
    endloop
  endfacet
  facet normal 0 -1 0
    outer loop
      vertex 1.74475 -5 -0.433105
      vertex 1.52298 -5 -0.592224
      vertex 1.64531 -5 -0.532547
    endloop
  endfacet
  facet normal 0 -1 0
    outer loop
      vertex 0 -5 7.3
      vertex 10.8416 -5 7.28559
      vertex 11.3 -5 7.3
    endloop
  endfacet
  facet normal 0 -1 0
    outer loop
      vertex 0 -5 7.3
      vertex 10.3851 -5 7.24244
      vertex 10.8416 -5 7.28559
    endloop
  endfacet
  facet normal 0 -1 0
    outer loop
      vertex 0 -5 7.3
      vertex 9.93212 -5 7.1707
      vertex 10.3851 -5 7.24244
    endloop
  endfacet
  facet normal 0 -1 0
    outer loop
      vertex 0 -5 7.3
      vertex 9.48456 -5 7.07066
      vertex 9.93212 -5 7.1707
    endloop
  endfacet
  facet normal 0 -1 0
    outer loop
      vertex 0 -5 7.3
      vertex 9.04418 -5 6.94271
      vertex 9.48456 -5 7.07066
    endloop
  endfacet
  facet normal 0 -1 0
    outer loop
      vertex 0 -5 7.3
      vertex 8.61269 -5 6.78737
      vertex 9.04418 -5 6.94271
    endloop
  endfacet
  facet normal 0 -1 0
    outer loop
      vertex 0 -5 7.3
      vertex 8.19181 -5 6.60524
      vertex 8.61269 -5 6.78737
    endloop
  endfacet
  facet normal 0 -1 0
    outer loop
      vertex 0 -5 7.3
      vertex 7.7832 -5 6.39704
      vertex 8.19181 -5 6.60524
    endloop
  endfacet
  facet normal 0 -1 0
    outer loop
      vertex 0 -5 7.3
      vertex 7.38846 -5 6.16359
      vertex 7.7832 -5 6.39704
    endloop
  endfacet
  facet normal 0 -1 0
    outer loop
      vertex 0 -5 7.3
      vertex 7.00917 -5 5.90582
      vertex 7.38846 -5 6.16359
    endloop
  endfacet
  facet normal 0 -1 0
    outer loop
      vertex 0 -5 7.3
      vertex 6.6468 -5 5.62475
      vertex 7.00917 -5 5.90582
    endloop
  endfacet
  facet normal 0 -1 0
    outer loop
      vertex 0 -5 7.3
      vertex 6.30281 -5 5.32147
      vertex 6.6468 -5 5.62475
    endloop
  endfacet
  facet normal 0 -1 0
    outer loop
      vertex 0 -5 7.3
      vertex 5.97853 -5 4.99719
      vertex 6.30281 -5 5.32147
    endloop
  endfacet
  facet normal 0 -1 0
    outer loop
      vertex 0 -5 7.3
      vertex 5.67525 -5 4.65319
      vertex 5.97853 -5 4.99719
    endloop
  endfacet
  facet normal 0 -1 0
    outer loop
      vertex 0 -5 7.3
      vertex 5.39418 -5 4.29083
      vertex 5.67525 -5 4.65319
    endloop
  endfacet
  facet normal 0 -1 0
    outer loop
      vertex 0 -5 7.3
      vertex 5.13641 -5 3.91154
      vertex 5.39418 -5 4.29083
    endloop
  endfacet
  facet normal 0 -1 0
    outer loop
      vertex 0 -5 7.3
      vertex 4.90296 -5 3.5168
      vertex 5.13641 -5 3.91154
    endloop
  endfacet
  facet normal 0 -1 0
    outer loop
      vertex 0 -5 7.3
      vertex 4.69476 -5 3.10819
      vertex 4.90296 -5 3.5168
    endloop
  endfacet
  facet normal 0 -1 0
    outer loop
      vertex 1.30575 -5 0.971877
      vertex 4.69476 -5 3.10819
      vertex 0 -5 7.3
    endloop
  endfacet
  facet normal 0 -1 0
    outer loop
      vertex 4.69476 -5 3.10819
      vertex 1.30575 -5 0.971877
      vertex 4.51263 -5 2.68731
    endloop
  endfacet
  facet normal 0 -1 0
    outer loop
      vertex 4.51263 -5 2.68731
      vertex 1.30575 -5 0.971877
      vertex 4.35729 -5 2.25582
    endloop
  endfacet
  facet normal 0 -1 0
    outer loop
      vertex 2.79175 -5 0.923874
      vertex 4.35729 -5 2.25582
      vertex 1.30575 -5 0.971877
    endloop
  endfacet
  facet normal 0 -1 0
    outer loop
      vertex 4.35729 -5 2.25582
      vertex 2.79175 -5 0.923874
      vertex 4.22934 -5 1.81544
    endloop
  endfacet
  facet normal 0 -1 0
    outer loop
      vertex 0 -5 7.3
      vertex 1.07065 -5 0.916091
      vertex 1.30575 -5 0.971877
    endloop
  endfacet
  facet normal 0 -1 0
    outer loop
      vertex 0 -5 7.3
      vertex 0.877319 -5 0.814101
      vertex 1.07065 -5 0.916091
    endloop
  endfacet
  facet normal 0 -1 0
    outer loop
      vertex 0 -5 7.3
      vertex 0.725753 -5 0.665877
      vertex 0.877319 -5 0.814101
    endloop
  endfacet
  facet normal 0 -1 0
    outer loop
      vertex 0 -5 7.3
      vertex 0.644089 -5 0.522288
      vertex 0.725753 -5 0.665877
    endloop
  endfacet
  facet normal 0 -1 0
    outer loop
      vertex 0 -5 7.3
      vertex 0.616867 -5 0.474425
      vertex 0.644089 -5 0.522288
    endloop
  endfacet
  facet normal 0 -1 0
    outer loop
      vertex 0 -5 7.3
      vertex 0.551529 -5 0.244094
      vertex 0.616867 -5 0.474425
    endloop
  endfacet
  facet normal 0 -1 0
    outer loop
      vertex 0 -5 7.3
      vertex 0.529755 -5 -0.025116
      vertex 0.551529 -5 0.244094
    endloop
  endfacet
  facet normal 0 -1 0
    outer loop
      vertex 0 -5 -7.3
      vertex 1.36575 -5 -0.992111
      vertex 1.11975 -5 -0.964218
    endloop
  endfacet
  facet normal 0 -1 0
    outer loop
      vertex 2.75174 -5 -0.913116
      vertex 4.22934 -5 -1.81544
      vertex 4.1293 -5 -1.36788
    endloop
  endfacet
  facet normal 0 -1 0
    outer loop
      vertex 2.75174 -5 -0.913116
      vertex 4.35729 -5 -2.25582
      vertex 4.22934 -5 -1.81544
    endloop
  endfacet
  facet normal 0 -1 0
    outer loop
      vertex 1.53876 -5 -0.972336
      vertex 4.51263 -5 -2.68731
      vertex 4.35729 -5 -2.25582
    endloop
  endfacet
  facet normal 0 -1 0
    outer loop
      vertex 0 -5 -7.3
      vertex 1.11975 -5 -0.964218
      vertex 0.913757 -5 -0.880554
    endloop
  endfacet
  facet normal 0 -1 0
    outer loop
      vertex 1.36575 -5 -0.992111
      vertex 4.69476 -5 -3.10819
      vertex 4.51263 -5 -2.68731
    endloop
  endfacet
  facet normal 0 -1 -0
    outer loop
      vertex 1.36575 -5 -0.992111
      vertex 0 -5 -7.3
      vertex 4.69476 -5 -3.10819
    endloop
  endfacet
  facet normal 0 -1 -0
    outer loop
      vertex 4.69476 -5 -3.10819
      vertex 0 -5 -7.3
      vertex 4.90296 -5 -3.5168
    endloop
  endfacet
  facet normal 0 -1 -0
    outer loop
      vertex 4.90296 -5 -3.5168
      vertex 0 -5 -7.3
      vertex 5.13641 -5 -3.91154
    endloop
  endfacet
  facet normal 0 -1 -0
    outer loop
      vertex 5.13641 -5 -3.91154
      vertex 0 -5 -7.3
      vertex 5.39418 -5 -4.29083
    endloop
  endfacet
  facet normal 0 -1 -0
    outer loop
      vertex 5.39418 -5 -4.29083
      vertex 0 -5 -7.3
      vertex 5.67525 -5 -4.65319
    endloop
  endfacet
  facet normal 0 -1 -0
    outer loop
      vertex 5.67525 -5 -4.65319
      vertex 0 -5 -7.3
      vertex 5.97853 -5 -4.99719
    endloop
  endfacet
  facet normal 0 -1 -0
    outer loop
      vertex 5.97853 -5 -4.99719
      vertex 0 -5 -7.3
      vertex 6.30281 -5 -5.32147
    endloop
  endfacet
  facet normal 0 -1 0
    outer loop
      vertex 0 -5 -7.3
      vertex 0.529755 -5 -0.025116
      vertex 0 -5 7.3
    endloop
  endfacet
  facet normal 0 -1 0
    outer loop
      vertex 0 -5 -7.3
      vertex 0.553986 -5 -0.311325
      vertex 0.529755 -5 -0.025116
    endloop
  endfacet
  facet normal 0 -1 0
    outer loop
      vertex 0 -5 -7.3
      vertex 0.626648 -5 -0.550003
      vertex 0.553986 -5 -0.311325
    endloop
  endfacet
  facet normal 0 -1 0
    outer loop
      vertex 0 -5 -7.3
      vertex 0.747757 -5 -0.741104
      vertex 0.626648 -5 -0.550003
    endloop
  endfacet
  facet normal 0 -1 0
    outer loop
      vertex 0 -5 -7.3
      vertex 0.913757 -5 -0.880554
      vertex 0.747757 -5 -0.741104
    endloop
  endfacet
  facet normal 0 -1 -0
    outer loop
      vertex 6.30281 -5 -5.32147
      vertex 0 -5 -7.3
      vertex 6.6468 -5 -5.62475
    endloop
  endfacet
  facet normal 0 -1 0
    outer loop
      vertex 0 -5 -7.3
      vertex 7.00917 -5 -5.90582
      vertex 6.6468 -5 -5.62475
    endloop
  endfacet
  facet normal 0 -1 0
    outer loop
      vertex 0 -5 -7.3
      vertex 7.38846 -5 -6.16359
      vertex 7.00917 -5 -5.90582
    endloop
  endfacet
  facet normal 0 -1 0
    outer loop
      vertex 0 -5 -7.3
      vertex 7.7832 -5 -6.39704
      vertex 7.38846 -5 -6.16359
    endloop
  endfacet
  facet normal 0 -1 0
    outer loop
      vertex 0 -5 -7.3
      vertex 8.19181 -5 -6.60524
      vertex 7.7832 -5 -6.39704
    endloop
  endfacet
  facet normal 0 -1 0
    outer loop
      vertex 0 -5 -7.3
      vertex 8.61269 -5 -6.78737
      vertex 8.19181 -5 -6.60524
    endloop
  endfacet
  facet normal 0 -1 0
    outer loop
      vertex 0 -5 -7.3
      vertex 9.04418 -5 -6.94271
      vertex 8.61269 -5 -6.78737
    endloop
  endfacet
  facet normal 0 -1 0
    outer loop
      vertex 0 -5 -7.3
      vertex 9.48456 -5 -7.07066
      vertex 9.04418 -5 -6.94271
    endloop
  endfacet
  facet normal 0 -1 0
    outer loop
      vertex 0 -5 -7.3
      vertex 9.93212 -5 -7.1707
      vertex 9.48456 -5 -7.07066
    endloop
  endfacet
  facet normal 0 -1 0
    outer loop
      vertex 0 -5 -7.3
      vertex 10.3851 -5 -7.24244
      vertex 9.93212 -5 -7.1707
    endloop
  endfacet
  facet normal 0 -1 0
    outer loop
      vertex 0 -5 -7.3
      vertex 10.8416 -5 -7.28559
      vertex 10.3851 -5 -7.24244
    endloop
  endfacet
  facet normal 0 -1 -0
    outer loop
      vertex 10.8416 -5 -7.28559
      vertex 0 -5 -7.3
      vertex 11.3 -5 -7.3
    endloop
  endfacet
  facet normal 0 -1 0
    outer loop
      vertex 3.00919 -5 0.873871
      vertex 4.22934 -5 1.81544
      vertex 2.79175 -5 0.923874
    endloop
  endfacet
  facet normal 0 -1 0
    outer loop
      vertex 4.22934 -5 1.81544
      vertex 3.00919 -5 0.873871
      vertex 4.1293 -5 1.36788
    endloop
  endfacet
  facet normal 0 -1 0
    outer loop
      vertex 3.19218 -5 0.777206
      vertex 4.1293 -5 1.36788
      vertex 3.00919 -5 0.873871
    endloop
  endfacet
  facet normal 0 -1 0
    outer loop
      vertex 4.1293 -5 1.36788
      vertex 3.19218 -5 0.777206
      vertex 4.05756 -5 0.914932
    endloop
  endfacet
  facet normal 0 -1 0
    outer loop
      vertex 3.34074 -5 0.633881
      vertex 4.05756 -5 0.914932
      vertex 3.19218 -5 0.777206
    endloop
  endfacet
  facet normal 0 -1 0
    outer loop
      vertex 3.45018 -5 0.451324
      vertex 4.05756 -5 0.914932
      vertex 3.34074 -5 0.633881
    endloop
  endfacet
  facet normal 0 -1 0
    outer loop
      vertex 4.05756 -5 0.914932
      vertex 3.45018 -5 0.451324
      vertex 4.0144 -5 0.45837
    endloop
  endfacet
  facet normal 0 -1 0
    outer loop
      vertex 3.51585 -5 0.236984
      vertex 4.0144 -5 0.45837
      vertex 3.45018 -5 0.451324
    endloop
  endfacet
  facet normal 0 -1 0
    outer loop
      vertex 3.51585 -5 0.236984
      vertex 4 -5 0
      vertex 4.0144 -5 0.45837
    endloop
  endfacet
  facet normal 0 -1 0
    outer loop
      vertex 3.53773 -5 -0.00910854
      vertex 4 -5 0
      vertex 3.51585 -5 0.236984
    endloop
  endfacet
  facet normal 0 -1 0
    outer loop
      vertex 3.51463 -5 -0.273772
      vertex 4 -5 0
      vertex 3.53773 -5 -0.00910854
    endloop
  endfacet
  facet normal 0 -1 0
    outer loop
      vertex 3.51463 -5 -0.273772
      vertex 4.0144 -5 -0.45837
      vertex 4 -5 0
    endloop
  endfacet
  facet normal 0 -1 0
    outer loop
      vertex 3.4453 -5 -0.495772
      vertex 4.0144 -5 -0.45837
      vertex 3.51463 -5 -0.273772
    endloop
  endfacet
  facet normal 0 -1 0
    outer loop
      vertex 4.05756 -5 -0.914932
      vertex 3.4453 -5 -0.495772
      vertex 3.32974 -5 -0.675109
    endloop
  endfacet
  facet normal 0 -1 0
    outer loop
      vertex 4.05756 -5 -0.914932
      vertex 3.32974 -5 -0.675109
      vertex 3.17352 -5 -0.807326
    endloop
  endfacet
  facet normal 0 -1 0
    outer loop
      vertex 3.4453 -5 -0.495772
      vertex 4.05756 -5 -0.914932
      vertex 4.0144 -5 -0.45837
    endloop
  endfacet
  facet normal 0 -1 0
    outer loop
      vertex 2.98085 -5 -0.886657
      vertex 4.05756 -5 -0.914932
      vertex 3.17352 -5 -0.807326
    endloop
  endfacet
  facet normal 0 -1 0
    outer loop
      vertex 4.05756 -5 -0.914932
      vertex 2.98085 -5 -0.886657
      vertex 2.75174 -5 -0.913116
    endloop
  endfacet
  facet normal 0 -1 0
    outer loop
      vertex 2.76375 -5 0.555878
      vertex 3.22296 -5 0.14476
      vertex 2.90253 -5 0.526093
    endloop
  endfacet
  facet normal -0 -1 -0
    outer loop
      vertex 3.18163 -5 0.274429
      vertex 2.90253 -5 0.526093
      vertex 3.22296 -5 0.14476
    endloop
  endfacet
  facet normal 0 -1 0
    outer loop
      vertex 3.01886 -5 0.468765
      vertex 3.18163 -5 0.274429
      vertex 3.11275 -5 0.383881
    endloop
  endfacet
  facet normal 0 -1 0
    outer loop
      vertex 2.90253 -5 0.526093
      vertex 3.18163 -5 0.274429
      vertex 3.01886 -5 0.468765
    endloop
  endfacet
  facet normal 0 -1 0
    outer loop
      vertex 2.20908 -5 -0.0934439
      vertex 3.22296 -5 0.14476
      vertex 2.19374 -5 0.0908813
    endloop
  endfacet
  facet normal 0 -1 -0
    outer loop
      vertex 3.22296 -5 0.14476
      vertex 2.20908 -5 -0.0934439
      vertex 3.23674 -5 -0.00511074
    endloop
  endfacet
  facet normal 0 -1 0
    outer loop
      vertex 2.71375 -5 -0.537108
      vertex 3.23674 -5 -0.00511074
      vertex 2.20908 -5 -0.0934439
    endloop
  endfacet
  facet normal 0 -1 0
    outer loop
      vertex 2.71375 -5 -0.537108
      vertex 2.20908 -5 -0.0934439
      vertex 2.25508 -5 -0.247771
    endloop
  endfacet
  facet normal 0 -1 0
    outer loop
      vertex 3.23674 -5 -0.00511074
      vertex 2.71375 -5 -0.537108
      vertex 3.22107 -5 -0.166671
    endloop
  endfacet
  facet normal 0 -1 0
    outer loop
      vertex 2.56285 -5 -0.518783
      vertex 2.25508 -5 -0.247771
      vertex 2.33174 -5 -0.372115
    endloop
  endfacet
  facet normal -0 -1 0
    outer loop
      vertex 2.86374 -5 -0.522216
      vertex 3.22107 -5 -0.166671
      vertex 2.71375 -5 -0.537108
    endloop
  endfacet
  facet normal 0 -1 0
    outer loop
      vertex 2.56285 -5 -0.518783
      vertex 2.33174 -5 -0.372115
      vertex 2.43552 -5 -0.463775
    endloop
  endfacet
  facet normal -0 -1 0
    outer loop
      vertex 2.99107 -5 -0.477553
      vertex 3.22107 -5 -0.166671
      vertex 2.86374 -5 -0.522216
    endloop
  endfacet
  facet normal 0 -1 0
    outer loop
      vertex 2.25508 -5 -0.247771
      vertex 2.56285 -5 -0.518783
      vertex 2.71375 -5 -0.537108
    endloop
  endfacet
  facet normal 0 -1 0
    outer loop
      vertex 3.22107 -5 -0.166671
      vertex 2.99107 -5 -0.477553
      vertex 3.17407 -5 -0.299331
    endloop
  endfacet
  facet normal 0 -1 0
    outer loop
      vertex 3.17407 -5 -0.299331
      vertex 2.99107 -5 -0.477553
      vertex 3.09575 -5 -0.403106
    endloop
  endfacet
  facet normal 0 1 -0
    outer loop
      vertex 10.8416 5 7.28559
      vertex 0 5 7.3
      vertex 11.3 5 7.3
    endloop
  endfacet
  facet normal 0 1 -0
    outer loop
      vertex 10.3851 5 7.24244
      vertex 0 5 7.3
      vertex 10.8416 5 7.28559
    endloop
  endfacet
  facet normal 0 1 -0
    outer loop
      vertex 9.93212 5 7.1707
      vertex 0 5 7.3
      vertex 10.3851 5 7.24244
    endloop
  endfacet
  facet normal 0 1 -0
    outer loop
      vertex 9.48456 5 7.07066
      vertex 0 5 7.3
      vertex 9.93212 5 7.1707
    endloop
  endfacet
  facet normal 0 1 -0
    outer loop
      vertex 9.04418 5 6.94271
      vertex 0 5 7.3
      vertex 9.48456 5 7.07066
    endloop
  endfacet
  facet normal 0 1 -0
    outer loop
      vertex 8.61269 5 6.78737
      vertex 0 5 7.3
      vertex 9.04418 5 6.94271
    endloop
  endfacet
  facet normal 0 1 -0
    outer loop
      vertex 8.19181 5 6.60524
      vertex 0 5 7.3
      vertex 8.61269 5 6.78737
    endloop
  endfacet
  facet normal 0 1 -0
    outer loop
      vertex 7.7832 5 6.39704
      vertex 0 5 7.3
      vertex 8.19181 5 6.60524
    endloop
  endfacet
  facet normal 0 1 -0
    outer loop
      vertex 7.38846 5 6.16359
      vertex 0 5 7.3
      vertex 7.7832 5 6.39704
    endloop
  endfacet
  facet normal 0 1 -0
    outer loop
      vertex 7.00917 5 5.90582
      vertex 0 5 7.3
      vertex 7.38846 5 6.16359
    endloop
  endfacet
  facet normal 0 1 -0
    outer loop
      vertex 6.6468 5 5.62475
      vertex 0 5 7.3
      vertex 7.00917 5 5.90582
    endloop
  endfacet
  facet normal 0 1 -0
    outer loop
      vertex 6.30281 5 5.32147
      vertex 0 5 7.3
      vertex 6.6468 5 5.62475
    endloop
  endfacet
  facet normal 0 1 -0
    outer loop
      vertex 5.97853 5 4.99719
      vertex 0 5 7.3
      vertex 6.30281 5 5.32147
    endloop
  endfacet
  facet normal 0 1 -0
    outer loop
      vertex 5.67525 5 4.65319
      vertex 0 5 7.3
      vertex 5.97853 5 4.99719
    endloop
  endfacet
  facet normal 0 1 -0
    outer loop
      vertex 5.39418 5 4.29083
      vertex 0 5 7.3
      vertex 5.67525 5 4.65319
    endloop
  endfacet
  facet normal 0 1 -0
    outer loop
      vertex 5.13641 5 3.91154
      vertex 0 5 7.3
      vertex 5.39418 5 4.29083
    endloop
  endfacet
  facet normal 0 1 -0
    outer loop
      vertex 4.90296 5 3.5168
      vertex 0 5 7.3
      vertex 5.13641 5 3.91154
    endloop
  endfacet
  facet normal 0 1 -0
    outer loop
      vertex 4.69476 5 3.10819
      vertex 0 5 7.3
      vertex 4.90296 5 3.5168
    endloop
  endfacet
  facet normal 0 1 -0
    outer loop
      vertex 4.51263 5 2.68731
      vertex 0 5 7.3
      vertex 4.69476 5 3.10819
    endloop
  endfacet
  facet normal 0 1 -0
    outer loop
      vertex 4.35729 5 2.25582
      vertex 0 5 7.3
      vertex 4.51263 5 2.68731
    endloop
  endfacet
  facet normal 0 1 -0
    outer loop
      vertex 4.22934 5 1.81544
      vertex 0 5 7.3
      vertex 4.35729 5 2.25582
    endloop
  endfacet
  facet normal 0 1 -0
    outer loop
      vertex 4.1293 5 1.36788
      vertex 0 5 7.3
      vertex 4.22934 5 1.81544
    endloop
  endfacet
  facet normal 0 1 -0
    outer loop
      vertex 4.05756 5 0.914932
      vertex 0 5 7.3
      vertex 4.1293 5 1.36788
    endloop
  endfacet
  facet normal 0 1 -0
    outer loop
      vertex 4.0144 5 0.45837
      vertex 0 5 7.3
      vertex 4.05756 5 0.914932
    endloop
  endfacet
  facet normal 0 1 -0
    outer loop
      vertex 4 5 0
      vertex 0 5 7.3
      vertex 4.0144 5 0.45837
    endloop
  endfacet
  facet normal 0 1 0
    outer loop
      vertex 0 5 -7.3
      vertex 4 5 0
      vertex 4.0144 5 -0.45837
    endloop
  endfacet
  facet normal 0 1 0
    outer loop
      vertex 0 5 -7.3
      vertex 4.0144 5 -0.45837
      vertex 4.05756 5 -0.914932
    endloop
  endfacet
  facet normal 0 1 0
    outer loop
      vertex 0 5 -7.3
      vertex 4.05756 5 -0.914932
      vertex 4.1293 5 -1.36788
    endloop
  endfacet
  facet normal 0 1 0
    outer loop
      vertex 0 5 -7.3
      vertex 4.1293 5 -1.36788
      vertex 4.22934 5 -1.81544
    endloop
  endfacet
  facet normal 0 1 0
    outer loop
      vertex 0 5 -7.3
      vertex 4.22934 5 -1.81544
      vertex 4.35729 5 -2.25582
    endloop
  endfacet
  facet normal 0 1 0
    outer loop
      vertex 0 5 -7.3
      vertex 4.35729 5 -2.25582
      vertex 4.51263 5 -2.68731
    endloop
  endfacet
  facet normal 0 1 0
    outer loop
      vertex 0 5 -7.3
      vertex 4.51263 5 -2.68731
      vertex 4.69476 5 -3.10819
    endloop
  endfacet
  facet normal 0 1 0
    outer loop
      vertex 4 5 0
      vertex 0 5 -7.3
      vertex 0 5 7.3
    endloop
  endfacet
  facet normal 0 1 0
    outer loop
      vertex 4.90296 5 -3.5168
      vertex 0 5 -7.3
      vertex 4.69476 5 -3.10819
    endloop
  endfacet
  facet normal 0 1 0
    outer loop
      vertex 5.13641 5 -3.91154
      vertex 0 5 -7.3
      vertex 4.90296 5 -3.5168
    endloop
  endfacet
  facet normal 0 1 0
    outer loop
      vertex 5.39418 5 -4.29083
      vertex 0 5 -7.3
      vertex 5.13641 5 -3.91154
    endloop
  endfacet
  facet normal 0 1 0
    outer loop
      vertex 5.67525 5 -4.65319
      vertex 0 5 -7.3
      vertex 5.39418 5 -4.29083
    endloop
  endfacet
  facet normal 0 1 0
    outer loop
      vertex 5.97853 5 -4.99719
      vertex 0 5 -7.3
      vertex 5.67525 5 -4.65319
    endloop
  endfacet
  facet normal 0 1 0
    outer loop
      vertex 6.30281 5 -5.32147
      vertex 0 5 -7.3
      vertex 5.97853 5 -4.99719
    endloop
  endfacet
  facet normal 0 1 0
    outer loop
      vertex 6.6468 5 -5.62475
      vertex 0 5 -7.3
      vertex 6.30281 5 -5.32147
    endloop
  endfacet
  facet normal 0 1 0
    outer loop
      vertex 7.00917 5 -5.90582
      vertex 0 5 -7.3
      vertex 6.6468 5 -5.62475
    endloop
  endfacet
  facet normal 0 1 0
    outer loop
      vertex 7.38846 5 -6.16359
      vertex 0 5 -7.3
      vertex 7.00917 5 -5.90582
    endloop
  endfacet
  facet normal 0 1 0
    outer loop
      vertex 7.7832 5 -6.39704
      vertex 0 5 -7.3
      vertex 7.38846 5 -6.16359
    endloop
  endfacet
  facet normal 0 1 0
    outer loop
      vertex 8.19181 5 -6.60524
      vertex 0 5 -7.3
      vertex 7.7832 5 -6.39704
    endloop
  endfacet
  facet normal 0 1 0
    outer loop
      vertex 8.61269 5 -6.78737
      vertex 0 5 -7.3
      vertex 8.19181 5 -6.60524
    endloop
  endfacet
  facet normal 0 1 0
    outer loop
      vertex 9.04418 5 -6.94271
      vertex 0 5 -7.3
      vertex 8.61269 5 -6.78737
    endloop
  endfacet
  facet normal 0 1 0
    outer loop
      vertex 9.48456 5 -7.07066
      vertex 0 5 -7.3
      vertex 9.04418 5 -6.94271
    endloop
  endfacet
  facet normal 0 1 0
    outer loop
      vertex 9.93212 5 -7.1707
      vertex 0 5 -7.3
      vertex 9.48456 5 -7.07066
    endloop
  endfacet
  facet normal 0 1 0
    outer loop
      vertex 10.3851 5 -7.24244
      vertex 0 5 -7.3
      vertex 9.93212 5 -7.1707
    endloop
  endfacet
  facet normal 0 1 0
    outer loop
      vertex 10.8416 5 -7.28559
      vertex 0 5 -7.3
      vertex 10.3851 5 -7.24244
    endloop
  endfacet
  facet normal 0 1 0
    outer loop
      vertex 0 5 -7.3
      vertex 10.8416 5 -7.28559
      vertex 11.3 5 -7.3
    endloop
  endfacet
  facet normal 0.995562 -0 0.0941078
    outer loop
      vertex 4.0144 -5 -0.45837
      vertex 4.05756 5 -0.914932
      vertex 4.0144 5 -0.45837
    endloop
  endfacet
  facet normal 0.995562 0 0.0941078
    outer loop
      vertex 4.05756 5 -0.914932
      vertex 4.0144 -5 -0.45837
      vertex 4.05756 -5 -0.914932
    endloop
  endfacet
  facet normal 0.0314095 0 -0.999507
    outer loop
      vertex 10.8416 -5 7.28559
      vertex 11.3 5 7.3
      vertex 11.3 -5 7.3
    endloop
  endfacet
  facet normal 0.0314095 0 -0.999507
    outer loop
      vertex 11.3 5 7.3
      vertex 10.8416 -5 7.28559
      vertex 10.8416 5 7.28559
    endloop
  endfacet
  facet normal 0.860742 0 -0.509041
    outer loop
      vertex 5.13641 -5 3.91154
      vertex 4.90296 5 3.5168
      vertex 5.13641 5 3.91154
    endloop
  endfacet
  facet normal 0.860742 0 -0.509041
    outer loop
      vertex 4.90296 5 3.5168
      vertex 5.13641 -5 3.91154
      vertex 4.90296 -5 3.5168
    endloop
  endfacet
  facet normal 0.750111 0 -0.661312
    outer loop
      vertex 5.97853 -5 4.99719
      vertex 5.67525 5 4.65319
      vertex 5.97853 5 4.99719
    endloop
  endfacet
  facet normal 0.750111 0 -0.661312
    outer loop
      vertex 5.67525 5 4.65319
      vertex 5.97853 -5 4.99719
      vertex 5.67525 -5 4.65319
    endloop
  endfacet
  facet normal 0.156434 0 -0.987688
    outer loop
      vertex 9.93212 -5 7.1707
      vertex 10.3851 5 7.24244
      vertex 10.3851 -5 7.24244
    endloop
  endfacet
  facet normal 0.156434 0 -0.987688
    outer loop
      vertex 10.3851 5 7.24244
      vertex 9.93212 -5 7.1707
      vertex 9.93212 5 7.1707
    endloop
  endfacet
  facet normal 0.218142 0 -0.975917
    outer loop
      vertex 9.48456 -5 7.07066
      vertex 9.93212 5 7.1707
      vertex 9.93212 -5 7.1707
    endloop
  endfacet
  facet normal 0.218142 0 -0.975917
    outer loop
      vertex 9.93212 5 7.1707
      vertex 9.48456 -5 7.07066
      vertex 9.48456 5 7.07066
    endloop
  endfacet
  facet normal 0.338738 0 0.940881
    outer loop
      vertex 8.61269 5 -6.78737
      vertex 9.04418 -5 -6.94271
      vertex 9.04418 5 -6.94271
    endloop
  endfacet
  facet normal 0.338738 0 0.940881
    outer loop
      vertex 9.04418 -5 -6.94271
      vertex 8.61269 5 -6.78737
      vertex 8.61269 -5 -6.78737
    endloop
  endfacet
  facet normal 0.218142 0 0.975917
    outer loop
      vertex 9.48456 5 -7.07066
      vertex 9.93212 -5 -7.1707
      vertex 9.93212 5 -7.1707
    endloop
  endfacet
  facet normal 0.218142 0 0.975917
    outer loop
      vertex 9.93212 -5 -7.1707
      vertex 9.48456 5 -7.07066
      vertex 9.48456 -5 -7.07066
    endloop
  endfacet
  facet normal 0.940881 -0 0.338738
    outer loop
      vertex 4.35729 -5 -2.25582
      vertex 4.51263 5 -2.68731
      vertex 4.35729 5 -2.25582
    endloop
  endfacet
  facet normal 0.940881 0 0.338738
    outer loop
      vertex 4.51263 5 -2.68731
      vertex 4.35729 -5 -2.25582
      vertex 4.51263 -5 -2.68731
    endloop
  endfacet
  facet normal 0.960293 0 -0.278992
    outer loop
      vertex 4.35729 -5 2.25582
      vertex 4.22934 5 1.81544
      vertex 4.35729 5 2.25582
    endloop
  endfacet
  facet normal 0.960293 0 -0.278992
    outer loop
      vertex 4.22934 5 1.81544
      vertex 4.35729 -5 2.25582
      vertex 4.22934 -5 1.81544
    endloop
  endfacet
  facet normal 0.995562 0 -0.0941078
    outer loop
      vertex 4.05756 -5 0.914932
      vertex 4.0144 5 0.45837
      vertex 4.05756 5 0.914932
    endloop
  endfacet
  facet normal 0.995562 0 -0.0941078
    outer loop
      vertex 4.0144 5 0.45837
      vertex 4.05756 -5 0.914932
      vertex 4.0144 -5 0.45837
    endloop
  endfacet
  facet normal 0.891006 0 -0.453991
    outer loop
      vertex 4.90296 -5 3.5168
      vertex 4.69476 5 3.10819
      vertex 4.90296 5 3.5168
    endloop
  endfacet
  facet normal 0.891006 0 -0.453991
    outer loop
      vertex 4.69476 5 3.10819
      vertex 4.90296 -5 3.5168
      vertex 4.69476 -5 3.10819
    endloop
  endfacet
  facet normal 0.612908 0 -0.790154
    outer loop
      vertex 6.6468 -5 5.62475
      vertex 7.00917 5 5.90582
      vertex 7.00917 -5 5.90582
    endloop
  endfacet
  facet normal 0.612908 0 -0.790154
    outer loop
      vertex 7.00917 5 5.90582
      vertex 6.6468 -5 5.62475
      vertex 6.6468 5 5.62475
    endloop
  endfacet
  facet normal 0.338738 0 -0.940881
    outer loop
      vertex 8.61269 -5 6.78737
      vertex 9.04418 5 6.94271
      vertex 9.04418 -5 6.94271
    endloop
  endfacet
  facet normal 0.338738 0 -0.940881
    outer loop
      vertex 9.04418 5 6.94271
      vertex 8.61269 -5 6.78737
      vertex 8.61269 5 6.78737
    endloop
  endfacet
  facet normal 0.0941099 0 0.995562
    outer loop
      vertex 10.3851 5 -7.24244
      vertex 10.8416 -5 -7.28559
      vertex 10.8416 5 -7.28559
    endloop
  endfacet
  facet normal 0.0941099 0 0.995562
    outer loop
      vertex 10.8416 -5 -7.28559
      vertex 10.3851 5 -7.24244
      vertex 10.3851 -5 -7.24244
    endloop
  endfacet
  facet normal 0.278992 0 0.960293
    outer loop
      vertex 9.04418 5 -6.94271
      vertex 9.48456 -5 -7.07066
      vertex 9.48456 5 -7.07066
    endloop
  endfacet
  facet normal 0.278992 0 0.960293
    outer loop
      vertex 9.48456 -5 -7.07066
      vertex 9.04418 5 -6.94271
      vertex 9.04418 -5 -6.94271
    endloop
  endfacet
  facet normal 0.0314095 0 0.999507
    outer loop
      vertex 10.8416 5 -7.28559
      vertex 11.3 -5 -7.3
      vertex 11.3 5 -7.3
    endloop
  endfacet
  facet normal 0.0314095 0 0.999507
    outer loop
      vertex 11.3 -5 -7.3
      vertex 10.8416 5 -7.28559
      vertex 10.8416 -5 -7.28559
    endloop
  endfacet
  facet normal 0.82708 0 -0.562084
    outer loop
      vertex 5.39418 -5 4.29083
      vertex 5.13641 5 3.91154
      vertex 5.39418 5 4.29083
    endloop
  endfacet
  facet normal 0.82708 0 -0.562084
    outer loop
      vertex 5.13641 5 3.91154
      vertex 5.39418 -5 4.29083
      vertex 5.13641 -5 3.91154
    endloop
  endfacet
  facet normal 0.940881 0 -0.338738
    outer loop
      vertex 4.51263 -5 2.68731
      vertex 4.35729 5 2.25582
      vertex 4.51263 5 2.68731
    endloop
  endfacet
  facet normal 0.940881 0 -0.338738
    outer loop
      vertex 4.35729 5 2.25582
      vertex 4.51263 -5 2.68731
      vertex 4.35729 -5 2.25582
    endloop
  endfacet
  facet normal 0.661312 0 -0.750111
    outer loop
      vertex 6.30281 -5 5.32147
      vertex 6.6468 5 5.62475
      vertex 6.6468 -5 5.62475
    endloop
  endfacet
  facet normal 0.661312 0 -0.750111
    outer loop
      vertex 6.6468 5 5.62475
      vertex 6.30281 -5 5.32147
      vertex 6.30281 5 5.32147
    endloop
  endfacet
  facet normal 0.562083 0 -0.827081
    outer loop
      vertex 7.00917 -5 5.90582
      vertex 7.38846 5 6.16359
      vertex 7.38846 -5 6.16359
    endloop
  endfacet
  facet normal 0.562083 0 -0.827081
    outer loop
      vertex 7.38846 5 6.16359
      vertex 7.00917 -5 5.90582
      vertex 7.00917 5 5.90582
    endloop
  endfacet
  facet normal 0.45399 0 -0.891007
    outer loop
      vertex 7.7832 -5 6.39704
      vertex 8.19181 5 6.60524
      vertex 8.19181 -5 6.60524
    endloop
  endfacet
  facet normal 0.45399 0 -0.891007
    outer loop
      vertex 8.19181 5 6.60524
      vertex 7.7832 -5 6.39704
      vertex 7.7832 5 6.39704
    endloop
  endfacet
  facet normal 0.0941099 0 -0.995562
    outer loop
      vertex 10.3851 -5 7.24244
      vertex 10.8416 5 7.28559
      vertex 10.8416 -5 7.28559
    endloop
  endfacet
  facet normal 0.0941099 0 -0.995562
    outer loop
      vertex 10.8416 5 7.28559
      vertex 10.3851 -5 7.24244
      vertex 10.3851 5 7.24244
    endloop
  endfacet
  facet normal 0.509042 0 0.860742
    outer loop
      vertex 7.38846 5 -6.16359
      vertex 7.7832 -5 -6.39704
      vertex 7.7832 5 -6.39704
    endloop
  endfacet
  facet normal 0.509042 0 0.860742
    outer loop
      vertex 7.7832 -5 -6.39704
      vertex 7.38846 5 -6.16359
      vertex 7.38846 -5 -6.16359
    endloop
  endfacet
  facet normal 0.156434 0 0.987688
    outer loop
      vertex 9.93212 5 -7.1707
      vertex 10.3851 -5 -7.24244
      vertex 10.3851 5 -7.24244
    endloop
  endfacet
  facet normal 0.156434 0 0.987688
    outer loop
      vertex 10.3851 -5 -7.24244
      vertex 9.93212 5 -7.1707
      vertex 9.93212 -5 -7.1707
    endloop
  endfacet
  facet normal 0.987688 0 -0.156436
    outer loop
      vertex 4.1293 -5 1.36788
      vertex 4.05756 5 0.914932
      vertex 4.1293 5 1.36788
    endloop
  endfacet
  facet normal 0.987688 0 -0.156436
    outer loop
      vertex 4.05756 5 0.914932
      vertex 4.1293 -5 1.36788
      vertex 4.05756 -5 0.914932
    endloop
  endfacet
  facet normal 0.999507 0 -0.0314095
    outer loop
      vertex 4.0144 -5 0.45837
      vertex 4 5 0
      vertex 4.0144 5 0.45837
    endloop
  endfacet
  facet normal 0.999507 0 -0.0314095
    outer loop
      vertex 4 5 0
      vertex 4.0144 -5 0.45837
      vertex 4 -5 0
    endloop
  endfacet
  facet normal 0.999507 -0 0.0314095
    outer loop
      vertex 4 -5 0
      vertex 4.0144 5 -0.45837
      vertex 4 5 0
    endloop
  endfacet
  facet normal 0.999507 0 0.0314095
    outer loop
      vertex 4.0144 5 -0.45837
      vertex 4 -5 0
      vertex 4.0144 -5 -0.45837
    endloop
  endfacet
  facet normal 0.509042 0 -0.860742
    outer loop
      vertex 7.38846 -5 6.16359
      vertex 7.7832 5 6.39704
      vertex 7.7832 -5 6.39704
    endloop
  endfacet
  facet normal 0.509042 0 -0.860742
    outer loop
      vertex 7.7832 5 6.39704
      vertex 7.38846 -5 6.16359
      vertex 7.38846 5 6.16359
    endloop
  endfacet
  facet normal 0.707107 0 -0.707107
    outer loop
      vertex 6.30281 -5 5.32147
      vertex 5.97853 5 4.99719
      vertex 6.30281 5 5.32147
    endloop
  endfacet
  facet normal 0.707107 0 -0.707107
    outer loop
      vertex 5.97853 5 4.99719
      vertex 6.30281 -5 5.32147
      vertex 5.97853 -5 4.99719
    endloop
  endfacet
  facet normal 0.397148 0 -0.917755
    outer loop
      vertex 8.19181 -5 6.60524
      vertex 8.61269 5 6.78737
      vertex 8.61269 -5 6.78737
    endloop
  endfacet
  facet normal 0.397148 0 -0.917755
    outer loop
      vertex 8.61269 5 6.78737
      vertex 8.19181 -5 6.60524
      vertex 8.19181 5 6.60524
    endloop
  endfacet
  facet normal 0.278992 0 -0.960293
    outer loop
      vertex 9.04418 -5 6.94271
      vertex 9.48456 5 7.07066
      vertex 9.48456 -5 7.07066
    endloop
  endfacet
  facet normal 0.278992 0 -0.960293
    outer loop
      vertex 9.48456 5 7.07066
      vertex 9.04418 -5 6.94271
      vertex 9.04418 5 6.94271
    endloop
  endfacet
  facet normal 0.987688 -0 0.156436
    outer loop
      vertex 4.05756 -5 -0.914932
      vertex 4.1293 5 -1.36788
      vertex 4.05756 5 -0.914932
    endloop
  endfacet
  facet normal 0.987688 0 0.156436
    outer loop
      vertex 4.1293 5 -1.36788
      vertex 4.05756 -5 -0.914932
      vertex 4.1293 -5 -1.36788
    endloop
  endfacet
  facet normal 0.612908 0 0.790154
    outer loop
      vertex 6.6468 5 -5.62475
      vertex 7.00917 -5 -5.90582
      vertex 7.00917 5 -5.90582
    endloop
  endfacet
  facet normal 0.612908 0 0.790154
    outer loop
      vertex 7.00917 -5 -5.90582
      vertex 6.6468 5 -5.62475
      vertex 6.6468 -5 -5.62475
    endloop
  endfacet
  facet normal 0.397148 0 0.917755
    outer loop
      vertex 8.19181 5 -6.60524
      vertex 8.61269 -5 -6.78737
      vertex 8.61269 5 -6.78737
    endloop
  endfacet
  facet normal 0.397148 0 0.917755
    outer loop
      vertex 8.61269 -5 -6.78737
      vertex 8.19181 5 -6.60524
      vertex 8.19181 -5 -6.60524
    endloop
  endfacet
  facet normal 0.917755 0 -0.397147
    outer loop
      vertex 4.69476 -5 3.10819
      vertex 4.51263 5 2.68731
      vertex 4.69476 5 3.10819
    endloop
  endfacet
  facet normal 0.917755 0 -0.397147
    outer loop
      vertex 4.51263 5 2.68731
      vertex 4.69476 -5 3.10819
      vertex 4.51263 -5 2.68731
    endloop
  endfacet
  facet normal 0.790155 0 -0.612907
    outer loop
      vertex 5.67525 -5 4.65319
      vertex 5.39418 5 4.29083
      vertex 5.67525 5 4.65319
    endloop
  endfacet
  facet normal 0.790155 0 -0.612907
    outer loop
      vertex 5.39418 5 4.29083
      vertex 5.67525 -5 4.65319
      vertex 5.39418 -5 4.29083
    endloop
  endfacet
  facet normal 0.975917 0 -0.218142
    outer loop
      vertex 4.22934 -5 1.81544
      vertex 4.1293 5 1.36788
      vertex 4.22934 5 1.81544
    endloop
  endfacet
  facet normal 0.975917 0 -0.218142
    outer loop
      vertex 4.1293 5 1.36788
      vertex 4.22934 -5 1.81544
      vertex 4.1293 -5 1.36788
    endloop
  endfacet
  facet normal 0.975917 -0 0.218142
    outer loop
      vertex 4.1293 -5 -1.36788
      vertex 4.22934 5 -1.81544
      vertex 4.1293 5 -1.36788
    endloop
  endfacet
  facet normal 0.975917 0 0.218142
    outer loop
      vertex 4.22934 5 -1.81544
      vertex 4.1293 -5 -1.36788
      vertex 4.22934 -5 -1.81544
    endloop
  endfacet
  facet normal 0.960293 -0 0.278992
    outer loop
      vertex 4.22934 -5 -1.81544
      vertex 4.35729 5 -2.25582
      vertex 4.22934 5 -1.81544
    endloop
  endfacet
  facet normal 0.960293 0 0.278992
    outer loop
      vertex 4.35729 5 -2.25582
      vertex 4.22934 -5 -1.81544
      vertex 4.35729 -5 -2.25582
    endloop
  endfacet
  facet normal 0.917755 -0 0.397147
    outer loop
      vertex 4.51263 -5 -2.68731
      vertex 4.69476 5 -3.10819
      vertex 4.51263 5 -2.68731
    endloop
  endfacet
  facet normal 0.917755 0 0.397147
    outer loop
      vertex 4.69476 5 -3.10819
      vertex 4.51263 -5 -2.68731
      vertex 4.69476 -5 -3.10819
    endloop
  endfacet
  facet normal 0.562083 0 0.827081
    outer loop
      vertex 7.00917 5 -5.90582
      vertex 7.38846 -5 -6.16359
      vertex 7.38846 5 -6.16359
    endloop
  endfacet
  facet normal 0.562083 0 0.827081
    outer loop
      vertex 7.38846 -5 -6.16359
      vertex 7.00917 5 -5.90582
      vertex 7.00917 -5 -5.90582
    endloop
  endfacet
  facet normal 0.45399 0 0.891007
    outer loop
      vertex 7.7832 5 -6.39704
      vertex 8.19181 -5 -6.60524
      vertex 8.19181 5 -6.60524
    endloop
  endfacet
  facet normal 0.45399 0 0.891007
    outer loop
      vertex 8.19181 -5 -6.60524
      vertex 7.7832 5 -6.39704
      vertex 7.7832 -5 -6.39704
    endloop
  endfacet
  facet normal 0.750111 -0 0.661312
    outer loop
      vertex 5.67525 -5 -4.65319
      vertex 5.97853 5 -4.99719
      vertex 5.67525 5 -4.65319
    endloop
  endfacet
  facet normal 0.750111 0 0.661312
    outer loop
      vertex 5.97853 5 -4.99719
      vertex 5.67525 -5 -4.65319
      vertex 5.97853 -5 -4.99719
    endloop
  endfacet
  facet normal 0.860742 -0 0.509041
    outer loop
      vertex 4.90296 -5 -3.5168
      vertex 5.13641 5 -3.91154
      vertex 4.90296 5 -3.5168
    endloop
  endfacet
  facet normal 0.860742 0 0.509041
    outer loop
      vertex 5.13641 5 -3.91154
      vertex 4.90296 -5 -3.5168
      vertex 5.13641 -5 -3.91154
    endloop
  endfacet
  facet normal 0.661312 0 0.750111
    outer loop
      vertex 6.30281 5 -5.32147
      vertex 6.6468 -5 -5.62475
      vertex 6.6468 5 -5.62475
    endloop
  endfacet
  facet normal 0.661312 0 0.750111
    outer loop
      vertex 6.6468 -5 -5.62475
      vertex 6.30281 5 -5.32147
      vertex 6.30281 -5 -5.32147
    endloop
  endfacet
  facet normal 0.82708 -0 0.562084
    outer loop
      vertex 5.13641 -5 -3.91154
      vertex 5.39418 5 -4.29083
      vertex 5.13641 5 -3.91154
    endloop
  endfacet
  facet normal 0.82708 0 0.562084
    outer loop
      vertex 5.39418 5 -4.29083
      vertex 5.13641 -5 -3.91154
      vertex 5.39418 -5 -4.29083
    endloop
  endfacet
  facet normal 0.790155 -0 0.612907
    outer loop
      vertex 5.39418 -5 -4.29083
      vertex 5.67525 5 -4.65319
      vertex 5.39418 5 -4.29083
    endloop
  endfacet
  facet normal 0.790155 0 0.612907
    outer loop
      vertex 5.67525 5 -4.65319
      vertex 5.39418 -5 -4.29083
      vertex 5.67525 -5 -4.65319
    endloop
  endfacet
  facet normal 0.891006 -0 0.453991
    outer loop
      vertex 4.69476 -5 -3.10819
      vertex 4.90296 5 -3.5168
      vertex 4.69476 5 -3.10819
    endloop
  endfacet
  facet normal 0.891006 0 0.453991
    outer loop
      vertex 4.90296 5 -3.5168
      vertex 4.69476 -5 -3.10819
      vertex 4.90296 -5 -3.5168
    endloop
  endfacet
  facet normal 0.707107 -0 0.707107
    outer loop
      vertex 5.97853 -5 -4.99719
      vertex 6.30281 5 -5.32147
      vertex 5.97853 5 -4.99719
    endloop
  endfacet
  facet normal 0.707107 0 0.707107
    outer loop
      vertex 6.30281 5 -5.32147
      vertex 5.97853 -5 -4.99719
      vertex 6.30281 -5 -5.32147
    endloop
  endfacet
  facet normal -1 0 0
    outer loop
      vertex 0 -5 -7.3
      vertex 0 5 7.3
      vertex 0 5 -7.3
    endloop
  endfacet
  facet normal -1 -0 0
    outer loop
      vertex 0 5 7.3
      vertex 0 -5 -7.3
      vertex 0 -5 7.3
    endloop
  endfacet
  facet normal 0 -1 0
    outer loop
      vertex 2.00008 -4.5 -0.513672
      vertex 1.81808 -4.5 -0.296219
      vertex 1.74475 -4.5 -0.433105
    endloop
  endfacet
  facet normal 0 -1 0
    outer loop
      vertex 1.81808 -4.5 -0.296219
      vertex 2.00008 -4.5 -0.513672
      vertex 2.03975 -4.5 -0.316116
    endloop
  endfacet
  facet normal 0 -1 0
    outer loop
      vertex 1.92776 -4.5 -0.679672
      vertex 1.74475 -4.5 -0.433105
      vertex 1.64531 -4.5 -0.532547
    endloop
  endfacet
  facet normal 0 -1 0
    outer loop
      vertex 1.82275 -4.5 -0.814102
      vertex 1.64531 -4.5 -0.532547
      vertex 1.52298 -4.5 -0.592224
    endloop
  endfacet
  facet normal 0 -1 0
    outer loop
      vertex 1.74475 -4.5 -0.433105
      vertex 1.92776 -4.5 -0.679672
      vertex 2.00008 -4.5 -0.513672
    endloop
  endfacet
  facet normal 0 -1 0
    outer loop
      vertex 1.53876 -4.5 -0.972336
      vertex 1.52298 -4.5 -0.592224
      vertex 1.37776 -4.5 -0.612106
    endloop
  endfacet
  facet normal 0 -1 0
    outer loop
      vertex 1.87675 -4.5 0.288879
      vertex 2.19374 -4.5 0.0908813
      vertex 2.19374 -4.5 0.288879
    endloop
  endfacet
  facet normal 0 -1 0
    outer loop
      vertex 1.87675 -4.5 0.0828695
      vertex 2.19374 -4.5 0.0908813
      vertex 1.87675 -4.5 0.288879
    endloop
  endfacet
  facet normal 0 -1 0
    outer loop
      vertex 1.87675 -4.5 0.0828695
      vertex 2.20908 -4.5 -0.0934439
      vertex 2.19374 -4.5 0.0908813
    endloop
  endfacet
  facet normal 0 -1 0
    outer loop
      vertex 1.86209 -4.5 -0.124222
      vertex 2.20908 -4.5 -0.0934439
      vertex 1.87675 -4.5 0.0828695
    endloop
  endfacet
  facet normal 0 -1 0
    outer loop
      vertex 2.03975 -4.5 -0.316116
      vertex 2.20908 -4.5 -0.0934439
      vertex 1.86209 -4.5 -0.124222
    endloop
  endfacet
  facet normal 0 -1 0
    outer loop
      vertex 2.03975 -4.5 -0.316116
      vertex 1.86209 -4.5 -0.124222
      vertex 1.81808 -4.5 -0.296219
    endloop
  endfacet
  facet normal 0 -1 0
    outer loop
      vertex 2.20908 -4.5 -0.0934439
      vertex 2.03975 -4.5 -0.316116
      vertex 2.04774 -4.5 -0.316116
    endloop
  endfacet
  facet normal 0 -1 -0
    outer loop
      vertex 2.20908 -4.5 -0.0934439
      vertex 2.04774 -4.5 -0.316116
      vertex 2.25508 -4.5 -0.247771
    endloop
  endfacet
  facet normal 0 -1 0
    outer loop
      vertex 2.10252 -4.5 -0.494781
      vertex 2.25508 -4.5 -0.247771
      vertex 2.04774 -4.5 -0.316116
    endloop
  endfacet
  facet normal 0 -1 -0
    outer loop
      vertex 2.25508 -4.5 -0.247771
      vertex 2.10252 -4.5 -0.494781
      vertex 2.33174 -4.5 -0.372115
    endloop
  endfacet
  facet normal 0 -1 0
    outer loop
      vertex 2.18285 -4.5 -0.642776
      vertex 2.33174 -4.5 -0.372115
      vertex 2.10252 -4.5 -0.494781
    endloop
  endfacet
  facet normal 0 -1 -0
    outer loop
      vertex 2.33174 -4.5 -0.372115
      vertex 2.18285 -4.5 -0.642776
      vertex 2.43552 -4.5 -0.463775
    endloop
  endfacet
  facet normal 0 -1 0
    outer loop
      vertex 2.28874 -4.5 -0.760116
      vertex 2.43552 -4.5 -0.463775
      vertex 2.18285 -4.5 -0.642776
    endloop
  endfacet
  facet normal 0 -1 -0
    outer loop
      vertex 2.43552 -4.5 -0.463775
      vertex 2.28874 -4.5 -0.760116
      vertex 2.56285 -4.5 -0.518783
    endloop
  endfacet
  facet normal 0 -1 0
    outer loop
      vertex 2.76375 -4.5 0.555878
      vertex 3.00919 -4.5 0.873871
      vertex 2.79175 -4.5 0.923874
    endloop
  endfacet
  facet normal 0 -1 -0
    outer loop
      vertex 3.00919 -4.5 0.873871
      vertex 2.90253 -4.5 0.526093
      vertex 3.19218 -4.5 0.777206
    endloop
  endfacet
  facet normal 0 -1 0
    outer loop
      vertex 3.00919 -4.5 0.873871
      vertex 2.76375 -4.5 0.555878
      vertex 2.90253 -4.5 0.526093
    endloop
  endfacet
  facet normal 0 -1 0
    outer loop
      vertex 3.01886 -4.5 0.468765
      vertex 3.19218 -4.5 0.777206
      vertex 2.90253 -4.5 0.526093
    endloop
  endfacet
  facet normal 0 -1 -0
    outer loop
      vertex 3.19218 -4.5 0.777206
      vertex 3.01886 -4.5 0.468765
      vertex 3.34074 -4.5 0.633881
    endloop
  endfacet
  facet normal 0 -1 0
    outer loop
      vertex 3.11275 -4.5 0.383881
      vertex 3.34074 -4.5 0.633881
      vertex 3.01886 -4.5 0.468765
    endloop
  endfacet
  facet normal 0 -1 -0
    outer loop
      vertex 3.34074 -4.5 0.633881
      vertex 3.11275 -4.5 0.383881
      vertex 3.45018 -4.5 0.451324
    endloop
  endfacet
  facet normal 0 -1 0
    outer loop
      vertex 3.18163 -4.5 0.274429
      vertex 3.45018 -4.5 0.451324
      vertex 3.11275 -4.5 0.383881
    endloop
  endfacet
  facet normal 0 -1 0
    outer loop
      vertex 3.18163 -4.5 0.274429
      vertex 3.51585 -4.5 0.236984
      vertex 3.45018 -4.5 0.451324
    endloop
  endfacet
  facet normal 0 -1 0
    outer loop
      vertex 3.22296 -4.5 0.14476
      vertex 3.51585 -4.5 0.236984
      vertex 3.18163 -4.5 0.274429
    endloop
  endfacet
  facet normal 0 -1 0
    outer loop
      vertex 3.53773 -4.5 -0.00910854
      vertex 3.22296 -4.5 0.14476
      vertex 3.23674 -4.5 -0.00511074
    endloop
  endfacet
  facet normal 0 -1 0
    outer loop
      vertex 3.22296 -4.5 0.14476
      vertex 3.53773 -4.5 -0.00910854
      vertex 3.51585 -4.5 0.236984
    endloop
  endfacet
  facet normal 0 -1 0
    outer loop
      vertex 3.22107 -4.5 -0.166671
      vertex 3.53773 -4.5 -0.00910854
      vertex 3.23674 -4.5 -0.00511074
    endloop
  endfacet
  facet normal 0 -1 0
    outer loop
      vertex 3.22107 -4.5 -0.166671
      vertex 3.51463 -4.5 -0.273772
      vertex 3.53773 -4.5 -0.00910854
    endloop
  endfacet
  facet normal 0 -1 0
    outer loop
      vertex 3.17407 -4.5 -0.299331
      vertex 3.51463 -4.5 -0.273772
      vertex 3.22107 -4.5 -0.166671
    endloop
  endfacet
  facet normal 0 -1 0
    outer loop
      vertex 3.4453 -4.5 -0.495772
      vertex 3.17407 -4.5 -0.299331
      vertex 3.09575 -4.5 -0.403106
    endloop
  endfacet
  facet normal 0 -1 0
    outer loop
      vertex 3.32974 -4.5 -0.675109
      vertex 3.09575 -4.5 -0.403106
      vertex 2.99107 -4.5 -0.477553
    endloop
  endfacet
  facet normal 0 -1 0
    outer loop
      vertex 3.17407 -4.5 -0.299331
      vertex 3.4453 -4.5 -0.495772
      vertex 3.51463 -4.5 -0.273772
    endloop
  endfacet
  facet normal 0 -1 0
    outer loop
      vertex 2.98085 -4.5 -0.886657
      vertex 2.99107 -4.5 -0.477553
      vertex 2.86374 -4.5 -0.522216
    endloop
  endfacet
  facet normal 0 -1 0
    outer loop
      vertex 2.75174 -4.5 -0.913116
      vertex 2.86374 -4.5 -0.522216
      vertex 2.71375 -4.5 -0.537108
    endloop
  endfacet
  facet normal 0 -1 0
    outer loop
      vertex 2.4193 -4.5 -0.845107
      vertex 2.56285 -4.5 -0.518783
      vertex 2.28874 -4.5 -0.760116
    endloop
  endfacet
  facet normal 0 -1 -0
    outer loop
      vertex 2.86374 -4.5 -0.522216
      vertex 2.75174 -4.5 -0.913116
      vertex 2.98085 -4.5 -0.886657
    endloop
  endfacet
  facet normal 0 -1 0
    outer loop
      vertex 2.57362 -4.5 -0.896102
      vertex 2.56285 -4.5 -0.518783
      vertex 2.4193 -4.5 -0.845107
    endloop
  endfacet
  facet normal 0 -1 -0
    outer loop
      vertex 2.99107 -4.5 -0.477553
      vertex 2.98085 -4.5 -0.886657
      vertex 3.17352 -4.5 -0.807326
    endloop
  endfacet
  facet normal 0 -1 0
    outer loop
      vertex 2.56285 -4.5 -0.518783
      vertex 2.57362 -4.5 -0.896102
      vertex 2.71375 -4.5 -0.537108
    endloop
  endfacet
  facet normal 0 -1 0
    outer loop
      vertex 3.09575 -4.5 -0.403106
      vertex 3.32974 -4.5 -0.675109
      vertex 3.4453 -4.5 -0.495772
    endloop
  endfacet
  facet normal 0 -1 -0
    outer loop
      vertex 2.71375 -4.5 -0.537108
      vertex 2.57362 -4.5 -0.896102
      vertex 2.75174 -4.5 -0.913116
    endloop
  endfacet
  facet normal 0 -1 0
    outer loop
      vertex 2.99107 -4.5 -0.477553
      vertex 3.17352 -4.5 -0.807326
      vertex 3.32974 -4.5 -0.675109
    endloop
  endfacet
  facet normal 0 -1 0
    outer loop
      vertex 1.05853 -4.5 0.49266
      vertex 1.07065 -4.5 0.916091
      vertex 0.877318 -4.5 0.814101
    endloop
  endfacet
  facet normal 0 -1 0
    outer loop
      vertex 1.05853 -4.5 0.49266
      vertex 0.877318 -4.5 0.814101
      vertex 0.725753 -4.5 0.665877
    endloop
  endfacet
  facet normal 0 -1 -0
    outer loop
      vertex 1.07065 -4.5 0.916091
      vertex 1.05853 -4.5 0.49266
      vertex 1.34076 -4.5 0.593871
    endloop
  endfacet
  facet normal 0 -1 0
    outer loop
      vertex 1.07065 -4.5 0.916091
      vertex 1.34076 -4.5 0.593871
      vertex 1.30575 -4.5 0.971877
    endloop
  endfacet
  facet normal 0 -1 0
    outer loop
      vertex 0.889206 -4.5 0.286315
      vertex 0.725753 -4.5 0.665877
      vertex 0.616867 -4.5 0.474425
    endloop
  endfacet
  facet normal 0 -1 0
    outer loop
      vertex 0.725753 -4.5 0.665877
      vertex 0.889206 -4.5 0.286315
      vertex 1.05853 -4.5 0.49266
    endloop
  endfacet
  facet normal 0 -1 0
    outer loop
      vertex 0.551529 -4.5 0.244094
      vertex 0.889206 -4.5 0.286315
      vertex 0.616867 -4.5 0.474425
    endloop
  endfacet
  facet normal 0 -1 0
    outer loop
      vertex 0.832764 -4.5 -0.025116
      vertex 0.551529 -4.5 0.244094
      vertex 0.529755 -4.5 -0.025116
    endloop
  endfacet
  facet normal 0 -1 0
    outer loop
      vertex 0.551529 -4.5 0.244094
      vertex 0.832764 -4.5 -0.025116
      vertex 0.889206 -4.5 0.286315
    endloop
  endfacet
  facet normal 0 -1 0
    outer loop
      vertex 0.529755 -4.5 -0.025116
      vertex 0.847977 -4.5 -0.194672
      vertex 0.832764 -4.5 -0.025116
    endloop
  endfacet
  facet normal 0 -1 0
    outer loop
      vertex 0.553986 -4.5 -0.311325
      vertex 0.847977 -4.5 -0.194672
      vertex 0.529755 -4.5 -0.025116
    endloop
  endfacet
  facet normal 0 -1 0
    outer loop
      vertex 0.553986 -4.5 -0.311325
      vertex 0.893646 -4.5 -0.337997
      vertex 0.847977 -4.5 -0.194672
    endloop
  endfacet
  facet normal 0 -1 0
    outer loop
      vertex 0.626648 -4.5 -0.550003
      vertex 0.893646 -4.5 -0.337997
      vertex 0.553986 -4.5 -0.311325
    endloop
  endfacet
  facet normal 0 -1 -0
    outer loop
      vertex 0.893646 -4.5 -0.337997
      vertex 0.626648 -4.5 -0.550003
      vertex 0.969757 -4.5 -0.455109
    endloop
  endfacet
  facet normal 0 -1 0
    outer loop
      vertex 0.747757 -4.5 -0.741104
      vertex 0.969757 -4.5 -0.455109
      vertex 0.626648 -4.5 -0.550003
    endloop
  endfacet
  facet normal 0 -1 -0
    outer loop
      vertex 0.969757 -4.5 -0.455109
      vertex 0.747757 -4.5 -0.741104
      vertex 1.07597 -4.5 -0.542328
    endloop
  endfacet
  facet normal 0 -1 0
    outer loop
      vertex 0.913757 -4.5 -0.880554
      vertex 1.07597 -4.5 -0.542328
      vertex 0.747757 -4.5 -0.741104
    endloop
  endfacet
  facet normal 0 -1 -0
    outer loop
      vertex 1.07597 -4.5 -0.542328
      vertex 0.913757 -4.5 -0.880554
      vertex 1.21198 -4.5 -0.594666
    endloop
  endfacet
  facet normal 0 -1 0
    outer loop
      vertex 1.11975 -4.5 -0.964218
      vertex 1.21198 -4.5 -0.594666
      vertex 0.913757 -4.5 -0.880554
    endloop
  endfacet
  facet normal 0 -1 0
    outer loop
      vertex 1.21198 -4.5 -0.594666
      vertex 1.36575 -4.5 -0.992111
      vertex 1.37776 -4.5 -0.612106
    endloop
  endfacet
  facet normal 0 -1 0
    outer loop
      vertex 1.36575 -4.5 -0.992111
      vertex 1.21198 -4.5 -0.594666
      vertex 1.11975 -4.5 -0.964218
    endloop
  endfacet
  facet normal -0 -1 0
    outer loop
      vertex 1.53876 -4.5 -0.972336
      vertex 1.37776 -4.5 -0.612106
      vertex 1.36575 -4.5 -0.992111
    endloop
  endfacet
  facet normal 0 -1 0
    outer loop
      vertex 1.64531 -4.5 -0.532547
      vertex 1.82275 -4.5 -0.814102
      vertex 1.92776 -4.5 -0.679672
    endloop
  endfacet
  facet normal 0 -1 0
    outer loop
      vertex 1.52298 -4.5 -0.592224
      vertex 1.53876 -4.5 -0.972336
      vertex 1.69109 -4.5 -0.912994
    endloop
  endfacet
  facet normal 0 -1 0
    outer loop
      vertex 1.52298 -4.5 -0.592224
      vertex 1.69109 -4.5 -0.912994
      vertex 1.82275 -4.5 -0.814102
    endloop
  endfacet
  facet normal 0.95665 -0 0.291239
    outer loop
      vertex 0.553986 -5 -0.311325
      vertex 0.626648 -4.5 -0.550003
      vertex 0.553986 -4.5 -0.311325
    endloop
  endfacet
  facet normal 0.95665 0 0.291239
    outer loop
      vertex 0.626648 -4.5 -0.550003
      vertex 0.553986 -5 -0.311325
      vertex 0.626648 -5 -0.550003
    endloop
  endfacet
  facet normal 0.844663 -0 0.535299
    outer loop
      vertex 0.626648 -5 -0.550003
      vertex 0.747757 -4.5 -0.741104
      vertex 0.626648 -4.5 -0.550003
    endloop
  endfacet
  facet normal 0.844663 0 0.535299
    outer loop
      vertex 0.747757 -4.5 -0.741104
      vertex 0.626648 -5 -0.550003
      vertex 0.747757 -5 -0.741104
    endloop
  endfacet
  facet normal 0.643218 0 0.765683
    outer loop
      vertex 0.747757 -4.5 -0.741104
      vertex 0.913757 -5 -0.880554
      vertex 0.913757 -4.5 -0.880554
    endloop
  endfacet
  facet normal 0.643218 0 0.765683
    outer loop
      vertex 0.913757 -5 -0.880554
      vertex 0.747757 -4.5 -0.741104
      vertex 0.747757 -5 -0.741104
    endloop
  endfacet
  facet normal 0.376296 0 0.926499
    outer loop
      vertex 0.913757 -4.5 -0.880554
      vertex 1.11975 -5 -0.964218
      vertex 1.11975 -4.5 -0.964218
    endloop
  endfacet
  facet normal 0.376296 0 0.926499
    outer loop
      vertex 1.11975 -5 -0.964218
      vertex 0.913757 -4.5 -0.880554
      vertex 0.913757 -5 -0.880554
    endloop
  endfacet
  facet normal 0.112664 0 0.993633
    outer loop
      vertex 1.11975 -4.5 -0.964218
      vertex 1.36575 -5 -0.992111
      vertex 1.36575 -4.5 -0.992111
    endloop
  endfacet
  facet normal 0.112664 0 0.993633
    outer loop
      vertex 1.36575 -5 -0.992111
      vertex 1.11975 -4.5 -0.964218
      vertex 1.11975 -5 -0.964218
    endloop
  endfacet
  facet normal -0.113566 0 0.99353
    outer loop
      vertex 1.36575 -4.5 -0.992111
      vertex 1.53876 -5 -0.972336
      vertex 1.53876 -4.5 -0.972336
    endloop
  endfacet
  facet normal -0.113566 0 0.99353
    outer loop
      vertex 1.53876 -5 -0.972336
      vertex 1.36575 -4.5 -0.992111
      vertex 1.36575 -5 -0.992111
    endloop
  endfacet
  facet normal -0.362991 0 0.931793
    outer loop
      vertex 1.53876 -4.5 -0.972336
      vertex 1.69109 -5 -0.912994
      vertex 1.69109 -4.5 -0.912994
    endloop
  endfacet
  facet normal -0.362991 0 0.931793
    outer loop
      vertex 1.69109 -5 -0.912994
      vertex 1.53876 -4.5 -0.972336
      vertex 1.53876 -5 -0.972336
    endloop
  endfacet
  facet normal -0.600548 0 0.799588
    outer loop
      vertex 1.69109 -4.5 -0.912994
      vertex 1.82275 -5 -0.814102
      vertex 1.82275 -4.5 -0.814102
    endloop
  endfacet
  facet normal -0.600548 0 0.799588
    outer loop
      vertex 1.82275 -5 -0.814102
      vertex 1.69109 -4.5 -0.912994
      vertex 1.69109 -5 -0.912994
    endloop
  endfacet
  facet normal -0.78806 0 0.615599
    outer loop
      vertex 1.82275 -5 -0.814102
      vertex 1.92776 -4.5 -0.679672
      vertex 1.82275 -4.5 -0.814102
    endloop
  endfacet
  facet normal -0.78806 0 0.615599
    outer loop
      vertex 1.92776 -4.5 -0.679672
      vertex 1.82275 -5 -0.814102
      vertex 1.92776 -5 -0.679672
    endloop
  endfacet
  facet normal -0.916793 0 0.399364
    outer loop
      vertex 1.92776 -5 -0.679672
      vertex 2.00008 -4.5 -0.513672
      vertex 1.92776 -4.5 -0.679672
    endloop
  endfacet
  facet normal -0.916793 0 0.399364
    outer loop
      vertex 2.00008 -4.5 -0.513672
      vertex 1.92776 -5 -0.679672
      vertex 2.00008 -5 -0.513672
    endloop
  endfacet
  facet normal -0.980426 0 0.196888
    outer loop
      vertex 2.00008 -5 -0.513672
      vertex 2.03975 -4.5 -0.316116
      vertex 2.00008 -4.5 -0.513672
    endloop
  endfacet
  facet normal -0.980426 0 0.196888
    outer loop
      vertex 2.03975 -4.5 -0.316116
      vertex 2.00008 -5 -0.513672
      vertex 2.03975 -5 -0.316116
    endloop
  endfacet
  facet normal -0 0 1
    outer loop
      vertex 2.03975 -4.5 -0.316116
      vertex 2.04774 -5 -0.316116
      vertex 2.04774 -4.5 -0.316116
    endloop
  endfacet
  facet normal 0 0 1
    outer loop
      vertex 2.04774 -5 -0.316116
      vertex 2.03975 -4.5 -0.316116
      vertex 2.03975 -5 -0.316116
    endloop
  endfacet
  facet normal 0.956072 -0 0.293133
    outer loop
      vertex 2.04774 -5 -0.316116
      vertex 2.10252 -4.5 -0.494781
      vertex 2.04774 -4.5 -0.316116
    endloop
  endfacet
  facet normal 0.956072 0 0.293133
    outer loop
      vertex 2.10252 -4.5 -0.494781
      vertex 2.04774 -5 -0.316116
      vertex 2.10252 -5 -0.494781
    endloop
  endfacet
  facet normal 0.878898 -0 0.47701
    outer loop
      vertex 2.10252 -5 -0.494781
      vertex 2.18285 -4.5 -0.642776
      vertex 2.10252 -4.5 -0.494781
    endloop
  endfacet
  facet normal 0.878898 0 0.47701
    outer loop
      vertex 2.18285 -4.5 -0.642776
      vertex 2.10252 -5 -0.494781
      vertex 2.18285 -5 -0.642776
    endloop
  endfacet
  facet normal 0.742379 -0 0.66998
    outer loop
      vertex 2.18285 -5 -0.642776
      vertex 2.28874 -4.5 -0.760116
      vertex 2.18285 -4.5 -0.642776
    endloop
  endfacet
  facet normal 0.742379 0 0.66998
    outer loop
      vertex 2.28874 -4.5 -0.760116
      vertex 2.18285 -5 -0.642776
      vertex 2.28874 -5 -0.760116
    endloop
  endfacet
  facet normal 0.54558 0 0.838058
    outer loop
      vertex 2.28874 -4.5 -0.760116
      vertex 2.4193 -5 -0.845107
      vertex 2.4193 -4.5 -0.845107
    endloop
  endfacet
  facet normal 0.54558 0 0.838058
    outer loop
      vertex 2.4193 -5 -0.845107
      vertex 2.28874 -4.5 -0.760116
      vertex 2.28874 -5 -0.760116
    endloop
  endfacet
  facet normal 0.313748 0 0.949506
    outer loop
      vertex 2.4193 -4.5 -0.845107
      vertex 2.57362 -5 -0.896102
      vertex 2.57362 -4.5 -0.896102
    endloop
  endfacet
  facet normal 0.313748 0 0.949506
    outer loop
      vertex 2.57362 -5 -0.896102
      vertex 2.4193 -4.5 -0.845107
      vertex 2.4193 -5 -0.845107
    endloop
  endfacet
  facet normal 0.0950868 0 0.995469
    outer loop
      vertex 2.57362 -4.5 -0.896102
      vertex 2.75174 -5 -0.913116
      vertex 2.75174 -4.5 -0.913116
    endloop
  endfacet
  facet normal 0.0950868 0 0.995469
    outer loop
      vertex 2.75174 -5 -0.913116
      vertex 2.57362 -4.5 -0.896102
      vertex 2.57362 -5 -0.896102
    endloop
  endfacet
  facet normal -0.114722 0 0.993398
    outer loop
      vertex 2.75174 -4.5 -0.913116
      vertex 2.98085 -5 -0.886657
      vertex 2.98085 -4.5 -0.886657
    endloop
  endfacet
  facet normal -0.114722 0 0.993398
    outer loop
      vertex 2.98085 -5 -0.886657
      vertex 2.75174 -4.5 -0.913116
      vertex 2.75174 -5 -0.913116
    endloop
  endfacet
  facet normal -0.380728 0 0.924687
    outer loop
      vertex 2.98085 -4.5 -0.886657
      vertex 3.17352 -5 -0.807326
      vertex 3.17352 -4.5 -0.807326
    endloop
  endfacet
  facet normal -0.380728 0 0.924687
    outer loop
      vertex 3.17352 -5 -0.807326
      vertex 2.98085 -4.5 -0.886657
      vertex 2.98085 -5 -0.886657
    endloop
  endfacet
  facet normal -0.646032 0 0.76331
    outer loop
      vertex 3.17352 -4.5 -0.807326
      vertex 3.32974 -5 -0.675109
      vertex 3.32974 -4.5 -0.675109
    endloop
  endfacet
  facet normal -0.646032 0 0.76331
    outer loop
      vertex 3.32974 -5 -0.675109
      vertex 3.17352 -4.5 -0.807326
      vertex 3.17352 -5 -0.807326
    endloop
  endfacet
  facet normal -0.840609 0 0.541643
    outer loop
      vertex 3.32974 -5 -0.675109
      vertex 3.4453 -4.5 -0.495772
      vertex 3.32974 -4.5 -0.675109
    endloop
  endfacet
  facet normal -0.840609 0 0.541643
    outer loop
      vertex 3.4453 -4.5 -0.495772
      vertex 3.32974 -5 -0.675109
      vertex 3.4453 -5 -0.495772
    endloop
  endfacet
  facet normal -0.954528 0 0.298122
    outer loop
      vertex 3.4453 -5 -0.495772
      vertex 3.51463 -4.5 -0.273772
      vertex 3.4453 -4.5 -0.495772
    endloop
  endfacet
  facet normal -0.954528 0 0.298122
    outer loop
      vertex 3.51463 -4.5 -0.273772
      vertex 3.4453 -5 -0.495772
      vertex 3.51463 -5 -0.273772
    endloop
  endfacet
  facet normal -0.996212 0 0.0869568
    outer loop
      vertex 3.51463 -5 -0.273772
      vertex 3.53773 -4.5 -0.00910854
      vertex 3.51463 -4.5 -0.273772
    endloop
  endfacet
  facet normal -0.996212 0 0.0869568
    outer loop
      vertex 3.53773 -4.5 -0.00910854
      vertex 3.51463 -5 -0.273772
      vertex 3.53773 -5 -0.00910854
    endloop
  endfacet
  facet normal -0.99607 0 -0.0885646
    outer loop
      vertex 3.53773 -5 -0.00910854
      vertex 3.51585 -4.5 0.236984
      vertex 3.53773 -4.5 -0.00910854
    endloop
  endfacet
  facet normal -0.99607 -0 -0.0885646
    outer loop
      vertex 3.51585 -4.5 0.236984
      vertex 3.53773 -5 -0.00910854
      vertex 3.51585 -5 0.236984
    endloop
  endfacet
  facet normal -0.956126 0 -0.292957
    outer loop
      vertex 3.51585 -5 0.236984
      vertex 3.45018 -4.5 0.451324
      vertex 3.51585 -4.5 0.236984
    endloop
  endfacet
  facet normal -0.956126 -0 -0.292957
    outer loop
      vertex 3.45018 -4.5 0.451324
      vertex 3.51585 -5 0.236984
      vertex 3.45018 -5 0.451324
    endloop
  endfacet
  facet normal -0.857695 0 -0.514158
    outer loop
      vertex 3.45018 -5 0.451324
      vertex 3.34074 -4.5 0.633881
      vertex 3.45018 -4.5 0.451324
    endloop
  endfacet
  facet normal -0.857695 -0 -0.514158
    outer loop
      vertex 3.34074 -4.5 0.633881
      vertex 3.45018 -5 0.451324
      vertex 3.34074 -5 0.633881
    endloop
  endfacet
  facet normal -0.694316 0 -0.71967
    outer loop
      vertex 3.19218 -5 0.777206
      vertex 3.34074 -4.5 0.633881
      vertex 3.34074 -5 0.633881
    endloop
  endfacet
  facet normal -0.694316 0 -0.71967
    outer loop
      vertex 3.34074 -4.5 0.633881
      vertex 3.19218 -5 0.777206
      vertex 3.19218 -4.5 0.777206
    endloop
  endfacet
  facet normal -0.467068 0 -0.884222
    outer loop
      vertex 3.00919 -5 0.873871
      vertex 3.19218 -4.5 0.777206
      vertex 3.19218 -5 0.777206
    endloop
  endfacet
  facet normal -0.467068 0 -0.884222
    outer loop
      vertex 3.19218 -4.5 0.777206
      vertex 3.00919 -5 0.873871
      vertex 3.00919 -4.5 0.873871
    endloop
  endfacet
  facet normal -0.224115 0 -0.974563
    outer loop
      vertex 2.79175 -5 0.923874
      vertex 3.00919 -4.5 0.873871
      vertex 3.00919 -5 0.873871
    endloop
  endfacet
  facet normal -0.224115 0 -0.974563
    outer loop
      vertex 3.00919 -4.5 0.873871
      vertex 2.79175 -5 0.923874
      vertex 2.79175 -4.5 0.923874
    endloop
  endfacet
  facet normal 0.997118 0 -0.0758681
    outer loop
      vertex 2.79175 -5 0.923874
      vertex 2.76375 -4.5 0.555878
      vertex 2.79175 -4.5 0.923874
    endloop
  endfacet
  facet normal 0.997118 0 -0.0758681
    outer loop
      vertex 2.76375 -4.5 0.555878
      vertex 2.79175 -5 0.923874
      vertex 2.76375 -5 0.555878
    endloop
  endfacet
  facet normal 0.209845 0 0.977735
    outer loop
      vertex 2.76375 -4.5 0.555878
      vertex 2.90253 -5 0.526093
      vertex 2.90253 -4.5 0.526093
    endloop
  endfacet
  facet normal 0.209845 0 0.977735
    outer loop
      vertex 2.90253 -5 0.526093
      vertex 2.76375 -4.5 0.555878
      vertex 2.76375 -5 0.555878
    endloop
  endfacet
  facet normal 0.442029 0 0.897001
    outer loop
      vertex 2.90253 -4.5 0.526093
      vertex 3.01886 -5 0.468765
      vertex 3.01886 -4.5 0.468765
    endloop
  endfacet
  facet normal 0.442029 0 0.897001
    outer loop
      vertex 3.01886 -5 0.468765
      vertex 2.90253 -4.5 0.526093
      vertex 2.90253 -5 0.526093
    endloop
  endfacet
  facet normal 0.670648 0 0.741776
    outer loop
      vertex 3.01886 -4.5 0.468765
      vertex 3.11275 -5 0.383881
      vertex 3.11275 -4.5 0.383881
    endloop
  endfacet
  facet normal 0.670648 0 0.741776
    outer loop
      vertex 3.11275 -5 0.383881
      vertex 3.01886 -4.5 0.468765
      vertex 3.01886 -5 0.468765
    endloop
  endfacet
  facet normal 0.846357 -0 0.532616
    outer loop
      vertex 3.11275 -5 0.383881
      vertex 3.18163 -4.5 0.274429
      vertex 3.11275 -4.5 0.383881
    endloop
  endfacet
  facet normal 0.846357 0 0.532616
    outer loop
      vertex 3.18163 -4.5 0.274429
      vertex 3.11275 -5 0.383881
      vertex 3.18163 -5 0.274429
    endloop
  endfacet
  facet normal 0.952761 -0 0.303722
    outer loop
      vertex 3.18163 -5 0.274429
      vertex 3.22296 -4.5 0.14476
      vertex 3.18163 -4.5 0.274429
    endloop
  endfacet
  facet normal 0.952761 0 0.303722
    outer loop
      vertex 3.22296 -4.5 0.14476
      vertex 3.18163 -5 0.274429
      vertex 3.22296 -5 0.14476
    endloop
  endfacet
  facet normal 0.9958 -0 0.091551
    outer loop
      vertex 3.22296 -5 0.14476
      vertex 3.23674 -4.5 -0.00511074
      vertex 3.22296 -4.5 0.14476
    endloop
  endfacet
  facet normal 0.9958 0 0.091551
    outer loop
      vertex 3.23674 -4.5 -0.00511074
      vertex 3.22296 -5 0.14476
      vertex 3.23674 -5 -0.00511074
    endloop
  endfacet
  facet normal 0.995329 0 -0.0965435
    outer loop
      vertex 3.23674 -5 -0.00511074
      vertex 3.22107 -4.5 -0.166671
      vertex 3.23674 -4.5 -0.00511074
    endloop
  endfacet
  facet normal 0.995329 0 -0.0965435
    outer loop
      vertex 3.22107 -4.5 -0.166671
      vertex 3.23674 -5 -0.00511074
      vertex 3.22107 -5 -0.166671
    endloop
  endfacet
  facet normal 0.942597 0 -0.333931
    outer loop
      vertex 3.22107 -5 -0.166671
      vertex 3.17407 -4.5 -0.299331
      vertex 3.22107 -4.5 -0.166671
    endloop
  endfacet
  facet normal 0.942597 0 -0.333931
    outer loop
      vertex 3.17407 -4.5 -0.299331
      vertex 3.22107 -5 -0.166671
      vertex 3.17407 -5 -0.299331
    endloop
  endfacet
  facet normal 0.79818 0 -0.60242
    outer loop
      vertex 3.17407 -5 -0.299331
      vertex 3.09575 -4.5 -0.403106
      vertex 3.17407 -4.5 -0.299331
    endloop
  endfacet
  facet normal 0.79818 0 -0.60242
    outer loop
      vertex 3.09575 -4.5 -0.403106
      vertex 3.17407 -5 -0.299331
      vertex 3.09575 -5 -0.403106
    endloop
  endfacet
  facet normal 0.579585 0 -0.814912
    outer loop
      vertex 2.99107 -5 -0.477553
      vertex 3.09575 -4.5 -0.403106
      vertex 3.09575 -5 -0.403106
    endloop
  endfacet
  facet normal 0.579585 0 -0.814912
    outer loop
      vertex 3.09575 -4.5 -0.403106
      vertex 2.99107 -5 -0.477553
      vertex 2.99107 -4.5 -0.477553
    endloop
  endfacet
  facet normal 0.33098 0 -0.943638
    outer loop
      vertex 2.86374 -5 -0.522216
      vertex 2.99107 -4.5 -0.477553
      vertex 2.99107 -5 -0.477553
    endloop
  endfacet
  facet normal 0.33098 0 -0.943638
    outer loop
      vertex 2.99107 -4.5 -0.477553
      vertex 2.86374 -5 -0.522216
      vertex 2.86374 -4.5 -0.522216
    endloop
  endfacet
  facet normal 0.0988021 0 -0.995107
    outer loop
      vertex 2.71375 -5 -0.537108
      vertex 2.86374 -4.5 -0.522216
      vertex 2.86374 -5 -0.522216
    endloop
  endfacet
  facet normal 0.0988021 0 -0.995107
    outer loop
      vertex 2.86374 -4.5 -0.522216
      vertex 2.71375 -5 -0.537108
      vertex 2.71375 -4.5 -0.537108
    endloop
  endfacet
  facet normal -0.120562 0 -0.992706
    outer loop
      vertex 2.56285 -5 -0.518783
      vertex 2.71375 -4.5 -0.537108
      vertex 2.71375 -5 -0.537108
    endloop
  endfacet
  facet normal -0.120562 0 -0.992706
    outer loop
      vertex 2.71375 -4.5 -0.537108
      vertex 2.56285 -5 -0.518783
      vertex 2.56285 -4.5 -0.518783
    endloop
  endfacet
  facet normal -0.396573 0 -0.918003
    outer loop
      vertex 2.43552 -5 -0.463775
      vertex 2.56285 -4.5 -0.518783
      vertex 2.56285 -5 -0.518783
    endloop
  endfacet
  facet normal -0.396573 0 -0.918003
    outer loop
      vertex 2.56285 -4.5 -0.518783
      vertex 2.43552 -5 -0.463775
      vertex 2.43552 -4.5 -0.463775
    endloop
  endfacet
  facet normal -0.662001 0 -0.749503
    outer loop
      vertex 2.33174 -5 -0.372115
      vertex 2.43552 -4.5 -0.463775
      vertex 2.43552 -5 -0.463775
    endloop
  endfacet
  facet normal -0.662001 0 -0.749503
    outer loop
      vertex 2.43552 -4.5 -0.463775
      vertex 2.33174 -5 -0.372115
      vertex 2.33174 -4.5 -0.372115
    endloop
  endfacet
  facet normal -0.851228 0 -0.524797
    outer loop
      vertex 2.33174 -5 -0.372115
      vertex 2.25508 -4.5 -0.247771
      vertex 2.33174 -4.5 -0.372115
    endloop
  endfacet
  facet normal -0.851228 -0 -0.524797
    outer loop
      vertex 2.25508 -4.5 -0.247771
      vertex 2.33174 -5 -0.372115
      vertex 2.25508 -5 -0.247771
    endloop
  endfacet
  facet normal -0.958326 0 -0.285678
    outer loop
      vertex 2.25508 -5 -0.247771
      vertex 2.20908 -4.5 -0.0934439
      vertex 2.25508 -4.5 -0.247771
    endloop
  endfacet
  facet normal -0.958326 -0 -0.285678
    outer loop
      vertex 2.20908 -4.5 -0.0934439
      vertex 2.25508 -5 -0.247771
      vertex 2.20908 -5 -0.0934439
    endloop
  endfacet
  facet normal -0.996557 0 -0.0829094
    outer loop
      vertex 2.20908 -5 -0.0934439
      vertex 2.19374 -4.5 0.0908813
      vertex 2.20908 -4.5 -0.0934439
    endloop
  endfacet
  facet normal -0.996557 -0 -0.0829094
    outer loop
      vertex 2.19374 -4.5 0.0908813
      vertex 2.20908 -5 -0.0934439
      vertex 2.19374 -5 0.0908813
    endloop
  endfacet
  facet normal -1 0 0
    outer loop
      vertex 2.19374 -5 0.0908813
      vertex 2.19374 -4.5 0.288879
      vertex 2.19374 -4.5 0.0908813
    endloop
  endfacet
  facet normal -1 -0 0
    outer loop
      vertex 2.19374 -4.5 0.288879
      vertex 2.19374 -5 0.0908813
      vertex 2.19374 -5 0.288879
    endloop
  endfacet
  facet normal 0 0 -1
    outer loop
      vertex 1.87675 -5 0.288879
      vertex 2.19374 -4.5 0.288879
      vertex 2.19374 -5 0.288879
    endloop
  endfacet
  facet normal -0 0 -1
    outer loop
      vertex 2.19374 -4.5 0.288879
      vertex 1.87675 -5 0.288879
      vertex 1.87675 -4.5 0.288879
    endloop
  endfacet
  facet normal 1 -0 0
    outer loop
      vertex 1.87675 -5 0.288879
      vertex 1.87675 -4.5 0.0828695
      vertex 1.87675 -4.5 0.288879
    endloop
  endfacet
  facet normal 1 0 0
    outer loop
      vertex 1.87675 -4.5 0.0828695
      vertex 1.87675 -5 0.288879
      vertex 1.87675 -5 0.0828695
    endloop
  endfacet
  facet normal 0.997503 0 -0.070631
    outer loop
      vertex 1.87675 -5 0.0828695
      vertex 1.86209 -4.5 -0.124222
      vertex 1.87675 -4.5 0.0828695
    endloop
  endfacet
  facet normal 0.997503 0 -0.070631
    outer loop
      vertex 1.86209 -4.5 -0.124222
      vertex 1.87675 -5 0.0828695
      vertex 1.86209 -5 -0.124222
    endloop
  endfacet
  facet normal 0.968793 0 -0.247871
    outer loop
      vertex 1.86209 -5 -0.124222
      vertex 1.81808 -4.5 -0.296219
      vertex 1.86209 -4.5 -0.124222
    endloop
  endfacet
  facet normal 0.968793 0 -0.247871
    outer loop
      vertex 1.81808 -4.5 -0.296219
      vertex 1.86209 -5 -0.124222
      vertex 1.81808 -5 -0.296219
    endloop
  endfacet
  facet normal 0.881476 0 -0.47223
    outer loop
      vertex 1.81808 -5 -0.296219
      vertex 1.74475 -4.5 -0.433105
      vertex 1.81808 -4.5 -0.296219
    endloop
  endfacet
  facet normal 0.881476 0 -0.47223
    outer loop
      vertex 1.74475 -4.5 -0.433105
      vertex 1.81808 -5 -0.296219
      vertex 1.74475 -5 -0.433105
    endloop
  endfacet
  facet normal 0.707107 0 -0.707107
    outer loop
      vertex 1.74475 -5 -0.433105
      vertex 1.64531 -4.5 -0.532547
      vertex 1.74475 -4.5 -0.433105
    endloop
  endfacet
  facet normal 0.707107 0 -0.707107
    outer loop
      vertex 1.64531 -4.5 -0.532547
      vertex 1.74475 -5 -0.433105
      vertex 1.64531 -5 -0.532547
    endloop
  endfacet
  facet normal 0.438448 0 -0.898757
    outer loop
      vertex 1.52298 -5 -0.592224
      vertex 1.64531 -4.5 -0.532547
      vertex 1.64531 -5 -0.532547
    endloop
  endfacet
  facet normal 0.438448 0 -0.898757
    outer loop
      vertex 1.64531 -4.5 -0.532547
      vertex 1.52298 -5 -0.592224
      vertex 1.52298 -4.5 -0.592224
    endloop
  endfacet
  facet normal 0.135647 0 -0.990757
    outer loop
      vertex 1.37776 -5 -0.612106
      vertex 1.52298 -4.5 -0.592224
      vertex 1.52298 -5 -0.592224
    endloop
  endfacet
  facet normal 0.135647 0 -0.990757
    outer loop
      vertex 1.52298 -4.5 -0.592224
      vertex 1.37776 -5 -0.612106
      vertex 1.37776 -4.5 -0.612106
    endloop
  endfacet
  facet normal -0.104623 0 -0.994512
    outer loop
      vertex 1.21198 -5 -0.594666
      vertex 1.37776 -4.5 -0.612106
      vertex 1.37776 -5 -0.612106
    endloop
  endfacet
  facet normal -0.104623 0 -0.994512
    outer loop
      vertex 1.37776 -4.5 -0.612106
      vertex 1.21198 -5 -0.594666
      vertex 1.21198 -4.5 -0.594666
    endloop
  endfacet
  facet normal -0.359154 0 -0.933278
    outer loop
      vertex 1.07597 -5 -0.542328
      vertex 1.21198 -4.5 -0.594666
      vertex 1.21198 -5 -0.594666
    endloop
  endfacet
  facet normal -0.359154 0 -0.933278
    outer loop
      vertex 1.21198 -4.5 -0.594666
      vertex 1.07597 -5 -0.542328
      vertex 1.07597 -4.5 -0.542328
    endloop
  endfacet
  facet normal -0.634609 0 -0.772833
    outer loop
      vertex 0.969757 -5 -0.455109
      vertex 1.07597 -4.5 -0.542328
      vertex 1.07597 -5 -0.542328
    endloop
  endfacet
  facet normal -0.634609 0 -0.772833
    outer loop
      vertex 1.07597 -4.5 -0.542328
      vertex 0.969757 -5 -0.455109
      vertex 0.969757 -4.5 -0.455109
    endloop
  endfacet
  facet normal -0.838481 0 -0.544931
    outer loop
      vertex 0.969757 -5 -0.455109
      vertex 0.893646 -4.5 -0.337997
      vertex 0.969757 -4.5 -0.455109
    endloop
  endfacet
  facet normal -0.838481 -0 -0.544931
    outer loop
      vertex 0.893646 -4.5 -0.337997
      vertex 0.969757 -5 -0.455109
      vertex 0.893646 -5 -0.337997
    endloop
  endfacet
  facet normal -0.952799 0 -0.303601
    outer loop
      vertex 0.893646 -5 -0.337997
      vertex 0.847977 -4.5 -0.194672
      vertex 0.893646 -4.5 -0.337997
    endloop
  endfacet
  facet normal -0.952799 -0 -0.303601
    outer loop
      vertex 0.847977 -4.5 -0.194672
      vertex 0.893646 -5 -0.337997
      vertex 0.847977 -5 -0.194672
    endloop
  endfacet
  facet normal -0.995999 0 -0.0893638
    outer loop
      vertex 0.847977 -5 -0.194672
      vertex 0.832764 -4.5 -0.025116
      vertex 0.847977 -4.5 -0.194672
    endloop
  endfacet
  facet normal -0.995999 -0 -0.0893638
    outer loop
      vertex 0.832764 -4.5 -0.025116
      vertex 0.847977 -5 -0.194672
      vertex 0.832764 -5 -0.025116
    endloop
  endfacet
  facet normal -0.983971 0 0.17833
    outer loop
      vertex 0.832764 -5 -0.025116
      vertex 0.889206 -4.5 0.286315
      vertex 0.832764 -4.5 -0.025116
    endloop
  endfacet
  facet normal -0.983971 0 0.17833
    outer loop
      vertex 0.889206 -4.5 0.286315
      vertex 0.832764 -5 -0.025116
      vertex 0.889206 -5 0.286315
    endloop
  endfacet
  facet normal -0.77304 0 0.634358
    outer loop
      vertex 0.889206 -5 0.286315
      vertex 1.05853 -4.5 0.49266
      vertex 0.889206 -4.5 0.286315
    endloop
  endfacet
  facet normal -0.77304 0 0.634358
    outer loop
      vertex 1.05853 -4.5 0.49266
      vertex 0.889206 -5 0.286315
      vertex 1.05853 -5 0.49266
    endloop
  endfacet
  facet normal -0.337568 0 0.941301
    outer loop
      vertex 1.05853 -4.5 0.49266
      vertex 1.34076 -5 0.593871
      vertex 1.34076 -4.5 0.593871
    endloop
  endfacet
  facet normal -0.337568 0 0.941301
    outer loop
      vertex 1.34076 -5 0.593871
      vertex 1.05853 -4.5 0.49266
      vertex 1.05853 -5 0.49266
    endloop
  endfacet
  facet normal -0.99574 0 -0.0922088
    outer loop
      vertex 1.31451 -5 0.877376
      vertex 1.34076 -4.5 0.593871
      vertex 1.34076 -5 0.593871
    endloop
  endfacet
  facet normal -0.99574 0 -0.0922088
    outer loop
      vertex 1.34076 -4.5 0.593871
      vertex 1.31451 -5 0.877376
      vertex 1.30575 -4.5 0.971877
    endloop
  endfacet
  facet normal -0.99574 -4.74806e-07 -0.0922063
    outer loop
      vertex 1.30575 -5 0.971877
      vertex 1.30575 -4.5 0.971877
      vertex 1.31451 -5 0.877376
    endloop
  endfacet
  facet normal 0.230869 1.10087e-07 -0.972985
    outer loop
      vertex 1.07065 -5 0.916091
      vertex 1.30575 -4.5 0.971877
      vertex 1.30575 -5 0.971877
    endloop
  endfacet
  facet normal 0.230869 1.10087e-07 -0.972985
    outer loop
      vertex 1.30575 -4.5 0.971877
      vertex 1.07065 -5 0.916091
      vertex 1.07065 -4.5 0.916091
    endloop
  endfacet
  facet normal 0.466598 2.22491e-07 -0.88447
    outer loop
      vertex 0.877319 -5 0.814101
      vertex 1.07065 -4.5 0.916091
      vertex 1.07065 -5 0.916091
    endloop
  endfacet
  facet normal 0.466598 2.22491e-07 -0.88447
    outer loop
      vertex 1.07065 -4.5 0.916091
      vertex 0.877319 -5 0.814101
      vertex 0.877318 -4.5 0.814101
    endloop
  endfacet
  facet normal 0.699181 3.33396e-07 -0.714944
    outer loop
      vertex 0.725753 -5 0.665877
      vertex 0.877318 -4.5 0.814101
      vertex 0.877319 -5 0.814101
    endloop
  endfacet
  facet normal 0.699181 3.33396e-07 -0.714944
    outer loop
      vertex 0.877318 -4.5 0.814101
      vertex 0.725753 -5 0.665877
      vertex 0.725753 -4.5 0.665877
    endloop
  endfacet
  facet normal 0.869249 4.1449e-07 -0.494374
    outer loop
      vertex 0.644089 -5 0.522288
      vertex 0.725753 -4.5 0.665877
      vertex 0.725753 -5 0.665877
    endloop
  endfacet
  facet normal 0.869249 4.1449e-07 -0.494374
    outer loop
      vertex 0.725753 -4.5 0.665877
      vertex 0.644089 -5 0.522288
      vertex 0.616867 -4.5 0.474425
    endloop
  endfacet
  facet normal 0.869248 0 -0.494377
    outer loop
      vertex 0.644089 -5 0.522288
      vertex 0.616867 -5 0.474425
      vertex 0.616867 -4.5 0.474425
    endloop
  endfacet
  facet normal 0.962042 0 -0.272902
    outer loop
      vertex 0.616867 -5 0.474425
      vertex 0.551529 -4.5 0.244094
      vertex 0.616867 -4.5 0.474425
    endloop
  endfacet
  facet normal 0.962042 0 -0.272902
    outer loop
      vertex 0.551529 -4.5 0.244094
      vertex 0.616867 -5 0.474425
      vertex 0.551529 -5 0.244094
    endloop
  endfacet
  facet normal 0.996745 0 -0.080619
    outer loop
      vertex 0.551529 -5 0.244094
      vertex 0.529755 -4.5 -0.025116
      vertex 0.551529 -4.5 0.244094
    endloop
  endfacet
  facet normal 0.996745 0 -0.080619
    outer loop
      vertex 0.529755 -4.5 -0.025116
      vertex 0.551529 -5 0.244094
      vertex 0.529755 -5 -0.025116
    endloop
  endfacet
  facet normal 0.996435 -0 0.0843599
    outer loop
      vertex 0.529755 -5 -0.025116
      vertex 0.553986 -4.5 -0.311325
      vertex 0.529755 -4.5 -0.025116
    endloop
  endfacet
  facet normal 0.996435 0 0.0843599
    outer loop
      vertex 0.553986 -4.5 -0.311325
      vertex 0.529755 -5 -0.025116
      vertex 0.553986 -5 -0.311325
    endloop
  endfacet
endsolid OpenSCAD_Model
