solid OpenSCAD_Model
  facet normal -0 0 1
    outer loop
      vertex 0 5 6.8
      vertex 10.8 -5 6.8
      vertex 10.8 5 6.8
    endloop
  endfacet
  facet normal 0 0 1
    outer loop
      vertex 10.8 -5 6.8
      vertex 0 5 6.8
      vertex 0 -5 6.8
    endloop
  endfacet
  facet normal 0 0 -1
    outer loop
      vertex 0 -5 -6.8
      vertex 10.8 5 -6.8
      vertex 10.8 -5 -6.8
    endloop
  endfacet
  facet normal -0 0 -1
    outer loop
      vertex 10.8 5 -6.8
      vertex 0 -5 -6.8
      vertex 0 5 -6.8
    endloop
  endfacet
  facet normal 0 -1 0
    outer loop
      vertex 0.873504 -5 0.148383
      vertex 0.946507 -5 0.483043
      vertex 0.873504 -5 0.519881
    endloop
  endfacet
  facet normal 0 -1 -0
    outer loop
      vertex 0.946507 -5 0.483043
      vertex 0.873504 -5 0.148383
      vertex 0.97084 -5 0.470763
    endloop
  endfacet
  facet normal 0 -1 -0
    outer loop
      vertex 0.97084 -5 0.470763
      vertex 0.873504 -5 0.148383
      vertex 1.07085 -5 0.404769
    endloop
  endfacet
  facet normal 0 -1 -0
    outer loop
      vertex 1.07085 -5 0.404769
      vertex 0.873504 -5 0.148383
      vertex 1.17351 -5 0.321868
    endloop
  endfacet
  facet normal 0 -1 -0
    outer loop
      vertex 1.17351 -5 0.321868
      vertex 0.873504 -5 0.148383
      vertex 1.28162 -5 0.219878
    endloop
  endfacet
  facet normal 0 -1 0
    outer loop
      vertex 0.873504 -5 0.148383
      vertex 1.39795 -5 0.0965414
      vertex 1.28162 -5 0.219878
    endloop
  endfacet
  facet normal 0 -1 0
    outer loop
      vertex 0.873505 -5 -0.96611
      vertex 1.39795 -5 0.0965414
      vertex 0.873504 -5 0.148383
    endloop
  endfacet
  facet normal 0 -1 -0
    outer loop
      vertex 1.39795 -5 0.0965414
      vertex 0.873505 -5 -0.96611
      vertex 1.73607 -5 -0.299103
    endloop
  endfacet
  facet normal 0 -1 -0
    outer loop
      vertex 1.73607 -5 -0.299103
      vertex 0.873505 -5 -0.96611
      vertex 1.90874 -5 -0.489441
    endloop
  endfacet
  facet normal 0 -1 -0
    outer loop
      vertex 1.90874 -5 -0.489441
      vertex 0.873505 -5 -0.96611
      vertex 2.0405 -5 -0.61911
    endloop
  endfacet
  facet normal 0 -1 -0
    outer loop
      vertex 2.0405 -5 -0.61911
      vertex 0.873505 -5 -0.96611
      vertex 2.15182 -5 -0.710892
    endloop
  endfacet
  facet normal 0 -1 0
    outer loop
      vertex 2.48605 -5 -0.887328
      vertex 4.47752 -5 -2.50325
      vertex 2.59805 -5 -0.912658
    endloop
  endfacet
  facet normal 0 -1 0
    outer loop
      vertex 4.47752 -5 -2.50325
      vertex 2.48605 -5 -0.887328
      vertex 0.873505 -5 -0.96611
    endloop
  endfacet
  facet normal 0 -1 -0
    outer loop
      vertex 2.3745 -5 -0.845107
      vertex 0.873505 -5 -0.96611
      vertex 2.48605 -5 -0.887328
    endloop
  endfacet
  facet normal 0 -1 -0
    outer loop
      vertex 2.26315 -5 -0.786223
      vertex 0.873505 -5 -0.96611
      vertex 2.3745 -5 -0.845107
    endloop
  endfacet
  facet normal 0 -1 -0
    outer loop
      vertex 2.15182 -5 -0.710892
      vertex 0.873505 -5 -0.96611
      vertex 2.26315 -5 -0.786223
    endloop
  endfacet
  facet normal 0 -1 0
    outer loop
      vertex 0.974838 -5 0.848205
      vertex 2.75749 -5 0.904877
      vertex 0.82051 -5 0.921874
    endloop
  endfacet
  facet normal 0 -1 0
    outer loop
      vertex 1.1165 -5 0.764541
      vertex 2.75749 -5 0.904877
      vertex 0.974838 -5 0.848205
    endloop
  endfacet
  facet normal 0 -1 0
    outer loop
      vertex 1.14875 -5 0.741122
      vertex 2.75749 -5 0.904877
      vertex 1.1165 -5 0.764541
    endloop
  endfacet
  facet normal 0 -1 0
    outer loop
      vertex 1.24551 -5 0.670867
      vertex 2.75749 -5 0.904877
      vertex 1.14875 -5 0.741122
    endloop
  endfacet
  facet normal 0 -1 0
    outer loop
      vertex 1.36484 -5 0.569991
      vertex 2.75749 -5 0.904877
      vertex 1.24551 -5 0.670867
    endloop
  endfacet
  facet normal 0 -1 0
    outer loop
      vertex 1.47618 -5 0.465987
      vertex 2.75749 -5 0.904877
      vertex 1.36484 -5 0.569991
    endloop
  endfacet
  facet normal 0 -1 0
    outer loop
      vertex 1.57951 -5 0.358871
      vertex 2.75749 -5 0.904877
      vertex 1.47618 -5 0.465987
    endloop
  endfacet
  facet normal 0 -1 0
    outer loop
      vertex 2.75749 -5 0.904877
      vertex 1.57951 -5 0.358871
      vertex 2.72249 -5 0.530869
    endloop
  endfacet
  facet normal 0 -1 0
    outer loop
      vertex 1.67706 -5 0.249877
      vertex 2.72249 -5 0.530869
      vertex 1.57951 -5 0.358871
    endloop
  endfacet
  facet normal 0 -1 0
    outer loop
      vertex 1.76973 -5 0.14154
      vertex 2.72249 -5 0.530869
      vertex 1.67706 -5 0.249877
    endloop
  endfacet
  facet normal 0 -1 0
    outer loop
      vertex 1.94273 -5 -0.0698853
      vertex 2.72249 -5 0.530869
      vertex 1.76973 -5 0.14154
    endloop
  endfacet
  facet normal 0 -1 0
    outer loop
      vertex 2.02771 -5 -0.16655
      vertex 2.72249 -5 0.530869
      vertex 1.94273 -5 -0.0698853
    endloop
  endfacet
  facet normal 0 -1 0
    outer loop
      vertex 2.11249 -5 -0.256104
      vertex 2.72249 -5 0.530869
      vertex 2.02771 -5 -0.16655
    endloop
  endfacet
  facet normal 0 -1 0
    outer loop
      vertex 2.19916 -5 -0.336669
      vertex 2.72249 -5 0.530869
      vertex 2.11249 -5 -0.256104
    endloop
  endfacet
  facet normal 0 -1 0
    outer loop
      vertex 2.2885 -5 -0.406325
      vertex 2.72249 -5 0.530869
      vertex 2.19916 -5 -0.336669
    endloop
  endfacet
  facet normal 0 -1 0
    outer loop
      vertex 2.38049 -5 -0.465102
      vertex 2.72249 -5 0.530869
      vertex 2.2885 -5 -0.406325
    endloop
  endfacet
  facet normal 0 -1 0
    outer loop
      vertex 2.47849 -5 -0.509551
      vertex 2.72249 -5 0.530869
      vertex 2.38049 -5 -0.465102
    endloop
  endfacet
  facet normal -0 -1 0
    outer loop
      vertex 3.19138 -5 0.118423
      vertex 2.72249 -5 0.530869
      vertex 2.47849 -5 -0.509551
    endloop
  endfacet
  facet normal 0 -1 0
    outer loop
      vertex 2.72249 -5 0.530869
      vertex 3.19138 -5 0.118423
      vertex 2.86383 -5 0.499771
    endloop
  endfacet
  facet normal 0 -1 0
    outer loop
      vertex 2.86383 -5 0.499771
      vertex 3.14905 -5 0.245758
      vertex 2.9825 -5 0.441101
    endloop
  endfacet
  facet normal 0 -1 0
    outer loop
      vertex 2.9825 -5 0.441101
      vertex 3.14905 -5 0.245758
      vertex 3.07849 -5 0.354874
    endloop
  endfacet
  facet normal -0 -1 -0
    outer loop
      vertex 3.14905 -5 0.245758
      vertex 2.86383 -5 0.499771
      vertex 3.19138 -5 0.118423
    endloop
  endfacet
  facet normal 0 -1 0
    outer loop
      vertex 2.58449 -5 -0.536223
      vertex 3.19138 -5 0.118423
      vertex 2.47849 -5 -0.509551
    endloop
  endfacet
  facet normal 0 -1 -0
    outer loop
      vertex 3.19138 -5 0.118423
      vertex 2.58449 -5 -0.536223
      vertex 3.20549 -5 -0.0271139
    endloop
  endfacet
  facet normal 0 -1 0
    outer loop
      vertex 3.20549 -5 -0.0271139
      vertex 2.69849 -5 -0.545104
      vertex 3.19072 -5 -0.177886
    endloop
  endfacet
  facet normal -0 -1 0
    outer loop
      vertex 2.84715 -5 -0.529891
      vertex 3.19072 -5 -0.177886
      vertex 2.69849 -5 -0.545104
    endloop
  endfacet
  facet normal 0 -1 0
    outer loop
      vertex 2.69849 -5 -0.545104
      vertex 3.20549 -5 -0.0271139
      vertex 2.58449 -5 -0.536223
    endloop
  endfacet
  facet normal 0 -1 0
    outer loop
      vertex 3.14638 -5 -0.304885
      vertex 2.84715 -5 -0.529891
      vertex 3.07249 -5 -0.408111
    endloop
  endfacet
  facet normal 0 -1 0
    outer loop
      vertex 3.19072 -5 -0.177886
      vertex 2.84715 -5 -0.529891
      vertex 3.14638 -5 -0.304885
    endloop
  endfacet
  facet normal 0 -1 0
    outer loop
      vertex 3.07249 -5 -0.408111
      vertex 2.84715 -5 -0.529891
      vertex 2.97183 -5 -0.484221
    endloop
  endfacet
  facet normal 0 -1 0
    outer loop
      vertex 0 -5 6.8
      vertex 10.373 -5 6.78658
      vertex 10.8 -5 6.8
    endloop
  endfacet
  facet normal 0 -1 0
    outer loop
      vertex 0 -5 6.8
      vertex 9.94773 -5 6.74638
      vertex 10.373 -5 6.78658
    endloop
  endfacet
  facet normal 0 -1 0
    outer loop
      vertex 0 -5 6.8
      vertex 9.52581 -5 6.67955
      vertex 9.94773 -5 6.74638
    endloop
  endfacet
  facet normal 0 -1 0
    outer loop
      vertex 0 -5 6.8
      vertex 9.10891 -5 6.58636
      vertex 9.52581 -5 6.67955
    endloop
  endfacet
  facet normal 0 -1 0
    outer loop
      vertex 0 -5 6.8
      vertex 8.69868 -5 6.46718
      vertex 9.10891 -5 6.58636
    endloop
  endfacet
  facet normal 0 -1 0
    outer loop
      vertex 0 -5 6.8
      vertex 8.29675 -5 6.32248
      vertex 8.69868 -5 6.46718
    endloop
  endfacet
  facet normal 0 -1 0
    outer loop
      vertex 0 -5 6.8
      vertex 7.9047 -5 6.15282
      vertex 8.29675 -5 6.32248
    endloop
  endfacet
  facet normal 0 -1 0
    outer loop
      vertex 0 -5 6.8
      vertex 7.52407 -5 5.95889
      vertex 7.9047 -5 6.15282
    endloop
  endfacet
  facet normal 0 -1 0
    outer loop
      vertex 0 -5 6.8
      vertex 7.15638 -5 5.74143
      vertex 7.52407 -5 5.95889
    endloop
  endfacet
  facet normal 0 -1 0
    outer loop
      vertex 0 -5 6.8
      vertex 6.80306 -5 5.50132
      vertex 7.15638 -5 5.74143
    endloop
  endfacet
  facet normal 0 -1 0
    outer loop
      vertex 0 -5 6.8
      vertex 6.46552 -5 5.23949
      vertex 6.80306 -5 5.50132
    endloop
  endfacet
  facet normal 0 -1 0
    outer loop
      vertex 0 -5 6.8
      vertex 6.14508 -5 4.95699
      vertex 6.46552 -5 5.23949
    endloop
  endfacet
  facet normal 0 -1 0
    outer loop
      vertex 0 -5 6.8
      vertex 5.84301 -5 4.65492
      vertex 6.14508 -5 4.95699
    endloop
  endfacet
  facet normal 0 -1 0
    outer loop
      vertex 0 -5 6.8
      vertex 5.56051 -5 4.33448
      vertex 5.84301 -5 4.65492
    endloop
  endfacet
  facet normal 0 -1 0
    outer loop
      vertex 0 -5 6.8
      vertex 5.29868 -5 3.99694
      vertex 5.56051 -5 4.33448
    endloop
  endfacet
  facet normal 0 -1 0
    outer loop
      vertex 0 -5 6.8
      vertex 5.05857 -5 3.64362
      vertex 5.29868 -5 3.99694
    endloop
  endfacet
  facet normal 0 -1 0
    outer loop
      vertex 0 -5 6.8
      vertex 4.84111 -5 3.27592
      vertex 5.05857 -5 3.64362
    endloop
  endfacet
  facet normal 0 -1 0
    outer loop
      vertex 0 -5 6.8
      vertex 4.64718 -5 2.8953
      vertex 4.84111 -5 3.27592
    endloop
  endfacet
  facet normal 0 -1 0
    outer loop
      vertex 0.82051 -5 0.921874
      vertex 4.64718 -5 2.8953
      vertex 0 -5 6.8
    endloop
  endfacet
  facet normal 0 -1 0
    outer loop
      vertex 4.64718 -5 2.8953
      vertex 0.82051 -5 0.921874
      vertex 4.47752 -5 2.50325
    endloop
  endfacet
  facet normal 0 -1 0
    outer loop
      vertex 2.75749 -5 0.904877
      vertex 4.47752 -5 2.50325
      vertex 0.82051 -5 0.921874
    endloop
  endfacet
  facet normal 0 -1 0
    outer loop
      vertex 4.33282 -5 2.10132
      vertex 2.75749 -5 0.904877
      vertex 4.21363 -5 1.69109
    endloop
  endfacet
  facet normal 0 -1 0
    outer loop
      vertex 0.82051 -5 0.921874
      vertex 0 -5 6.8
      vertex 0.562499 -5 0.921874
    endloop
  endfacet
  facet normal 0 -1 0
    outer loop
      vertex 0 -5 6.8
      vertex 0.5625 -5 -0.494114
      vertex 0.562499 -5 0.921874
    endloop
  endfacet
  facet normal 0 -1 0
    outer loop
      vertex 0 -5 -6.8
      vertex 0.5625 -5 -0.494114
      vertex 0 -5 6.8
    endloop
  endfacet
  facet normal 0 -1 0
    outer loop
      vertex 0 -5 -6.8
      vertex 0.873505 -5 -0.96611
      vertex 0.5625 -5 -0.96611
    endloop
  endfacet
  facet normal 0 -1 0
    outer loop
      vertex 2.59805 -5 -0.912658
      vertex 4.21363 -5 -1.69109
      vertex 4.12045 -5 -1.27419
    endloop
  endfacet
  facet normal 0 -1 0
    outer loop
      vertex 2.59805 -5 -0.912658
      vertex 4.33282 -5 -2.10132
      vertex 4.21363 -5 -1.69109
    endloop
  endfacet
  facet normal 0 -1 0
    outer loop
      vertex 2.59805 -5 -0.912658
      vertex 4.47752 -5 -2.50325
      vertex 4.33282 -5 -2.10132
    endloop
  endfacet
  facet normal 0 -1 0
    outer loop
      vertex 0.873505 -5 -0.96611
      vertex 4.64718 -5 -2.8953
      vertex 4.47752 -5 -2.50325
    endloop
  endfacet
  facet normal 0 -1 -0
    outer loop
      vertex 0.873505 -5 -0.96611
      vertex 0 -5 -6.8
      vertex 4.64718 -5 -2.8953
    endloop
  endfacet
  facet normal 0 -1 -0
    outer loop
      vertex 4.64718 -5 -2.8953
      vertex 0 -5 -6.8
      vertex 4.84111 -5 -3.27592
    endloop
  endfacet
  facet normal 0 -1 -0
    outer loop
      vertex 4.84111 -5 -3.27592
      vertex 0 -5 -6.8
      vertex 5.05857 -5 -3.64362
    endloop
  endfacet
  facet normal 0 -1 -0
    outer loop
      vertex 5.05857 -5 -3.64362
      vertex 0 -5 -6.8
      vertex 5.29868 -5 -3.99694
    endloop
  endfacet
  facet normal 0 -1 -0
    outer loop
      vertex 5.29868 -5 -3.99694
      vertex 0 -5 -6.8
      vertex 5.56051 -5 -4.33448
    endloop
  endfacet
  facet normal 0 -1 -0
    outer loop
      vertex 5.56051 -5 -4.33448
      vertex 0 -5 -6.8
      vertex 5.84301 -5 -4.65492
    endloop
  endfacet
  facet normal 0 -1 -0
    outer loop
      vertex 5.84301 -5 -4.65492
      vertex 0 -5 -6.8
      vertex 6.14508 -5 -4.95699
    endloop
  endfacet
  facet normal 0 -1 -0
    outer loop
      vertex 6.14508 -5 -4.95699
      vertex 0 -5 -6.8
      vertex 6.46552 -5 -5.23949
    endloop
  endfacet
  facet normal 0 -1 -0
    outer loop
      vertex 0.5625 -5 -0.494114
      vertex 0 -5 -6.8
      vertex 0.5625 -5 -0.96611
    endloop
  endfacet
  facet normal 0 -1 -0
    outer loop
      vertex 6.46552 -5 -5.23949
      vertex 0 -5 -6.8
      vertex 6.80306 -5 -5.50132
    endloop
  endfacet
  facet normal 0 -1 0
    outer loop
      vertex 0 -5 -6.8
      vertex 7.15638 -5 -5.74143
      vertex 6.80306 -5 -5.50132
    endloop
  endfacet
  facet normal 0 -1 0
    outer loop
      vertex 0 -5 -6.8
      vertex 7.52407 -5 -5.95889
      vertex 7.15638 -5 -5.74143
    endloop
  endfacet
  facet normal 0 -1 0
    outer loop
      vertex 0 -5 -6.8
      vertex 7.9047 -5 -6.15282
      vertex 7.52407 -5 -5.95889
    endloop
  endfacet
  facet normal 0 -1 0
    outer loop
      vertex 0 -5 -6.8
      vertex 8.29675 -5 -6.32248
      vertex 7.9047 -5 -6.15282
    endloop
  endfacet
  facet normal 0 -1 0
    outer loop
      vertex 0 -5 -6.8
      vertex 8.69868 -5 -6.46718
      vertex 8.29675 -5 -6.32248
    endloop
  endfacet
  facet normal 0 -1 0
    outer loop
      vertex 0 -5 -6.8
      vertex 9.10891 -5 -6.58636
      vertex 8.69868 -5 -6.46718
    endloop
  endfacet
  facet normal 0 -1 0
    outer loop
      vertex 0 -5 -6.8
      vertex 9.52581 -5 -6.67955
      vertex 9.10891 -5 -6.58636
    endloop
  endfacet
  facet normal 0 -1 0
    outer loop
      vertex 0 -5 -6.8
      vertex 9.94773 -5 -6.74638
      vertex 9.52581 -5 -6.67955
    endloop
  endfacet
  facet normal 0 -1 0
    outer loop
      vertex 0 -5 -6.8
      vertex 10.373 -5 -6.78658
      vertex 9.94773 -5 -6.74638
    endloop
  endfacet
  facet normal 0 -1 -0
    outer loop
      vertex 10.373 -5 -6.78658
      vertex 0 -5 -6.8
      vertex 10.8 -5 -6.8
    endloop
  endfacet
  facet normal 0 -1 0
    outer loop
      vertex 4.47752 -5 2.50325
      vertex 2.75749 -5 0.904877
      vertex 4.33282 -5 2.10132
    endloop
  endfacet
  facet normal 0 -1 0
    outer loop
      vertex 2.9706 -5 0.854874
      vertex 4.21363 -5 1.69109
      vertex 2.75749 -5 0.904877
    endloop
  endfacet
  facet normal 0 -1 0
    outer loop
      vertex 4.21363 -5 1.69109
      vertex 2.9706 -5 0.854874
      vertex 4.12045 -5 1.27419
    endloop
  endfacet
  facet normal 0 -1 0
    outer loop
      vertex 3.1526 -5 0.758209
      vertex 4.12045 -5 1.27419
      vertex 2.9706 -5 0.854874
    endloop
  endfacet
  facet normal 0 -1 0
    outer loop
      vertex 4.12045 -5 1.27419
      vertex 3.1526 -5 0.758209
      vertex 4.05362 -5 0.852265
    endloop
  endfacet
  facet normal 0 -1 0
    outer loop
      vertex 3.3035 -5 0.614868
      vertex 4.05362 -5 0.852265
      vertex 3.1526 -5 0.758209
    endloop
  endfacet
  facet normal 0 -1 0
    outer loop
      vertex 3.41628 -5 0.432434
      vertex 4.05362 -5 0.852265
      vertex 3.3035 -5 0.614868
    endloop
  endfacet
  facet normal 0 -1 0
    outer loop
      vertex 3.41628 -5 0.432434
      vertex 4.01342 -5 0.426975
      vertex 4.05362 -5 0.852265
    endloop
  endfacet
  facet normal 0 -1 0
    outer loop
      vertex 3.48393 -5 0.21843
      vertex 4.01342 -5 0.426975
      vertex 3.41628 -5 0.432434
    endloop
  endfacet
  facet normal 0 -1 0
    outer loop
      vertex 3.48393 -5 0.21843
      vertex 4 -5 0
      vertex 4.01342 -5 0.426975
    endloop
  endfacet
  facet normal 0 -1 0
    outer loop
      vertex 3.50648 -5 -0.0271139
      vertex 4 -5 0
      vertex 3.48393 -5 0.21843
    endloop
  endfacet
  facet normal 0 -1 0
    outer loop
      vertex 3.48349 -5 -0.29222
      vertex 4 -5 0
      vertex 3.50648 -5 -0.0271139
    endloop
  endfacet
  facet normal 0 -1 0
    outer loop
      vertex 3.48349 -5 -0.29222
      vertex 4.01342 -5 -0.426975
      vertex 4 -5 0
    endloop
  endfacet
  facet normal 0 -1 0
    outer loop
      vertex 3.41449 -5 -0.512893
      vertex 4.01342 -5 -0.426975
      vertex 3.48349 -5 -0.29222
    endloop
  endfacet
  facet normal 0 -1 0
    outer loop
      vertex 4.05362 -5 -0.852265
      vertex 3.41449 -5 -0.512893
      vertex 3.2995 -5 -0.689101
    endloop
  endfacet
  facet normal 0 -1 0
    outer loop
      vertex 4.12045 -5 -1.27419
      vertex 3.2995 -5 -0.689101
      vertex 3.14204 -5 -0.817992
    endloop
  endfacet
  facet normal 0 -1 0
    outer loop
      vertex 3.41449 -5 -0.512893
      vertex 4.05362 -5 -0.852265
      vertex 4.01342 -5 -0.426975
    endloop
  endfacet
  facet normal 0 -1 0
    outer loop
      vertex 4.12045 -5 -1.27419
      vertex 3.14204 -5 -0.817992
      vertex 2.94571 -5 -0.895324
    endloop
  endfacet
  facet normal 0 -1 0
    outer loop
      vertex 4.12045 -5 -1.27419
      vertex 2.94571 -5 -0.895324
      vertex 2.71049 -5 -0.921111
    endloop
  endfacet
  facet normal 0 -1 0
    outer loop
      vertex 3.2995 -5 -0.689101
      vertex 4.12045 -5 -1.27419
      vertex 4.05362 -5 -0.852265
    endloop
  endfacet
  facet normal 0 -1 0
    outer loop
      vertex 2.59805 -5 -0.912658
      vertex 4.12045 -5 -1.27419
      vertex 2.71049 -5 -0.921111
    endloop
  endfacet
  facet normal 0 1 -0
    outer loop
      vertex 10.373 5 6.78658
      vertex 0 5 6.8
      vertex 10.8 5 6.8
    endloop
  endfacet
  facet normal 0 1 -0
    outer loop
      vertex 9.94773 5 6.74638
      vertex 0 5 6.8
      vertex 10.373 5 6.78658
    endloop
  endfacet
  facet normal 0 1 -0
    outer loop
      vertex 9.52581 5 6.67955
      vertex 0 5 6.8
      vertex 9.94773 5 6.74638
    endloop
  endfacet
  facet normal 0 1 -0
    outer loop
      vertex 9.10891 5 6.58636
      vertex 0 5 6.8
      vertex 9.52581 5 6.67955
    endloop
  endfacet
  facet normal 0 1 -0
    outer loop
      vertex 8.69868 5 6.46718
      vertex 0 5 6.8
      vertex 9.10891 5 6.58636
    endloop
  endfacet
  facet normal 0 1 -0
    outer loop
      vertex 8.29675 5 6.32248
      vertex 0 5 6.8
      vertex 8.69868 5 6.46718
    endloop
  endfacet
  facet normal 0 1 -0
    outer loop
      vertex 7.9047 5 6.15282
      vertex 0 5 6.8
      vertex 8.29675 5 6.32248
    endloop
  endfacet
  facet normal 0 1 -0
    outer loop
      vertex 7.52407 5 5.95889
      vertex 0 5 6.8
      vertex 7.9047 5 6.15282
    endloop
  endfacet
  facet normal 0 1 -0
    outer loop
      vertex 7.15638 5 5.74143
      vertex 0 5 6.8
      vertex 7.52407 5 5.95889
    endloop
  endfacet
  facet normal 0 1 -0
    outer loop
      vertex 6.80306 5 5.50132
      vertex 0 5 6.8
      vertex 7.15638 5 5.74143
    endloop
  endfacet
  facet normal 0 1 -0
    outer loop
      vertex 6.46552 5 5.23949
      vertex 0 5 6.8
      vertex 6.80306 5 5.50132
    endloop
  endfacet
  facet normal 0 1 -0
    outer loop
      vertex 6.14508 5 4.95699
      vertex 0 5 6.8
      vertex 6.46552 5 5.23949
    endloop
  endfacet
  facet normal 0 1 -0
    outer loop
      vertex 5.84301 5 4.65492
      vertex 0 5 6.8
      vertex 6.14508 5 4.95699
    endloop
  endfacet
  facet normal 0 1 -0
    outer loop
      vertex 5.56051 5 4.33448
      vertex 0 5 6.8
      vertex 5.84301 5 4.65492
    endloop
  endfacet
  facet normal 0 1 -0
    outer loop
      vertex 5.29868 5 3.99694
      vertex 0 5 6.8
      vertex 5.56051 5 4.33448
    endloop
  endfacet
  facet normal 0 1 -0
    outer loop
      vertex 5.05857 5 3.64362
      vertex 0 5 6.8
      vertex 5.29868 5 3.99694
    endloop
  endfacet
  facet normal 0 1 -0
    outer loop
      vertex 4.84111 5 3.27592
      vertex 0 5 6.8
      vertex 5.05857 5 3.64362
    endloop
  endfacet
  facet normal 0 1 -0
    outer loop
      vertex 4.64718 5 2.8953
      vertex 0 5 6.8
      vertex 4.84111 5 3.27592
    endloop
  endfacet
  facet normal 0 1 -0
    outer loop
      vertex 4.47752 5 2.50325
      vertex 0 5 6.8
      vertex 4.64718 5 2.8953
    endloop
  endfacet
  facet normal 0 1 -0
    outer loop
      vertex 4.33282 5 2.10132
      vertex 0 5 6.8
      vertex 4.47752 5 2.50325
    endloop
  endfacet
  facet normal 0 1 -0
    outer loop
      vertex 4.21363 5 1.69109
      vertex 0 5 6.8
      vertex 4.33282 5 2.10132
    endloop
  endfacet
  facet normal 0 1 -0
    outer loop
      vertex 4.12045 5 1.27419
      vertex 0 5 6.8
      vertex 4.21363 5 1.69109
    endloop
  endfacet
  facet normal 0 1 -0
    outer loop
      vertex 4.05362 5 0.852265
      vertex 0 5 6.8
      vertex 4.12045 5 1.27419
    endloop
  endfacet
  facet normal 0 1 -0
    outer loop
      vertex 4.01342 5 0.426975
      vertex 0 5 6.8
      vertex 4.05362 5 0.852265
    endloop
  endfacet
  facet normal 0 1 -0
    outer loop
      vertex 4 5 0
      vertex 0 5 6.8
      vertex 4.01342 5 0.426975
    endloop
  endfacet
  facet normal 0 1 0
    outer loop
      vertex 0 5 -6.8
      vertex 4 5 0
      vertex 4.01342 5 -0.426975
    endloop
  endfacet
  facet normal 0 1 0
    outer loop
      vertex 0 5 -6.8
      vertex 4.01342 5 -0.426975
      vertex 4.05362 5 -0.852265
    endloop
  endfacet
  facet normal 0 1 0
    outer loop
      vertex 0 5 -6.8
      vertex 4.05362 5 -0.852265
      vertex 4.12045 5 -1.27419
    endloop
  endfacet
  facet normal 0 1 0
    outer loop
      vertex 0 5 -6.8
      vertex 4.12045 5 -1.27419
      vertex 4.21363 5 -1.69109
    endloop
  endfacet
  facet normal 0 1 0
    outer loop
      vertex 0 5 -6.8
      vertex 4.21363 5 -1.69109
      vertex 4.33282 5 -2.10132
    endloop
  endfacet
  facet normal 0 1 0
    outer loop
      vertex 0 5 -6.8
      vertex 4.33282 5 -2.10132
      vertex 4.47752 5 -2.50325
    endloop
  endfacet
  facet normal 0 1 0
    outer loop
      vertex 0 5 -6.8
      vertex 4.47752 5 -2.50325
      vertex 4.64718 5 -2.8953
    endloop
  endfacet
  facet normal 0 1 0
    outer loop
      vertex 4 5 0
      vertex 0 5 -6.8
      vertex 0 5 6.8
    endloop
  endfacet
  facet normal 0 1 0
    outer loop
      vertex 4.84111 5 -3.27592
      vertex 0 5 -6.8
      vertex 4.64718 5 -2.8953
    endloop
  endfacet
  facet normal 0 1 0
    outer loop
      vertex 5.05857 5 -3.64362
      vertex 0 5 -6.8
      vertex 4.84111 5 -3.27592
    endloop
  endfacet
  facet normal 0 1 0
    outer loop
      vertex 5.29868 5 -3.99694
      vertex 0 5 -6.8
      vertex 5.05857 5 -3.64362
    endloop
  endfacet
  facet normal 0 1 0
    outer loop
      vertex 5.56051 5 -4.33448
      vertex 0 5 -6.8
      vertex 5.29868 5 -3.99694
    endloop
  endfacet
  facet normal 0 1 0
    outer loop
      vertex 5.84301 5 -4.65492
      vertex 0 5 -6.8
      vertex 5.56051 5 -4.33448
    endloop
  endfacet
  facet normal 0 1 0
    outer loop
      vertex 6.14508 5 -4.95699
      vertex 0 5 -6.8
      vertex 5.84301 5 -4.65492
    endloop
  endfacet
  facet normal 0 1 0
    outer loop
      vertex 6.46552 5 -5.23949
      vertex 0 5 -6.8
      vertex 6.14508 5 -4.95699
    endloop
  endfacet
  facet normal 0 1 0
    outer loop
      vertex 6.80306 5 -5.50132
      vertex 0 5 -6.8
      vertex 6.46552 5 -5.23949
    endloop
  endfacet
  facet normal 0 1 0
    outer loop
      vertex 7.15638 5 -5.74143
      vertex 0 5 -6.8
      vertex 6.80306 5 -5.50132
    endloop
  endfacet
  facet normal 0 1 0
    outer loop
      vertex 7.52407 5 -5.95889
      vertex 0 5 -6.8
      vertex 7.15638 5 -5.74143
    endloop
  endfacet
  facet normal 0 1 0
    outer loop
      vertex 7.9047 5 -6.15282
      vertex 0 5 -6.8
      vertex 7.52407 5 -5.95889
    endloop
  endfacet
  facet normal 0 1 0
    outer loop
      vertex 8.29675 5 -6.32248
      vertex 0 5 -6.8
      vertex 7.9047 5 -6.15282
    endloop
  endfacet
  facet normal 0 1 0
    outer loop
      vertex 8.69868 5 -6.46718
      vertex 0 5 -6.8
      vertex 8.29675 5 -6.32248
    endloop
  endfacet
  facet normal 0 1 0
    outer loop
      vertex 9.10891 5 -6.58636
      vertex 0 5 -6.8
      vertex 8.69868 5 -6.46718
    endloop
  endfacet
  facet normal 0 1 0
    outer loop
      vertex 9.52581 5 -6.67955
      vertex 0 5 -6.8
      vertex 9.10891 5 -6.58636
    endloop
  endfacet
  facet normal 0 1 0
    outer loop
      vertex 9.94773 5 -6.74638
      vertex 0 5 -6.8
      vertex 9.52581 5 -6.67955
    endloop
  endfacet
  facet normal 0 1 0
    outer loop
      vertex 10.373 5 -6.78658
      vertex 0 5 -6.8
      vertex 9.94773 5 -6.74638
    endloop
  endfacet
  facet normal 0 1 0
    outer loop
      vertex 0 5 -6.8
      vertex 10.373 5 -6.78658
      vertex 10.8 5 -6.8
    endloop
  endfacet
  facet normal 0.999507 0 -0.0314107
    outer loop
      vertex 4.01342 -5 0.426975
      vertex 4 5 0
      vertex 4.01342 5 0.426975
    endloop
  endfacet
  facet normal 0.999507 0 -0.0314107
    outer loop
      vertex 4 5 0
      vertex 4.01342 -5 0.426975
      vertex 4 -5 0
    endloop
  endfacet
  facet normal 0.0314107 0 -0.999507
    outer loop
      vertex 10.373 -5 6.78658
      vertex 10.8 5 6.8
      vertex 10.8 -5 6.8
    endloop
  endfacet
  facet normal 0.0314107 0 -0.999507
    outer loop
      vertex 10.8 5 6.8
      vertex 10.373 -5 6.78658
      vertex 10.373 5 6.78658
    endloop
  endfacet
  facet normal 0.707107 0 -0.707107
    outer loop
      vertex 6.14508 -5 4.95699
      vertex 5.84301 5 4.65492
      vertex 6.14508 5 4.95699
    endloop
  endfacet
  facet normal 0.707107 0 -0.707107
    outer loop
      vertex 5.84301 5 4.65492
      vertex 6.14508 -5 4.95699
      vertex 5.84301 -5 4.65492
    endloop
  endfacet
  facet normal 0.397147 0 -0.917755
    outer loop
      vertex 7.9047 -5 6.15282
      vertex 8.29675 5 6.32248
      vertex 8.29675 -5 6.32248
    endloop
  endfacet
  facet normal 0.397147 0 -0.917755
    outer loop
      vertex 8.29675 5 6.32248
      vertex 7.9047 -5 6.15282
      vertex 7.9047 5 6.15282
    endloop
  endfacet
  facet normal 0.917754 0 -0.397149
    outer loop
      vertex 4.64718 -5 2.8953
      vertex 4.47752 5 2.50325
      vertex 4.64718 5 2.8953
    endloop
  endfacet
  facet normal 0.917754 0 -0.397149
    outer loop
      vertex 4.47752 5 2.50325
      vertex 4.64718 -5 2.8953
      vertex 4.47752 -5 2.50325
    endloop
  endfacet
  facet normal 0.094107 0 -0.995562
    outer loop
      vertex 9.94773 -5 6.74638
      vertex 10.373 5 6.78658
      vertex 10.373 -5 6.78658
    endloop
  endfacet
  facet normal 0.094107 0 -0.995562
    outer loop
      vertex 10.373 5 6.78658
      vertex 9.94773 -5 6.74638
      vertex 9.94773 5 6.74638
    endloop
  endfacet
  facet normal 0.827081 0 -0.562082
    outer loop
      vertex 5.29868 -5 3.99694
      vertex 5.05857 5 3.64362
      vertex 5.29868 5 3.99694
    endloop
  endfacet
  facet normal 0.827081 0 -0.562082
    outer loop
      vertex 5.05857 5 3.64362
      vertex 5.29868 -5 3.99694
      vertex 5.05857 -5 3.64362
    endloop
  endfacet
  facet normal 0.27899 0 -0.960294
    outer loop
      vertex 8.69868 -5 6.46718
      vertex 9.10891 5 6.58636
      vertex 9.10891 -5 6.58636
    endloop
  endfacet
  facet normal 0.27899 0 -0.960294
    outer loop
      vertex 9.10891 5 6.58636
      vertex 8.69868 -5 6.46718
      vertex 8.69868 5 6.46718
    endloop
  endfacet
  facet normal 0.218145 0 -0.975916
    outer loop
      vertex 9.10891 -5 6.58636
      vertex 9.52581 5 6.67955
      vertex 9.52581 -5 6.67955
    endloop
  endfacet
  facet normal 0.218145 0 -0.975916
    outer loop
      vertex 9.52581 5 6.67955
      vertex 9.10891 -5 6.58636
      vertex 9.10891 5 6.58636
    endloop
  endfacet
  facet normal 0.562082 0 -0.827081
    outer loop
      vertex 6.80306 -5 5.50132
      vertex 7.15638 5 5.74143
      vertex 7.15638 -5 5.74143
    endloop
  endfacet
  facet normal 0.562082 0 -0.827081
    outer loop
      vertex 7.15638 5 5.74143
      vertex 6.80306 -5 5.50132
      vertex 6.80306 5 5.50132
    endloop
  endfacet
  facet normal 0.750112 0 -0.661311
    outer loop
      vertex 5.84301 -5 4.65492
      vertex 5.56051 5 4.33448
      vertex 5.84301 5 4.65492
    endloop
  endfacet
  facet normal 0.750112 0 -0.661311
    outer loop
      vertex 5.56051 5 4.33448
      vertex 5.84301 -5 4.65492
      vertex 5.56051 -5 4.33448
    endloop
  endfacet
  facet normal 0.975916 0 -0.218145
    outer loop
      vertex 4.21363 -5 1.69109
      vertex 4.12045 5 1.27419
      vertex 4.21363 5 1.69109
    endloop
  endfacet
  facet normal 0.975916 0 -0.218145
    outer loop
      vertex 4.12045 5 1.27419
      vertex 4.21363 -5 1.69109
      vertex 4.12045 -5 1.27419
    endloop
  endfacet
  facet normal 0.45399 0 -0.891007
    outer loop
      vertex 7.52407 -5 5.95889
      vertex 7.9047 5 6.15282
      vertex 7.9047 -5 6.15282
    endloop
  endfacet
  facet normal 0.45399 0 -0.891007
    outer loop
      vertex 7.9047 5 6.15282
      vertex 7.52407 -5 5.95889
      vertex 7.52407 5 5.95889
    endloop
  endfacet
  facet normal 0.509042 0 -0.860741
    outer loop
      vertex 7.15638 -5 5.74143
      vertex 7.52407 5 5.95889
      vertex 7.52407 -5 5.95889
    endloop
  endfacet
  facet normal 0.509042 0 -0.860741
    outer loop
      vertex 7.52407 5 5.95889
      vertex 7.15638 -5 5.74143
      vertex 7.15638 5 5.74143
    endloop
  endfacet
  facet normal 0.707107 -0 0.707107
    outer loop
      vertex 5.84301 -5 -4.65492
      vertex 6.14508 5 -4.95699
      vertex 5.84301 5 -4.65492
    endloop
  endfacet
  facet normal 0.707107 0 0.707107
    outer loop
      vertex 6.14508 5 -4.95699
      vertex 5.84301 -5 -4.65492
      vertex 6.14508 -5 -4.95699
    endloop
  endfacet
  facet normal 0.917754 -0 0.397149
    outer loop
      vertex 4.47752 -5 -2.50325
      vertex 4.64718 5 -2.8953
      vertex 4.47752 5 -2.50325
    endloop
  endfacet
  facet normal 0.917754 0 0.397149
    outer loop
      vertex 4.64718 5 -2.8953
      vertex 4.47752 -5 -2.50325
      vertex 4.64718 -5 -2.8953
    endloop
  endfacet
  facet normal 0.940881 -0 0.338738
    outer loop
      vertex 4.33282 -5 -2.10132
      vertex 4.47752 5 -2.50325
      vertex 4.33282 5 -2.10132
    endloop
  endfacet
  facet normal 0.940881 0 0.338738
    outer loop
      vertex 4.47752 5 -2.50325
      vertex 4.33282 -5 -2.10132
      vertex 4.47752 -5 -2.50325
    endloop
  endfacet
  facet normal 0.790154 0 -0.612908
    outer loop
      vertex 5.56051 -5 4.33448
      vertex 5.29868 5 3.99694
      vertex 5.56051 5 4.33448
    endloop
  endfacet
  facet normal 0.790154 0 -0.612908
    outer loop
      vertex 5.29868 5 3.99694
      vertex 5.56051 -5 4.33448
      vertex 5.29868 -5 3.99694
    endloop
  endfacet
  facet normal 0.940881 0 -0.338738
    outer loop
      vertex 4.47752 -5 2.50325
      vertex 4.33282 5 2.10132
      vertex 4.47752 5 2.50325
    endloop
  endfacet
  facet normal 0.940881 0 -0.338738
    outer loop
      vertex 4.33282 5 2.10132
      vertex 4.47752 -5 2.50325
      vertex 4.33282 -5 2.10132
    endloop
  endfacet
  facet normal 0.987688 0 -0.156435
    outer loop
      vertex 4.12045 -5 1.27419
      vertex 4.05362 5 0.852265
      vertex 4.12045 5 1.27419
    endloop
  endfacet
  facet normal 0.987688 0 -0.156435
    outer loop
      vertex 4.05362 5 0.852265
      vertex 4.12045 -5 1.27419
      vertex 4.05362 -5 0.852265
    endloop
  endfacet
  facet normal 0.860741 0 -0.509042
    outer loop
      vertex 5.05857 -5 3.64362
      vertex 4.84111 5 3.27592
      vertex 5.05857 5 3.64362
    endloop
  endfacet
  facet normal 0.860741 0 -0.509042
    outer loop
      vertex 4.84111 5 3.27592
      vertex 5.05857 -5 3.64362
      vertex 4.84111 -5 3.27592
    endloop
  endfacet
  facet normal 0.612907 0 -0.790155
    outer loop
      vertex 6.46552 -5 5.23949
      vertex 6.80306 5 5.50132
      vertex 6.80306 -5 5.50132
    endloop
  endfacet
  facet normal 0.612907 0 -0.790155
    outer loop
      vertex 6.80306 5 5.50132
      vertex 6.46552 -5 5.23949
      vertex 6.46552 5 5.23949
    endloop
  endfacet
  facet normal 0.33874 0 0.94088
    outer loop
      vertex 8.29675 5 -6.32248
      vertex 8.69868 -5 -6.46718
      vertex 8.69868 5 -6.46718
    endloop
  endfacet
  facet normal 0.33874 0 0.94088
    outer loop
      vertex 8.69868 -5 -6.46718
      vertex 8.29675 5 -6.32248
      vertex 8.29675 -5 -6.32248
    endloop
  endfacet
  facet normal 0.995562 0 -0.094107
    outer loop
      vertex 4.05362 -5 0.852265
      vertex 4.01342 5 0.426975
      vertex 4.05362 5 0.852265
    endloop
  endfacet
  facet normal 0.995562 0 -0.094107
    outer loop
      vertex 4.01342 5 0.426975
      vertex 4.05362 -5 0.852265
      vertex 4.01342 -5 0.426975
    endloop
  endfacet
  facet normal 0.960294 0 -0.27899
    outer loop
      vertex 4.33282 -5 2.10132
      vertex 4.21363 5 1.69109
      vertex 4.33282 5 2.10132
    endloop
  endfacet
  facet normal 0.960294 0 -0.27899
    outer loop
      vertex 4.21363 5 1.69109
      vertex 4.33282 -5 2.10132
      vertex 4.21363 -5 1.69109
    endloop
  endfacet
  facet normal 0.661312 0 -0.750111
    outer loop
      vertex 6.14508 -5 4.95699
      vertex 6.46552 5 5.23949
      vertex 6.46552 -5 5.23949
    endloop
  endfacet
  facet normal 0.661312 0 -0.750111
    outer loop
      vertex 6.46552 5 5.23949
      vertex 6.14508 -5 4.95699
      vertex 6.14508 5 4.95699
    endloop
  endfacet
  facet normal 0.33874 0 -0.94088
    outer loop
      vertex 8.29675 -5 6.32248
      vertex 8.69868 5 6.46718
      vertex 8.69868 -5 6.46718
    endloop
  endfacet
  facet normal 0.33874 0 -0.94088
    outer loop
      vertex 8.69868 5 6.46718
      vertex 8.29675 -5 6.32248
      vertex 8.29675 5 6.32248
    endloop
  endfacet
  facet normal 0.156435 0 -0.987688
    outer loop
      vertex 9.52581 -5 6.67955
      vertex 9.94773 5 6.74638
      vertex 9.94773 -5 6.74638
    endloop
  endfacet
  facet normal 0.156435 0 -0.987688
    outer loop
      vertex 9.94773 5 6.74638
      vertex 9.52581 -5 6.67955
      vertex 9.52581 5 6.67955
    endloop
  endfacet
  facet normal 0.975916 -0 0.218145
    outer loop
      vertex 4.12045 -5 -1.27419
      vertex 4.21363 5 -1.69109
      vertex 4.12045 5 -1.27419
    endloop
  endfacet
  facet normal 0.975916 0 0.218145
    outer loop
      vertex 4.21363 5 -1.69109
      vertex 4.12045 -5 -1.27419
      vertex 4.21363 -5 -1.69109
    endloop
  endfacet
  facet normal 0.790154 -0 0.612908
    outer loop
      vertex 5.29868 -5 -3.99694
      vertex 5.56051 5 -4.33448
      vertex 5.29868 5 -3.99694
    endloop
  endfacet
  facet normal 0.790154 0 0.612908
    outer loop
      vertex 5.56051 5 -4.33448
      vertex 5.29868 -5 -3.99694
      vertex 5.56051 -5 -4.33448
    endloop
  endfacet
  facet normal 0.860741 -0 0.509042
    outer loop
      vertex 4.84111 -5 -3.27592
      vertex 5.05857 5 -3.64362
      vertex 4.84111 5 -3.27592
    endloop
  endfacet
  facet normal 0.860741 0 0.509042
    outer loop
      vertex 5.05857 5 -3.64362
      vertex 4.84111 -5 -3.27592
      vertex 5.05857 -5 -3.64362
    endloop
  endfacet
  facet normal 0.891007 0 -0.45399
    outer loop
      vertex 4.84111 -5 3.27592
      vertex 4.64718 5 2.8953
      vertex 4.84111 5 3.27592
    endloop
  endfacet
  facet normal 0.891007 0 -0.45399
    outer loop
      vertex 4.64718 5 2.8953
      vertex 4.84111 -5 3.27592
      vertex 4.64718 -5 2.8953
    endloop
  endfacet
  facet normal 0.987688 -0 0.156435
    outer loop
      vertex 4.05362 -5 -0.852265
      vertex 4.12045 5 -1.27419
      vertex 4.05362 5 -0.852265
    endloop
  endfacet
  facet normal 0.987688 0 0.156435
    outer loop
      vertex 4.12045 5 -1.27419
      vertex 4.05362 -5 -0.852265
      vertex 4.12045 -5 -1.27419
    endloop
  endfacet
  facet normal 0.999507 -0 0.0314107
    outer loop
      vertex 4 -5 0
      vertex 4.01342 5 -0.426975
      vertex 4 5 0
    endloop
  endfacet
  facet normal 0.999507 0 0.0314107
    outer loop
      vertex 4.01342 5 -0.426975
      vertex 4 -5 0
      vertex 4.01342 -5 -0.426975
    endloop
  endfacet
  facet normal 0.960294 -0 0.27899
    outer loop
      vertex 4.21363 -5 -1.69109
      vertex 4.33282 5 -2.10132
      vertex 4.21363 5 -1.69109
    endloop
  endfacet
  facet normal 0.960294 0 0.27899
    outer loop
      vertex 4.33282 5 -2.10132
      vertex 4.21363 -5 -1.69109
      vertex 4.33282 -5 -2.10132
    endloop
  endfacet
  facet normal 0.661312 0 0.750111
    outer loop
      vertex 6.14508 5 -4.95699
      vertex 6.46552 -5 -5.23949
      vertex 6.46552 5 -5.23949
    endloop
  endfacet
  facet normal 0.661312 0 0.750111
    outer loop
      vertex 6.46552 -5 -5.23949
      vertex 6.14508 5 -4.95699
      vertex 6.14508 -5 -4.95699
    endloop
  endfacet
  facet normal 0.562082 0 0.827081
    outer loop
      vertex 6.80306 5 -5.50132
      vertex 7.15638 -5 -5.74143
      vertex 7.15638 5 -5.74143
    endloop
  endfacet
  facet normal 0.562082 0 0.827081
    outer loop
      vertex 7.15638 -5 -5.74143
      vertex 6.80306 5 -5.50132
      vertex 6.80306 -5 -5.50132
    endloop
  endfacet
  facet normal 0.827081 -0 0.562082
    outer loop
      vertex 5.05857 -5 -3.64362
      vertex 5.29868 5 -3.99694
      vertex 5.05857 5 -3.64362
    endloop
  endfacet
  facet normal 0.827081 0 0.562082
    outer loop
      vertex 5.29868 5 -3.99694
      vertex 5.05857 -5 -3.64362
      vertex 5.29868 -5 -3.99694
    endloop
  endfacet
  facet normal 0.891007 -0 0.45399
    outer loop
      vertex 4.64718 -5 -2.8953
      vertex 4.84111 5 -3.27592
      vertex 4.64718 5 -2.8953
    endloop
  endfacet
  facet normal 0.891007 0 0.45399
    outer loop
      vertex 4.84111 5 -3.27592
      vertex 4.64718 -5 -2.8953
      vertex 4.84111 -5 -3.27592
    endloop
  endfacet
  facet normal 0.156435 0 0.987688
    outer loop
      vertex 9.52581 5 -6.67955
      vertex 9.94773 -5 -6.74638
      vertex 9.94773 5 -6.74638
    endloop
  endfacet
  facet normal 0.156435 0 0.987688
    outer loop
      vertex 9.94773 -5 -6.74638
      vertex 9.52581 5 -6.67955
      vertex 9.52581 -5 -6.67955
    endloop
  endfacet
  facet normal 0.995562 -0 0.094107
    outer loop
      vertex 4.01342 -5 -0.426975
      vertex 4.05362 5 -0.852265
      vertex 4.01342 5 -0.426975
    endloop
  endfacet
  facet normal 0.995562 0 0.094107
    outer loop
      vertex 4.05362 5 -0.852265
      vertex 4.01342 -5 -0.426975
      vertex 4.05362 -5 -0.852265
    endloop
  endfacet
  facet normal 0.612907 0 0.790155
    outer loop
      vertex 6.46552 5 -5.23949
      vertex 6.80306 -5 -5.50132
      vertex 6.80306 5 -5.50132
    endloop
  endfacet
  facet normal 0.612907 0 0.790155
    outer loop
      vertex 6.80306 -5 -5.50132
      vertex 6.46552 5 -5.23949
      vertex 6.46552 -5 -5.23949
    endloop
  endfacet
  facet normal 0.750112 -0 0.661311
    outer loop
      vertex 5.56051 -5 -4.33448
      vertex 5.84301 5 -4.65492
      vertex 5.56051 5 -4.33448
    endloop
  endfacet
  facet normal 0.750112 0 0.661311
    outer loop
      vertex 5.84301 5 -4.65492
      vertex 5.56051 -5 -4.33448
      vertex 5.84301 -5 -4.65492
    endloop
  endfacet
  facet normal 0.094107 0 0.995562
    outer loop
      vertex 9.94773 5 -6.74638
      vertex 10.373 -5 -6.78658
      vertex 10.373 5 -6.78658
    endloop
  endfacet
  facet normal 0.094107 0 0.995562
    outer loop
      vertex 10.373 -5 -6.78658
      vertex 9.94773 5 -6.74638
      vertex 9.94773 -5 -6.74638
    endloop
  endfacet
  facet normal 0.0314107 0 0.999507
    outer loop
      vertex 10.373 5 -6.78658
      vertex 10.8 -5 -6.8
      vertex 10.8 5 -6.8
    endloop
  endfacet
  facet normal 0.0314107 0 0.999507
    outer loop
      vertex 10.8 -5 -6.8
      vertex 10.373 5 -6.78658
      vertex 10.373 -5 -6.78658
    endloop
  endfacet
  facet normal 0.27899 0 0.960294
    outer loop
      vertex 8.69868 5 -6.46718
      vertex 9.10891 -5 -6.58636
      vertex 9.10891 5 -6.58636
    endloop
  endfacet
  facet normal 0.27899 0 0.960294
    outer loop
      vertex 9.10891 -5 -6.58636
      vertex 8.69868 5 -6.46718
      vertex 8.69868 -5 -6.46718
    endloop
  endfacet
  facet normal 0.218145 0 0.975916
    outer loop
      vertex 9.10891 5 -6.58636
      vertex 9.52581 -5 -6.67955
      vertex 9.52581 5 -6.67955
    endloop
  endfacet
  facet normal 0.218145 0 0.975916
    outer loop
      vertex 9.52581 -5 -6.67955
      vertex 9.10891 5 -6.58636
      vertex 9.10891 -5 -6.58636
    endloop
  endfacet
  facet normal 0.397147 0 0.917755
    outer loop
      vertex 7.9047 5 -6.15282
      vertex 8.29675 -5 -6.32248
      vertex 8.29675 5 -6.32248
    endloop
  endfacet
  facet normal 0.397147 0 0.917755
    outer loop
      vertex 8.29675 -5 -6.32248
      vertex 7.9047 5 -6.15282
      vertex 7.9047 -5 -6.15282
    endloop
  endfacet
  facet normal 0.509042 0 0.860741
    outer loop
      vertex 7.15638 5 -5.74143
      vertex 7.52407 -5 -5.95889
      vertex 7.52407 5 -5.95889
    endloop
  endfacet
  facet normal 0.509042 0 0.860741
    outer loop
      vertex 7.52407 -5 -5.95889
      vertex 7.15638 5 -5.74143
      vertex 7.15638 -5 -5.74143
    endloop
  endfacet
  facet normal 0.45399 0 0.891007
    outer loop
      vertex 7.52407 5 -5.95889
      vertex 7.9047 -5 -6.15282
      vertex 7.9047 5 -6.15282
    endloop
  endfacet
  facet normal 0.45399 0 0.891007
    outer loop
      vertex 7.9047 -5 -6.15282
      vertex 7.52407 5 -5.95889
      vertex 7.52407 -5 -5.95889
    endloop
  endfacet
  facet normal -1 0 0
    outer loop
      vertex 0 -5 -6.8
      vertex 0 5 6.8
      vertex 0 5 -6.8
    endloop
  endfacet
  facet normal -1 -0 0
    outer loop
      vertex 0 5 6.8
      vertex 0 -5 -6.8
      vertex 0 -5 6.8
    endloop
  endfacet
  facet normal 0 -1 0
    outer loop
      vertex 0.873504 -4.5 0.519881
      vertex 0.82051 -4.5 0.921874
      vertex 0.562499 -4.5 0.921874
    endloop
  endfacet
  facet normal 0 -1 0
    outer loop
      vertex 0.82051 -4.5 0.921874
      vertex 0.873504 -4.5 0.519881
      vertex 0.974837 -4.5 0.848205
    endloop
  endfacet
  facet normal 0 -1 -0
    outer loop
      vertex 0.974837 -4.5 0.848205
      vertex 0.873504 -4.5 0.519881
      vertex 1.1165 -4.5 0.764541
    endloop
  endfacet
  facet normal 0 -1 0
    outer loop
      vertex 0.97084 -4.5 0.470763
      vertex 1.1165 -4.5 0.764541
      vertex 0.873504 -4.5 0.519881
    endloop
  endfacet
  facet normal 0 -1 -0
    outer loop
      vertex 1.1165 -4.5 0.764541
      vertex 0.97084 -4.5 0.470763
      vertex 1.24551 -4.5 0.670867
    endloop
  endfacet
  facet normal 0 -1 0
    outer loop
      vertex 0.5625 -4.5 -0.96611
      vertex 0.873504 -4.5 0.519881
      vertex 0.562499 -4.5 0.921874
    endloop
  endfacet
  facet normal 0 -1 -0
    outer loop
      vertex 0.873504 -4.5 0.519881
      vertex 0.5625 -4.5 -0.96611
      vertex 0.873505 -4.5 -0.96611
    endloop
  endfacet
  facet normal 0 -1 0
    outer loop
      vertex 1.07085 -4.5 0.404769
      vertex 1.24551 -4.5 0.670867
      vertex 0.97084 -4.5 0.470763
    endloop
  endfacet
  facet normal 0 -1 -0
    outer loop
      vertex 1.24551 -4.5 0.670867
      vertex 1.07085 -4.5 0.404769
      vertex 1.36484 -4.5 0.569991
    endloop
  endfacet
  facet normal 0 -1 0
    outer loop
      vertex 1.17351 -4.5 0.321868
      vertex 1.36484 -4.5 0.569991
      vertex 1.07085 -4.5 0.404769
    endloop
  endfacet
  facet normal 0 -1 -0
    outer loop
      vertex 1.36484 -4.5 0.569991
      vertex 1.17351 -4.5 0.321868
      vertex 1.47618 -4.5 0.465987
    endloop
  endfacet
  facet normal 0 -1 0
    outer loop
      vertex 1.28162 -4.5 0.219878
      vertex 1.47618 -4.5 0.465987
      vertex 1.17351 -4.5 0.321868
    endloop
  endfacet
  facet normal 0 -1 -0
    outer loop
      vertex 1.47618 -4.5 0.465987
      vertex 1.28162 -4.5 0.219878
      vertex 1.57951 -4.5 0.358871
    endloop
  endfacet
  facet normal 0 -1 0
    outer loop
      vertex 1.39795 -4.5 0.0965414
      vertex 1.57951 -4.5 0.358871
      vertex 1.28162 -4.5 0.219878
    endloop
  endfacet
  facet normal 0 -1 -0
    outer loop
      vertex 1.57951 -4.5 0.358871
      vertex 1.39795 -4.5 0.0965414
      vertex 1.67706 -4.5 0.249877
    endloop
  endfacet
  facet normal 0 -1 -0
    outer loop
      vertex 1.67706 -4.5 0.249877
      vertex 1.39795 -4.5 0.0965414
      vertex 1.76973 -4.5 0.14154
    endloop
  endfacet
  facet normal 0 -1 0
    outer loop
      vertex 1.73607 -4.5 -0.299103
      vertex 1.76973 -4.5 0.14154
      vertex 1.39795 -4.5 0.0965414
    endloop
  endfacet
  facet normal 0 -1 -0
    outer loop
      vertex 1.76973 -4.5 0.14154
      vertex 1.73607 -4.5 -0.299103
      vertex 1.94273 -4.5 -0.0698853
    endloop
  endfacet
  facet normal 0 -1 -0
    outer loop
      vertex 1.94273 -4.5 -0.0698853
      vertex 1.73607 -4.5 -0.299103
      vertex 2.02771 -4.5 -0.16655
    endloop
  endfacet
  facet normal 0 -1 0
    outer loop
      vertex 1.90874 -4.5 -0.489441
      vertex 2.02771 -4.5 -0.16655
      vertex 1.73607 -4.5 -0.299103
    endloop
  endfacet
  facet normal 0 -1 -0
    outer loop
      vertex 2.02771 -4.5 -0.16655
      vertex 1.90874 -4.5 -0.489441
      vertex 2.11249 -4.5 -0.256104
    endloop
  endfacet
  facet normal 0 -1 -0
    outer loop
      vertex 2.11249 -4.5 -0.256104
      vertex 1.90874 -4.5 -0.489441
      vertex 2.19916 -4.5 -0.336669
    endloop
  endfacet
  facet normal 0 -1 0
    outer loop
      vertex 2.0405 -4.5 -0.61911
      vertex 2.19916 -4.5 -0.336669
      vertex 1.90874 -4.5 -0.489441
    endloop
  endfacet
  facet normal 0 -1 -0
    outer loop
      vertex 2.19916 -4.5 -0.336669
      vertex 2.0405 -4.5 -0.61911
      vertex 2.2885 -4.5 -0.406325
    endloop
  endfacet
  facet normal 0 -1 0
    outer loop
      vertex 2.15182 -4.5 -0.710892
      vertex 2.2885 -4.5 -0.406325
      vertex 2.0405 -4.5 -0.61911
    endloop
  endfacet
  facet normal 0 -1 -0
    outer loop
      vertex 2.2885 -4.5 -0.406325
      vertex 2.15182 -4.5 -0.710892
      vertex 2.38049 -4.5 -0.465102
    endloop
  endfacet
  facet normal 0 -1 0
    outer loop
      vertex 2.26315 -4.5 -0.786223
      vertex 2.38049 -4.5 -0.465102
      vertex 2.15182 -4.5 -0.710892
    endloop
  endfacet
  facet normal 0 -1 -0
    outer loop
      vertex 2.38049 -4.5 -0.465102
      vertex 2.26315 -4.5 -0.786223
      vertex 2.47849 -4.5 -0.509551
    endloop
  endfacet
  facet normal 0 -1 0
    outer loop
      vertex 2.72249 -4.5 0.530869
      vertex 2.9706 -4.5 0.854874
      vertex 2.75749 -4.5 0.904877
    endloop
  endfacet
  facet normal 0 -1 -0
    outer loop
      vertex 2.9706 -4.5 0.854874
      vertex 2.86383 -4.5 0.499771
      vertex 3.1526 -4.5 0.758209
    endloop
  endfacet
  facet normal 0 -1 0
    outer loop
      vertex 2.9706 -4.5 0.854874
      vertex 2.72249 -4.5 0.530869
      vertex 2.86383 -4.5 0.499771
    endloop
  endfacet
  facet normal 0 -1 0
    outer loop
      vertex 2.9825 -4.5 0.441101
      vertex 3.1526 -4.5 0.758209
      vertex 2.86383 -4.5 0.499771
    endloop
  endfacet
  facet normal 0 -1 -0
    outer loop
      vertex 3.1526 -4.5 0.758209
      vertex 2.9825 -4.5 0.441101
      vertex 3.3035 -4.5 0.614868
    endloop
  endfacet
  facet normal 0 -1 0
    outer loop
      vertex 3.07849 -4.5 0.354874
      vertex 3.3035 -4.5 0.614868
      vertex 2.9825 -4.5 0.441101
    endloop
  endfacet
  facet normal 0 -1 -0
    outer loop
      vertex 3.3035 -4.5 0.614868
      vertex 3.07849 -4.5 0.354874
      vertex 3.41628 -4.5 0.432434
    endloop
  endfacet
  facet normal 0 -1 0
    outer loop
      vertex 3.14905 -4.5 0.245758
      vertex 3.41628 -4.5 0.432434
      vertex 3.07849 -4.5 0.354874
    endloop
  endfacet
  facet normal 0 -1 0
    outer loop
      vertex 3.14905 -4.5 0.245758
      vertex 3.48393 -4.5 0.21843
      vertex 3.41628 -4.5 0.432434
    endloop
  endfacet
  facet normal 0 -1 0
    outer loop
      vertex 3.19138 -4.5 0.118423
      vertex 3.48393 -4.5 0.21843
      vertex 3.14905 -4.5 0.245758
    endloop
  endfacet
  facet normal 0 -1 0
    outer loop
      vertex 3.50648 -4.5 -0.0271139
      vertex 3.19138 -4.5 0.118423
      vertex 3.20549 -4.5 -0.0271139
    endloop
  endfacet
  facet normal 0 -1 0
    outer loop
      vertex 3.19138 -4.5 0.118423
      vertex 3.50648 -4.5 -0.0271139
      vertex 3.48393 -4.5 0.21843
    endloop
  endfacet
  facet normal 0 -1 0
    outer loop
      vertex 3.19072 -4.5 -0.177886
      vertex 3.50648 -4.5 -0.0271139
      vertex 3.20549 -4.5 -0.0271139
    endloop
  endfacet
  facet normal 0 -1 0
    outer loop
      vertex 3.19072 -4.5 -0.177886
      vertex 3.48349 -4.5 -0.29222
      vertex 3.50648 -4.5 -0.0271139
    endloop
  endfacet
  facet normal 0 -1 0
    outer loop
      vertex 3.14638 -4.5 -0.304885
      vertex 3.48349 -4.5 -0.29222
      vertex 3.19072 -4.5 -0.177886
    endloop
  endfacet
  facet normal 0 -1 0
    outer loop
      vertex 3.41449 -4.5 -0.512893
      vertex 3.14638 -4.5 -0.304885
      vertex 3.07249 -4.5 -0.408111
    endloop
  endfacet
  facet normal 0 -1 0
    outer loop
      vertex 3.2995 -4.5 -0.689101
      vertex 3.07249 -4.5 -0.408111
      vertex 2.97183 -4.5 -0.484221
    endloop
  endfacet
  facet normal 0 -1 0
    outer loop
      vertex 3.14638 -4.5 -0.304885
      vertex 3.41449 -4.5 -0.512893
      vertex 3.48349 -4.5 -0.29222
    endloop
  endfacet
  facet normal 0 -1 0
    outer loop
      vertex 3.14204 -4.5 -0.817992
      vertex 2.97183 -4.5 -0.484221
      vertex 2.84715 -4.5 -0.529891
    endloop
  endfacet
  facet normal 0 -1 0
    outer loop
      vertex 2.71049 -4.5 -0.921111
      vertex 2.84715 -4.5 -0.529891
      vertex 2.69849 -4.5 -0.545104
    endloop
  endfacet
  facet normal 0 -1 0
    outer loop
      vertex 2.3745 -4.5 -0.845107
      vertex 2.47849 -4.5 -0.509551
      vertex 2.26315 -4.5 -0.786223
    endloop
  endfacet
  facet normal 0 -1 -0
    outer loop
      vertex 2.47849 -4.5 -0.509551
      vertex 2.3745 -4.5 -0.845107
      vertex 2.58449 -4.5 -0.536223
    endloop
  endfacet
  facet normal 0 -1 0
    outer loop
      vertex 2.48605 -4.5 -0.887328
      vertex 2.58449 -4.5 -0.536223
      vertex 2.3745 -4.5 -0.845107
    endloop
  endfacet
  facet normal 0 -1 0
    outer loop
      vertex 2.59805 -4.5 -0.912658
      vertex 2.58449 -4.5 -0.536223
      vertex 2.48605 -4.5 -0.887328
    endloop
  endfacet
  facet normal 0 -1 -0
    outer loop
      vertex 2.84715 -4.5 -0.529891
      vertex 2.71049 -4.5 -0.921111
      vertex 2.94571 -4.5 -0.895324
    endloop
  endfacet
  facet normal 0 -1 0
    outer loop
      vertex 2.84715 -4.5 -0.529891
      vertex 2.94571 -4.5 -0.895324
      vertex 3.14204 -4.5 -0.817992
    endloop
  endfacet
  facet normal 0 -1 0
    outer loop
      vertex 2.58449 -4.5 -0.536223
      vertex 2.59805 -4.5 -0.912658
      vertex 2.69849 -4.5 -0.545104
    endloop
  endfacet
  facet normal 0 -1 0
    outer loop
      vertex 3.07249 -4.5 -0.408111
      vertex 3.2995 -4.5 -0.689101
      vertex 3.41449 -4.5 -0.512893
    endloop
  endfacet
  facet normal 0 -1 -0
    outer loop
      vertex 2.69849 -4.5 -0.545104
      vertex 2.59805 -4.5 -0.912658
      vertex 2.71049 -4.5 -0.921111
    endloop
  endfacet
  facet normal 0 -1 0
    outer loop
      vertex 2.97183 -4.5 -0.484221
      vertex 3.14204 -4.5 -0.817992
      vertex 3.2995 -4.5 -0.689101
    endloop
  endfacet
  facet normal -1 0 -6.41776e-07
    outer loop
      vertex 0.873504 -5 0.148383
      vertex 0.873505 -4.5 -0.96611
      vertex 0.873505 -5 -0.96611
    endloop
  endfacet
  facet normal -1 0 -6.41776e-07
    outer loop
      vertex 0.873505 -4.5 -0.96611
      vertex 0.873504 -5 0.148383
      vertex 0.873504 -4.5 0.519881
    endloop
  endfacet
  facet normal -1 -4.76837e-07 -0
    outer loop
      vertex 0.873504 -5 0.519881
      vertex 0.873504 -4.5 0.519881
      vertex 0.873504 -5 0.148383
    endloop
  endfacet
  facet normal 0.45051 2.1482e-07 0.892771
    outer loop
      vertex 0.873504 -4.5 0.519881
      vertex 0.946507 -5 0.483043
      vertex 0.97084 -4.5 0.470763
    endloop
  endfacet
  facet normal 0.45051 2.1482e-07 0.892771
    outer loop
      vertex 0.946507 -5 0.483043
      vertex 0.873504 -4.5 0.519881
      vertex 0.873504 -5 0.519881
    endloop
  endfacet
  facet normal 0.450513 0 0.89277
    outer loop
      vertex 0.97084 -4.5 0.470763
      vertex 0.946507 -5 0.483043
      vertex 0.97084 -5 0.470763
    endloop
  endfacet
  facet normal 0.550785 0 0.834647
    outer loop
      vertex 0.97084 -4.5 0.470763
      vertex 1.07085 -5 0.404769
      vertex 1.07085 -4.5 0.404769
    endloop
  endfacet
  facet normal 0.550785 0 0.834647
    outer loop
      vertex 1.07085 -5 0.404769
      vertex 0.97084 -4.5 0.470763
      vertex 0.97084 -5 0.470763
    endloop
  endfacet
  facet normal 0.628256 0 0.778006
    outer loop
      vertex 1.07085 -4.5 0.404769
      vertex 1.17351 -5 0.321868
      vertex 1.17351 -4.5 0.321868
    endloop
  endfacet
  facet normal 0.628256 0 0.778006
    outer loop
      vertex 1.17351 -5 0.321868
      vertex 1.07085 -4.5 0.404769
      vertex 1.07085 -5 0.404769
    endloop
  endfacet
  facet normal 0.686222 0 0.727392
    outer loop
      vertex 1.17351 -4.5 0.321868
      vertex 1.28162 -5 0.219878
      vertex 1.28162 -4.5 0.219878
    endloop
  endfacet
  facet normal 0.686222 0 0.727392
    outer loop
      vertex 1.28162 -5 0.219878
      vertex 1.17351 -4.5 0.321868
      vertex 1.17351 -5 0.321868
    endloop
  endfacet
  facet normal 0.72746 -0 0.68615
    outer loop
      vertex 1.28162 -5 0.219878
      vertex 1.39795 -4.5 0.0965414
      vertex 1.28162 -4.5 0.219878
    endloop
  endfacet
  facet normal 0.72746 0 0.68615
    outer loop
      vertex 1.39795 -4.5 0.0965414
      vertex 1.28162 -5 0.219878
      vertex 1.39795 -5 0.0965414
    endloop
  endfacet
  facet normal 0.760209 -0 0.649678
    outer loop
      vertex 1.39795 -5 0.0965414
      vertex 1.73607 -4.5 -0.299103
      vertex 1.39795 -4.5 0.0965414
    endloop
  endfacet
  facet normal 0.760209 0 0.649678
    outer loop
      vertex 1.73607 -4.5 -0.299103
      vertex 1.39795 -5 0.0965414
      vertex 1.73607 -5 -0.299103
    endloop
  endfacet
  facet normal 0.740649 -0 0.671892
    outer loop
      vertex 1.73607 -5 -0.299103
      vertex 1.90874 -4.5 -0.489441
      vertex 1.73607 -4.5 -0.299103
    endloop
  endfacet
  facet normal 0.740649 0 0.671892
    outer loop
      vertex 1.90874 -4.5 -0.489441
      vertex 1.73607 -5 -0.299103
      vertex 1.90874 -5 -0.489441
    endloop
  endfacet
  facet normal 0.70143 0 0.712738
    outer loop
      vertex 1.90874 -4.5 -0.489441
      vertex 2.0405 -5 -0.61911
      vertex 2.0405 -4.5 -0.61911
    endloop
  endfacet
  facet normal 0.70143 0 0.712738
    outer loop
      vertex 2.0405 -5 -0.61911
      vertex 1.90874 -4.5 -0.489441
      vertex 1.90874 -5 -0.489441
    endloop
  endfacet
  facet normal 0.636119 0 0.771591
    outer loop
      vertex 2.0405 -4.5 -0.61911
      vertex 2.15182 -5 -0.710892
      vertex 2.15182 -4.5 -0.710892
    endloop
  endfacet
  facet normal 0.636119 0 0.771591
    outer loop
      vertex 2.15182 -5 -0.710892
      vertex 2.0405 -4.5 -0.61911
      vertex 2.0405 -5 -0.61911
    endloop
  endfacet
  facet normal 0.560419 0 0.828209
    outer loop
      vertex 2.15182 -4.5 -0.710892
      vertex 2.26315 -5 -0.786223
      vertex 2.26315 -4.5 -0.786223
    endloop
  endfacet
  facet normal 0.560419 0 0.828209
    outer loop
      vertex 2.26315 -5 -0.786223
      vertex 2.15182 -4.5 -0.710892
      vertex 2.15182 -5 -0.710892
    endloop
  endfacet
  facet normal 0.467498 0 0.883994
    outer loop
      vertex 2.26315 -4.5 -0.786223
      vertex 2.3745 -5 -0.845107
      vertex 2.3745 -4.5 -0.845107
    endloop
  endfacet
  facet normal 0.467498 0 0.883994
    outer loop
      vertex 2.3745 -5 -0.845107
      vertex 2.26315 -4.5 -0.786223
      vertex 2.26315 -5 -0.786223
    endloop
  endfacet
  facet normal 0.353968 0 0.935258
    outer loop
      vertex 2.3745 -4.5 -0.845107
      vertex 2.48605 -5 -0.887328
      vertex 2.48605 -4.5 -0.887328
    endloop
  endfacet
  facet normal 0.353968 0 0.935258
    outer loop
      vertex 2.48605 -5 -0.887328
      vertex 2.3745 -4.5 -0.845107
      vertex 2.3745 -5 -0.845107
    endloop
  endfacet
  facet normal 0.220587 0 0.975367
    outer loop
      vertex 2.48605 -4.5 -0.887328
      vertex 2.59805 -5 -0.912658
      vertex 2.59805 -4.5 -0.912658
    endloop
  endfacet
  facet normal 0.220587 0 0.975367
    outer loop
      vertex 2.59805 -5 -0.912658
      vertex 2.48605 -4.5 -0.887328
      vertex 2.48605 -5 -0.887328
    endloop
  endfacet
  facet normal 0.0749682 0 0.997186
    outer loop
      vertex 2.59805 -4.5 -0.912658
      vertex 2.71049 -5 -0.921111
      vertex 2.71049 -4.5 -0.921111
    endloop
  endfacet
  facet normal 0.0749682 0 0.997186
    outer loop
      vertex 2.71049 -5 -0.921111
      vertex 2.59805 -4.5 -0.912658
      vertex 2.59805 -5 -0.912658
    endloop
  endfacet
  facet normal -0.10898 0 0.994044
    outer loop
      vertex 2.71049 -4.5 -0.921111
      vertex 2.94571 -5 -0.895324
      vertex 2.94571 -4.5 -0.895324
    endloop
  endfacet
  facet normal -0.10898 0 0.994044
    outer loop
      vertex 2.94571 -5 -0.895324
      vertex 2.71049 -4.5 -0.921111
      vertex 2.71049 -5 -0.921111
    endloop
  endfacet
  facet normal -0.366473 0 0.930429
    outer loop
      vertex 2.94571 -4.5 -0.895324
      vertex 3.14204 -5 -0.817992
      vertex 3.14204 -4.5 -0.817992
    endloop
  endfacet
  facet normal -0.366473 0 0.930429
    outer loop
      vertex 3.14204 -5 -0.817992
      vertex 2.94571 -4.5 -0.895324
      vertex 2.94571 -5 -0.895324
    endloop
  endfacet
  facet normal -0.633426 0 0.773804
    outer loop
      vertex 3.14204 -4.5 -0.817992
      vertex 3.2995 -5 -0.689101
      vertex 3.2995 -4.5 -0.689101
    endloop
  endfacet
  facet normal -0.633426 0 0.773804
    outer loop
      vertex 3.2995 -5 -0.689101
      vertex 3.14204 -4.5 -0.817992
      vertex 3.14204 -5 -0.817992
    endloop
  endfacet
  facet normal -0.837455 0 0.546507
    outer loop
      vertex 3.2995 -5 -0.689101
      vertex 3.41449 -4.5 -0.512893
      vertex 3.2995 -4.5 -0.689101
    endloop
  endfacet
  facet normal -0.837455 0 0.546507
    outer loop
      vertex 3.41449 -4.5 -0.512893
      vertex 3.2995 -5 -0.689101
      vertex 3.41449 -5 -0.512893
    endloop
  endfacet
  facet normal -0.954431 0 0.298433
    outer loop
      vertex 3.41449 -5 -0.512893
      vertex 3.48349 -4.5 -0.29222
      vertex 3.41449 -4.5 -0.512893
    endloop
  endfacet
  facet normal -0.954431 0 0.298433
    outer loop
      vertex 3.48349 -4.5 -0.29222
      vertex 3.41449 -5 -0.512893
      vertex 3.48349 -5 -0.29222
    endloop
  endfacet
  facet normal -0.996259 0 0.0864143
    outer loop
      vertex 3.48349 -5 -0.29222
      vertex 3.50648 -4.5 -0.0271139
      vertex 3.48349 -4.5 -0.29222
    endloop
  endfacet
  facet normal -0.996259 0 0.0864143
    outer loop
      vertex 3.50648 -4.5 -0.0271139
      vertex 3.48349 -5 -0.29222
      vertex 3.50648 -5 -0.0271139
    endloop
  endfacet
  facet normal -0.995809 0 -0.0914623
    outer loop
      vertex 3.50648 -5 -0.0271139
      vertex 3.48393 -4.5 0.21843
      vertex 3.50648 -4.5 -0.0271139
    endloop
  endfacet
  facet normal -0.995809 -0 -0.0914623
    outer loop
      vertex 3.48393 -4.5 0.21843
      vertex 3.50648 -5 -0.0271139
      vertex 3.48393 -5 0.21843
    endloop
  endfacet
  facet normal -0.953484 0 -0.301444
    outer loop
      vertex 3.48393 -5 0.21843
      vertex 3.41628 -4.5 0.432434
      vertex 3.48393 -4.5 0.21843
    endloop
  endfacet
  facet normal -0.953484 -0 -0.301444
    outer loop
      vertex 3.41628 -4.5 0.432434
      vertex 3.48393 -5 0.21843
      vertex 3.41628 -5 0.432434
    endloop
  endfacet
  facet normal -0.850594 0 -0.525823
    outer loop
      vertex 3.41628 -5 0.432434
      vertex 3.3035 -4.5 0.614868
      vertex 3.41628 -4.5 0.432434
    endloop
  endfacet
  facet normal -0.850594 -0 -0.525823
    outer loop
      vertex 3.3035 -4.5 0.614868
      vertex 3.41628 -5 0.432434
      vertex 3.3035 -5 0.614868
    endloop
  endfacet
  facet normal -0.688728 0 -0.72502
    outer loop
      vertex 3.1526 -5 0.758209
      vertex 3.3035 -4.5 0.614868
      vertex 3.3035 -5 0.614868
    endloop
  endfacet
  facet normal -0.688728 0 -0.72502
    outer loop
      vertex 3.3035 -4.5 0.614868
      vertex 3.1526 -5 0.758209
      vertex 3.1526 -4.5 0.758209
    endloop
  endfacet
  facet normal -0.469054 0 -0.883169
    outer loop
      vertex 2.9706 -5 0.854874
      vertex 3.1526 -4.5 0.758209
      vertex 3.1526 -5 0.758209
    endloop
  endfacet
  facet normal -0.469054 0 -0.883169
    outer loop
      vertex 3.1526 -4.5 0.758209
      vertex 2.9706 -5 0.854874
      vertex 2.9706 -4.5 0.854874
    endloop
  endfacet
  facet normal -0.228437 0 -0.973559
    outer loop
      vertex 2.75749 -5 0.904877
      vertex 2.9706 -4.5 0.854874
      vertex 2.9706 -5 0.854874
    endloop
  endfacet
  facet normal -0.228437 0 -0.973559
    outer loop
      vertex 2.9706 -4.5 0.854874
      vertex 2.75749 -5 0.904877
      vertex 2.75749 -4.5 0.904877
    endloop
  endfacet
  facet normal 0.995649 0 -0.0931834
    outer loop
      vertex 2.75749 -5 0.904877
      vertex 2.72249 -4.5 0.530869
      vertex 2.75749 -4.5 0.904877
    endloop
  endfacet
  facet normal 0.995649 0 -0.0931834
    outer loop
      vertex 2.72249 -4.5 0.530869
      vertex 2.75749 -5 0.904877
      vertex 2.72249 -5 0.530869
    endloop
  endfacet
  facet normal 0.214876 0 0.976641
    outer loop
      vertex 2.72249 -4.5 0.530869
      vertex 2.86383 -5 0.499771
      vertex 2.86383 -4.5 0.499771
    endloop
  endfacet
  facet normal 0.214876 0 0.976641
    outer loop
      vertex 2.86383 -5 0.499771
      vertex 2.72249 -4.5 0.530869
      vertex 2.72249 -5 0.530869
    endloop
  endfacet
  facet normal 0.443198 0 0.896424
    outer loop
      vertex 2.86383 -4.5 0.499771
      vertex 2.9825 -5 0.441101
      vertex 2.9825 -4.5 0.441101
    endloop
  endfacet
  facet normal 0.443198 0 0.896424
    outer loop
      vertex 2.9825 -5 0.441101
      vertex 2.86383 -4.5 0.499771
      vertex 2.86383 -5 0.499771
    endloop
  endfacet
  facet normal 0.668252 0 0.743935
    outer loop
      vertex 2.9825 -4.5 0.441101
      vertex 3.07849 -5 0.354874
      vertex 3.07849 -4.5 0.354874
    endloop
  endfacet
  facet normal 0.668252 0 0.743935
    outer loop
      vertex 3.07849 -5 0.354874
      vertex 2.9825 -4.5 0.441101
      vertex 2.9825 -5 0.441101
    endloop
  endfacet
  facet normal 0.839737 -0 0.542993
    outer loop
      vertex 3.07849 -5 0.354874
      vertex 3.14905 -4.5 0.245758
      vertex 3.07849 -4.5 0.354874
    endloop
  endfacet
  facet normal 0.839737 0 0.542993
    outer loop
      vertex 3.14905 -4.5 0.245758
      vertex 3.07849 -5 0.354874
      vertex 3.14905 -5 0.245758
    endloop
  endfacet
  facet normal 0.948945 -0 0.315443
    outer loop
      vertex 3.14905 -5 0.245758
      vertex 3.19138 -4.5 0.118423
      vertex 3.14905 -4.5 0.245758
    endloop
  endfacet
  facet normal 0.948945 0 0.315443
    outer loop
      vertex 3.19138 -4.5 0.118423
      vertex 3.14905 -5 0.245758
      vertex 3.19138 -5 0.118423
    endloop
  endfacet
  facet normal 0.99533 -0 0.0965283
    outer loop
      vertex 3.19138 -5 0.118423
      vertex 3.20549 -4.5 -0.0271139
      vertex 3.19138 -4.5 0.118423
    endloop
  endfacet
  facet normal 0.99533 0 0.0965283
    outer loop
      vertex 3.20549 -4.5 -0.0271139
      vertex 3.19138 -5 0.118423
      vertex 3.20549 -5 -0.0271139
    endloop
  endfacet
  facet normal 0.995236 0 -0.097499
    outer loop
      vertex 3.20549 -5 -0.0271139
      vertex 3.19072 -4.5 -0.177886
      vertex 3.20549 -4.5 -0.0271139
    endloop
  endfacet
  facet normal 0.995236 0 -0.097499
    outer loop
      vertex 3.19072 -4.5 -0.177886
      vertex 3.20549 -5 -0.0271139
      vertex 3.19072 -5 -0.177886
    endloop
  endfacet
  facet normal 0.944107 0 -0.329638
    outer loop
      vertex 3.19072 -5 -0.177886
      vertex 3.14638 -4.5 -0.304885
      vertex 3.19072 -4.5 -0.177886
    endloop
  endfacet
  facet normal 0.944107 0 -0.329638
    outer loop
      vertex 3.14638 -4.5 -0.304885
      vertex 3.19072 -5 -0.177886
      vertex 3.14638 -5 -0.304885
    endloop
  endfacet
  facet normal 0.813173 0 -0.582022
    outer loop
      vertex 3.14638 -5 -0.304885
      vertex 3.07249 -4.5 -0.408111
      vertex 3.14638 -4.5 -0.304885
    endloop
  endfacet
  facet normal 0.813173 0 -0.582022
    outer loop
      vertex 3.07249 -4.5 -0.408111
      vertex 3.14638 -5 -0.304885
      vertex 3.07249 -5 -0.408111
    endloop
  endfacet
  facet normal 0.60311 0 -0.797658
    outer loop
      vertex 2.97183 -5 -0.484221
      vertex 3.07249 -4.5 -0.408111
      vertex 3.07249 -5 -0.408111
    endloop
  endfacet
  facet normal 0.60311 0 -0.797658
    outer loop
      vertex 3.07249 -4.5 -0.408111
      vertex 2.97183 -5 -0.484221
      vertex 2.97183 -4.5 -0.484221
    endloop
  endfacet
  facet normal 0.343947 0 -0.938989
    outer loop
      vertex 2.84715 -5 -0.529891
      vertex 2.97183 -4.5 -0.484221
      vertex 2.97183 -5 -0.484221
    endloop
  endfacet
  facet normal 0.343947 0 -0.938989
    outer loop
      vertex 2.97183 -4.5 -0.484221
      vertex 2.84715 -5 -0.529891
      vertex 2.84715 -4.5 -0.529891
    endloop
  endfacet
  facet normal 0.101798 0 -0.994805
    outer loop
      vertex 2.69849 -5 -0.545104
      vertex 2.84715 -4.5 -0.529891
      vertex 2.84715 -5 -0.529891
    endloop
  endfacet
  facet normal 0.101798 0 -0.994805
    outer loop
      vertex 2.84715 -4.5 -0.529891
      vertex 2.69849 -5 -0.545104
      vertex 2.69849 -4.5 -0.545104
    endloop
  endfacet
  facet normal -0.0776659 0 -0.996979
    outer loop
      vertex 2.58449 -5 -0.536223
      vertex 2.69849 -4.5 -0.545104
      vertex 2.69849 -5 -0.545104
    endloop
  endfacet
  facet normal -0.0776659 0 -0.996979
    outer loop
      vertex 2.69849 -4.5 -0.545104
      vertex 2.58449 -5 -0.536223
      vertex 2.58449 -4.5 -0.536223
    endloop
  endfacet
  facet normal -0.244013 0 -0.969772
    outer loop
      vertex 2.47849 -5 -0.509551
      vertex 2.58449 -4.5 -0.536223
      vertex 2.58449 -5 -0.536223
    endloop
  endfacet
  facet normal -0.244013 0 -0.969772
    outer loop
      vertex 2.58449 -4.5 -0.536223
      vertex 2.47849 -5 -0.509551
      vertex 2.47849 -4.5 -0.509551
    endloop
  endfacet
  facet normal -0.413087 0 -0.910692
    outer loop
      vertex 2.38049 -5 -0.465102
      vertex 2.47849 -4.5 -0.509551
      vertex 2.47849 -5 -0.509551
    endloop
  endfacet
  facet normal -0.413087 0 -0.910692
    outer loop
      vertex 2.47849 -4.5 -0.509551
      vertex 2.38049 -5 -0.465102
      vertex 2.38049 -4.5 -0.465102
    endloop
  endfacet
  facet normal -0.538403 0 -0.842687
    outer loop
      vertex 2.2885 -5 -0.406325
      vertex 2.38049 -4.5 -0.465102
      vertex 2.38049 -5 -0.465102
    endloop
  endfacet
  facet normal -0.538403 0 -0.842687
    outer loop
      vertex 2.38049 -4.5 -0.465102
      vertex 2.2885 -5 -0.406325
      vertex 2.2885 -4.5 -0.406325
    endloop
  endfacet
  facet normal -0.614873 0 -0.788626
    outer loop
      vertex 2.19916 -5 -0.336669
      vertex 2.2885 -4.5 -0.406325
      vertex 2.2885 -5 -0.406325
    endloop
  endfacet
  facet normal -0.614873 0 -0.788626
    outer loop
      vertex 2.2885 -4.5 -0.406325
      vertex 2.19916 -5 -0.336669
      vertex 2.19916 -4.5 -0.336669
    endloop
  endfacet
  facet normal -0.680842 0 -0.73243
    outer loop
      vertex 2.11249 -5 -0.256104
      vertex 2.19916 -4.5 -0.336669
      vertex 2.19916 -5 -0.336669
    endloop
  endfacet
  facet normal -0.680842 0 -0.73243
    outer loop
      vertex 2.19916 -4.5 -0.336669
      vertex 2.11249 -5 -0.256104
      vertex 2.11249 -4.5 -0.256104
    endloop
  endfacet
  facet normal -0.726206 0 -0.687477
    outer loop
      vertex 2.11249 -5 -0.256104
      vertex 2.02771 -4.5 -0.16655
      vertex 2.11249 -4.5 -0.256104
    endloop
  endfacet
  facet normal -0.726206 -0 -0.687477
    outer loop
      vertex 2.02771 -4.5 -0.16655
      vertex 2.11249 -5 -0.256104
      vertex 2.02771 -5 -0.16655
    endloop
  endfacet
  facet normal -0.751054 0 -0.66024
    outer loop
      vertex 2.02771 -5 -0.16655
      vertex 1.94273 -4.5 -0.0698853
      vertex 2.02771 -4.5 -0.16655
    endloop
  endfacet
  facet normal -0.751054 -0 -0.66024
    outer loop
      vertex 1.94273 -4.5 -0.0698853
      vertex 2.02771 -5 -0.16655
      vertex 1.94273 -5 -0.0698853
    endloop
  endfacet
  facet normal -0.773921 0 -0.633282
    outer loop
      vertex 1.94273 -5 -0.0698853
      vertex 1.76973 -4.5 0.14154
      vertex 1.94273 -4.5 -0.0698853
    endloop
  endfacet
  facet normal -0.773921 -0 -0.633282
    outer loop
      vertex 1.76973 -4.5 0.14154
      vertex 1.94273 -5 -0.0698853
      vertex 1.76973 -5 0.14154
    endloop
  endfacet
  facet normal -0.759929 0 -0.650007
    outer loop
      vertex 1.76973 -5 0.14154
      vertex 1.67706 -4.5 0.249877
      vertex 1.76973 -4.5 0.14154
    endloop
  endfacet
  facet normal -0.759929 -0 -0.650007
    outer loop
      vertex 1.67706 -4.5 0.249877
      vertex 1.76973 -5 0.14154
      vertex 1.67706 -5 0.249877
    endloop
  endfacet
  facet normal -0.745143 0 -0.666905
    outer loop
      vertex 1.67706 -5 0.249877
      vertex 1.57951 -4.5 0.358871
      vertex 1.67706 -4.5 0.249877
    endloop
  endfacet
  facet normal -0.745143 -0 -0.666905
    outer loop
      vertex 1.57951 -4.5 0.358871
      vertex 1.67706 -5 0.249877
      vertex 1.57951 -5 0.358871
    endloop
  endfacet
  facet normal -0.719705 0 -0.69428
    outer loop
      vertex 1.57951 -5 0.358871
      vertex 1.47618 -4.5 0.465987
      vertex 1.57951 -4.5 0.358871
    endloop
  endfacet
  facet normal -0.719705 -0 -0.69428
    outer loop
      vertex 1.47618 -4.5 0.465987
      vertex 1.57951 -5 0.358871
      vertex 1.47618 -5 0.465987
    endloop
  endfacet
  facet normal -0.682611 0 -0.730782
    outer loop
      vertex 1.36484 -5 0.569991
      vertex 1.47618 -4.5 0.465987
      vertex 1.47618 -5 0.465987
    endloop
  endfacet
  facet normal -0.682611 0 -0.730782
    outer loop
      vertex 1.47618 -4.5 0.465987
      vertex 1.36484 -5 0.569991
      vertex 1.36484 -4.5 0.569991
    endloop
  endfacet
  facet normal -0.645605 0 -0.763671
    outer loop
      vertex 1.24551 -5 0.670867
      vertex 1.36484 -4.5 0.569991
      vertex 1.36484 -5 0.569991
    endloop
  endfacet
  facet normal -0.645605 0 -0.763671
    outer loop
      vertex 1.36484 -4.5 0.569991
      vertex 1.24551 -5 0.670867
      vertex 1.24551 -4.5 0.670867
    endloop
  endfacet
  facet normal -0.587537 0 -0.809197
    outer loop
      vertex 1.14875 -5 0.741122
      vertex 1.24551 -4.5 0.670867
      vertex 1.24551 -5 0.670867
    endloop
  endfacet
  facet normal -0.587537 0 -0.809197
    outer loop
      vertex 1.24551 -4.5 0.670867
      vertex 1.14875 -5 0.741122
      vertex 1.1165 -4.5 0.764541
    endloop
  endfacet
  facet normal -0.58754 -2.80161e-07 -0.809195
    outer loop
      vertex 1.1165 -5 0.764541
      vertex 1.1165 -4.5 0.764541
      vertex 1.14875 -5 0.741122
    endloop
  endfacet
  facet normal -0.508523 -2.42483e-07 -0.861048
    outer loop
      vertex 0.974838 -5 0.848205
      vertex 1.1165 -4.5 0.764541
      vertex 1.1165 -5 0.764541
    endloop
  endfacet
  facet normal -0.508523 -2.42483e-07 -0.861048
    outer loop
      vertex 1.1165 -4.5 0.764541
      vertex 0.974838 -5 0.848205
      vertex 0.974837 -4.5 0.848205
    endloop
  endfacet
  facet normal -0.430792 -2.05418e-07 -0.902451
    outer loop
      vertex 0.82051 -5 0.921874
      vertex 0.974837 -4.5 0.848205
      vertex 0.974838 -5 0.848205
    endloop
  endfacet
  facet normal -0.430792 -2.05418e-07 -0.902451
    outer loop
      vertex 0.974837 -4.5 0.848205
      vertex 0.82051 -5 0.921874
      vertex 0.82051 -4.5 0.921874
    endloop
  endfacet
  facet normal 0 0 -1
    outer loop
      vertex 0.562499 -5 0.921874
      vertex 0.82051 -4.5 0.921874
      vertex 0.82051 -5 0.921874
    endloop
  endfacet
  facet normal -0 0 -1
    outer loop
      vertex 0.82051 -4.5 0.921874
      vertex 0.562499 -5 0.921874
      vertex 0.562499 -4.5 0.921874
    endloop
  endfacet
  facet normal 1 4.76837e-07 5.05128e-07
    outer loop
      vertex 0.5625 -5 -0.494114
      vertex 0.562499 -4.5 0.921874
      vertex 0.562499 -5 0.921874
    endloop
  endfacet
  facet normal 1 4.76837e-07 5.05128e-07
    outer loop
      vertex 0.562499 -4.5 0.921874
      vertex 0.5625 -5 -0.494114
      vertex 0.5625 -4.5 -0.96611
    endloop
  endfacet
  facet normal 1 0 0
    outer loop
      vertex 0.5625 -5 -0.494114
      vertex 0.5625 -5 -0.96611
      vertex 0.5625 -4.5 -0.96611
    endloop
  endfacet
  facet normal -0 0 1
    outer loop
      vertex 0.5625 -4.5 -0.96611
      vertex 0.873505 -5 -0.96611
      vertex 0.873505 -4.5 -0.96611
    endloop
  endfacet
  facet normal 0 0 1
    outer loop
      vertex 0.873505 -5 -0.96611
      vertex 0.5625 -4.5 -0.96611
      vertex 0.5625 -5 -0.96611
    endloop
  endfacet
endsolid OpenSCAD_Model
