solid OpenSCAD_Model
  facet normal -0 0 1
    outer loop
      vertex 0 5 8.3
      vertex 12.3 -5 8.3
      vertex 12.3 5 8.3
    endloop
  endfacet
  facet normal 0 0 1
    outer loop
      vertex 12.3 -5 8.3
      vertex 0 5 8.3
      vertex 0 -5 8.3
    endloop
  endfacet
  facet normal 0 0 -1
    outer loop
      vertex 0 -5 -8.3
      vertex 12.3 5 -8.3
      vertex 12.3 -5 -8.3
    endloop
  endfacet
  facet normal -0 0 -1
    outer loop
      vertex 12.3 5 -8.3
      vertex 0 -5 -8.3
      vertex 0 5 -8.3
    endloop
  endfacet
  facet normal 0 -1 0
    outer loop
      vertex 2.39966 -5 0.336655
      vertex 3.19398 -5 0.452881
      vertex 2.29799 -5 0.506882
    endloop
  endfacet
  facet normal 0 -1 0
    outer loop
      vertex 2.46066 -5 0.140656
      vertex 3.19398 -5 0.452881
      vertex 2.39966 -5 0.336655
    endloop
  endfacet
  facet normal 0 -1 0
    outer loop
      vertex 2.48099 -5 -0.0811148
      vertex 3.19398 -5 0.452881
      vertex 2.46066 -5 0.140656
    endloop
  endfacet
  facet normal 0 -1 0
    outer loop
      vertex 3.19398 -5 -0.834105
      vertex 2.48099 -5 -0.0811148
      vertex 2.45265 -5 -0.342101
    endloop
  endfacet
  facet normal 0 -1 0
    outer loop
      vertex 3.19398 -5 -0.834105
      vertex 2.45265 -5 -0.342101
      vertex 2.36766 -5 -0.565108
    endloop
  endfacet
  facet normal 0 -1 0
    outer loop
      vertex 3.19398 -5 -0.834105
      vertex 2.36766 -5 -0.565108
      vertex 2.226 -5 -0.750107
    endloop
  endfacet
  facet normal 0 -1 0
    outer loop
      vertex 2.48099 -5 -0.0811148
      vertex 3.19398 -5 -0.834105
      vertex 3.19398 -5 0.452881
    endloop
  endfacet
  facet normal 0 -1 0
    outer loop
      vertex 4.14702 -5 -1.55526
      vertex 3.19398 -5 -0.834105
      vertex 2.03888 -5 -0.888992
    endloop
  endfacet
  facet normal 0 -1 0
    outer loop
      vertex 2.03888 -5 -0.888992
      vertex 3.19398 -5 -0.834105
      vertex 2.226 -5 -0.750107
    endloop
  endfacet
  facet normal 0 -1 0
    outer loop
      vertex 1.25275 -5 0.871631
      vertex 1.97601 -5 0.880875
      vertex 1.242 -5 0.963881
    endloop
  endfacet
  facet normal 0 -1 0
    outer loop
      vertex 1.285 -5 0.594878
      vertex 1.97601 -5 0.880875
      vertex 1.25275 -5 0.871631
    endloop
  endfacet
  facet normal 0 -1 0
    outer loop
      vertex 1.285 -5 0.594878
      vertex 1.97601 -5 0.522873
      vertex 1.97601 -5 0.880875
    endloop
  endfacet
  facet normal 0 -1 0
    outer loop
      vertex 0.907227 -5 0.281096
      vertex 1.285 -5 0.594878
      vertex 1.04889 -5 0.478103
    endloop
  endfacet
  facet normal 0 -1 0
    outer loop
      vertex 1.285 -5 0.594878
      vertex 2.02658 -5 0.45937
      vertex 1.97601 -5 0.522873
    endloop
  endfacet
  facet normal 0 -1 0
    outer loop
      vertex 1.285 -5 0.594878
      vertex 2.09644 -5 0.353546
      vertex 2.02658 -5 0.45937
    endloop
  endfacet
  facet normal 0 -1 0
    outer loop
      vertex 2.02658 -5 0.45937
      vertex 2.09644 -5 0.353546
      vertex 2.04344 -5 0.438202
    endloop
  endfacet
  facet normal 0 -1 0
    outer loop
      vertex 1.285 -5 0.594878
      vertex 0.907227 -5 0.281096
      vertex 0.860001 -5 0.00387478
    endloop
  endfacet
  facet normal 0 -1 0
    outer loop
      vertex 1.285 -5 0.594878
      vertex 2.13499 -5 0.268875
      vertex 2.09644 -5 0.353546
    endloop
  endfacet
  facet normal 0 -1 0
    outer loop
      vertex 1.285 -5 0.594878
      vertex 2.1611 -5 0.181992
      vertex 2.13499 -5 0.268875
    endloop
  endfacet
  facet normal 0 -1 -0
    outer loop
      vertex 1.285 -5 0.594878
      vertex 0.860001 -5 0.00387478
      vertex 1.35345 -5 -0.601669
    endloop
  endfacet
  facet normal -0 -1 0
    outer loop
      vertex 2.17677 -5 0.0906525
      vertex 1.285 -5 0.594878
      vertex 1.554 -5 -0.620117
    endloop
  endfacet
  facet normal 0 -1 0
    outer loop
      vertex 1.285 -5 0.594878
      vertex 2.17677 -5 0.0906525
      vertex 2.1611 -5 0.181992
    endloop
  endfacet
  facet normal 0 -1 0
    outer loop
      vertex 1.35345 -5 -0.601669
      vertex 0.860001 -5 0.00387478
      vertex 0.880569 -5 -0.177216
    endloop
  endfacet
  facet normal 0 -1 -0
    outer loop
      vertex 2.17677 -5 0.0906525
      vertex 1.554 -5 -0.620117
      vertex 2.18199 -5 -0.00511074
    endloop
  endfacet
  facet normal -0 -1 0
    outer loop
      vertex 1.72934 -5 -0.601547
      vertex 2.18199 -5 -0.00511074
      vertex 1.554 -5 -0.620117
    endloop
  endfacet
  facet normal 0 -1 0
    outer loop
      vertex 1.04501 -5 -0.454117
      vertex 0.880569 -5 -0.177216
      vertex 0.94223 -5 -0.32988
    endloop
  endfacet
  facet normal 0 -1 0
    outer loop
      vertex 2.18199 -5 -0.00511074
      vertex 1.72934 -5 -0.601547
      vertex 2.16266 -5 -0.180221
    endloop
  endfacet
  facet normal 0 -1 0
    outer loop
      vertex 0.880569 -5 -0.177216
      vertex 1.04501 -5 -0.454117
      vertex 1.18379 -5 -0.546326
    endloop
  endfacet
  facet normal -0 -1 0
    outer loop
      vertex 2.008 -5 -0.45311
      vertex 2.16266 -5 -0.180221
      vertex 1.72934 -5 -0.601547
    endloop
  endfacet
  facet normal 0 -1 0
    outer loop
      vertex 0.880569 -5 -0.177216
      vertex 1.18379 -5 -0.546326
      vertex 1.35345 -5 -0.601669
    endloop
  endfacet
  facet normal 0 -1 0
    outer loop
      vertex 2.16266 -5 -0.180221
      vertex 2.008 -5 -0.45311
      vertex 2.10466 -5 -0.329559
    endloop
  endfacet
  facet normal 0 -1 0
    outer loop
      vertex 1.285 -5 0.594878
      vertex 1.35345 -5 -0.601669
      vertex 1.554 -5 -0.620117
    endloop
  endfacet
  facet normal 0 -1 0
    outer loop
      vertex 2.008 -5 -0.45311
      vertex 1.72934 -5 -0.601547
      vertex 1.88068 -5 -0.545883
    endloop
  endfacet
  facet normal 0 -1 0
    outer loop
      vertex 0 -5 8.3
      vertex 11.7788 -5 8.28362
      vertex 12.3 -5 8.3
    endloop
  endfacet
  facet normal 0 -1 0
    outer loop
      vertex 0 -5 8.3
      vertex 11.2597 -5 8.23455
      vertex 11.7788 -5 8.28362
    endloop
  endfacet
  facet normal 0 -1 0
    outer loop
      vertex 0 -5 8.3
      vertex 10.7447 -5 8.15298
      vertex 11.2597 -5 8.23455
    endloop
  endfacet
  facet normal 0 -1 0
    outer loop
      vertex 0 -5 8.3
      vertex 10.2359 -5 8.03924
      vertex 10.7447 -5 8.15298
    endloop
  endfacet
  facet normal 0 -1 0
    outer loop
      vertex 0 -5 8.3
      vertex 9.73516 -5 7.89377
      vertex 10.2359 -5 8.03924
    endloop
  endfacet
  facet normal 0 -1 0
    outer loop
      vertex 0 -5 8.3
      vertex 9.24457 -5 7.71714
      vertex 9.73516 -5 7.89377
    endloop
  endfacet
  facet normal 0 -1 0
    outer loop
      vertex 0 -5 8.3
      vertex 8.76603 -5 7.51006
      vertex 9.24457 -5 7.71714
    endloop
  endfacet
  facet normal 0 -1 0
    outer loop
      vertex 0 -5 8.3
      vertex 8.30144 -5 7.27334
      vertex 8.76603 -5 7.51006
    endloop
  endfacet
  facet normal 0 -1 0
    outer loop
      vertex 0 -5 8.3
      vertex 7.85264 -5 7.00792
      vertex 8.30144 -5 7.27334
    endloop
  endfacet
  facet normal 0 -1 0
    outer loop
      vertex 0 -5 8.3
      vertex 7.42138 -5 6.71484
      vertex 7.85264 -5 7.00792
    endloop
  endfacet
  facet normal 0 -1 0
    outer loop
      vertex 0 -5 8.3
      vertex 7.00938 -5 6.39526
      vertex 7.42138 -5 6.71484
    endloop
  endfacet
  facet normal 0 -1 0
    outer loop
      vertex 0 -5 8.3
      vertex 6.61826 -5 6.05044
      vertex 7.00938 -5 6.39526
    endloop
  endfacet
  facet normal 0 -1 0
    outer loop
      vertex 0 -5 8.3
      vertex 6.24956 -5 5.68174
      vertex 6.61826 -5 6.05044
    endloop
  endfacet
  facet normal 0 -1 0
    outer loop
      vertex 0 -5 8.3
      vertex 5.90474 -5 5.29062
      vertex 6.24956 -5 5.68174
    endloop
  endfacet
  facet normal 0 -1 0
    outer loop
      vertex 0 -5 8.3
      vertex 5.58516 -5 4.87862
      vertex 5.90474 -5 5.29062
    endloop
  endfacet
  facet normal 0 -1 0
    outer loop
      vertex 0 -5 8.3
      vertex 5.29208 -5 4.44736
      vertex 5.58516 -5 4.87862
    endloop
  endfacet
  facet normal 0 -1 0
    outer loop
      vertex 0 -5 8.3
      vertex 5.02665 -5 3.99856
      vertex 5.29208 -5 4.44736
    endloop
  endfacet
  facet normal 0 -1 0
    outer loop
      vertex 0 -5 8.3
      vertex 4.78994 -5 3.53397
      vertex 5.02665 -5 3.99856
    endloop
  endfacet
  facet normal 0 -1 0
    outer loop
      vertex 0 -5 8.3
      vertex 4.58285 -5 3.05543
      vertex 4.78994 -5 3.53397
    endloop
  endfacet
  facet normal 0 -1 0
    outer loop
      vertex 1.242 -5 0.963881
      vertex 4.58285 -5 3.05543
      vertex 0 -5 8.3
    endloop
  endfacet
  facet normal 0 -1 0
    outer loop
      vertex 4.58285 -5 3.05543
      vertex 1.242 -5 0.963881
      vertex 4.40623 -5 2.56484
    endloop
  endfacet
  facet normal 0 -1 0
    outer loop
      vertex 1.97601 -5 0.880875
      vertex 4.40623 -5 2.56484
      vertex 1.242 -5 0.963881
    endloop
  endfacet
  facet normal 0 -1 0
    outer loop
      vertex 2.35826 -5 0.857124
      vertex 4.40623 -5 2.56484
      vertex 1.97601 -5 0.880875
    endloop
  endfacet
  facet normal 0 -1 0
    outer loop
      vertex 4.40623 -5 2.56484
      vertex 2.35826 -5 0.857124
      vertex 4.26076 -5 2.06413
    endloop
  endfacet
  facet normal 0 -1 0
    outer loop
      vertex 0 -5 8.3
      vertex 1.03868 -5 0.900649
      vertex 1.242 -5 0.963881
    endloop
  endfacet
  facet normal 0 -1 0
    outer loop
      vertex 0 -5 8.3
      vertex 0.87001 -5 0.797652
      vertex 1.03868 -5 0.900649
    endloop
  endfacet
  facet normal 0 -1 0
    outer loop
      vertex 0 -5 8.3
      vertex 0.736007 -5 0.654876
      vertex 0.87001 -5 0.797652
    endloop
  endfacet
  facet normal 0 -1 0
    outer loop
      vertex 0 -5 8.3
      vertex 0.663086 -5 0.519538
      vertex 0.736007 -5 0.654876
    endloop
  endfacet
  facet normal 0 -1 0
    outer loop
      vertex 0 -5 8.3
      vertex 0.638779 -5 0.474425
      vertex 0.663086 -5 0.519538
    endloop
  endfacet
  facet normal 0 -1 0
    outer loop
      vertex 0 -5 8.3
      vertex 0.58046 -5 0.259765
      vertex 0.638779 -5 0.474425
    endloop
  endfacet
  facet normal 0 -1 0
    outer loop
      vertex 0 -5 8.3
      vertex 0.561005 -5 0.0108786
      vertex 0.58046 -5 0.259765
    endloop
  endfacet
  facet normal 0 -1 0
    outer loop
      vertex 3.50499 -5 -0.834105
      vertex 4.14702 -5 -1.55526
      vertex 4.06545 -5 -1.04027
    endloop
  endfacet
  facet normal 0 -1 0
    outer loop
      vertex 0 -5 -8.3
      vertex 1.56201 -5 -1.00011
      vertex 1.27335 -5 -0.970337
    endloop
  endfacet
  facet normal 0 -1 0
    outer loop
      vertex 1.81757 -5 -0.972336
      vertex 4.26076 -5 -2.06413
      vertex 4.14702 -5 -1.55526
    endloop
  endfacet
  facet normal 0 -1 0
    outer loop
      vertex 0 -5 -8.3
      vertex 1.27335 -5 -0.970337
      vertex 1.02867 -5 -0.880997
    endloop
  endfacet
  facet normal 0 -1 0
    outer loop
      vertex 1.81757 -5 -0.972336
      vertex 4.40623 -5 -2.56484
      vertex 4.26076 -5 -2.06413
    endloop
  endfacet
  facet normal 0 -1 0
    outer loop
      vertex 1.56201 -5 -1.00011
      vertex 4.58285 -5 -3.05543
      vertex 4.40623 -5 -2.56484
    endloop
  endfacet
  facet normal 0 -1 -0
    outer loop
      vertex 1.56201 -5 -1.00011
      vertex 0 -5 -8.3
      vertex 4.58285 -5 -3.05543
    endloop
  endfacet
  facet normal 0 -1 -0
    outer loop
      vertex 4.58285 -5 -3.05543
      vertex 0 -5 -8.3
      vertex 4.78994 -5 -3.53397
    endloop
  endfacet
  facet normal 0 -1 0
    outer loop
      vertex 0 -5 -8.3
      vertex 1.02867 -5 -0.880997
      vertex 0.828003 -5 -0.732117
    endloop
  endfacet
  facet normal 0 -1 -0
    outer loop
      vertex 4.78994 -5 -3.53397
      vertex 0 -5 -8.3
      vertex 5.02665 -5 -3.99856
    endloop
  endfacet
  facet normal 0 -1 -0
    outer loop
      vertex 5.02665 -5 -3.99856
      vertex 0 -5 -8.3
      vertex 5.29208 -5 -4.44736
    endloop
  endfacet
  facet normal 0 -1 -0
    outer loop
      vertex 5.29208 -5 -4.44736
      vertex 0 -5 -8.3
      vertex 5.58516 -5 -4.87862
    endloop
  endfacet
  facet normal 0 -1 -0
    outer loop
      vertex 5.58516 -5 -4.87862
      vertex 0 -5 -8.3
      vertex 5.90474 -5 -5.29062
    endloop
  endfacet
  facet normal 0 -1 -0
    outer loop
      vertex 5.90474 -5 -5.29062
      vertex 0 -5 -8.3
      vertex 6.24956 -5 -5.68174
    endloop
  endfacet
  facet normal 0 -1 0
    outer loop
      vertex 0 -5 -8.3
      vertex 0.561005 -5 0.0108786
      vertex 0 -5 8.3
    endloop
  endfacet
  facet normal 0 -1 0
    outer loop
      vertex 0 -5 -8.3
      vertex 0.590668 -5 -0.282776
      vertex 0.561005 -5 0.0108786
    endloop
  endfacet
  facet normal 0 -1 0
    outer loop
      vertex 0 -5 -8.3
      vertex 0.679672 -5 -0.530441
      vertex 0.590668 -5 -0.282776
    endloop
  endfacet
  facet normal 0 -1 0
    outer loop
      vertex 0 -5 -8.3
      vertex 0.828003 -5 -0.732117
      vertex 0.679672 -5 -0.530441
    endloop
  endfacet
  facet normal 0 -1 -0
    outer loop
      vertex 6.24956 -5 -5.68174
      vertex 0 -5 -8.3
      vertex 6.61826 -5 -6.05044
    endloop
  endfacet
  facet normal 0 -1 0
    outer loop
      vertex 0 -5 -8.3
      vertex 7.00938 -5 -6.39526
      vertex 6.61826 -5 -6.05044
    endloop
  endfacet
  facet normal 0 -1 0
    outer loop
      vertex 0 -5 -8.3
      vertex 7.42138 -5 -6.71484
      vertex 7.00938 -5 -6.39526
    endloop
  endfacet
  facet normal 0 -1 0
    outer loop
      vertex 0 -5 -8.3
      vertex 7.85264 -5 -7.00792
      vertex 7.42138 -5 -6.71484
    endloop
  endfacet
  facet normal 0 -1 0
    outer loop
      vertex 0 -5 -8.3
      vertex 8.30144 -5 -7.27334
      vertex 7.85264 -5 -7.00792
    endloop
  endfacet
  facet normal 0 -1 0
    outer loop
      vertex 0 -5 -8.3
      vertex 8.76603 -5 -7.51006
      vertex 8.30144 -5 -7.27334
    endloop
  endfacet
  facet normal 0 -1 0
    outer loop
      vertex 0 -5 -8.3
      vertex 9.24457 -5 -7.71714
      vertex 8.76603 -5 -7.51006
    endloop
  endfacet
  facet normal 0 -1 0
    outer loop
      vertex 0 -5 -8.3
      vertex 9.73516 -5 -7.89377
      vertex 9.24457 -5 -7.71714
    endloop
  endfacet
  facet normal 0 -1 0
    outer loop
      vertex 0 -5 -8.3
      vertex 10.2359 -5 -8.03924
      vertex 9.73516 -5 -7.89377
    endloop
  endfacet
  facet normal 0 -1 0
    outer loop
      vertex 0 -5 -8.3
      vertex 10.7447 -5 -8.15298
      vertex 10.2359 -5 -8.03924
    endloop
  endfacet
  facet normal 0 -1 0
    outer loop
      vertex 0 -5 -8.3
      vertex 11.2597 -5 -8.23455
      vertex 10.7447 -5 -8.15298
    endloop
  endfacet
  facet normal 0 -1 0
    outer loop
      vertex 0 -5 -8.3
      vertex 11.7788 -5 -8.28362
      vertex 11.2597 -5 -8.23455
    endloop
  endfacet
  facet normal 0 -1 -0
    outer loop
      vertex 11.7788 -5 -8.28362
      vertex 0 -5 -8.3
      vertex 12.3 -5 -8.3
    endloop
  endfacet
  facet normal 0 -1 0
    outer loop
      vertex 4.26076 -5 2.06413
      vertex 2.35826 -5 0.857124
      vertex 4.14702 -5 1.55526
    endloop
  endfacet
  facet normal 0 -1 0
    outer loop
      vertex 3.50499 -5 0.785873
      vertex 4.14702 -5 1.55526
      vertex 2.35826 -5 0.857124
    endloop
  endfacet
  facet normal 0 -1 0
    outer loop
      vertex 4.14702 -5 1.55526
      vertex 3.50499 -5 0.785873
      vertex 4.06545 -5 1.04027
    endloop
  endfacet
  facet normal 0 -1 0
    outer loop
      vertex 3.50499 -5 0.785873
      vertex 4.01638 -5 0.521161
      vertex 4.06545 -5 1.04027
    endloop
  endfacet
  facet normal 0 -1 0
    outer loop
      vertex 3.50499 -5 0.785873
      vertex 4 -5 0
      vertex 4.01638 -5 0.521161
    endloop
  endfacet
  facet normal 0 -1 0
    outer loop
      vertex 3.50499 -5 -0.834105
      vertex 4 -5 0
      vertex 3.50499 -5 0.785873
    endloop
  endfacet
  facet normal 0 -1 -0
    outer loop
      vertex 4 -5 0
      vertex 3.50499 -5 -0.834105
      vertex 4.01638 -5 -0.521161
    endloop
  endfacet
  facet normal 0 -1 0
    outer loop
      vertex 4.14702 -5 -1.55526
      vertex 2.03888 -5 -0.888992
      vertex 1.81757 -5 -0.972336
    endloop
  endfacet
  facet normal 0 -1 0
    outer loop
      vertex 4.40623 -5 -2.56484
      vertex 1.81757 -5 -0.972336
      vertex 1.56201 -5 -1.00011
    endloop
  endfacet
  facet normal 0 -1 0
    outer loop
      vertex 3.50499 -5 -0.834105
      vertex 4.06545 -5 -1.04027
      vertex 4.01638 -5 -0.521161
    endloop
  endfacet
  facet normal 0 -1 0
    outer loop
      vertex 3.19398 -5 -0.834105
      vertex 4.14702 -5 -1.55526
      vertex 3.50499 -5 -0.834105
    endloop
  endfacet
  facet normal 0 1 -0
    outer loop
      vertex 11.7788 5 8.28362
      vertex 0 5 8.3
      vertex 12.3 5 8.3
    endloop
  endfacet
  facet normal 0 1 -0
    outer loop
      vertex 11.2597 5 8.23455
      vertex 0 5 8.3
      vertex 11.7788 5 8.28362
    endloop
  endfacet
  facet normal 0 1 -0
    outer loop
      vertex 10.7447 5 8.15298
      vertex 0 5 8.3
      vertex 11.2597 5 8.23455
    endloop
  endfacet
  facet normal 0 1 -0
    outer loop
      vertex 10.2359 5 8.03924
      vertex 0 5 8.3
      vertex 10.7447 5 8.15298
    endloop
  endfacet
  facet normal 0 1 -0
    outer loop
      vertex 9.73516 5 7.89377
      vertex 0 5 8.3
      vertex 10.2359 5 8.03924
    endloop
  endfacet
  facet normal 0 1 -0
    outer loop
      vertex 9.24457 5 7.71714
      vertex 0 5 8.3
      vertex 9.73516 5 7.89377
    endloop
  endfacet
  facet normal 0 1 -0
    outer loop
      vertex 8.76603 5 7.51006
      vertex 0 5 8.3
      vertex 9.24457 5 7.71714
    endloop
  endfacet
  facet normal 0 1 -0
    outer loop
      vertex 8.30144 5 7.27334
      vertex 0 5 8.3
      vertex 8.76603 5 7.51006
    endloop
  endfacet
  facet normal 0 1 -0
    outer loop
      vertex 7.85264 5 7.00792
      vertex 0 5 8.3
      vertex 8.30144 5 7.27334
    endloop
  endfacet
  facet normal 0 1 -0
    outer loop
      vertex 7.42138 5 6.71484
      vertex 0 5 8.3
      vertex 7.85264 5 7.00792
    endloop
  endfacet
  facet normal 0 1 -0
    outer loop
      vertex 7.00938 5 6.39526
      vertex 0 5 8.3
      vertex 7.42138 5 6.71484
    endloop
  endfacet
  facet normal 0 1 -0
    outer loop
      vertex 6.61826 5 6.05044
      vertex 0 5 8.3
      vertex 7.00938 5 6.39526
    endloop
  endfacet
  facet normal 0 1 -0
    outer loop
      vertex 6.24956 5 5.68174
      vertex 0 5 8.3
      vertex 6.61826 5 6.05044
    endloop
  endfacet
  facet normal 0 1 -0
    outer loop
      vertex 5.90474 5 5.29062
      vertex 0 5 8.3
      vertex 6.24956 5 5.68174
    endloop
  endfacet
  facet normal 0 1 -0
    outer loop
      vertex 5.58516 5 4.87862
      vertex 0 5 8.3
      vertex 5.90474 5 5.29062
    endloop
  endfacet
  facet normal 0 1 -0
    outer loop
      vertex 5.29208 5 4.44736
      vertex 0 5 8.3
      vertex 5.58516 5 4.87862
    endloop
  endfacet
  facet normal 0 1 -0
    outer loop
      vertex 5.02665 5 3.99856
      vertex 0 5 8.3
      vertex 5.29208 5 4.44736
    endloop
  endfacet
  facet normal 0 1 -0
    outer loop
      vertex 4.78994 5 3.53397
      vertex 0 5 8.3
      vertex 5.02665 5 3.99856
    endloop
  endfacet
  facet normal 0 1 -0
    outer loop
      vertex 4.58285 5 3.05543
      vertex 0 5 8.3
      vertex 4.78994 5 3.53397
    endloop
  endfacet
  facet normal 0 1 -0
    outer loop
      vertex 4.40623 5 2.56484
      vertex 0 5 8.3
      vertex 4.58285 5 3.05543
    endloop
  endfacet
  facet normal 0 1 -0
    outer loop
      vertex 4.26076 5 2.06413
      vertex 0 5 8.3
      vertex 4.40623 5 2.56484
    endloop
  endfacet
  facet normal 0 1 -0
    outer loop
      vertex 4.14702 5 1.55526
      vertex 0 5 8.3
      vertex 4.26076 5 2.06413
    endloop
  endfacet
  facet normal 0 1 -0
    outer loop
      vertex 4.06545 5 1.04027
      vertex 0 5 8.3
      vertex 4.14702 5 1.55526
    endloop
  endfacet
  facet normal 0 1 -0
    outer loop
      vertex 4.01638 5 0.521161
      vertex 0 5 8.3
      vertex 4.06545 5 1.04027
    endloop
  endfacet
  facet normal 0 1 -0
    outer loop
      vertex 4 5 0
      vertex 0 5 8.3
      vertex 4.01638 5 0.521161
    endloop
  endfacet
  facet normal 0 1 0
    outer loop
      vertex 0 5 -8.3
      vertex 4 5 0
      vertex 4.01638 5 -0.521161
    endloop
  endfacet
  facet normal 0 1 0
    outer loop
      vertex 0 5 -8.3
      vertex 4.01638 5 -0.521161
      vertex 4.06545 5 -1.04027
    endloop
  endfacet
  facet normal 0 1 0
    outer loop
      vertex 0 5 -8.3
      vertex 4.06545 5 -1.04027
      vertex 4.14702 5 -1.55526
    endloop
  endfacet
  facet normal 0 1 0
    outer loop
      vertex 0 5 -8.3
      vertex 4.14702 5 -1.55526
      vertex 4.26076 5 -2.06413
    endloop
  endfacet
  facet normal 0 1 0
    outer loop
      vertex 0 5 -8.3
      vertex 4.26076 5 -2.06413
      vertex 4.40623 5 -2.56484
    endloop
  endfacet
  facet normal 0 1 0
    outer loop
      vertex 0 5 -8.3
      vertex 4.40623 5 -2.56484
      vertex 4.58285 5 -3.05543
    endloop
  endfacet
  facet normal 0 1 0
    outer loop
      vertex 4 5 0
      vertex 0 5 -8.3
      vertex 0 5 8.3
    endloop
  endfacet
  facet normal 0 1 0
    outer loop
      vertex 4.78994 5 -3.53397
      vertex 0 5 -8.3
      vertex 4.58285 5 -3.05543
    endloop
  endfacet
  facet normal 0 1 0
    outer loop
      vertex 5.02665 5 -3.99856
      vertex 0 5 -8.3
      vertex 4.78994 5 -3.53397
    endloop
  endfacet
  facet normal 0 1 0
    outer loop
      vertex 5.29208 5 -4.44736
      vertex 0 5 -8.3
      vertex 5.02665 5 -3.99856
    endloop
  endfacet
  facet normal 0 1 0
    outer loop
      vertex 5.58516 5 -4.87862
      vertex 0 5 -8.3
      vertex 5.29208 5 -4.44736
    endloop
  endfacet
  facet normal 0 1 0
    outer loop
      vertex 5.90474 5 -5.29062
      vertex 0 5 -8.3
      vertex 5.58516 5 -4.87862
    endloop
  endfacet
  facet normal 0 1 0
    outer loop
      vertex 6.24956 5 -5.68174
      vertex 0 5 -8.3
      vertex 5.90474 5 -5.29062
    endloop
  endfacet
  facet normal 0 1 0
    outer loop
      vertex 6.61826 5 -6.05044
      vertex 0 5 -8.3
      vertex 6.24956 5 -5.68174
    endloop
  endfacet
  facet normal 0 1 0
    outer loop
      vertex 7.00938 5 -6.39526
      vertex 0 5 -8.3
      vertex 6.61826 5 -6.05044
    endloop
  endfacet
  facet normal 0 1 0
    outer loop
      vertex 7.42138 5 -6.71484
      vertex 0 5 -8.3
      vertex 7.00938 5 -6.39526
    endloop
  endfacet
  facet normal 0 1 0
    outer loop
      vertex 7.85264 5 -7.00792
      vertex 0 5 -8.3
      vertex 7.42138 5 -6.71484
    endloop
  endfacet
  facet normal 0 1 0
    outer loop
      vertex 8.30144 5 -7.27334
      vertex 0 5 -8.3
      vertex 7.85264 5 -7.00792
    endloop
  endfacet
  facet normal 0 1 0
    outer loop
      vertex 8.76603 5 -7.51006
      vertex 0 5 -8.3
      vertex 8.30144 5 -7.27334
    endloop
  endfacet
  facet normal 0 1 0
    outer loop
      vertex 9.24457 5 -7.71714
      vertex 0 5 -8.3
      vertex 8.76603 5 -7.51006
    endloop
  endfacet
  facet normal 0 1 0
    outer loop
      vertex 9.73516 5 -7.89377
      vertex 0 5 -8.3
      vertex 9.24457 5 -7.71714
    endloop
  endfacet
  facet normal 0 1 0
    outer loop
      vertex 10.2359 5 -8.03924
      vertex 0 5 -8.3
      vertex 9.73516 5 -7.89377
    endloop
  endfacet
  facet normal 0 1 0
    outer loop
      vertex 10.7447 5 -8.15298
      vertex 0 5 -8.3
      vertex 10.2359 5 -8.03924
    endloop
  endfacet
  facet normal 0 1 0
    outer loop
      vertex 11.2597 5 -8.23455
      vertex 0 5 -8.3
      vertex 10.7447 5 -8.15298
    endloop
  endfacet
  facet normal 0 1 0
    outer loop
      vertex 11.7788 5 -8.28362
      vertex 0 5 -8.3
      vertex 11.2597 5 -8.23455
    endloop
  endfacet
  facet normal 0 1 0
    outer loop
      vertex 0 5 -8.3
      vertex 11.7788 5 -8.28362
      vertex 12.3 5 -8.3
    endloop
  endfacet
  facet normal 0.995562 -0 0.0941094
    outer loop
      vertex 4.01638 -5 -0.521161
      vertex 4.06545 5 -1.04027
      vertex 4.01638 5 -0.521161
    endloop
  endfacet
  facet normal 0.995562 0 0.0941094
    outer loop
      vertex 4.06545 5 -1.04027
      vertex 4.01638 -5 -0.521161
      vertex 4.06545 -5 -1.04027
    endloop
  endfacet
  facet normal 0.0314094 0 -0.999507
    outer loop
      vertex 11.7788 -5 8.28362
      vertex 12.3 5 8.3
      vertex 12.3 -5 8.3
    endloop
  endfacet
  facet normal 0.0314094 0 -0.999507
    outer loop
      vertex 12.3 5 8.3
      vertex 11.7788 -5 8.28362
      vertex 11.7788 5 8.28362
    endloop
  endfacet
  facet normal 0.75011 0 -0.661313
    outer loop
      vertex 6.24956 -5 5.68174
      vertex 5.90474 5 5.29062
      vertex 6.24956 5 5.68174
    endloop
  endfacet
  facet normal 0.75011 0 -0.661313
    outer loop
      vertex 5.90474 5 5.29062
      vertex 6.24956 -5 5.68174
      vertex 5.90474 -5 5.29062
    endloop
  endfacet
  facet normal 0.397147 0 -0.917755
    outer loop
      vertex 8.76603 -5 7.51006
      vertex 9.24457 5 7.71714
      vertex 9.24457 -5 7.71714
    endloop
  endfacet
  facet normal 0.397147 0 -0.917755
    outer loop
      vertex 9.24457 5 7.71714
      vertex 8.76603 -5 7.51006
      vertex 8.76603 5 7.51006
    endloop
  endfacet
  facet normal 0.940881 0 -0.338738
    outer loop
      vertex 4.58285 -5 3.05543
      vertex 4.40623 5 2.56484
      vertex 4.58285 5 3.05543
    endloop
  endfacet
  facet normal 0.940881 0 -0.338738
    outer loop
      vertex 4.40623 5 2.56484
      vertex 4.58285 -5 3.05543
      vertex 4.40623 -5 2.56484
    endloop
  endfacet
  facet normal 0.156434 0 -0.987688
    outer loop
      vertex 10.7447 -5 8.15298
      vertex 11.2597 5 8.23455
      vertex 11.2597 -5 8.23455
    endloop
  endfacet
  facet normal 0.156434 0 -0.987688
    outer loop
      vertex 11.2597 5 8.23455
      vertex 10.7447 -5 8.15298
      vertex 10.7447 5 8.15298
    endloop
  endfacet
  facet normal 0.218143 0 -0.975917
    outer loop
      vertex 10.2359 -5 8.03924
      vertex 10.7447 5 8.15298
      vertex 10.7447 -5 8.15298
    endloop
  endfacet
  facet normal 0.218143 0 -0.975917
    outer loop
      vertex 10.7447 5 8.15298
      vertex 10.2359 -5 8.03924
      vertex 10.2359 5 8.03924
    endloop
  endfacet
  facet normal 0.218143 0 0.975917
    outer loop
      vertex 10.2359 5 -8.03924
      vertex 10.7447 -5 -8.15298
      vertex 10.7447 5 -8.15298
    endloop
  endfacet
  facet normal 0.218143 0 0.975917
    outer loop
      vertex 10.7447 -5 -8.15298
      vertex 10.2359 5 -8.03924
      vertex 10.2359 -5 -8.03924
    endloop
  endfacet
  facet normal 0.278992 0 0.960293
    outer loop
      vertex 9.73516 5 -7.89377
      vertex 10.2359 -5 -8.03924
      vertex 10.2359 5 -8.03924
    endloop
  endfacet
  facet normal 0.278992 0 0.960293
    outer loop
      vertex 10.2359 -5 -8.03924
      vertex 9.73516 5 -7.89377
      vertex 9.73516 -5 -7.89377
    endloop
  endfacet
  facet normal 0.860742 0 -0.509042
    outer loop
      vertex 5.29208 -5 4.44736
      vertex 5.02665 5 3.99856
      vertex 5.29208 5 4.44736
    endloop
  endfacet
  facet normal 0.860742 0 -0.509042
    outer loop
      vertex 5.02665 5 3.99856
      vertex 5.29208 -5 4.44736
      vertex 5.02665 -5 3.99856
    endloop
  endfacet
  facet normal 0.987688 0 -0.156434
    outer loop
      vertex 4.14702 -5 1.55526
      vertex 4.06545 5 1.04027
      vertex 4.14702 5 1.55526
    endloop
  endfacet
  facet normal 0.987688 0 -0.156434
    outer loop
      vertex 4.06545 5 1.04027
      vertex 4.14702 -5 1.55526
      vertex 4.06545 -5 1.04027
    endloop
  endfacet
  facet normal 0.891006 0 -0.453991
    outer loop
      vertex 5.02665 -5 3.99856
      vertex 4.78994 5 3.53397
      vertex 5.02665 5 3.99856
    endloop
  endfacet
  facet normal 0.891006 0 -0.453991
    outer loop
      vertex 4.78994 5 3.53397
      vertex 5.02665 -5 3.99856
      vertex 4.78994 -5 3.53397
    endloop
  endfacet
  facet normal 0.790155 -0 0.612907
    outer loop
      vertex 5.58516 -5 -4.87862
      vertex 5.90474 5 -5.29062
      vertex 5.58516 5 -4.87862
    endloop
  endfacet
  facet normal 0.790155 0 0.612907
    outer loop
      vertex 5.90474 5 -5.29062
      vertex 5.58516 -5 -4.87862
      vertex 5.90474 -5 -5.29062
    endloop
  endfacet
  facet normal 0.0941094 0 0.995562
    outer loop
      vertex 11.2597 5 -8.23455
      vertex 11.7788 -5 -8.28362
      vertex 11.7788 5 -8.28362
    endloop
  endfacet
  facet normal 0.0941094 0 0.995562
    outer loop
      vertex 11.7788 -5 -8.28362
      vertex 11.2597 5 -8.23455
      vertex 11.2597 -5 -8.23455
    endloop
  endfacet
  facet normal 0.0314094 0 0.999507
    outer loop
      vertex 11.7788 5 -8.28362
      vertex 12.3 -5 -8.3
      vertex 12.3 5 -8.3
    endloop
  endfacet
  facet normal 0.0314094 0 0.999507
    outer loop
      vertex 12.3 -5 -8.3
      vertex 11.7788 5 -8.28362
      vertex 11.7788 -5 -8.28362
    endloop
  endfacet
  facet normal 0.917754 0 -0.397149
    outer loop
      vertex 4.78994 -5 3.53397
      vertex 4.58285 5 3.05543
      vertex 4.78994 5 3.53397
    endloop
  endfacet
  facet normal 0.917754 0 -0.397149
    outer loop
      vertex 4.58285 5 3.05543
      vertex 4.78994 -5 3.53397
      vertex 4.58285 -5 3.05543
    endloop
  endfacet
  facet normal 0.995562 0 -0.0941094
    outer loop
      vertex 4.06545 -5 1.04027
      vertex 4.01638 5 0.521161
      vertex 4.06545 5 1.04027
    endloop
  endfacet
  facet normal 0.995562 0 -0.0941094
    outer loop
      vertex 4.01638 5 0.521161
      vertex 4.06545 -5 1.04027
      vertex 4.01638 -5 0.521161
    endloop
  endfacet
  facet normal 0.661313 0 -0.75011
    outer loop
      vertex 6.61826 -5 6.05044
      vertex 7.00938 5 6.39526
      vertex 7.00938 -5 6.39526
    endloop
  endfacet
  facet normal 0.661313 0 -0.75011
    outer loop
      vertex 7.00938 5 6.39526
      vertex 6.61826 -5 6.05044
      vertex 6.61826 5 6.05044
    endloop
  endfacet
  facet normal 0.612907 0 -0.790155
    outer loop
      vertex 7.00938 -5 6.39526
      vertex 7.42138 5 6.71484
      vertex 7.42138 -5 6.71484
    endloop
  endfacet
  facet normal 0.612907 0 -0.790155
    outer loop
      vertex 7.42138 5 6.71484
      vertex 7.00938 -5 6.39526
      vertex 7.00938 5 6.39526
    endloop
  endfacet
  facet normal 0.562083 0 -0.827081
    outer loop
      vertex 7.42138 -5 6.71484
      vertex 7.85264 5 7.00792
      vertex 7.85264 -5 7.00792
    endloop
  endfacet
  facet normal 0.562083 0 -0.827081
    outer loop
      vertex 7.85264 5 7.00792
      vertex 7.42138 -5 6.71484
      vertex 7.42138 5 6.71484
    endloop
  endfacet
  facet normal 0.0941094 0 -0.995562
    outer loop
      vertex 11.2597 -5 8.23455
      vertex 11.7788 5 8.28362
      vertex 11.7788 -5 8.28362
    endloop
  endfacet
  facet normal 0.0941094 0 -0.995562
    outer loop
      vertex 11.7788 5 8.28362
      vertex 11.2597 -5 8.23455
      vertex 11.2597 5 8.23455
    endloop
  endfacet
  facet normal 0.562083 0 0.827081
    outer loop
      vertex 7.42138 5 -6.71484
      vertex 7.85264 -5 -7.00792
      vertex 7.85264 5 -7.00792
    endloop
  endfacet
  facet normal 0.562083 0 0.827081
    outer loop
      vertex 7.85264 -5 -7.00792
      vertex 7.42138 5 -6.71484
      vertex 7.42138 -5 -6.71484
    endloop
  endfacet
  facet normal 0.156434 0 0.987688
    outer loop
      vertex 10.7447 5 -8.15298
      vertex 11.2597 -5 -8.23455
      vertex 11.2597 5 -8.23455
    endloop
  endfacet
  facet normal 0.156434 0 0.987688
    outer loop
      vertex 11.2597 -5 -8.23455
      vertex 10.7447 5 -8.15298
      vertex 10.7447 -5 -8.15298
    endloop
  endfacet
  facet normal 0.999507 0 -0.0314094
    outer loop
      vertex 4.01638 -5 0.521161
      vertex 4 5 0
      vertex 4.01638 5 0.521161
    endloop
  endfacet
  facet normal 0.999507 0 -0.0314094
    outer loop
      vertex 4 5 0
      vertex 4.01638 -5 0.521161
      vertex 4 -5 0
    endloop
  endfacet
  facet normal 0.999507 -0 0.0314094
    outer loop
      vertex 4 -5 0
      vertex 4.01638 5 -0.521161
      vertex 4 5 0
    endloop
  endfacet
  facet normal 0.999507 0 0.0314094
    outer loop
      vertex 4.01638 5 -0.521161
      vertex 4 -5 0
      vertex 4.01638 -5 -0.521161
    endloop
  endfacet
  facet normal 0.790155 0 -0.612907
    outer loop
      vertex 5.90474 -5 5.29062
      vertex 5.58516 5 4.87862
      vertex 5.90474 5 5.29062
    endloop
  endfacet
  facet normal 0.790155 0 -0.612907
    outer loop
      vertex 5.58516 5 4.87862
      vertex 5.90474 -5 5.29062
      vertex 5.58516 -5 4.87862
    endloop
  endfacet
  facet normal 0.975917 0 -0.218143
    outer loop
      vertex 4.26076 -5 2.06413
      vertex 4.14702 5 1.55526
      vertex 4.26076 5 2.06413
    endloop
  endfacet
  facet normal 0.975917 0 -0.218143
    outer loop
      vertex 4.14702 5 1.55526
      vertex 4.26076 -5 2.06413
      vertex 4.14702 -5 1.55526
    endloop
  endfacet
  facet normal 0.960294 0 -0.278991
    outer loop
      vertex 4.40623 -5 2.56484
      vertex 4.26076 5 2.06413
      vertex 4.40623 5 2.56484
    endloop
  endfacet
  facet normal 0.960294 0 -0.278991
    outer loop
      vertex 4.26076 5 2.06413
      vertex 4.40623 -5 2.56484
      vertex 4.26076 -5 2.06413
    endloop
  endfacet
  facet normal 0.707107 0 -0.707107
    outer loop
      vertex 6.61826 -5 6.05044
      vertex 6.24956 5 5.68174
      vertex 6.61826 5 6.05044
    endloop
  endfacet
  facet normal 0.707107 0 -0.707107
    outer loop
      vertex 6.24956 5 5.68174
      vertex 6.61826 -5 6.05044
      vertex 6.24956 -5 5.68174
    endloop
  endfacet
  facet normal 0.453991 0 -0.891006
    outer loop
      vertex 8.30144 -5 7.27334
      vertex 8.76603 5 7.51006
      vertex 8.76603 -5 7.51006
    endloop
  endfacet
  facet normal 0.453991 0 -0.891006
    outer loop
      vertex 8.76603 5 7.51006
      vertex 8.30144 -5 7.27334
      vertex 8.30144 5 7.27334
    endloop
  endfacet
  facet normal 0.509042 0 -0.860742
    outer loop
      vertex 7.85264 -5 7.00792
      vertex 8.30144 5 7.27334
      vertex 8.30144 -5 7.27334
    endloop
  endfacet
  facet normal 0.509042 0 -0.860742
    outer loop
      vertex 8.30144 5 7.27334
      vertex 7.85264 -5 7.00792
      vertex 7.85264 5 7.00792
    endloop
  endfacet
  facet normal 0.278992 0 -0.960293
    outer loop
      vertex 9.73516 -5 7.89377
      vertex 10.2359 5 8.03924
      vertex 10.2359 -5 8.03924
    endloop
  endfacet
  facet normal 0.278992 0 -0.960293
    outer loop
      vertex 10.2359 5 8.03924
      vertex 9.73516 -5 7.89377
      vertex 9.73516 5 7.89377
    endloop
  endfacet
  facet normal 0.338738 0 -0.940881
    outer loop
      vertex 9.24457 -5 7.71714
      vertex 9.73516 5 7.89377
      vertex 9.73516 -5 7.89377
    endloop
  endfacet
  facet normal 0.338738 0 -0.940881
    outer loop
      vertex 9.73516 5 7.89377
      vertex 9.24457 -5 7.71714
      vertex 9.24457 5 7.71714
    endloop
  endfacet
  facet normal 0.975917 -0 0.218143
    outer loop
      vertex 4.14702 -5 -1.55526
      vertex 4.26076 5 -2.06413
      vertex 4.14702 5 -1.55526
    endloop
  endfacet
  facet normal 0.975917 0 0.218143
    outer loop
      vertex 4.26076 5 -2.06413
      vertex 4.14702 -5 -1.55526
      vertex 4.26076 -5 -2.06413
    endloop
  endfacet
  facet normal 0.960294 -0 0.278991
    outer loop
      vertex 4.26076 -5 -2.06413
      vertex 4.40623 5 -2.56484
      vertex 4.26076 5 -2.06413
    endloop
  endfacet
  facet normal 0.960294 0 0.278991
    outer loop
      vertex 4.40623 5 -2.56484
      vertex 4.26076 -5 -2.06413
      vertex 4.40623 -5 -2.56484
    endloop
  endfacet
  facet normal 0.917754 -0 0.397149
    outer loop
      vertex 4.58285 -5 -3.05543
      vertex 4.78994 5 -3.53397
      vertex 4.58285 5 -3.05543
    endloop
  endfacet
  facet normal 0.917754 0 0.397149
    outer loop
      vertex 4.78994 5 -3.53397
      vertex 4.58285 -5 -3.05543
      vertex 4.78994 -5 -3.53397
    endloop
  endfacet
  facet normal 0.612907 0 0.790155
    outer loop
      vertex 7.00938 5 -6.39526
      vertex 7.42138 -5 -6.71484
      vertex 7.42138 5 -6.71484
    endloop
  endfacet
  facet normal 0.612907 0 0.790155
    outer loop
      vertex 7.42138 -5 -6.71484
      vertex 7.00938 5 -6.39526
      vertex 7.00938 -5 -6.39526
    endloop
  endfacet
  facet normal 0.509042 0 0.860742
    outer loop
      vertex 7.85264 5 -7.00792
      vertex 8.30144 -5 -7.27334
      vertex 8.30144 5 -7.27334
    endloop
  endfacet
  facet normal 0.509042 0 0.860742
    outer loop
      vertex 8.30144 -5 -7.27334
      vertex 7.85264 5 -7.00792
      vertex 7.85264 -5 -7.00792
    endloop
  endfacet
  facet normal 0.453991 0 0.891006
    outer loop
      vertex 8.30144 5 -7.27334
      vertex 8.76603 -5 -7.51006
      vertex 8.76603 5 -7.51006
    endloop
  endfacet
  facet normal 0.453991 0 0.891006
    outer loop
      vertex 8.76603 -5 -7.51006
      vertex 8.30144 5 -7.27334
      vertex 8.30144 -5 -7.27334
    endloop
  endfacet
  facet normal 0.827081 0 -0.562083
    outer loop
      vertex 5.58516 -5 4.87862
      vertex 5.29208 5 4.44736
      vertex 5.58516 5 4.87862
    endloop
  endfacet
  facet normal 0.827081 0 -0.562083
    outer loop
      vertex 5.29208 5 4.44736
      vertex 5.58516 -5 4.87862
      vertex 5.29208 -5 4.44736
    endloop
  endfacet
  facet normal 0.987688 -0 0.156434
    outer loop
      vertex 4.06545 -5 -1.04027
      vertex 4.14702 5 -1.55526
      vertex 4.06545 5 -1.04027
    endloop
  endfacet
  facet normal 0.987688 0 0.156434
    outer loop
      vertex 4.14702 5 -1.55526
      vertex 4.06545 -5 -1.04027
      vertex 4.14702 -5 -1.55526
    endloop
  endfacet
  facet normal 0.940881 -0 0.338738
    outer loop
      vertex 4.40623 -5 -2.56484
      vertex 4.58285 5 -3.05543
      vertex 4.40623 5 -2.56484
    endloop
  endfacet
  facet normal 0.940881 0 0.338738
    outer loop
      vertex 4.58285 5 -3.05543
      vertex 4.40623 -5 -2.56484
      vertex 4.58285 -5 -3.05543
    endloop
  endfacet
  facet normal 0.707107 -0 0.707107
    outer loop
      vertex 6.24956 -5 -5.68174
      vertex 6.61826 5 -6.05044
      vertex 6.24956 5 -5.68174
    endloop
  endfacet
  facet normal 0.707107 0 0.707107
    outer loop
      vertex 6.61826 5 -6.05044
      vertex 6.24956 -5 -5.68174
      vertex 6.61826 -5 -6.05044
    endloop
  endfacet
  facet normal 0.397147 0 0.917755
    outer loop
      vertex 8.76603 5 -7.51006
      vertex 9.24457 -5 -7.71714
      vertex 9.24457 5 -7.71714
    endloop
  endfacet
  facet normal 0.397147 0 0.917755
    outer loop
      vertex 9.24457 -5 -7.71714
      vertex 8.76603 5 -7.51006
      vertex 8.76603 -5 -7.51006
    endloop
  endfacet
  facet normal 0.338738 0 0.940881
    outer loop
      vertex 9.24457 5 -7.71714
      vertex 9.73516 -5 -7.89377
      vertex 9.73516 5 -7.89377
    endloop
  endfacet
  facet normal 0.338738 0 0.940881
    outer loop
      vertex 9.73516 -5 -7.89377
      vertex 9.24457 5 -7.71714
      vertex 9.24457 -5 -7.71714
    endloop
  endfacet
  facet normal 0.661313 0 0.75011
    outer loop
      vertex 6.61826 5 -6.05044
      vertex 7.00938 -5 -6.39526
      vertex 7.00938 5 -6.39526
    endloop
  endfacet
  facet normal 0.661313 0 0.75011
    outer loop
      vertex 7.00938 -5 -6.39526
      vertex 6.61826 5 -6.05044
      vertex 6.61826 -5 -6.05044
    endloop
  endfacet
  facet normal 0.75011 -0 0.661313
    outer loop
      vertex 5.90474 -5 -5.29062
      vertex 6.24956 5 -5.68174
      vertex 5.90474 5 -5.29062
    endloop
  endfacet
  facet normal 0.75011 0 0.661313
    outer loop
      vertex 6.24956 5 -5.68174
      vertex 5.90474 -5 -5.29062
      vertex 6.24956 -5 -5.68174
    endloop
  endfacet
  facet normal 0.827081 -0 0.562083
    outer loop
      vertex 5.29208 -5 -4.44736
      vertex 5.58516 5 -4.87862
      vertex 5.29208 5 -4.44736
    endloop
  endfacet
  facet normal 0.827081 0 0.562083
    outer loop
      vertex 5.58516 5 -4.87862
      vertex 5.29208 -5 -4.44736
      vertex 5.58516 -5 -4.87862
    endloop
  endfacet
  facet normal 0.891006 -0 0.453991
    outer loop
      vertex 4.78994 -5 -3.53397
      vertex 5.02665 5 -3.99856
      vertex 4.78994 5 -3.53397
    endloop
  endfacet
  facet normal 0.891006 0 0.453991
    outer loop
      vertex 5.02665 5 -3.99856
      vertex 4.78994 -5 -3.53397
      vertex 5.02665 -5 -3.99856
    endloop
  endfacet
  facet normal 0.860742 -0 0.509042
    outer loop
      vertex 5.02665 -5 -3.99856
      vertex 5.29208 5 -4.44736
      vertex 5.02665 5 -3.99856
    endloop
  endfacet
  facet normal 0.860742 0 0.509042
    outer loop
      vertex 5.29208 5 -4.44736
      vertex 5.02665 -5 -3.99856
      vertex 5.29208 -5 -4.44736
    endloop
  endfacet
  facet normal -1 0 0
    outer loop
      vertex 0 -5 -8.3
      vertex 0 5 8.3
      vertex 0 5 -8.3
    endloop
  endfacet
  facet normal -1 -0 0
    outer loop
      vertex 0 5 8.3
      vertex 0 -5 -8.3
      vertex 0 -5 8.3
    endloop
  endfacet
  facet normal 0 -1 0
    outer loop
      vertex 1.04889 -4.5 0.478103
      vertex 1.03868 -4.5 0.900649
      vertex 0.870009 -4.5 0.797652
    endloop
  endfacet
  facet normal 0 -1 0
    outer loop
      vertex 1.04889 -4.5 0.478103
      vertex 0.870009 -4.5 0.797652
      vertex 0.736007 -4.5 0.654876
    endloop
  endfacet
  facet normal 0 -1 0
    outer loop
      vertex 1.03868 -4.5 0.900649
      vertex 1.04889 -4.5 0.478103
      vertex 1.285 -4.5 0.594878
    endloop
  endfacet
  facet normal 0 -1 0
    outer loop
      vertex 1.03868 -4.5 0.900649
      vertex 1.285 -4.5 0.594878
      vertex 1.242 -4.5 0.963881
    endloop
  endfacet
  facet normal 0 -1 0
    outer loop
      vertex 0.638779 -4.5 0.474425
      vertex 1.04889 -4.5 0.478103
      vertex 0.736007 -4.5 0.654876
    endloop
  endfacet
  facet normal 0 -1 0
    outer loop
      vertex 0.638779 -4.5 0.474425
      vertex 0.907227 -4.5 0.281096
      vertex 1.04889 -4.5 0.478103
    endloop
  endfacet
  facet normal 0 -1 0
    outer loop
      vertex 0.58046 -4.5 0.259765
      vertex 0.907227 -4.5 0.281096
      vertex 0.638779 -4.5 0.474425
    endloop
  endfacet
  facet normal 0 -1 0
    outer loop
      vertex 0.860001 -4.5 0.00387478
      vertex 0.58046 -4.5 0.259765
      vertex 0.561005 -4.5 0.0108786
    endloop
  endfacet
  facet normal 0 -1 0
    outer loop
      vertex 0.58046 -4.5 0.259765
      vertex 0.860001 -4.5 0.00387478
      vertex 0.907227 -4.5 0.281096
    endloop
  endfacet
  facet normal 0 -1 0
    outer loop
      vertex 0.561005 -4.5 0.0108786
      vertex 0.880569 -4.5 -0.177216
      vertex 0.860001 -4.5 0.00387478
    endloop
  endfacet
  facet normal 0 -1 0
    outer loop
      vertex 0.590668 -4.5 -0.282776
      vertex 0.880569 -4.5 -0.177216
      vertex 0.561005 -4.5 0.0108786
    endloop
  endfacet
  facet normal 0 -1 0
    outer loop
      vertex 0.590668 -4.5 -0.282776
      vertex 0.94223 -4.5 -0.32988
      vertex 0.880569 -4.5 -0.177216
    endloop
  endfacet
  facet normal 0 -1 0
    outer loop
      vertex 0.679672 -4.5 -0.530441
      vertex 0.94223 -4.5 -0.32988
      vertex 0.590668 -4.5 -0.282776
    endloop
  endfacet
  facet normal 0 -1 -0
    outer loop
      vertex 0.94223 -4.5 -0.32988
      vertex 0.679672 -4.5 -0.530441
      vertex 1.04501 -4.5 -0.454117
    endloop
  endfacet
  facet normal 0 -1 0
    outer loop
      vertex 0.828003 -4.5 -0.732117
      vertex 1.04501 -4.5 -0.454117
      vertex 0.679672 -4.5 -0.530441
    endloop
  endfacet
  facet normal 0 -1 -0
    outer loop
      vertex 1.04501 -4.5 -0.454117
      vertex 0.828003 -4.5 -0.732117
      vertex 1.18379 -4.5 -0.546326
    endloop
  endfacet
  facet normal 0 -1 -0
    outer loop
      vertex 1.18379 -4.5 -0.546326
      vertex 1.02867 -4.5 -0.880997
      vertex 1.35345 -4.5 -0.601669
    endloop
  endfacet
  facet normal 0 -1 0
    outer loop
      vertex 1.02867 -4.5 -0.880997
      vertex 1.18379 -4.5 -0.546326
      vertex 0.828003 -4.5 -0.732117
    endloop
  endfacet
  facet normal 0 -1 0
    outer loop
      vertex 2.04344 -4.5 0.438202
      vertex 2.29799 -4.5 0.506882
      vertex 1.97601 -4.5 0.522873
    endloop
  endfacet
  facet normal 0 -1 0
    outer loop
      vertex 2.09644 -4.5 0.353546
      vertex 2.29799 -4.5 0.506882
      vertex 2.04344 -4.5 0.438202
    endloop
  endfacet
  facet normal 0 -1 0
    outer loop
      vertex 2.13499 -4.5 0.268875
      vertex 2.29799 -4.5 0.506882
      vertex 2.09644 -4.5 0.353546
    endloop
  endfacet
  facet normal 0 -1 -0
    outer loop
      vertex 2.29799 -4.5 0.506882
      vertex 2.13499 -4.5 0.268875
      vertex 2.39966 -4.5 0.336655
    endloop
  endfacet
  facet normal 0 -1 0
    outer loop
      vertex 2.1611 -4.5 0.181992
      vertex 2.39966 -4.5 0.336655
      vertex 2.13499 -4.5 0.268875
    endloop
  endfacet
  facet normal 0 -1 0
    outer loop
      vertex 2.1611 -4.5 0.181992
      vertex 2.46066 -4.5 0.140656
      vertex 2.39966 -4.5 0.336655
    endloop
  endfacet
  facet normal 0 -1 0
    outer loop
      vertex 2.17677 -4.5 0.0906525
      vertex 2.46066 -4.5 0.140656
      vertex 2.1611 -4.5 0.181992
    endloop
  endfacet
  facet normal 0 -1 0
    outer loop
      vertex 2.18199 -4.5 -0.00511074
      vertex 2.46066 -4.5 0.140656
      vertex 2.17677 -4.5 0.0906525
    endloop
  endfacet
  facet normal 0 -1 0
    outer loop
      vertex 2.18199 -4.5 -0.00511074
      vertex 2.48099 -4.5 -0.0811148
      vertex 2.46066 -4.5 0.140656
    endloop
  endfacet
  facet normal 0 -1 0
    outer loop
      vertex 2.16266 -4.5 -0.180221
      vertex 2.48099 -4.5 -0.0811148
      vertex 2.18199 -4.5 -0.00511074
    endloop
  endfacet
  facet normal 0 -1 0
    outer loop
      vertex 2.45265 -4.5 -0.342101
      vertex 2.16266 -4.5 -0.180221
      vertex 2.10466 -4.5 -0.329559
    endloop
  endfacet
  facet normal 0 -1 0
    outer loop
      vertex 2.16266 -4.5 -0.180221
      vertex 2.45265 -4.5 -0.342101
      vertex 2.48099 -4.5 -0.0811148
    endloop
  endfacet
  facet normal 0 -1 0
    outer loop
      vertex 2.36766 -4.5 -0.565108
      vertex 2.10466 -4.5 -0.329559
      vertex 2.008 -4.5 -0.45311
    endloop
  endfacet
  facet normal 0 -1 0
    outer loop
      vertex 2.226 -4.5 -0.750107
      vertex 2.008 -4.5 -0.45311
      vertex 1.88068 -4.5 -0.545883
    endloop
  endfacet
  facet normal 0 -1 0
    outer loop
      vertex 2.10466 -4.5 -0.329559
      vertex 2.36766 -4.5 -0.565108
      vertex 2.45265 -4.5 -0.342101
    endloop
  endfacet
  facet normal 0 -1 0
    outer loop
      vertex 2.03888 -4.5 -0.888992
      vertex 1.88068 -4.5 -0.545883
      vertex 1.72934 -4.5 -0.601547
    endloop
  endfacet
  facet normal 0 -1 0
    outer loop
      vertex 1.56201 -4.5 -1.00011
      vertex 1.72934 -4.5 -0.601547
      vertex 1.554 -4.5 -0.620117
    endloop
  endfacet
  facet normal 0 -1 0
    outer loop
      vertex 1.27335 -4.5 -0.970337
      vertex 1.35345 -4.5 -0.601669
      vertex 1.02867 -4.5 -0.880997
    endloop
  endfacet
  facet normal 0 -1 -0
    outer loop
      vertex 1.72934 -4.5 -0.601547
      vertex 1.56201 -4.5 -1.00011
      vertex 1.81757 -4.5 -0.972336
    endloop
  endfacet
  facet normal 0 -1 -0
    outer loop
      vertex 1.35345 -4.5 -0.601669
      vertex 1.27335 -4.5 -0.970337
      vertex 1.554 -4.5 -0.620117
    endloop
  endfacet
  facet normal 0 -1 0
    outer loop
      vertex 1.72934 -4.5 -0.601547
      vertex 1.81757 -4.5 -0.972336
      vertex 2.03888 -4.5 -0.888992
    endloop
  endfacet
  facet normal 0 -1 -0
    outer loop
      vertex 1.554 -4.5 -0.620117
      vertex 1.27335 -4.5 -0.970337
      vertex 1.56201 -4.5 -1.00011
    endloop
  endfacet
  facet normal 0 -1 0
    outer loop
      vertex 2.008 -4.5 -0.45311
      vertex 2.226 -4.5 -0.750107
      vertex 2.36766 -4.5 -0.565108
    endloop
  endfacet
  facet normal 0 -1 0
    outer loop
      vertex 1.88068 -4.5 -0.545883
      vertex 2.03888 -4.5 -0.888992
      vertex 2.226 -4.5 -0.750107
    endloop
  endfacet
  facet normal 0 -1 0
    outer loop
      vertex 2.29799 -4.5 0.506882
      vertex 1.97601 -4.5 0.880875
      vertex 1.97601 -4.5 0.522873
    endloop
  endfacet
  facet normal 0 -1 0
    outer loop
      vertex 1.97601 -4.5 0.880875
      vertex 2.29799 -4.5 0.506882
      vertex 3.50499 -4.5 0.785873
    endloop
  endfacet
  facet normal 0 -1 0
    outer loop
      vertex 3.19398 -4.5 0.452881
      vertex 3.50499 -4.5 0.785873
      vertex 2.29799 -4.5 0.506882
    endloop
  endfacet
  facet normal 0 -1 0
    outer loop
      vertex 3.50499 -4.5 -0.834105
      vertex 3.19398 -4.5 0.452881
      vertex 3.19398 -4.5 -0.834105
    endloop
  endfacet
  facet normal 0 -1 0
    outer loop
      vertex 3.19398 -4.5 0.452881
      vertex 3.50499 -4.5 -0.834105
      vertex 3.50499 -4.5 0.785873
    endloop
  endfacet
  facet normal 0.941075 -0 0.338198
    outer loop
      vertex 0.590668 -5 -0.282776
      vertex 0.679672 -4.5 -0.530441
      vertex 0.590668 -4.5 -0.282776
    endloop
  endfacet
  facet normal 0.941075 0 0.338198
    outer loop
      vertex 0.679672 -4.5 -0.530441
      vertex 0.590668 -5 -0.282776
      vertex 0.679672 -5 -0.530441
    endloop
  endfacet
  facet normal 0.805575 -0 0.592494
    outer loop
      vertex 0.679672 -5 -0.530441
      vertex 0.828003 -4.5 -0.732117
      vertex 0.679672 -4.5 -0.530441
    endloop
  endfacet
  facet normal 0.805575 0 0.592494
    outer loop
      vertex 0.828003 -4.5 -0.732117
      vertex 0.679672 -5 -0.530441
      vertex 0.828003 -5 -0.732117
    endloop
  endfacet
  facet normal 0.595839 0 0.803104
    outer loop
      vertex 0.828003 -4.5 -0.732117
      vertex 1.02867 -5 -0.880997
      vertex 1.02867 -4.5 -0.880997
    endloop
  endfacet
  facet normal 0.595839 0 0.803104
    outer loop
      vertex 1.02867 -5 -0.880997
      vertex 0.828003 -4.5 -0.732117
      vertex 0.828003 -5 -0.732117
    endloop
  endfacet
  facet normal 0.342989 0 0.939339
    outer loop
      vertex 1.02867 -4.5 -0.880997
      vertex 1.27335 -5 -0.970337
      vertex 1.27335 -4.5 -0.970337
    endloop
  endfacet
  facet normal 0.342989 0 0.939339
    outer loop
      vertex 1.27335 -5 -0.970337
      vertex 1.02867 -4.5 -0.880997
      vertex 1.02867 -5 -0.880997
    endloop
  endfacet
  facet normal 0.102585 0 0.994724
    outer loop
      vertex 1.27335 -4.5 -0.970337
      vertex 1.56201 -5 -1.00011
      vertex 1.56201 -4.5 -1.00011
    endloop
  endfacet
  facet normal 0.102585 0 0.994724
    outer loop
      vertex 1.56201 -5 -1.00011
      vertex 1.27335 -4.5 -0.970337
      vertex 1.27335 -5 -0.970337
    endloop
  endfacet
  facet normal -0.108034 0 0.994147
    outer loop
      vertex 1.56201 -4.5 -1.00011
      vertex 1.81757 -5 -0.972336
      vertex 1.81757 -4.5 -0.972336
    endloop
  endfacet
  facet normal -0.108034 0 0.994147
    outer loop
      vertex 1.81757 -5 -0.972336
      vertex 1.56201 -4.5 -1.00011
      vertex 1.56201 -5 -1.00011
    endloop
  endfacet
  facet normal -0.352424 0 0.93584
    outer loop
      vertex 1.81757 -4.5 -0.972336
      vertex 2.03888 -5 -0.888992
      vertex 2.03888 -4.5 -0.888992
    endloop
  endfacet
  facet normal -0.352424 0 0.93584
    outer loop
      vertex 2.03888 -5 -0.888992
      vertex 1.81757 -4.5 -0.972336
      vertex 1.81757 -5 -0.972336
    endloop
  endfacet
  facet normal -0.596001 0 0.802984
    outer loop
      vertex 2.03888 -4.5 -0.888992
      vertex 2.226 -5 -0.750107
      vertex 2.226 -4.5 -0.750107
    endloop
  endfacet
  facet normal -0.596001 0 0.802984
    outer loop
      vertex 2.226 -5 -0.750107
      vertex 2.03888 -4.5 -0.888992
      vertex 2.03888 -5 -0.888992
    endloop
  endfacet
  facet normal -0.793958 0 0.607973
    outer loop
      vertex 2.226 -5 -0.750107
      vertex 2.36766 -4.5 -0.565108
      vertex 2.226 -4.5 -0.750107
    endloop
  endfacet
  facet normal -0.793958 0 0.607973
    outer loop
      vertex 2.36766 -4.5 -0.565108
      vertex 2.226 -5 -0.750107
      vertex 2.36766 -5 -0.565108
    endloop
  endfacet
  facet normal -0.934437 0 0.356128
    outer loop
      vertex 2.36766 -5 -0.565108
      vertex 2.45265 -4.5 -0.342101
      vertex 2.36766 -4.5 -0.565108
    endloop
  endfacet
  facet normal -0.934437 0 0.356128
    outer loop
      vertex 2.45265 -4.5 -0.342101
      vertex 2.36766 -5 -0.565108
      vertex 2.45265 -5 -0.342101
    endloop
  endfacet
  facet normal -0.994158 0 0.107937
    outer loop
      vertex 2.45265 -5 -0.342101
      vertex 2.48099 -4.5 -0.0811148
      vertex 2.45265 -4.5 -0.342101
    endloop
  endfacet
  facet normal -0.994158 0 0.107937
    outer loop
      vertex 2.48099 -4.5 -0.0811148
      vertex 2.45265 -5 -0.342101
      vertex 2.48099 -5 -0.0811148
    endloop
  endfacet
  facet normal -0.995827 0 -0.0912651
    outer loop
      vertex 2.48099 -5 -0.0811148
      vertex 2.46066 -4.5 0.140656
      vertex 2.48099 -4.5 -0.0811148
    endloop
  endfacet
  facet normal -0.995827 -0 -0.0912651
    outer loop
      vertex 2.46066 -4.5 0.140656
      vertex 2.48099 -5 -0.0811148
      vertex 2.46066 -5 0.140656
    endloop
  endfacet
  facet normal -0.954819 0 -0.297187
    outer loop
      vertex 2.46066 -5 0.140656
      vertex 2.39966 -4.5 0.336655
      vertex 2.46066 -4.5 0.140656
    endloop
  endfacet
  facet normal -0.954819 -0 -0.297187
    outer loop
      vertex 2.39966 -4.5 0.336655
      vertex 2.46066 -5 0.140656
      vertex 2.39966 -5 0.336655
    endloop
  endfacet
  facet normal -0.85853 0 -0.512763
    outer loop
      vertex 2.39966 -5 0.336655
      vertex 2.29799 -4.5 0.506882
      vertex 2.39966 -4.5 0.336655
    endloop
  endfacet
  facet normal -0.85853 -0 -0.512763
    outer loop
      vertex 2.29799 -4.5 0.506882
      vertex 2.39966 -5 0.336655
      vertex 2.29799 -5 0.506882
    endloop
  endfacet
  facet normal 0.0601599 0 0.998189
    outer loop
      vertex 2.29799 -4.5 0.506882
      vertex 3.19398 -5 0.452881
      vertex 3.19398 -4.5 0.452881
    endloop
  endfacet
  facet normal 0.0601599 0 0.998189
    outer loop
      vertex 3.19398 -5 0.452881
      vertex 2.29799 -4.5 0.506882
      vertex 2.29799 -5 0.506882
    endloop
  endfacet
  facet normal 1 -0 0
    outer loop
      vertex 3.19398 -5 0.452881
      vertex 3.19398 -4.5 -0.834105
      vertex 3.19398 -4.5 0.452881
    endloop
  endfacet
  facet normal 1 0 0
    outer loop
      vertex 3.19398 -4.5 -0.834105
      vertex 3.19398 -5 0.452881
      vertex 3.19398 -5 -0.834105
    endloop
  endfacet
  facet normal -0 0 1
    outer loop
      vertex 3.19398 -4.5 -0.834105
      vertex 3.50499 -5 -0.834105
      vertex 3.50499 -4.5 -0.834105
    endloop
  endfacet
  facet normal 0 0 1
    outer loop
      vertex 3.50499 -5 -0.834105
      vertex 3.19398 -4.5 -0.834105
      vertex 3.19398 -5 -0.834105
    endloop
  endfacet
  facet normal -1 0 0
    outer loop
      vertex 3.50499 -5 -0.834105
      vertex 3.50499 -4.5 0.785873
      vertex 3.50499 -4.5 -0.834105
    endloop
  endfacet
  facet normal -1 -0 0
    outer loop
      vertex 3.50499 -4.5 0.785873
      vertex 3.50499 -5 -0.834105
      vertex 3.50499 -5 0.785873
    endloop
  endfacet
  facet normal -0.0620142 0 -0.998075
    outer loop
      vertex 2.35826 -5 0.857124
      vertex 3.50499 -4.5 0.785873
      vertex 3.50499 -5 0.785873
    endloop
  endfacet
  facet normal -0.0620142 0 -0.998075
    outer loop
      vertex 3.50499 -4.5 0.785873
      vertex 2.35826 -5 0.857124
      vertex 1.97601 -4.5 0.880875
    endloop
  endfacet
  facet normal -0.0620143 -2.95707e-08 -0.998075
    outer loop
      vertex 1.97601 -5 0.880875
      vertex 1.97601 -4.5 0.880875
      vertex 2.35826 -5 0.857124
    endloop
  endfacet
  facet normal 1 4.76837e-07 0
    outer loop
      vertex 1.97601 -5 0.880875
      vertex 1.97601 -4.5 0.522873
      vertex 1.97601 -4.5 0.880875
    endloop
  endfacet
  facet normal 1 4.76837e-07 0
    outer loop
      vertex 1.97601 -4.5 0.522873
      vertex 1.97601 -5 0.880875
      vertex 1.97601 -5 0.522873
    endloop
  endfacet
  facet normal 0.782252 3.73007e-07 0.622963
    outer loop
      vertex 2.02658 -5 0.45937
      vertex 1.97601 -4.5 0.522873
      vertex 1.97601 -5 0.522873
    endloop
  endfacet
  facet normal 0.782252 3.73007e-07 0.622963
    outer loop
      vertex 1.97601 -4.5 0.522873
      vertex 2.02658 -5 0.45937
      vertex 2.04344 -4.5 0.438202
    endloop
  endfacet
  facet normal 0.782256 0 0.622957
    outer loop
      vertex 2.04344 -4.5 0.438202
      vertex 2.02658 -5 0.45937
      vertex 2.04344 -5 0.438202
    endloop
  endfacet
  facet normal 0.84762 -0 0.530603
    outer loop
      vertex 2.04344 -5 0.438202
      vertex 2.09644 -4.5 0.353546
      vertex 2.04344 -4.5 0.438202
    endloop
  endfacet
  facet normal 0.84762 0 0.530603
    outer loop
      vertex 2.09644 -4.5 0.353546
      vertex 2.04344 -5 0.438202
      vertex 2.09644 -5 0.353546
    endloop
  endfacet
  facet normal 0.910074 -0 0.414445
    outer loop
      vertex 2.09644 -5 0.353546
      vertex 2.13499 -4.5 0.268875
      vertex 2.09644 -4.5 0.353546
    endloop
  endfacet
  facet normal 0.910074 0 0.414445
    outer loop
      vertex 2.13499 -4.5 0.268875
      vertex 2.09644 -5 0.353546
      vertex 2.13499 -5 0.268875
    endloop
  endfacet
  facet normal 0.957697 -0 0.28778
    outer loop
      vertex 2.13499 -5 0.268875
      vertex 2.1611 -4.5 0.181992
      vertex 2.13499 -4.5 0.268875
    endloop
  endfacet
  facet normal 0.957697 0 0.28778
    outer loop
      vertex 2.1611 -4.5 0.181992
      vertex 2.13499 -5 0.268875
      vertex 2.1611 -5 0.181992
    endloop
  endfacet
  facet normal 0.9856 -0 0.169096
    outer loop
      vertex 2.1611 -5 0.181992
      vertex 2.17677 -4.5 0.0906525
      vertex 2.1611 -4.5 0.181992
    endloop
  endfacet
  facet normal 0.9856 0 0.169096
    outer loop
      vertex 2.17677 -4.5 0.0906525
      vertex 2.1611 -5 0.181992
      vertex 2.17677 -5 0.0906525
    endloop
  endfacet
  facet normal 0.998519 -0 0.0544131
    outer loop
      vertex 2.17677 -5 0.0906525
      vertex 2.18199 -4.5 -0.00511074
      vertex 2.17677 -4.5 0.0906525
    endloop
  endfacet
  facet normal 0.998519 0 0.0544131
    outer loop
      vertex 2.18199 -4.5 -0.00511074
      vertex 2.17677 -5 0.0906525
      vertex 2.18199 -5 -0.00511074
    endloop
  endfacet
  facet normal 0.993961 0 -0.109738
    outer loop
      vertex 2.18199 -5 -0.00511074
      vertex 2.16266 -4.5 -0.180221
      vertex 2.18199 -4.5 -0.00511074
    endloop
  endfacet
  facet normal 0.993961 0 -0.109738
    outer loop
      vertex 2.16266 -4.5 -0.180221
      vertex 2.18199 -5 -0.00511074
      vertex 2.16266 -5 -0.180221
    endloop
  endfacet
  facet normal 0.932168 0 -0.362026
    outer loop
      vertex 2.16266 -5 -0.180221
      vertex 2.10466 -4.5 -0.329559
      vertex 2.16266 -4.5 -0.180221
    endloop
  endfacet
  facet normal 0.932168 0 -0.362026
    outer loop
      vertex 2.10466 -4.5 -0.329559
      vertex 2.16266 -5 -0.180221
      vertex 2.10466 -5 -0.329559
    endloop
  endfacet
  facet normal 0.787589 0 -0.616201
    outer loop
      vertex 2.10466 -5 -0.329559
      vertex 2.008 -4.5 -0.45311
      vertex 2.10466 -4.5 -0.329559
    endloop
  endfacet
  facet normal 0.787589 0 -0.616201
    outer loop
      vertex 2.008 -4.5 -0.45311
      vertex 2.10466 -5 -0.329559
      vertex 2.008 -5 -0.45311
    endloop
  endfacet
  facet normal 0.588909 0 -0.8082
    outer loop
      vertex 1.88068 -5 -0.545883
      vertex 2.008 -4.5 -0.45311
      vertex 2.008 -5 -0.45311
    endloop
  endfacet
  facet normal 0.588909 0 -0.8082
    outer loop
      vertex 2.008 -4.5 -0.45311
      vertex 1.88068 -5 -0.545883
      vertex 1.88068 -4.5 -0.545883
    endloop
  endfacet
  facet normal 0.345205 0 -0.938527
    outer loop
      vertex 1.72934 -5 -0.601547
      vertex 1.88068 -4.5 -0.545883
      vertex 1.88068 -5 -0.545883
    endloop
  endfacet
  facet normal 0.345205 0 -0.938527
    outer loop
      vertex 1.88068 -4.5 -0.545883
      vertex 1.72934 -5 -0.601547
      vertex 1.72934 -4.5 -0.601547
    endloop
  endfacet
  facet normal 0.10532 0 -0.994438
    outer loop
      vertex 1.554 -5 -0.620117
      vertex 1.72934 -4.5 -0.601547
      vertex 1.72934 -5 -0.601547
    endloop
  endfacet
  facet normal 0.10532 0 -0.994438
    outer loop
      vertex 1.72934 -4.5 -0.601547
      vertex 1.554 -5 -0.620117
      vertex 1.554 -4.5 -0.620117
    endloop
  endfacet
  facet normal -0.0916014 0 -0.995796
    outer loop
      vertex 1.35345 -5 -0.601669
      vertex 1.554 -4.5 -0.620117
      vertex 1.554 -5 -0.620117
    endloop
  endfacet
  facet normal -0.0916014 0 -0.995796
    outer loop
      vertex 1.554 -4.5 -0.620117
      vertex 1.35345 -5 -0.601669
      vertex 1.35345 -4.5 -0.601669
    endloop
  endfacet
  facet normal -0.310116 0 -0.950699
    outer loop
      vertex 1.18379 -5 -0.546326
      vertex 1.35345 -4.5 -0.601669
      vertex 1.35345 -5 -0.601669
    endloop
  endfacet
  facet normal -0.310116 0 -0.950699
    outer loop
      vertex 1.35345 -4.5 -0.601669
      vertex 1.18379 -5 -0.546326
      vertex 1.18379 -4.5 -0.546326
    endloop
  endfacet
  facet normal -0.55341 0 -0.832909
    outer loop
      vertex 1.04501 -5 -0.454117
      vertex 1.18379 -4.5 -0.546326
      vertex 1.18379 -5 -0.546326
    endloop
  endfacet
  facet normal -0.55341 0 -0.832909
    outer loop
      vertex 1.18379 -4.5 -0.546326
      vertex 1.04501 -5 -0.454117
      vertex 1.04501 -4.5 -0.454117
    endloop
  endfacet
  facet normal -0.770497 0 -0.637444
    outer loop
      vertex 1.04501 -5 -0.454117
      vertex 0.94223 -4.5 -0.32988
      vertex 1.04501 -4.5 -0.454117
    endloop
  endfacet
  facet normal -0.770497 -0 -0.637444
    outer loop
      vertex 0.94223 -4.5 -0.32988
      vertex 1.04501 -5 -0.454117
      vertex 0.94223 -5 -0.32988
    endloop
  endfacet
  facet normal -0.927225 0 -0.374504
    outer loop
      vertex 0.94223 -5 -0.32988
      vertex 0.880569 -4.5 -0.177216
      vertex 0.94223 -4.5 -0.32988
    endloop
  endfacet
  facet normal -0.927225 -0 -0.374504
    outer loop
      vertex 0.880569 -4.5 -0.177216
      vertex 0.94223 -5 -0.32988
      vertex 0.880569 -5 -0.177216
    endloop
  endfacet
  facet normal -0.993611 0 -0.112858
    outer loop
      vertex 0.880569 -5 -0.177216
      vertex 0.860001 -4.5 0.00387478
      vertex 0.880569 -4.5 -0.177216
    endloop
  endfacet
  facet normal -0.993611 -0 -0.112858
    outer loop
      vertex 0.860001 -4.5 0.00387478
      vertex 0.880569 -5 -0.177216
      vertex 0.860001 -5 0.00387478
    endloop
  endfacet
  facet normal -0.985798 0 0.167935
    outer loop
      vertex 0.860001 -5 0.00387478
      vertex 0.907227 -4.5 0.281096
      vertex 0.860001 -4.5 0.00387478
    endloop
  endfacet
  facet normal -0.985798 0 0.167935
    outer loop
      vertex 0.907227 -4.5 0.281096
      vertex 0.860001 -5 0.00387478
      vertex 0.907227 -5 0.281096
    endloop
  endfacet
  facet normal -0.81189 0 0.583811
    outer loop
      vertex 0.907227 -5 0.281096
      vertex 1.04889 -4.5 0.478103
      vertex 0.907227 -4.5 0.281096
    endloop
  endfacet
  facet normal -0.81189 0 0.583811
    outer loop
      vertex 1.04889 -4.5 0.478103
      vertex 0.907227 -5 0.281096
      vertex 1.04889 -5 0.478103
    endloop
  endfacet
  facet normal -0.443317 0 0.896365
    outer loop
      vertex 1.04889 -4.5 0.478103
      vertex 1.285 -5 0.594878
      vertex 1.285 -4.5 0.594878
    endloop
  endfacet
  facet normal -0.443317 0 0.896365
    outer loop
      vertex 1.285 -5 0.594878
      vertex 1.04889 -4.5 0.478103
      vertex 1.04889 -5 0.478103
    endloop
  endfacet
  facet normal -0.993279 0 -0.115747
    outer loop
      vertex 1.25275 -5 0.871631
      vertex 1.285 -4.5 0.594878
      vertex 1.285 -5 0.594878
    endloop
  endfacet
  facet normal -0.993279 0 -0.115747
    outer loop
      vertex 1.285 -4.5 0.594878
      vertex 1.25275 -5 0.871631
      vertex 1.242 -4.5 0.963881
    endloop
  endfacet
  facet normal -0.993279 -4.73632e-07 -0.115745
    outer loop
      vertex 1.242 -5 0.963881
      vertex 1.242 -4.5 0.963881
      vertex 1.25275 -5 0.871631
    endloop
  endfacet
  facet normal 0.296965 1.41604e-07 -0.954888
    outer loop
      vertex 1.03868 -5 0.900649
      vertex 1.242 -4.5 0.963881
      vertex 1.242 -5 0.963881
    endloop
  endfacet
  facet normal 0.296965 1.41604e-07 -0.954888
    outer loop
      vertex 1.242 -4.5 0.963881
      vertex 1.03868 -5 0.900649
      vertex 1.03868 -4.5 0.900649
    endloop
  endfacet
  facet normal 0.521156 2.48507e-07 -0.853461
    outer loop
      vertex 0.87001 -5 0.797652
      vertex 1.03868 -4.5 0.900649
      vertex 1.03868 -5 0.900649
    endloop
  endfacet
  facet normal 0.521156 2.48507e-07 -0.853461
    outer loop
      vertex 1.03868 -4.5 0.900649
      vertex 0.87001 -5 0.797652
      vertex 0.870009 -4.5 0.797652
    endloop
  endfacet
  facet normal 0.729156 3.47688e-07 -0.684348
    outer loop
      vertex 0.87001 -5 0.797652
      vertex 0.736007 -4.5 0.654876
      vertex 0.870009 -4.5 0.797652
    endloop
  endfacet
  facet normal 0.729156 3.47688e-07 -0.684348
    outer loop
      vertex 0.736007 -4.5 0.654876
      vertex 0.87001 -5 0.797652
      vertex 0.736007 -5 0.654876
    endloop
  endfacet
  facet normal 0.880344 4.19781e-07 -0.474336
    outer loop
      vertex 0.663086 -5 0.519538
      vertex 0.736007 -4.5 0.654876
      vertex 0.736007 -5 0.654876
    endloop
  endfacet
  facet normal 0.880344 4.19781e-07 -0.474336
    outer loop
      vertex 0.736007 -4.5 0.654876
      vertex 0.663086 -5 0.519538
      vertex 0.638779 -4.5 0.474425
    endloop
  endfacet
  facet normal 0.880342 0 -0.47434
    outer loop
      vertex 0.663086 -5 0.519538
      vertex 0.638779 -5 0.474425
      vertex 0.638779 -4.5 0.474425
    endloop
  endfacet
  facet normal 0.96502 0 -0.262177
    outer loop
      vertex 0.638779 -5 0.474425
      vertex 0.58046 -4.5 0.259765
      vertex 0.638779 -4.5 0.474425
    endloop
  endfacet
  facet normal 0.96502 0 -0.262177
    outer loop
      vertex 0.58046 -4.5 0.259765
      vertex 0.638779 -5 0.474425
      vertex 0.58046 -5 0.259765
    endloop
  endfacet
  facet normal 0.996959 0 -0.0779304
    outer loop
      vertex 0.58046 -5 0.259765
      vertex 0.561005 -4.5 0.0108786
      vertex 0.58046 -4.5 0.259765
    endloop
  endfacet
  facet normal 0.996959 0 -0.0779304
    outer loop
      vertex 0.561005 -4.5 0.0108786
      vertex 0.58046 -5 0.259765
      vertex 0.561005 -5 0.0108786
    endloop
  endfacet
  facet normal 0.994937 -0 0.100502
    outer loop
      vertex 0.561005 -5 0.0108786
      vertex 0.590668 -4.5 -0.282776
      vertex 0.561005 -4.5 0.0108786
    endloop
  endfacet
  facet normal 0.994937 0 0.100502
    outer loop
      vertex 0.590668 -4.5 -0.282776
      vertex 0.561005 -5 0.0108786
      vertex 0.590668 -5 -0.282776
    endloop
  endfacet
endsolid OpenSCAD_Model
