solid OpenSCAD_Model
  facet normal -0 0.669152 0.743125
    outer loop
      vertex 0 30.9314 6.69131
      vertex 12 29.3779 8.09017
      vertex 12 30.9314 6.69131
    endloop
  endfacet
  facet normal 0 0.669152 0.743125
    outer loop
      vertex 12 29.3779 8.09017
      vertex 0 30.9314 6.69131
      vertex 0 29.3779 8.09017
    endloop
  endfacet
  facet normal 0 0.669152 -0.743125
    outer loop
      vertex 0 29.3779 -8.09017
      vertex 12 30.9314 -6.69131
      vertex 12 29.3779 -8.09017
    endloop
  endfacet
  facet normal 0 0.669152 -0.743125
    outer loop
      vertex 12 30.9314 -6.69131
      vertex 0 29.3779 -8.09017
      vertex 0 30.9314 -6.69131
    endloop
  endfacet
  facet normal 1 0 0
    outer loop
      vertex 12 31.579 -5.8
      vertex 12 29.3779 -8.09017
      vertex 12 30.9314 -6.69131
    endloop
  endfacet
  facet normal 1 0 0
    outer loop
      vertex 12 31.579 -5.8
      vertex 12 27.5674 -9.13545
      vertex 12 29.3779 -8.09017
    endloop
  endfacet
  facet normal 1 0 0
    outer loop
      vertex 12 25.4029 -9.8
      vertex 12 27.5674 -9.13545
      vertex 12 31.579 -5.8
    endloop
  endfacet
  facet normal 1 0 0
    outer loop
      vertex 12 27.5674 -9.13545
      vertex 12 25.4029 -9.8
      vertex 12 25.5791 -9.78148
    endloop
  endfacet
  facet normal 1 0 0
    outer loop
      vertex 12 31.579 -5.8
      vertex 12 -25.4029 -9.8
      vertex 12 25.4029 -9.8
    endloop
  endfacet
  facet normal 1 -0 0
    outer loop
      vertex 12 -31.579 -5.8
      vertex 12 -25.4029 -9.8
      vertex 12 31.579 -5.8
    endloop
  endfacet
  facet normal 1 -0 -0
    outer loop
      vertex 12 -27.5674 -9.13545
      vertex 12 -25.4029 -9.8
      vertex 12 -31.579 -5.8
    endloop
  endfacet
  facet normal 1 0 0
    outer loop
      vertex 12 -25.4029 -9.8
      vertex 12 -27.5674 -9.13545
      vertex 12 -25.5791 -9.78148
    endloop
  endfacet
  facet normal 1 0 0
    outer loop
      vertex 12 -27.5674 -9.13545
      vertex 12 -31.579 -5.8
      vertex 12 -29.3779 -8.09017
    endloop
  endfacet
  facet normal 1 0 0
    outer loop
      vertex 12 -29.3779 -8.09017
      vertex 12 -31.579 -5.8
      vertex 12 -30.9314 -6.69131
    endloop
  endfacet
  facet normal 1 0 0
    outer loop
      vertex 12 29.3779 8.09017
      vertex 12 31.579 5.8
      vertex 12 30.9314 6.69131
    endloop
  endfacet
  facet normal 1 0 0
    outer loop
      vertex 12 27.5674 9.13545
      vertex 12 31.579 5.8
      vertex 12 29.3779 8.09017
    endloop
  endfacet
  facet normal 1 0 0
    outer loop
      vertex 12 25.4029 9.8
      vertex 12 27.5674 9.13545
      vertex 12 25.5791 9.78148
    endloop
  endfacet
  facet normal 1 0 0
    outer loop
      vertex 12 27.5674 9.13545
      vertex 12 25.4029 9.8
      vertex 12 31.579 5.8
    endloop
  endfacet
  facet normal 1 -0 0
    outer loop
      vertex 12 -25.4029 9.8
      vertex 12 31.579 5.8
      vertex 12 25.4029 9.8
    endloop
  endfacet
  facet normal 1 0 0
    outer loop
      vertex 12 -27.5674 9.13545
      vertex 12 -25.4029 9.8
      vertex 12 -25.5791 9.78148
    endloop
  endfacet
  facet normal 1 0 0
    outer loop
      vertex 12 -25.4029 9.8
      vertex 12 -27.5674 9.13545
      vertex 12 -31.579 5.8
    endloop
  endfacet
  facet normal 1 0 0
    outer loop
      vertex 12 -31.579 5.8
      vertex 12 -27.5674 9.13545
      vertex 12 -29.3779 8.09017
    endloop
  endfacet
  facet normal 1 0 0
    outer loop
      vertex 12 -31.579 5.8
      vertex 12 -29.3779 8.09017
      vertex 12 -30.9314 6.69131
    endloop
  endfacet
  facet normal 1 0 0
    outer loop
      vertex 12 -25.4029 9.8
      vertex 12 -31.579 5.8
      vertex 12 31.579 5.8
    endloop
  endfacet
  facet normal 0 0.499995 -0.866028
    outer loop
      vertex 0 27.5674 -9.13545
      vertex 12 29.3779 -8.09017
      vertex 12 27.5674 -9.13545
    endloop
  endfacet
  facet normal 0 0.499995 -0.866028
    outer loop
      vertex 12 29.3779 -8.09017
      vertex 0 27.5674 -9.13545
      vertex 0 29.3779 -8.09017
    endloop
  endfacet
  facet normal 0 0.104532 -0.994522
    outer loop
      vertex 0 25.4029 -9.8
      vertex 12 25.5791 -9.78148
      vertex 12 25.4029 -9.8
    endloop
  endfacet
  facet normal 0 0.104532 -0.994522
    outer loop
      vertex 12 25.5791 -9.78148
      vertex 0 25.4029 -9.8
      vertex 0 25.5791 -9.78148
    endloop
  endfacet
  facet normal 0 0.809006 -0.5878
    outer loop
      vertex 12 31.579 -5.8
      vertex 12 30.9314 -6.69131
      vertex 11.8 31.579 -5.8
    endloop
  endfacet
  facet normal -3.31011e-06 0.809004 -0.587802
    outer loop
      vertex 0 30.9314 -6.69131
      vertex 8.8662 32.1603 -5
      vertex 9.00583 32.1003 -5.08258
    endloop
  endfacet
  facet normal 3.98377e-06 0.808985 -0.587829
    outer loop
      vertex 0 30.9314 -6.69131
      vertex 9.00583 32.1003 -5.08258
      vertex 9.33048 31.9801 -5.248
    endloop
  endfacet
  facet normal 3.94216e-05 0.808876 -0.587979
    outer loop
      vertex 0 30.9314 -6.69131
      vertex 9.33048 31.9801 -5.248
      vertex 9.66488 31.8749 -5.3927
    endloop
  endfacet
  facet normal -0.000518985 0.808572 -0.588398
    outer loop
      vertex 12 30.9314 -6.69131
      vertex 9.66488 31.8749 -5.3927
      vertex 10.0077 31.7853 -5.51613
    endloop
  endfacet
  facet normal 0.000181724 0.809137 -0.58762
    outer loop
      vertex 12 30.9314 -6.69131
      vertex 10.0077 31.7853 -5.51613
      vertex 10.3576 31.7114 -5.61778
    endloop
  endfacet
  facet normal -0.000191657 0.808865 -0.587994
    outer loop
      vertex 12 30.9314 -6.69131
      vertex 10.3576 31.7114 -5.61778
      vertex 10.7132 31.6537 -5.69727
    endloop
  endfacet
  facet normal 0.000252576 0.809138 -0.587618
    outer loop
      vertex 12 30.9314 -6.69131
      vertex 10.7132 31.6537 -5.69727
      vertex 11.0731 31.6122 -5.75426
    endloop
  endfacet
  facet normal -3.17395e-05 0.809005 -0.587802
    outer loop
      vertex 12 30.9314 -6.69131
      vertex 11.0731 31.6122 -5.75426
      vertex 11.4358 31.5873 -5.78855
    endloop
  endfacet
  facet normal -4.30371e-05 0.809001 -0.587807
    outer loop
      vertex 12 30.9314 -6.69131
      vertex 11.4358 31.5873 -5.78855
      vertex 11.8 31.579 -5.8
    endloop
  endfacet
  facet normal 0 0.809016 -0.587787
    outer loop
      vertex 9.66488 31.8749 -5.3927
      vertex 12 30.9314 -6.69131
      vertex 0 30.9314 -6.69131
    endloop
  endfacet
  facet normal 0 0.808996 -0.587814
    outer loop
      vertex 8.8662 32.1603 -5
      vertex 0 30.9314 -6.69131
      vertex 0 32.1603 -5
    endloop
  endfacet
  facet normal 0 0.309014 -0.951058
    outer loop
      vertex 0 25.5791 -9.78148
      vertex 12 27.5674 -9.13545
      vertex 12 25.5791 -9.78148
    endloop
  endfacet
  facet normal 0 0.309014 -0.951058
    outer loop
      vertex 12 27.5674 -9.13545
      vertex 0 25.5791 -9.78148
      vertex 0 27.5674 -9.13545
    endloop
  endfacet
  facet normal -0 0.499995 0.866028
    outer loop
      vertex 0 29.3779 8.09017
      vertex 12 27.5674 9.13545
      vertex 12 29.3779 8.09017
    endloop
  endfacet
  facet normal 0 0.499995 0.866028
    outer loop
      vertex 12 27.5674 9.13545
      vertex 0 29.3779 8.09017
      vertex 0 27.5674 9.13545
    endloop
  endfacet
  facet normal 0 0.978279 -0.207292
    outer loop
      vertex 6.10273 33.4364 -1.08681
      vertex 0 33.4452 -1.04528
      vertex 6.09616 33.4452 -1.04528
    endloop
  endfacet
  facet normal -4.72915e-06 0.978138 -0.207957
    outer loop
      vertex 6.18222 33.3608 -1.4424
      vertex 0 33.4452 -1.04528
      vertex 6.10273 33.4364 -1.08681
    endloop
  endfacet
  facet normal 2.48066e-05 0.978134 -0.207976
    outer loop
      vertex 0 33.0106 -3.09017
      vertex 6.18222 33.3608 -1.4424
      vertex 6.28387 33.2864 -1.7923
    endloop
  endfacet
  facet normal -2.73959e-05 0.978185 -0.207734
    outer loop
      vertex 0 33.0106 -3.09017
      vertex 6.28387 33.2864 -1.7923
      vertex 6.4073 33.2136 -2.13512
    endloop
  endfacet
  facet normal 8.94381e-06 0.978136 -0.207967
    outer loop
      vertex 0 33.0106 -3.09017
      vertex 6.4073 33.2136 -2.13512
      vertex 6.552 33.1425 -2.46952
    endloop
  endfacet
  facet normal 1.54195e-06 0.978152 -0.207892
    outer loop
      vertex 0 33.0106 -3.09017
      vertex 6.552 33.1425 -2.46952
      vertex 6.71742 33.0735 -2.79417
    endloop
  endfacet
  facet normal 0 0.978159 -0.207859
    outer loop
      vertex 0 33.0106 -3.09017
      vertex 6.71742 33.0735 -2.79417
      vertex 6.89247 33.0106 -3.09017
    endloop
  endfacet
  facet normal 2.8164e-08 0.978153 -0.207887
    outer loop
      vertex 6.18222 33.3608 -1.4424
      vertex 0 33.0106 -3.09017
      vertex 0 33.4452 -1.04528
    endloop
  endfacet
  facet normal 0 0.913592 0.406633
    outer loop
      vertex 8.6922 32.2061 4.8971
      vertex 0 32.1603 5
      vertex 8.8662 32.1603 5
    endloop
  endfacet
  facet normal 2.34032e-06 0.913518 0.406798
    outer loop
      vertex 8.39085 32.2973 4.6923
      vertex 0 32.1603 5
      vertex 8.6922 32.2061 4.8971
    endloop
  endfacet
  facet normal -4.40398e-06 0.913587 0.406644
    outer loop
      vertex 8.10294 32.3967 4.46898
      vertex 0 32.1603 5
      vertex 8.39085 32.2973 4.6923
    endloop
  endfacet
  facet normal 6.7512e-06 0.913523 0.406786
    outer loop
      vertex 7.82963 32.504 4.22802
      vertex 0 32.1603 5
      vertex 8.10294 32.3967 4.46898
    endloop
  endfacet
  facet normal -3.37978e-06 0.913562 0.4067
    outer loop
      vertex 7.57198 32.6187 3.97037
      vertex 0 32.1603 5
      vertex 7.82963 32.504 4.22802
    endloop
  endfacet
  facet normal 8.14634e-06 0.91353 0.406771
    outer loop
      vertex 7.33102 32.7404 3.69706
      vertex 0 32.1603 5
      vertex 7.57198 32.6187 3.97037
    endloop
  endfacet
  facet normal -4.18375e-05 0.913635 0.406537
    outer loop
      vertex 7.1077 32.8685 3.40915
      vertex 0 32.1603 5
      vertex 7.33102 32.7404 3.69706
    endloop
  endfacet
  facet normal 2.5512e-05 0.913523 0.406788
    outer loop
      vertex 6.9029 33.0027 3.10779
      vertex 0 32.1603 5
      vertex 7.1077 32.8685 3.40915
    endloop
  endfacet
  facet normal 0.000680261 0.912633 0.40878
    outer loop
      vertex 6.89247 33.0106 3.09017
      vertex 0 32.1603 5
      vertex 6.9029 33.0027 3.10779
    endloop
  endfacet
  facet normal 0 0.913547 0.406732
    outer loop
      vertex 0 32.1603 5
      vertex 6.89247 33.0106 3.09017
      vertex 0 33.0106 3.09017
    endloop
  endfacet
  facet normal -0 0.104532 0.994522
    outer loop
      vertex 0 25.5791 9.78148
      vertex 12 25.4029 9.8
      vertex 12 25.5791 9.78148
    endloop
  endfacet
  facet normal 0 0.104532 0.994522
    outer loop
      vertex 12 25.4029 9.8
      vertex 0 25.5791 9.78148
      vertex 0 25.4029 9.8
    endloop
  endfacet
  facet normal -0 0.809006 0.5878
    outer loop
      vertex 11.8 31.579 5.8
      vertex 12 30.9314 6.69131
      vertex 12 31.579 5.8
    endloop
  endfacet
  facet normal -4.30371e-05 0.809001 0.587807
    outer loop
      vertex 11.4358 31.5873 5.78855
      vertex 12 30.9314 6.69131
      vertex 11.8 31.579 5.8
    endloop
  endfacet
  facet normal -3.17395e-05 0.809005 0.587802
    outer loop
      vertex 11.0731 31.6122 5.75426
      vertex 12 30.9314 6.69131
      vertex 11.4358 31.5873 5.78855
    endloop
  endfacet
  facet normal 0.000252576 0.809138 0.587618
    outer loop
      vertex 10.7132 31.6537 5.69727
      vertex 12 30.9314 6.69131
      vertex 11.0731 31.6122 5.75426
    endloop
  endfacet
  facet normal -0.000191657 0.808865 0.587994
    outer loop
      vertex 10.3576 31.7114 5.61778
      vertex 12 30.9314 6.69131
      vertex 10.7132 31.6537 5.69727
    endloop
  endfacet
  facet normal 0.000181724 0.809137 0.58762
    outer loop
      vertex 10.0077 31.7853 5.51613
      vertex 12 30.9314 6.69131
      vertex 10.3576 31.7114 5.61778
    endloop
  endfacet
  facet normal -0.000518985 0.808572 0.588398
    outer loop
      vertex 9.66488 31.8749 5.3927
      vertex 12 30.9314 6.69131
      vertex 10.0077 31.7853 5.51613
    endloop
  endfacet
  facet normal 0 0.809016 0.587787
    outer loop
      vertex 12 30.9314 6.69131
      vertex 9.66488 31.8749 5.3927
      vertex 0 30.9314 6.69131
    endloop
  endfacet
  facet normal 3.94216e-05 0.808876 0.587979
    outer loop
      vertex 9.33048 31.9801 5.248
      vertex 0 30.9314 6.69131
      vertex 9.66488 31.8749 5.3927
    endloop
  endfacet
  facet normal 3.98377e-06 0.808985 0.587829
    outer loop
      vertex 9.00583 32.1003 5.08258
      vertex 0 30.9314 6.69131
      vertex 9.33048 31.9801 5.248
    endloop
  endfacet
  facet normal -3.31011e-06 0.809004 0.587802
    outer loop
      vertex 8.8662 32.1603 5
      vertex 0 30.9314 6.69131
      vertex 9.00583 32.1003 5.08258
    endloop
  endfacet
  facet normal 0 0.808996 0.587814
    outer loop
      vertex 0 30.9314 6.69131
      vertex 8.8662 32.1603 5
      vertex 0 32.1603 5
    endloop
  endfacet
  facet normal 0.000680261 0.912633 -0.40878
    outer loop
      vertex 0 32.1603 -5
      vertex 6.89247 33.0106 -3.09017
      vertex 6.9029 33.0027 -3.10779
    endloop
  endfacet
  facet normal 2.5512e-05 0.913523 -0.406788
    outer loop
      vertex 0 32.1603 -5
      vertex 6.9029 33.0027 -3.10779
      vertex 7.1077 32.8685 -3.40915
    endloop
  endfacet
  facet normal -4.18375e-05 0.913635 -0.406537
    outer loop
      vertex 0 32.1603 -5
      vertex 7.1077 32.8685 -3.40915
      vertex 7.33102 32.7404 -3.69706
    endloop
  endfacet
  facet normal 8.14634e-06 0.91353 -0.406771
    outer loop
      vertex 0 32.1603 -5
      vertex 7.33102 32.7404 -3.69706
      vertex 7.57198 32.6187 -3.97037
    endloop
  endfacet
  facet normal -3.37978e-06 0.913562 -0.4067
    outer loop
      vertex 0 32.1603 -5
      vertex 7.57198 32.6187 -3.97037
      vertex 7.82963 32.504 -4.22802
    endloop
  endfacet
  facet normal 6.7512e-06 0.913523 -0.406786
    outer loop
      vertex 0 32.1603 -5
      vertex 7.82963 32.504 -4.22802
      vertex 8.10294 32.3967 -4.46898
    endloop
  endfacet
  facet normal -4.40398e-06 0.913587 -0.406644
    outer loop
      vertex 0 32.1603 -5
      vertex 8.10294 32.3967 -4.46898
      vertex 8.39085 32.2973 -4.6923
    endloop
  endfacet
  facet normal 2.34032e-06 0.913518 -0.406798
    outer loop
      vertex 0 32.1603 -5
      vertex 8.39085 32.2973 -4.6923
      vertex 8.6922 32.2061 -4.8971
    endloop
  endfacet
  facet normal 0 0.913592 -0.406633
    outer loop
      vertex 0 32.1603 -5
      vertex 8.6922 32.2061 -4.8971
      vertex 8.8662 32.1603 -5
    endloop
  endfacet
  facet normal 0 0.913547 -0.406732
    outer loop
      vertex 6.89247 33.0106 -3.09017
      vertex 0 32.1603 -5
      vertex 0 33.0106 -3.09017
    endloop
  endfacet
  facet normal 0 1 -0
    outer loop
      vertex 6.04573 33.4452 0.726933
      vertex 0 33.4452 1.04528
      vertex 6.09616 33.4452 1.04528
    endloop
  endfacet
  facet normal 0 1 -0
    outer loop
      vertex 6.01144 33.4452 0.364184
      vertex 0 33.4452 1.04528
      vertex 6.04573 33.4452 0.726933
    endloop
  endfacet
  facet normal 0 1 -0
    outer loop
      vertex 6 33.4452 0
      vertex 0 33.4452 1.04528
      vertex 6.01144 33.4452 0.364184
    endloop
  endfacet
  facet normal 0 1 0
    outer loop
      vertex 0 33.4452 -1.04528
      vertex 6 33.4452 0
      vertex 6.01144 33.4452 -0.364184
    endloop
  endfacet
  facet normal 0 1 0
    outer loop
      vertex 0 33.4452 -1.04528
      vertex 6.01144 33.4452 -0.364184
      vertex 6.04573 33.4452 -0.726933
    endloop
  endfacet
  facet normal 0 1 0
    outer loop
      vertex 0 33.4452 -1.04528
      vertex 6.04573 33.4452 -0.726933
      vertex 6.09616 33.4452 -1.04528
    endloop
  endfacet
  facet normal 0 1 0
    outer loop
      vertex 6 33.4452 0
      vertex 0 33.4452 -1.04528
      vertex 0 33.4452 1.04528
    endloop
  endfacet
  facet normal 0 0.978159 0.207859
    outer loop
      vertex 6.71742 33.0735 2.79417
      vertex 0 33.0106 3.09017
      vertex 6.89247 33.0106 3.09017
    endloop
  endfacet
  facet normal 1.54195e-06 0.978152 0.207892
    outer loop
      vertex 6.552 33.1425 2.46952
      vertex 0 33.0106 3.09017
      vertex 6.71742 33.0735 2.79417
    endloop
  endfacet
  facet normal 8.94381e-06 0.978136 0.207967
    outer loop
      vertex 6.4073 33.2136 2.13512
      vertex 0 33.0106 3.09017
      vertex 6.552 33.1425 2.46952
    endloop
  endfacet
  facet normal -2.73959e-05 0.978185 0.207734
    outer loop
      vertex 6.28387 33.2864 1.7923
      vertex 0 33.0106 3.09017
      vertex 6.4073 33.2136 2.13512
    endloop
  endfacet
  facet normal 2.48066e-05 0.978134 0.207976
    outer loop
      vertex 6.18222 33.3608 1.4424
      vertex 0 33.0106 3.09017
      vertex 6.28387 33.2864 1.7923
    endloop
  endfacet
  facet normal -4.72915e-06 0.978138 0.207957
    outer loop
      vertex 0 33.4452 1.04528
      vertex 6.18222 33.3608 1.4424
      vertex 6.10273 33.4364 1.08681
    endloop
  endfacet
  facet normal -0 0.978279 0.207292
    outer loop
      vertex 0 33.4452 1.04528
      vertex 6.10273 33.4364 1.08681
      vertex 6.09616 33.4452 1.04528
    endloop
  endfacet
  facet normal 2.8164e-08 0.978153 0.207887
    outer loop
      vertex 6.18222 33.3608 1.4424
      vertex 0 33.4452 1.04528
      vertex 0 33.0106 3.09017
    endloop
  endfacet
  facet normal -0 0.309014 0.951058
    outer loop
      vertex 0 27.5674 9.13545
      vertex 12 25.5791 9.78148
      vertex 12 27.5674 9.13545
    endloop
  endfacet
  facet normal 0 0.309014 0.951058
    outer loop
      vertex 12 25.5791 9.78148
      vertex 0 27.5674 9.13545
      vertex 0 25.5791 9.78148
    endloop
  endfacet
  facet normal 0 -0.669152 0.743125
    outer loop
      vertex 0 -29.3779 8.09017
      vertex 12 -30.9314 6.69131
      vertex 12 -29.3779 8.09017
    endloop
  endfacet
  facet normal 0 -0.669152 0.743125
    outer loop
      vertex 12 -30.9314 6.69131
      vertex 0 -29.3779 8.09017
      vertex 0 -30.9314 6.69131
    endloop
  endfacet
  facet normal 0 -0.309014 -0.951058
    outer loop
      vertex 0 -27.5674 -9.13545
      vertex 12 -25.5791 -9.78148
      vertex 12 -27.5674 -9.13545
    endloop
  endfacet
  facet normal -0 -0.309014 -0.951058
    outer loop
      vertex 12 -25.5791 -9.78148
      vertex 0 -27.5674 -9.13545
      vertex 0 -25.5791 -9.78148
    endloop
  endfacet
  facet normal 0 -0.808996 -0.587814
    outer loop
      vertex 0 -30.9314 -6.69131
      vertex 8.8662 -32.1603 -5
      vertex 0 -32.1603 -5
    endloop
  endfacet
  facet normal -3.31011e-06 -0.809004 -0.587802
    outer loop
      vertex 8.8662 -32.1603 -5
      vertex 0 -30.9314 -6.69131
      vertex 9.00583 -32.1003 -5.08258
    endloop
  endfacet
  facet normal 3.98377e-06 -0.808985 -0.587829
    outer loop
      vertex 9.00583 -32.1003 -5.08258
      vertex 0 -30.9314 -6.69131
      vertex 9.33048 -31.9801 -5.248
    endloop
  endfacet
  facet normal 3.94216e-05 -0.808876 -0.587979
    outer loop
      vertex 9.33048 -31.9801 -5.248
      vertex 0 -30.9314 -6.69131
      vertex 9.66488 -31.8749 -5.3927
    endloop
  endfacet
  facet normal -0 -0.809016 -0.587787
    outer loop
      vertex 12 -30.9314 -6.69131
      vertex 9.66488 -31.8749 -5.3927
      vertex 0 -30.9314 -6.69131
    endloop
  endfacet
  facet normal -0.000518985 -0.808572 -0.588398
    outer loop
      vertex 9.66488 -31.8749 -5.3927
      vertex 12 -30.9314 -6.69131
      vertex 10.0077 -31.7853 -5.51613
    endloop
  endfacet
  facet normal 0.000181724 -0.809137 -0.58762
    outer loop
      vertex 10.0077 -31.7853 -5.51613
      vertex 12 -30.9314 -6.69131
      vertex 10.3576 -31.7114 -5.61778
    endloop
  endfacet
  facet normal -0.000191657 -0.808865 -0.587994
    outer loop
      vertex 10.3576 -31.7114 -5.61778
      vertex 12 -30.9314 -6.69131
      vertex 10.7132 -31.6537 -5.69727
    endloop
  endfacet
  facet normal 0.000252576 -0.809138 -0.587618
    outer loop
      vertex 10.7132 -31.6537 -5.69727
      vertex 12 -30.9314 -6.69131
      vertex 11.0731 -31.6122 -5.75426
    endloop
  endfacet
  facet normal -3.17395e-05 -0.809005 -0.587802
    outer loop
      vertex 11.0731 -31.6122 -5.75426
      vertex 12 -30.9314 -6.69131
      vertex 11.4358 -31.5873 -5.78855
    endloop
  endfacet
  facet normal -4.30371e-05 -0.809001 -0.587807
    outer loop
      vertex 11.4358 -31.5873 -5.78855
      vertex 12 -30.9314 -6.69131
      vertex 11.8 -31.579 -5.8
    endloop
  endfacet
  facet normal 0 -0.809006 -0.5878
    outer loop
      vertex 11.8 -31.579 -5.8
      vertex 12 -30.9314 -6.69131
      vertex 12 -31.579 -5.8
    endloop
  endfacet
  facet normal 0 -0.669152 -0.743125
    outer loop
      vertex 0 -30.9314 -6.69131
      vertex 12 -29.3779 -8.09017
      vertex 12 -30.9314 -6.69131
    endloop
  endfacet
  facet normal -0 -0.669152 -0.743125
    outer loop
      vertex 12 -29.3779 -8.09017
      vertex 0 -30.9314 -6.69131
      vertex 0 -29.3779 -8.09017
    endloop
  endfacet
  facet normal 0 -0.104532 -0.994522
    outer loop
      vertex 0 -25.5791 -9.78148
      vertex 12 -25.4029 -9.8
      vertex 12 -25.5791 -9.78148
    endloop
  endfacet
  facet normal -0 -0.104532 -0.994522
    outer loop
      vertex 12 -25.4029 -9.8
      vertex 0 -25.5791 -9.78148
      vertex 0 -25.4029 -9.8
    endloop
  endfacet
  facet normal 0 -0.913592 0.406633
    outer loop
      vertex 0 -32.1603 5
      vertex 8.6922 -32.2061 4.8971
      vertex 8.8662 -32.1603 5
    endloop
  endfacet
  facet normal 2.34032e-06 -0.913518 0.406798
    outer loop
      vertex 0 -32.1603 5
      vertex 8.39085 -32.2973 4.6923
      vertex 8.6922 -32.2061 4.8971
    endloop
  endfacet
  facet normal -4.40398e-06 -0.913587 0.406644
    outer loop
      vertex 0 -32.1603 5
      vertex 8.10294 -32.3967 4.46898
      vertex 8.39085 -32.2973 4.6923
    endloop
  endfacet
  facet normal 6.7512e-06 -0.913523 0.406786
    outer loop
      vertex 0 -32.1603 5
      vertex 7.82963 -32.504 4.22802
      vertex 8.10294 -32.3967 4.46898
    endloop
  endfacet
  facet normal -3.37978e-06 -0.913562 0.4067
    outer loop
      vertex 0 -32.1603 5
      vertex 7.57198 -32.6187 3.97037
      vertex 7.82963 -32.504 4.22802
    endloop
  endfacet
  facet normal 8.14634e-06 -0.91353 0.406771
    outer loop
      vertex 0 -32.1603 5
      vertex 7.33102 -32.7404 3.69706
      vertex 7.57198 -32.6187 3.97037
    endloop
  endfacet
  facet normal -4.18375e-05 -0.913635 0.406537
    outer loop
      vertex 0 -32.1603 5
      vertex 7.1077 -32.8685 3.40915
      vertex 7.33102 -32.7404 3.69706
    endloop
  endfacet
  facet normal 2.5512e-05 -0.913523 0.406788
    outer loop
      vertex 0 -32.1603 5
      vertex 6.9029 -33.0027 3.10779
      vertex 7.1077 -32.8685 3.40915
    endloop
  endfacet
  facet normal 0 -0.913547 0.406732
    outer loop
      vertex 6.89247 -33.0106 3.09017
      vertex 0 -32.1603 5
      vertex 0 -33.0106 3.09017
    endloop
  endfacet
  facet normal 0.000680261 -0.912633 0.40878
    outer loop
      vertex 0 -32.1603 5
      vertex 6.89247 -33.0106 3.09017
      vertex 6.9029 -33.0027 3.10779
    endloop
  endfacet
  facet normal 0 -0.809016 0.587787
    outer loop
      vertex 9.66488 -31.8749 5.3927
      vertex 12 -30.9314 6.69131
      vertex 0 -30.9314 6.69131
    endloop
  endfacet
  facet normal -4.30371e-05 -0.809001 0.587807
    outer loop
      vertex 12 -30.9314 6.69131
      vertex 11.4358 -31.5873 5.78855
      vertex 11.8 -31.579 5.8
    endloop
  endfacet
  facet normal -3.17395e-05 -0.809005 0.587802
    outer loop
      vertex 12 -30.9314 6.69131
      vertex 11.0731 -31.6122 5.75426
      vertex 11.4358 -31.5873 5.78855
    endloop
  endfacet
  facet normal 0.000252576 -0.809138 0.587618
    outer loop
      vertex 12 -30.9314 6.69131
      vertex 10.7132 -31.6537 5.69727
      vertex 11.0731 -31.6122 5.75426
    endloop
  endfacet
  facet normal -0.000191657 -0.808865 0.587994
    outer loop
      vertex 12 -30.9314 6.69131
      vertex 10.3576 -31.7114 5.61778
      vertex 10.7132 -31.6537 5.69727
    endloop
  endfacet
  facet normal 0.000181724 -0.809137 0.58762
    outer loop
      vertex 12 -30.9314 6.69131
      vertex 10.0077 -31.7853 5.51613
      vertex 10.3576 -31.7114 5.61778
    endloop
  endfacet
  facet normal -0.000518985 -0.808572 0.588398
    outer loop
      vertex 12 -30.9314 6.69131
      vertex 9.66488 -31.8749 5.3927
      vertex 10.0077 -31.7853 5.51613
    endloop
  endfacet
  facet normal 3.94216e-05 -0.808876 0.587979
    outer loop
      vertex 0 -30.9314 6.69131
      vertex 9.33048 -31.9801 5.248
      vertex 9.66488 -31.8749 5.3927
    endloop
  endfacet
  facet normal 3.98377e-06 -0.808985 0.587829
    outer loop
      vertex 0 -30.9314 6.69131
      vertex 9.00583 -32.1003 5.08258
      vertex 9.33048 -31.9801 5.248
    endloop
  endfacet
  facet normal 0 -0.808996 0.587814
    outer loop
      vertex 8.8662 -32.1603 5
      vertex 0 -30.9314 6.69131
      vertex 0 -32.1603 5
    endloop
  endfacet
  facet normal -3.31011e-06 -0.809004 0.587802
    outer loop
      vertex 0 -30.9314 6.69131
      vertex 8.8662 -32.1603 5
      vertex 9.00583 -32.1003 5.08258
    endloop
  endfacet
  facet normal 0 -0.809006 0.5878
    outer loop
      vertex 12 -30.9314 6.69131
      vertex 11.8 -31.579 5.8
      vertex 12 -31.579 5.8
    endloop
  endfacet
  facet normal 0 -0.913547 -0.406732
    outer loop
      vertex 0 -32.1603 -5
      vertex 6.89247 -33.0106 -3.09017
      vertex 0 -33.0106 -3.09017
    endloop
  endfacet
  facet normal 0.000680261 -0.912633 -0.40878
    outer loop
      vertex 6.89247 -33.0106 -3.09017
      vertex 0 -32.1603 -5
      vertex 6.9029 -33.0027 -3.10779
    endloop
  endfacet
  facet normal 2.5512e-05 -0.913523 -0.406788
    outer loop
      vertex 6.9029 -33.0027 -3.10779
      vertex 0 -32.1603 -5
      vertex 7.1077 -32.8685 -3.40915
    endloop
  endfacet
  facet normal -4.18375e-05 -0.913635 -0.406537
    outer loop
      vertex 7.1077 -32.8685 -3.40915
      vertex 0 -32.1603 -5
      vertex 7.33102 -32.7404 -3.69706
    endloop
  endfacet
  facet normal 8.14634e-06 -0.91353 -0.406771
    outer loop
      vertex 7.33102 -32.7404 -3.69706
      vertex 0 -32.1603 -5
      vertex 7.57198 -32.6187 -3.97037
    endloop
  endfacet
  facet normal -3.37978e-06 -0.913562 -0.4067
    outer loop
      vertex 7.57198 -32.6187 -3.97037
      vertex 0 -32.1603 -5
      vertex 7.82963 -32.504 -4.22802
    endloop
  endfacet
  facet normal 6.7512e-06 -0.913523 -0.406786
    outer loop
      vertex 7.82963 -32.504 -4.22802
      vertex 0 -32.1603 -5
      vertex 8.10294 -32.3967 -4.46898
    endloop
  endfacet
  facet normal -4.40398e-06 -0.913587 -0.406644
    outer loop
      vertex 8.10294 -32.3967 -4.46898
      vertex 0 -32.1603 -5
      vertex 8.39085 -32.2973 -4.6923
    endloop
  endfacet
  facet normal 2.34032e-06 -0.913518 -0.406798
    outer loop
      vertex 8.39085 -32.2973 -4.6923
      vertex 0 -32.1603 -5
      vertex 8.6922 -32.2061 -4.8971
    endloop
  endfacet
  facet normal 0 -0.913592 -0.406633
    outer loop
      vertex 8.6922 -32.2061 -4.8971
      vertex 0 -32.1603 -5
      vertex 8.8662 -32.1603 -5
    endloop
  endfacet
  facet normal 0 -0.978279 -0.207292
    outer loop
      vertex 0 -33.4452 -1.04528
      vertex 6.10273 -33.4364 -1.08681
      vertex 6.09616 -33.4452 -1.04528
    endloop
  endfacet
  facet normal -4.72915e-06 -0.978138 -0.207957
    outer loop
      vertex 0 -33.4452 -1.04528
      vertex 6.18222 -33.3608 -1.4424
      vertex 6.10273 -33.4364 -1.08681
    endloop
  endfacet
  facet normal 2.8164e-08 -0.978153 -0.207887
    outer loop
      vertex 0 -33.0106 -3.09017
      vertex 6.18222 -33.3608 -1.4424
      vertex 0 -33.4452 -1.04528
    endloop
  endfacet
  facet normal 2.48066e-05 -0.978134 -0.207976
    outer loop
      vertex 6.18222 -33.3608 -1.4424
      vertex 0 -33.0106 -3.09017
      vertex 6.28387 -33.2864 -1.7923
    endloop
  endfacet
  facet normal -2.73959e-05 -0.978185 -0.207734
    outer loop
      vertex 6.28387 -33.2864 -1.7923
      vertex 0 -33.0106 -3.09017
      vertex 6.4073 -33.2136 -2.13512
    endloop
  endfacet
  facet normal 8.94381e-06 -0.978136 -0.207967
    outer loop
      vertex 6.4073 -33.2136 -2.13512
      vertex 0 -33.0106 -3.09017
      vertex 6.552 -33.1425 -2.46952
    endloop
  endfacet
  facet normal 1.54195e-06 -0.978152 -0.207892
    outer loop
      vertex 6.552 -33.1425 -2.46952
      vertex 0 -33.0106 -3.09017
      vertex 6.71742 -33.0735 -2.79417
    endloop
  endfacet
  facet normal 0 -0.978159 -0.207859
    outer loop
      vertex 6.71742 -33.0735 -2.79417
      vertex 0 -33.0106 -3.09017
      vertex 6.89247 -33.0106 -3.09017
    endloop
  endfacet
  facet normal 0 -0.309014 0.951058
    outer loop
      vertex 0 -25.5791 9.78148
      vertex 12 -27.5674 9.13545
      vertex 12 -25.5791 9.78148
    endloop
  endfacet
  facet normal 0 -0.309014 0.951058
    outer loop
      vertex 12 -27.5674 9.13545
      vertex 0 -25.5791 9.78148
      vertex 0 -27.5674 9.13545
    endloop
  endfacet
  facet normal 0 -0.978159 0.207859
    outer loop
      vertex 0 -33.0106 3.09017
      vertex 6.71742 -33.0735 2.79417
      vertex 6.89247 -33.0106 3.09017
    endloop
  endfacet
  facet normal 1.54195e-06 -0.978152 0.207892
    outer loop
      vertex 0 -33.0106 3.09017
      vertex 6.552 -33.1425 2.46952
      vertex 6.71742 -33.0735 2.79417
    endloop
  endfacet
  facet normal 8.94381e-06 -0.978136 0.207967
    outer loop
      vertex 0 -33.0106 3.09017
      vertex 6.4073 -33.2136 2.13512
      vertex 6.552 -33.1425 2.46952
    endloop
  endfacet
  facet normal -2.73959e-05 -0.978185 0.207734
    outer loop
      vertex 0 -33.0106 3.09017
      vertex 6.28387 -33.2864 1.7923
      vertex 6.4073 -33.2136 2.13512
    endloop
  endfacet
  facet normal 2.48066e-05 -0.978134 0.207976
    outer loop
      vertex 0 -33.0106 3.09017
      vertex 6.18222 -33.3608 1.4424
      vertex 6.28387 -33.2864 1.7923
    endloop
  endfacet
  facet normal 2.8164e-08 -0.978153 0.207887
    outer loop
      vertex 0 -33.4452 1.04528
      vertex 6.18222 -33.3608 1.4424
      vertex 0 -33.0106 3.09017
    endloop
  endfacet
  facet normal -4.72915e-06 -0.978138 0.207957
    outer loop
      vertex 6.18222 -33.3608 1.4424
      vertex 0 -33.4452 1.04528
      vertex 6.10273 -33.4364 1.08681
    endloop
  endfacet
  facet normal 0 -0.978279 0.207292
    outer loop
      vertex 6.10273 -33.4364 1.08681
      vertex 0 -33.4452 1.04528
      vertex 6.09616 -33.4452 1.04528
    endloop
  endfacet
  facet normal 0 -0.104532 0.994522
    outer loop
      vertex 0 -25.4029 9.8
      vertex 12 -25.5791 9.78148
      vertex 12 -25.4029 9.8
    endloop
  endfacet
  facet normal 0 -0.104532 0.994522
    outer loop
      vertex 12 -25.5791 9.78148
      vertex 0 -25.4029 9.8
      vertex 0 -25.5791 9.78148
    endloop
  endfacet
  facet normal 0 -0.499995 0.866028
    outer loop
      vertex 0 -27.5674 9.13545
      vertex 12 -29.3779 8.09017
      vertex 12 -27.5674 9.13545
    endloop
  endfacet
  facet normal 0 -0.499995 0.866028
    outer loop
      vertex 12 -29.3779 8.09017
      vertex 0 -27.5674 9.13545
      vertex 0 -29.3779 8.09017
    endloop
  endfacet
  facet normal 0 -0.499995 -0.866028
    outer loop
      vertex 0 -29.3779 -8.09017
      vertex 12 -27.5674 -9.13545
      vertex 12 -29.3779 -8.09017
    endloop
  endfacet
  facet normal -0 -0.499995 -0.866028
    outer loop
      vertex 12 -27.5674 -9.13545
      vertex 0 -29.3779 -8.09017
      vertex 0 -27.5674 -9.13545
    endloop
  endfacet
  facet normal 0 -1 0
    outer loop
      vertex 0 -33.4452 1.04528
      vertex 6.04573 -33.4452 0.726933
      vertex 6.09616 -33.4452 1.04528
    endloop
  endfacet
  facet normal 0 -1 0
    outer loop
      vertex 0 -33.4452 1.04528
      vertex 6.01144 -33.4452 0.364184
      vertex 6.04573 -33.4452 0.726933
    endloop
  endfacet
  facet normal 0 -1 0
    outer loop
      vertex 0 -33.4452 1.04528
      vertex 6 -33.4452 0
      vertex 6.01144 -33.4452 0.364184
    endloop
  endfacet
  facet normal 0 -1 0
    outer loop
      vertex 0 -33.4452 -1.04528
      vertex 6 -33.4452 0
      vertex 0 -33.4452 1.04528
    endloop
  endfacet
  facet normal 0 -1 -0
    outer loop
      vertex 6 -33.4452 0
      vertex 0 -33.4452 -1.04528
      vertex 6.01144 -33.4452 -0.364184
    endloop
  endfacet
  facet normal 0 -1 -0
    outer loop
      vertex 6.01144 -33.4452 -0.364184
      vertex 0 -33.4452 -1.04528
      vertex 6.04573 -33.4452 -0.726933
    endloop
  endfacet
  facet normal 0 -1 -0
    outer loop
      vertex 6.04573 -33.4452 -0.726933
      vertex 0 -33.4452 -1.04528
      vertex 6.09616 -33.4452 -1.04528
    endloop
  endfacet
  facet normal 0 0 -1
    outer loop
      vertex 11.8 -31.579 5.8
      vertex 12 31.579 5.8
      vertex 12 -31.579 5.8
    endloop
  endfacet
  facet normal -0 0 -1
    outer loop
      vertex 12 31.579 5.8
      vertex 11.8 -31.579 5.8
      vertex 11.8 31.579 5.8
    endloop
  endfacet
  facet normal -0 0 1
    outer loop
      vertex 11.8 31.579 -5.8
      vertex 12 -31.579 -5.8
      vertex 12 31.579 -5.8
    endloop
  endfacet
  facet normal 0 0 1
    outer loop
      vertex 12 -31.579 -5.8
      vertex 11.8 31.579 -5.8
      vertex 11.8 -31.579 -5.8
    endloop
  endfacet
  facet normal 0.278978 0 0.960298
    outer loop
      vertex 10.0077 31.7853 -5.51613
      vertex 10.3576 -31.7114 -5.61778
      vertex 10.3576 31.7114 -5.61778
    endloop
  endfacet
  facet normal 0.278978 0 0.960298
    outer loop
      vertex 10.3576 -31.7114 -5.61778
      vertex 10.0077 31.7853 -5.51613
      vertex 10.0077 -31.7853 -5.51613
    endloop
  endfacet
  facet normal 0.995562 -0 0.0941086
    outer loop
      vertex 6.01144 -33.4452 -0.364184
      vertex 6.04573 33.4452 -0.726933
      vertex 6.01144 33.4452 -0.364184
    endloop
  endfacet
  facet normal 0.995562 0 0.0941086
    outer loop
      vertex 6.04573 33.4452 -0.726933
      vertex 6.01144 -33.4452 -0.364184
      vertex 6.04573 -33.4452 -0.726933
    endloop
  endfacet
  facet normal 0.999507 0 -0.0313972
    outer loop
      vertex 6.01144 -33.4452 0.364184
      vertex 6 33.4452 0
      vertex 6.01144 33.4452 0.364184
    endloop
  endfacet
  facet normal 0.999507 0 -0.0313972
    outer loop
      vertex 6 33.4452 0
      vertex 6.01144 -33.4452 0.364184
      vertex 6 -33.4452 0
    endloop
  endfacet
  facet normal 0.612897 0 -0.790163
    outer loop
      vertex 8.10294 -32.3967 4.46898
      vertex 8.39085 32.2973 4.6923
      vertex 8.39085 -32.2973 4.6923
    endloop
  endfacet
  facet normal 0.612897 0 -0.790163
    outer loop
      vertex 8.39085 32.2973 4.6923
      vertex 8.10294 -32.3967 4.46898
      vertex 8.10294 32.3967 4.46898
    endloop
  endfacet
  facet normal 0.917762 0 0.39713
    outer loop
      vertex 6.4073 33.2136 -2.13512
      vertex 6.552 -33.1425 -2.46952
      vertex 6.552 33.1425 -2.46952
    endloop
  endfacet
  facet normal 0.917762 0 0.39713
    outer loop
      vertex 6.552 -33.1425 -2.46952
      vertex 6.4073 33.2136 -2.13512
      vertex 6.4073 -33.2136 -2.13512
    endloop
  endfacet
  facet normal 0.940874 0 0.338755
    outer loop
      vertex 6.28387 33.2864 -1.7923
      vertex 6.4073 -33.2136 -2.13512
      vertex 6.4073 33.2136 -2.13512
    endloop
  endfacet
  facet normal 0.940874 0 0.338755
    outer loop
      vertex 6.4073 -33.2136 -2.13512
      vertex 6.28387 33.2864 -1.7923
      vertex 6.28387 -33.2864 -1.7923
    endloop
  endfacet
  facet normal 0.827086 0 -0.562076
    outer loop
      vertex 7.1077 -32.8685 3.40915
      vertex 6.9029 33.0027 3.10779
      vertex 7.1077 32.8685 3.40915
    endloop
  endfacet
  facet normal 0.827086 0 -0.562076
    outer loop
      vertex 6.9029 33.0027 3.10779
      vertex 7.1077 -32.8685 3.40915
      vertex 6.9029 -33.0027 3.10779
    endloop
  endfacet
  facet normal 0.860934 0.00202898 0.508712
    outer loop
      vertex 6.71742 33.0735 -2.79417
      vertex 6.9029 33.0027 -3.10779
      vertex 6.89247 33.0106 -3.09017
    endloop
  endfacet
  facet normal 0.860735 0 0.509053
    outer loop
      vertex 6.71742 33.0735 -2.79417
      vertex 6.9029 -33.0027 -3.10779
      vertex 6.9029 33.0027 -3.10779
    endloop
  endfacet
  facet normal 0.860735 -0 0.509053
    outer loop
      vertex 6.71742 -33.0735 -2.79417
      vertex 6.9029 -33.0027 -3.10779
      vertex 6.71742 33.0735 -2.79417
    endloop
  endfacet
  facet normal 0.860934 -0.00202898 0.508712
    outer loop
      vertex 6.9029 -33.0027 -3.10779
      vertex 6.71742 -33.0735 -2.79417
      vertex 6.89247 -33.0106 -3.09017
    endloop
  endfacet
  facet normal 0.508988 0.000211313 -0.860774
    outer loop
      vertex 8.6922 -32.2061 4.8971
      vertex 9.00583 -32.1003 5.08258
      vertex 8.8662 -32.1603 5
    endloop
  endfacet
  facet normal 0.509041 0 -0.860742
    outer loop
      vertex 9.00583 -32.1003 5.08258
      vertex 8.6922 -32.2061 4.8971
      vertex 9.00583 32.1003 5.08258
    endloop
  endfacet
  facet normal 0.509041 0 -0.860742
    outer loop
      vertex 8.6922 32.2061 4.8971
      vertex 9.00583 32.1003 5.08258
      vertex 8.6922 -32.2061 4.8971
    endloop
  endfacet
  facet normal 0.508988 -0.000211313 -0.860774
    outer loop
      vertex 9.00583 32.1003 5.08258
      vertex 8.6922 32.2061 4.8971
      vertex 8.8662 32.1603 5
    endloop
  endfacet
  facet normal 0.562089 0 -0.827077
    outer loop
      vertex 8.39085 -32.2973 4.6923
      vertex 8.6922 32.2061 4.8971
      vertex 8.6922 -32.2061 4.8971
    endloop
  endfacet
  facet normal 0.562089 0 -0.827077
    outer loop
      vertex 8.6922 32.2061 4.8971
      vertex 8.39085 -32.2973 4.6923
      vertex 8.39085 32.2973 4.6923
    endloop
  endfacet
  facet normal 0.156401 0 0.987694
    outer loop
      vertex 10.7132 31.6537 -5.69727
      vertex 11.0731 -31.6122 -5.75426
      vertex 11.0731 31.6122 -5.75426
    endloop
  endfacet
  facet normal 0.156401 0 0.987694
    outer loop
      vertex 11.0731 -31.6122 -5.75426
      vertex 10.7132 31.6537 -5.69727
      vertex 10.7132 -31.6537 -5.69727
    endloop
  endfacet
  facet normal 0.278978 0 -0.960298
    outer loop
      vertex 10.0077 -31.7853 5.51613
      vertex 10.3576 31.7114 5.61778
      vertex 10.3576 -31.7114 5.61778
    endloop
  endfacet
  facet normal 0.278978 0 -0.960298
    outer loop
      vertex 10.3576 31.7114 5.61778
      vertex 10.0077 -31.7853 5.51613
      vertex 10.0077 31.7853 5.51613
    endloop
  endfacet
  facet normal 0.750105 0 0.661319
    outer loop
      vertex 7.33102 32.7404 -3.69706
      vertex 7.57198 -32.6187 -3.97037
      vertex 7.57198 32.6187 -3.97037
    endloop
  endfacet
  facet normal 0.750105 0 0.661319
    outer loop
      vertex 7.57198 -32.6187 -3.97037
      vertex 7.33102 32.7404 -3.69706
      vertex 7.33102 -32.7404 -3.69706
    endloop
  endfacet
  facet normal 0.827086 0 0.562076
    outer loop
      vertex 6.9029 33.0027 -3.10779
      vertex 7.1077 -32.8685 -3.40915
      vertex 7.1077 32.8685 -3.40915
    endloop
  endfacet
  facet normal 0.827086 0 0.562076
    outer loop
      vertex 7.1077 -32.8685 -3.40915
      vertex 6.9029 33.0027 -3.10779
      vertex 6.9029 -33.0027 -3.10779
    endloop
  endfacet
  facet normal 0.0314232 0 0.999506
    outer loop
      vertex 11.4358 31.5873 -5.78855
      vertex 11.8 -31.579 -5.8
      vertex 11.8 31.579 -5.8
    endloop
  endfacet
  facet normal 0.0314232 0 0.999506
    outer loop
      vertex 11.8 -31.579 -5.8
      vertex 11.4358 31.5873 -5.78855
      vertex 11.4358 -31.5873 -5.78855
    endloop
  endfacet
  facet normal 0.707107 0 -0.707107
    outer loop
      vertex 7.82963 -32.504 4.22802
      vertex 7.57198 32.6187 3.97037
      vertex 7.82963 32.504 4.22802
    endloop
  endfacet
  facet normal 0.707107 0 -0.707107
    outer loop
      vertex 7.57198 32.6187 3.97037
      vertex 7.82963 -32.504 4.22802
      vertex 7.57198 -32.6187 3.97037
    endloop
  endfacet
  facet normal 0.917762 0 -0.39713
    outer loop
      vertex 6.552 -33.1425 2.46952
      vertex 6.4073 33.2136 2.13512
      vertex 6.552 33.1425 2.46952
    endloop
  endfacet
  facet normal 0.917762 0 -0.39713
    outer loop
      vertex 6.4073 33.2136 2.13512
      vertex 6.552 -33.1425 2.46952
      vertex 6.4073 -33.2136 2.13512
    endloop
  endfacet
  facet normal 0.0314232 0 -0.999506
    outer loop
      vertex 11.4358 -31.5873 5.78855
      vertex 11.8 31.579 5.8
      vertex 11.8 -31.579 5.8
    endloop
  endfacet
  facet normal 0.0314232 0 -0.999506
    outer loop
      vertex 11.8 31.579 5.8
      vertex 11.4358 -31.5873 5.78855
      vertex 11.4358 31.5873 5.78855
    endloop
  endfacet
  facet normal 0.960298 0 0.278978
    outer loop
      vertex 6.18222 33.3608 -1.4424
      vertex 6.28387 -33.2864 -1.7923
      vertex 6.28387 33.2864 -1.7923
    endloop
  endfacet
  facet normal 0.960298 0 0.278978
    outer loop
      vertex 6.28387 -33.2864 -1.7923
      vertex 6.18222 33.3608 -1.4424
      vertex 6.18222 -33.3608 -1.4424
    endloop
  endfacet
  facet normal 0.39713 0 -0.917762
    outer loop
      vertex 9.33048 -31.9801 5.248
      vertex 9.66488 31.8749 5.3927
      vertex 9.66488 -31.8749 5.3927
    endloop
  endfacet
  facet normal 0.39713 0 -0.917762
    outer loop
      vertex 9.66488 31.8749 5.3927
      vertex 9.33048 -31.9801 5.248
      vertex 9.33048 31.9801 5.248
    endloop
  endfacet
  facet normal 0.612897 0 0.790163
    outer loop
      vertex 8.10294 32.3967 -4.46898
      vertex 8.39085 -32.2973 -4.6923
      vertex 8.39085 32.2973 -4.6923
    endloop
  endfacet
  facet normal 0.612897 0 0.790163
    outer loop
      vertex 8.39085 -32.2973 -4.6923
      vertex 8.10294 32.3967 -4.46898
      vertex 8.10294 -32.3967 -4.46898
    endloop
  endfacet
  facet normal 0.218154 0 -0.975914
    outer loop
      vertex 10.3576 -31.7114 5.61778
      vertex 10.7132 31.6537 5.69727
      vertex 10.7132 -31.6537 5.69727
    endloop
  endfacet
  facet normal 0.218154 0 -0.975914
    outer loop
      vertex 10.7132 31.6537 5.69727
      vertex 10.3576 -31.7114 5.61778
      vertex 10.3576 31.7114 5.61778
    endloop
  endfacet
  facet normal 0.661319 0 -0.750105
    outer loop
      vertex 7.82963 -32.504 4.22802
      vertex 8.10294 32.3967 4.46898
      vertex 8.10294 -32.3967 4.46898
    endloop
  endfacet
  facet normal 0.661319 0 -0.750105
    outer loop
      vertex 8.10294 32.3967 4.46898
      vertex 7.82963 -32.504 4.22802
      vertex 7.82963 32.504 4.22802
    endloop
  endfacet
  facet normal 0.891004 0 -0.453996
    outer loop
      vertex 6.71742 -33.0735 2.79417
      vertex 6.552 33.1425 2.46952
      vertex 6.71742 33.0735 2.79417
    endloop
  endfacet
  facet normal 0.891004 0 -0.453996
    outer loop
      vertex 6.552 33.1425 2.46952
      vertex 6.71742 -33.0735 2.79417
      vertex 6.552 -33.1425 2.46952
    endloop
  endfacet
  facet normal 0.790163 0 0.612897
    outer loop
      vertex 7.1077 32.8685 -3.40915
      vertex 7.33102 -32.7404 -3.69706
      vertex 7.33102 32.7404 -3.69706
    endloop
  endfacet
  facet normal 0.790163 0 0.612897
    outer loop
      vertex 7.33102 -32.7404 -3.69706
      vertex 7.1077 32.8685 -3.40915
      vertex 7.1077 -32.8685 -3.40915
    endloop
  endfacet
  facet normal 0.453996 0 -0.891004
    outer loop
      vertex 9.00583 -32.1003 5.08258
      vertex 9.33048 31.9801 5.248
      vertex 9.33048 -31.9801 5.248
    endloop
  endfacet
  facet normal 0.453996 0 -0.891004
    outer loop
      vertex 9.33048 31.9801 5.248
      vertex 9.00583 -32.1003 5.08258
      vertex 9.00583 32.1003 5.08258
    endloop
  endfacet
  facet normal 0.0941213 0 -0.995561
    outer loop
      vertex 11.0731 -31.6122 5.75426
      vertex 11.4358 31.5873 5.78855
      vertex 11.4358 -31.5873 5.78855
    endloop
  endfacet
  facet normal 0.0941213 0 -0.995561
    outer loop
      vertex 11.4358 31.5873 5.78855
      vertex 11.0731 -31.6122 5.75426
      vertex 11.0731 31.6122 5.75426
    endloop
  endfacet
  facet normal 0.860934 0.00202898 -0.508712
    outer loop
      vertex 6.9029 33.0027 3.10779
      vertex 6.71742 33.0735 2.79417
      vertex 6.89247 33.0106 3.09017
    endloop
  endfacet
  facet normal 0.860735 0 -0.509053
    outer loop
      vertex 6.9029 -33.0027 3.10779
      vertex 6.71742 33.0735 2.79417
      vertex 6.9029 33.0027 3.10779
    endloop
  endfacet
  facet normal 0.860934 -0.00202898 -0.508712
    outer loop
      vertex 6.71742 -33.0735 2.79417
      vertex 6.9029 -33.0027 3.10779
      vertex 6.89247 -33.0106 3.09017
    endloop
  endfacet
  facet normal 0.860735 0 -0.509053
    outer loop
      vertex 6.9029 -33.0027 3.10779
      vertex 6.71742 -33.0735 2.79417
      vertex 6.71742 33.0735 2.79417
    endloop
  endfacet
  facet normal 0.995562 0 -0.0941086
    outer loop
      vertex 6.04573 -33.4452 0.726933
      vertex 6.01144 33.4452 0.364184
      vertex 6.04573 33.4452 0.726933
    endloop
  endfacet
  facet normal 0.995562 0 -0.0941086
    outer loop
      vertex 6.01144 33.4452 0.364184
      vertex 6.04573 -33.4452 0.726933
      vertex 6.01144 -33.4452 0.364184
    endloop
  endfacet
  facet normal 0.987684 -0.000993556 -0.156461
    outer loop
      vertex 6.10273 33.4364 1.08681
      vertex 6.04573 33.4452 0.726933
      vertex 6.09616 33.4452 1.04528
    endloop
  endfacet
  facet normal 0.987688 0 -0.156437
    outer loop
      vertex 6.10273 -33.4364 1.08681
      vertex 6.04573 33.4452 0.726933
      vertex 6.10273 33.4364 1.08681
    endloop
  endfacet
  facet normal 0.987684 0.000993556 -0.156461
    outer loop
      vertex 6.04573 -33.4452 0.726933
      vertex 6.10273 -33.4364 1.08681
      vertex 6.09616 -33.4452 1.04528
    endloop
  endfacet
  facet normal 0.987688 0 -0.156437
    outer loop
      vertex 6.10273 -33.4364 1.08681
      vertex 6.04573 -33.4452 0.726933
      vertex 6.04573 33.4452 0.726933
    endloop
  endfacet
  facet normal 0.661319 0 0.750105
    outer loop
      vertex 7.82963 32.504 -4.22802
      vertex 8.10294 -32.3967 -4.46898
      vertex 8.10294 32.3967 -4.46898
    endloop
  endfacet
  facet normal 0.661319 0 0.750105
    outer loop
      vertex 8.10294 -32.3967 -4.46898
      vertex 7.82963 32.504 -4.22802
      vertex 7.82963 -32.504 -4.22802
    endloop
  endfacet
  facet normal 0.790163 0 -0.612897
    outer loop
      vertex 7.33102 -32.7404 3.69706
      vertex 7.1077 32.8685 3.40915
      vertex 7.33102 32.7404 3.69706
    endloop
  endfacet
  facet normal 0.790163 0 -0.612897
    outer loop
      vertex 7.1077 32.8685 3.40915
      vertex 7.33102 -32.7404 3.69706
      vertex 7.1077 -32.8685 3.40915
    endloop
  endfacet
  facet normal 0.975913 0 0.218159
    outer loop
      vertex 6.10273 33.4364 -1.08681
      vertex 6.18222 -33.3608 -1.4424
      vertex 6.18222 33.3608 -1.4424
    endloop
  endfacet
  facet normal 0.975913 0 0.218159
    outer loop
      vertex 6.18222 -33.3608 -1.4424
      vertex 6.10273 33.4364 -1.08681
      vertex 6.10273 -33.4364 -1.08681
    endloop
  endfacet
  facet normal 0.940874 0 -0.338755
    outer loop
      vertex 6.4073 -33.2136 2.13512
      vertex 6.28387 33.2864 1.7923
      vertex 6.4073 33.2136 2.13512
    endloop
  endfacet
  facet normal 0.940874 0 -0.338755
    outer loop
      vertex 6.28387 33.2864 1.7923
      vertex 6.4073 -33.2136 2.13512
      vertex 6.28387 -33.2864 1.7923
    endloop
  endfacet
  facet normal 0.156401 0 -0.987694
    outer loop
      vertex 10.7132 -31.6537 5.69727
      vertex 11.0731 31.6122 5.75426
      vertex 11.0731 -31.6122 5.75426
    endloop
  endfacet
  facet normal 0.156401 0 -0.987694
    outer loop
      vertex 11.0731 31.6122 5.75426
      vertex 10.7132 -31.6537 5.69727
      vertex 10.7132 31.6537 5.69727
    endloop
  endfacet
  facet normal 0.562089 0 0.827077
    outer loop
      vertex 8.39085 32.2973 -4.6923
      vertex 8.6922 -32.2061 -4.8971
      vertex 8.6922 32.2061 -4.8971
    endloop
  endfacet
  facet normal 0.562089 0 0.827077
    outer loop
      vertex 8.6922 -32.2061 -4.8971
      vertex 8.39085 32.2973 -4.6923
      vertex 8.39085 -32.2973 -4.6923
    endloop
  endfacet
  facet normal 0.338755 0 -0.940874
    outer loop
      vertex 9.66488 -31.8749 5.3927
      vertex 10.0077 31.7853 5.51613
      vertex 10.0077 -31.7853 5.51613
    endloop
  endfacet
  facet normal 0.338755 0 -0.940874
    outer loop
      vertex 10.0077 31.7853 5.51613
      vertex 9.66488 -31.8749 5.3927
      vertex 9.66488 31.8749 5.3927
    endloop
  endfacet
  facet normal 0.39713 0 0.917762
    outer loop
      vertex 9.33048 31.9801 -5.248
      vertex 9.66488 -31.8749 -5.3927
      vertex 9.66488 31.8749 -5.3927
    endloop
  endfacet
  facet normal 0.39713 0 0.917762
    outer loop
      vertex 9.66488 -31.8749 -5.3927
      vertex 9.33048 31.9801 -5.248
      vertex 9.33048 -31.9801 -5.248
    endloop
  endfacet
  facet normal 0.707107 0 0.707107
    outer loop
      vertex 7.57198 32.6187 -3.97037
      vertex 7.82963 -32.504 -4.22802
      vertex 7.82963 32.504 -4.22802
    endloop
  endfacet
  facet normal 0.707107 0 0.707107
    outer loop
      vertex 7.82963 -32.504 -4.22802
      vertex 7.57198 32.6187 -3.97037
      vertex 7.57198 -32.6187 -3.97037
    endloop
  endfacet
  facet normal 0.999507 -0 0.0313972
    outer loop
      vertex 6 -33.4452 0
      vertex 6.01144 33.4452 -0.364184
      vertex 6 33.4452 0
    endloop
  endfacet
  facet normal 0.999507 0 0.0313972
    outer loop
      vertex 6.01144 33.4452 -0.364184
      vertex 6 -33.4452 0
      vertex 6.01144 -33.4452 -0.364184
    endloop
  endfacet
  facet normal 0.0941213 0 0.995561
    outer loop
      vertex 11.0731 31.6122 -5.75426
      vertex 11.4358 -31.5873 -5.78855
      vertex 11.4358 31.5873 -5.78855
    endloop
  endfacet
  facet normal 0.0941213 0 0.995561
    outer loop
      vertex 11.4358 -31.5873 -5.78855
      vertex 11.0731 31.6122 -5.75426
      vertex 11.0731 -31.6122 -5.75426
    endloop
  endfacet
  facet normal 0.338755 0 0.940874
    outer loop
      vertex 9.66488 31.8749 -5.3927
      vertex 10.0077 -31.7853 -5.51613
      vertex 10.0077 31.7853 -5.51613
    endloop
  endfacet
  facet normal 0.338755 0 0.940874
    outer loop
      vertex 10.0077 -31.7853 -5.51613
      vertex 9.66488 31.8749 -5.3927
      vertex 9.66488 -31.8749 -5.3927
    endloop
  endfacet
  facet normal 0.987684 -0.000993556 0.156461
    outer loop
      vertex 6.04573 33.4452 -0.726933
      vertex 6.10273 33.4364 -1.08681
      vertex 6.09616 33.4452 -1.04528
    endloop
  endfacet
  facet normal 0.987688 0 0.156437
    outer loop
      vertex 6.04573 33.4452 -0.726933
      vertex 6.10273 -33.4364 -1.08681
      vertex 6.10273 33.4364 -1.08681
    endloop
  endfacet
  facet normal 0.987688 -0 0.156437
    outer loop
      vertex 6.04573 -33.4452 -0.726933
      vertex 6.10273 -33.4364 -1.08681
      vertex 6.04573 33.4452 -0.726933
    endloop
  endfacet
  facet normal 0.987684 0.000993556 0.156461
    outer loop
      vertex 6.10273 -33.4364 -1.08681
      vertex 6.04573 -33.4452 -0.726933
      vertex 6.09616 -33.4452 -1.04528
    endloop
  endfacet
  facet normal 0.891004 0 0.453996
    outer loop
      vertex 6.552 33.1425 -2.46952
      vertex 6.71742 -33.0735 -2.79417
      vertex 6.71742 33.0735 -2.79417
    endloop
  endfacet
  facet normal 0.891004 0 0.453996
    outer loop
      vertex 6.71742 -33.0735 -2.79417
      vertex 6.552 33.1425 -2.46952
      vertex 6.552 -33.1425 -2.46952
    endloop
  endfacet
  facet normal 0.453996 0 0.891004
    outer loop
      vertex 9.00583 32.1003 -5.08258
      vertex 9.33048 -31.9801 -5.248
      vertex 9.33048 31.9801 -5.248
    endloop
  endfacet
  facet normal 0.453996 0 0.891004
    outer loop
      vertex 9.33048 -31.9801 -5.248
      vertex 9.00583 32.1003 -5.08258
      vertex 9.00583 -32.1003 -5.08258
    endloop
  endfacet
  facet normal 0.960298 0 -0.278978
    outer loop
      vertex 6.28387 -33.2864 1.7923
      vertex 6.18222 33.3608 1.4424
      vertex 6.28387 33.2864 1.7923
    endloop
  endfacet
  facet normal 0.960298 0 -0.278978
    outer loop
      vertex 6.18222 33.3608 1.4424
      vertex 6.28387 -33.2864 1.7923
      vertex 6.18222 -33.3608 1.4424
    endloop
  endfacet
  facet normal 0.975913 0 -0.218159
    outer loop
      vertex 6.18222 -33.3608 1.4424
      vertex 6.10273 33.4364 1.08681
      vertex 6.18222 33.3608 1.4424
    endloop
  endfacet
  facet normal 0.975913 0 -0.218159
    outer loop
      vertex 6.10273 33.4364 1.08681
      vertex 6.18222 -33.3608 1.4424
      vertex 6.10273 -33.4364 1.08681
    endloop
  endfacet
  facet normal 0.218154 0 0.975914
    outer loop
      vertex 10.3576 31.7114 -5.61778
      vertex 10.7132 -31.6537 -5.69727
      vertex 10.7132 31.6537 -5.69727
    endloop
  endfacet
  facet normal 0.218154 0 0.975914
    outer loop
      vertex 10.7132 -31.6537 -5.69727
      vertex 10.3576 31.7114 -5.61778
      vertex 10.3576 -31.7114 -5.61778
    endloop
  endfacet
  facet normal 0.508988 -0.000211313 0.860774
    outer loop
      vertex 8.6922 32.2061 -4.8971
      vertex 9.00583 32.1003 -5.08258
      vertex 8.8662 32.1603 -5
    endloop
  endfacet
  facet normal 0.509041 0 0.860742
    outer loop
      vertex 9.00583 32.1003 -5.08258
      vertex 8.6922 32.2061 -4.8971
      vertex 9.00583 -32.1003 -5.08258
    endloop
  endfacet
  facet normal 0.509041 -0 0.860742
    outer loop
      vertex 8.6922 -32.2061 -4.8971
      vertex 9.00583 -32.1003 -5.08258
      vertex 8.6922 32.2061 -4.8971
    endloop
  endfacet
  facet normal 0.508988 0.000211313 0.860774
    outer loop
      vertex 9.00583 -32.1003 -5.08258
      vertex 8.6922 -32.2061 -4.8971
      vertex 8.8662 -32.1603 -5
    endloop
  endfacet
  facet normal 0.750105 0 -0.661319
    outer loop
      vertex 7.57198 -32.6187 3.97037
      vertex 7.33102 32.7404 3.69706
      vertex 7.57198 32.6187 3.97037
    endloop
  endfacet
  facet normal 0.750105 0 -0.661319
    outer loop
      vertex 7.33102 32.7404 3.69706
      vertex 7.57198 -32.6187 3.97037
      vertex 7.33102 -32.7404 3.69706
    endloop
  endfacet
  facet normal -1 0 0
    outer loop
      vertex 0 23.7143 0
      vertex 0 33.4452 -1.04528
      vertex 0 33.0106 -3.09017
    endloop
  endfacet
  facet normal -1 0 0
    outer loop
      vertex 0 33.4452 -1.04528
      vertex 0 23.7143 0
      vertex 0 33.4452 1.04528
    endloop
  endfacet
  facet normal -1 0 0
    outer loop
      vertex 0 23.3506 -1.35714
      vertex 0 33.0106 -3.09017
      vertex 0 32.1603 -5
    endloop
  endfacet
  facet normal -1 -0 0
    outer loop
      vertex 0 33.4452 1.04528
      vertex 0 23.7143 0
      vertex 0 33.0106 3.09017
    endloop
  endfacet
  facet normal -1 0 0
    outer loop
      vertex 0 23.2167 -1.85714
      vertex 0 32.1603 -5
      vertex 0 30.9314 -6.69131
    endloop
  endfacet
  facet normal -1 0 0
    outer loop
      vertex 0 23.3506 1.35714
      vertex 0 33.0106 3.09017
      vertex 0 23.7143 0
    endloop
  endfacet
  facet normal -1 0 0
    outer loop
      vertex 0 23.2167 -1.85714
      vertex 0 30.9314 -6.69131
      vertex 0 29.3779 -8.09017
    endloop
  endfacet
  facet normal -1 -0 0
    outer loop
      vertex 0 33.0106 3.09017
      vertex 0 23.3506 1.35714
      vertex 0 32.1603 5
    endloop
  endfacet
  facet normal -1 0 0
    outer loop
      vertex 0 23.2167 -1.85714
      vertex 0 29.3779 -8.09017
      vertex 0 27.5674 -9.13545
    endloop
  endfacet
  facet normal -1 0 0
    outer loop
      vertex 0 23.2167 1.85714
      vertex 0 32.1603 5
      vertex 0 23.3506 1.35714
    endloop
  endfacet
  facet normal -1 0 0
    outer loop
      vertex 0 21.8571 -3.21667
      vertex 0 27.5674 -9.13545
      vertex 0 25.5791 -9.78148
    endloop
  endfacet
  facet normal -1 -0 0
    outer loop
      vertex 0 32.1603 5
      vertex 0 23.2167 1.85714
      vertex 0 30.9314 6.69131
    endloop
  endfacet
  facet normal -1 0 0
    outer loop
      vertex 0 21.8571 -3.21667
      vertex 0 25.5791 -9.78148
      vertex 0 25.4029 -9.8
    endloop
  endfacet
  facet normal -1 -0 0
    outer loop
      vertex 0 30.9314 6.69131
      vertex 0 23.2167 1.85714
      vertex 0 29.3779 8.09017
    endloop
  endfacet
  facet normal -1 -0 0
    outer loop
      vertex 0 29.3779 8.09017
      vertex 0 23.2167 1.85714
      vertex 0 27.5674 9.13545
    endloop
  endfacet
  facet normal -1 0 0
    outer loop
      vertex 0 33.0106 -3.09017
      vertex 0 23.3506 -1.35714
      vertex 0 23.7143 0
    endloop
  endfacet
  facet normal -1 0 0
    outer loop
      vertex 0 32.1603 -5
      vertex 0 23.2167 -1.85714
      vertex 0 23.3506 -1.35714
    endloop
  endfacet
  facet normal -1 0 0
    outer loop
      vertex 0 27.5674 -9.13545
      vertex 0 21.8571 -3.21667
      vertex 0 23.2167 -1.85714
    endloop
  endfacet
  facet normal -1 0 0
    outer loop
      vertex 0 25.4029 -9.8
      vertex 0 21.3571 -3.35064
      vertex 0 21.8571 -3.21667
    endloop
  endfacet
  facet normal -1 0 0
    outer loop
      vertex 0 25.4029 -9.8
      vertex 0 20 -3.71429
      vertex 0 21.3571 -3.35064
    endloop
  endfacet
  facet normal -1 0 0
    outer loop
      vertex 0 25.4029 -9.8
      vertex 0 18.6429 -3.35064
      vertex 0 20 -3.71429
    endloop
  endfacet
  facet normal -1 0 0
    outer loop
      vertex 0 25.4029 -9.8
      vertex 0 18.1429 -3.21667
      vertex 0 18.6429 -3.35064
    endloop
  endfacet
  facet normal -1 0 0
    outer loop
      vertex 0 -16.4197 -0.5
      vertex 0 16.4197 -0.5
      vertex 0 16.7833 -1.85714
    endloop
  endfacet
  facet normal -1 0 0
    outer loop
      vertex 0 16.4197 -0.5
      vertex 0 -16.4197 -0.5
      vertex 0 16.2857 0
    endloop
  endfacet
  facet normal -1 0 0
    outer loop
      vertex 0 -16.7833 -1.85714
      vertex 0 16.7833 -1.85714
      vertex 0 17.7768 -2.85064
    endloop
  endfacet
  facet normal -1 0 0
    outer loop
      vertex 0 -17.7768 -2.85064
      vertex 0 17.7768 -2.85064
      vertex 0 18.1429 -3.21667
    endloop
  endfacet
  facet normal -1 0 0
    outer loop
      vertex 0 -18.1429 -3.21667
      vertex 0 18.1429 -3.21667
      vertex 0 25.4029 -9.8
    endloop
  endfacet
  facet normal -1 -0 0
    outer loop
      vertex 0 16.2857 0
      vertex 0 -16.4197 -0.5
      vertex 0 -16.2857 0
    endloop
  endfacet
  facet normal -1 0 0
    outer loop
      vertex 0 16.7833 -1.85714
      vertex 0 -16.7833 -1.85714
      vertex 0 -16.4197 -0.5
    endloop
  endfacet
  facet normal -1 0 0
    outer loop
      vertex 0 17.7768 -2.85064
      vertex 0 -17.7768 -2.85064
      vertex 0 -16.7833 -1.85714
    endloop
  endfacet
  facet normal -1 0 0
    outer loop
      vertex 0 18.1429 -3.21667
      vertex 0 -18.1429 -3.21667
      vertex 0 -17.7768 -2.85064
    endloop
  endfacet
  facet normal -1 0 0
    outer loop
      vertex 0 -25.4029 -9.8
      vertex 0 -18.1429 -3.21667
      vertex 0 25.4029 -9.8
    endloop
  endfacet
  facet normal -1 0 0
    outer loop
      vertex 0 -18.1429 -3.21667
      vertex 0 -25.4029 -9.8
      vertex 0 -18.6429 -3.35064
    endloop
  endfacet
  facet normal -1 0 0
    outer loop
      vertex 0 -32.1603 -5
      vertex 0 -23.3506 -1.35714
      vertex 0 -23.2167 -1.85714
    endloop
  endfacet
  facet normal -1 0 0
    outer loop
      vertex 0 -27.5674 -9.13545
      vertex 0 -21.8571 -3.21667
      vertex 0 -25.5791 -9.78148
    endloop
  endfacet
  facet normal -1 0 0
    outer loop
      vertex 0 -25.5791 -9.78148
      vertex 0 -21.8571 -3.21667
      vertex 0 -25.4029 -9.8
    endloop
  endfacet
  facet normal -1 -0 0
    outer loop
      vertex 0 -21.3571 -3.35064
      vertex 0 -25.4029 -9.8
      vertex 0 -21.8571 -3.21667
    endloop
  endfacet
  facet normal -1 -0 0
    outer loop
      vertex 0 -20 -3.71429
      vertex 0 -25.4029 -9.8
      vertex 0 -21.3571 -3.35064
    endloop
  endfacet
  facet normal -1 0 0
    outer loop
      vertex 0 -18.6429 -3.35064
      vertex 0 -25.4029 -9.8
      vertex 0 -20 -3.71429
    endloop
  endfacet
  facet normal -1 0 0
    outer loop
      vertex 0 21.8571 3.21667
      vertex 0 27.5674 9.13545
      vertex 0 23.2167 1.85714
    endloop
  endfacet
  facet normal -1 -0 0
    outer loop
      vertex 0 27.5674 9.13545
      vertex 0 21.8571 3.21667
      vertex 0 25.5791 9.78148
    endloop
  endfacet
  facet normal -1 -0 0
    outer loop
      vertex 0 25.5791 9.78148
      vertex 0 21.8571 3.21667
      vertex 0 25.4029 9.8
    endloop
  endfacet
  facet normal -1 0 0
    outer loop
      vertex 0 21.3571 3.35064
      vertex 0 25.4029 9.8
      vertex 0 21.8571 3.21667
    endloop
  endfacet
  facet normal -1 0 0
    outer loop
      vertex 0 20 3.71429
      vertex 0 25.4029 9.8
      vertex 0 21.3571 3.35064
    endloop
  endfacet
  facet normal -1 0 0
    outer loop
      vertex 0 18.6429 3.35064
      vertex 0 25.4029 9.8
      vertex 0 20 3.71429
    endloop
  endfacet
  facet normal -1 0 0
    outer loop
      vertex 0 18.1429 3.21667
      vertex 0 25.4029 9.8
      vertex 0 18.6429 3.35064
    endloop
  endfacet
  facet normal -1 0 0
    outer loop
      vertex 0 -16.4197 0.5
      vertex 0 16.4197 0.5
      vertex 0 16.2857 0
    endloop
  endfacet
  facet normal -1 0 0
    outer loop
      vertex 0 -16.4197 0.5
      vertex 0 16.2857 0
      vertex 0 -16.2857 0
    endloop
  endfacet
  facet normal -1 0 0
    outer loop
      vertex 0 16.4197 0.5
      vertex 0 -16.4197 0.5
      vertex 0 16.7833 1.85714
    endloop
  endfacet
  facet normal -1 0 0
    outer loop
      vertex 0 -16.7833 1.85714
      vertex 0 16.7833 1.85714
      vertex 0 -16.4197 0.5
    endloop
  endfacet
  facet normal -1 0 0
    outer loop
      vertex 0 16.7833 1.85714
      vertex 0 -16.7833 1.85714
      vertex 0 17.7768 2.85064
    endloop
  endfacet
  facet normal -1 0 0
    outer loop
      vertex 0 -17.7768 2.85064
      vertex 0 17.7768 2.85064
      vertex 0 -16.7833 1.85714
    endloop
  endfacet
  facet normal -1 0 0
    outer loop
      vertex 0 17.7768 2.85064
      vertex 0 -17.7768 2.85064
      vertex 0 18.1429 3.21667
    endloop
  endfacet
  facet normal -1 0 0
    outer loop
      vertex 0 -18.1429 3.21667
      vertex 0 18.1429 3.21667
      vertex 0 -17.7768 2.85064
    endloop
  endfacet
  facet normal -1 0 0
    outer loop
      vertex 0 18.1429 3.21667
      vertex 0 -18.1429 3.21667
      vertex 0 25.4029 9.8
    endloop
  endfacet
  facet normal -1 0 0
    outer loop
      vertex 0 -25.4029 9.8
      vertex 0 -18.1429 3.21667
      vertex 0 -18.6429 3.35064
    endloop
  endfacet
  facet normal -1 0 0
    outer loop
      vertex 0 -25.4029 9.8
      vertex 0 -18.6429 3.35064
      vertex 0 -20 3.71429
    endloop
  endfacet
  facet normal -1 0 0
    outer loop
      vertex 0 -33.0106 3.09017
      vertex 0 -23.3506 1.35714
      vertex 0 -23.7143 0
    endloop
  endfacet
  facet normal -1 0 0
    outer loop
      vertex 0 -18.1429 3.21667
      vertex 0 -25.4029 9.8
      vertex 0 25.4029 9.8
    endloop
  endfacet
  facet normal -1 0 0
    outer loop
      vertex 0 -21.3571 3.35064
      vertex 0 -25.4029 9.8
      vertex 0 -20 3.71429
    endloop
  endfacet
  facet normal -1 0 0
    outer loop
      vertex 0 -21.8571 3.21667
      vertex 0 -25.4029 9.8
      vertex 0 -21.3571 3.35064
    endloop
  endfacet
  facet normal -1 0 0
    outer loop
      vertex 0 -27.5674 9.13545
      vertex 0 -21.8571 3.21667
      vertex 0 -23.2167 1.85714
    endloop
  endfacet
  facet normal -1 0 0
    outer loop
      vertex 0 -23.3506 1.35714
      vertex 0 -32.1603 5
      vertex 0 -23.2167 1.85714
    endloop
  endfacet
  facet normal -1 -0 0
    outer loop
      vertex 0 -21.8571 -3.21667
      vertex 0 -27.5674 -9.13545
      vertex 0 -23.2167 -1.85714
    endloop
  endfacet
  facet normal -1 0 0
    outer loop
      vertex 0 -29.3779 -8.09017
      vertex 0 -23.2167 -1.85714
      vertex 0 -27.5674 -9.13545
    endloop
  endfacet
  facet normal -1 0 0
    outer loop
      vertex 0 -30.9314 -6.69131
      vertex 0 -23.2167 -1.85714
      vertex 0 -29.3779 -8.09017
    endloop
  endfacet
  facet normal -1 0 0
    outer loop
      vertex 0 -21.8571 3.21667
      vertex 0 -27.5674 9.13545
      vertex 0 -25.5791 9.78148
    endloop
  endfacet
  facet normal -1 0 0
    outer loop
      vertex 0 -21.8571 3.21667
      vertex 0 -25.5791 9.78148
      vertex 0 -25.4029 9.8
    endloop
  endfacet
  facet normal -1 0 0
    outer loop
      vertex 0 -32.1603 -5
      vertex 0 -23.2167 -1.85714
      vertex 0 -30.9314 -6.69131
    endloop
  endfacet
  facet normal -1 0 0
    outer loop
      vertex 0 -23.2167 1.85714
      vertex 0 -29.3779 8.09017
      vertex 0 -27.5674 9.13545
    endloop
  endfacet
  facet normal -1 0 0
    outer loop
      vertex 0 -33.0106 -3.09017
      vertex 0 -23.3506 -1.35714
      vertex 0 -32.1603 -5
    endloop
  endfacet
  facet normal -1 0 0
    outer loop
      vertex 0 -23.2167 1.85714
      vertex 0 -30.9314 6.69131
      vertex 0 -29.3779 8.09017
    endloop
  endfacet
  facet normal -1 -0 0
    outer loop
      vertex 0 -23.3506 -1.35714
      vertex 0 -33.0106 -3.09017
      vertex 0 -23.7143 0
    endloop
  endfacet
  facet normal -1 0 0
    outer loop
      vertex 0 -23.2167 1.85714
      vertex 0 -32.1603 5
      vertex 0 -30.9314 6.69131
    endloop
  endfacet
  facet normal -1 0 0
    outer loop
      vertex 0 -33.4452 -1.04528
      vertex 0 -23.7143 0
      vertex 0 -33.0106 -3.09017
    endloop
  endfacet
  facet normal -1 0 0
    outer loop
      vertex 0 -23.3506 1.35714
      vertex 0 -33.0106 3.09017
      vertex 0 -32.1603 5
    endloop
  endfacet
  facet normal -1 0 0
    outer loop
      vertex 0 -33.4452 1.04528
      vertex 0 -23.7143 0
      vertex 0 -33.4452 -1.04528
    endloop
  endfacet
  facet normal -1 0 0
    outer loop
      vertex 0 -23.7143 0
      vertex 0 -33.4452 1.04528
      vertex 0 -33.0106 3.09017
    endloop
  endfacet
  facet normal -0 0 1
    outer loop
      vertex 0 25.4029 9.8
      vertex 12 -25.4029 9.8
      vertex 12 25.4029 9.8
    endloop
  endfacet
  facet normal 0 0 1
    outer loop
      vertex 12 -25.4029 9.8
      vertex 0 25.4029 9.8
      vertex 0 -25.4029 9.8
    endloop
  endfacet
  facet normal 0 0 -1
    outer loop
      vertex 0 -25.4029 -9.8
      vertex 12 25.4029 -9.8
      vertex 12 -25.4029 -9.8
    endloop
  endfacet
  facet normal -0 0 -1
    outer loop
      vertex 12 25.4029 -9.8
      vertex 0 -25.4029 -9.8
      vertex 0 25.4029 -9.8
    endloop
  endfacet
  facet normal -0.0206943 -0.258774 0.965716
    outer loop
      vertex 0 20 3.71429
      vertex -10 20 3.5
      vertex 0 18.6429 3.35064
    endloop
  endfacet
  facet normal -0.0206931 0.258755 0.965721
    outer loop
      vertex -10 21.75 3.03109
      vertex 0 21.3571 3.35064
      vertex 0 21.8571 3.21667
    endloop
  endfacet
  facet normal -0.0206928 0.258763 0.965719
    outer loop
      vertex 0 21.3571 3.35064
      vertex -10 21.75 3.03109
      vertex -10 20 3.5
    endloop
  endfacet
  facet normal -0.0206954 -0.706955 -0.706955
    outer loop
      vertex 0 16.7833 -1.85714
      vertex -10 16.9689 -1.75
      vertex 0 17.7768 -2.85064
    endloop
  endfacet
  facet normal -0.0206943 0.258774 -0.965716
    outer loop
      vertex 0 20 -3.71429
      vertex -10 20 -3.5
      vertex 0 21.3571 -3.35064
    endloop
  endfacet
  facet normal -0.0206928 0.258763 -0.965719
    outer loop
      vertex -10 21.75 -3.03109
      vertex 0 21.3571 -3.35064
      vertex -10 20 -3.5
    endloop
  endfacet
  facet normal -0.0206931 0.258755 -0.965721
    outer loop
      vertex 0 21.3571 -3.35064
      vertex -10 21.75 -3.03109
      vertex 0 21.8571 -3.21667
    endloop
  endfacet
  facet normal -0.0206931 -0.258755 -0.965721
    outer loop
      vertex -10 18.25 -3.03109
      vertex 0 18.6429 -3.35064
      vertex 0 18.1429 -3.21667
    endloop
  endfacet
  facet normal -0.0206928 -0.258763 -0.965719
    outer loop
      vertex 0 18.6429 -3.35064
      vertex -10 18.25 -3.03109
      vertex -10 20 -3.5
    endloop
  endfacet
  facet normal -0.0206917 -0.706888 0.707023
    outer loop
      vertex -10 18.25 3.03109
      vertex 0 17.7768 2.85064
      vertex 0 18.1429 3.21667
    endloop
  endfacet
  facet normal -0.0206959 -0.706953 0.706958
    outer loop
      vertex 0 17.7768 2.85064
      vertex -10 18.25 3.03109
      vertex -10 16.9689 1.75
    endloop
  endfacet
  facet normal -0.0206954 -0.706955 0.706955
    outer loop
      vertex 0 17.7768 2.85064
      vertex -10 16.9689 1.75
      vertex 0 16.7833 1.85714
    endloop
  endfacet
  facet normal -0.0206943 -0.258774 -0.965716
    outer loop
      vertex 0 18.6429 -3.35064
      vertex -10 20 -3.5
      vertex 0 20 -3.71429
    endloop
  endfacet
  facet normal -0.0206959 -0.706953 -0.706958
    outer loop
      vertex -10 18.25 -3.03109
      vertex 0 17.7768 -2.85064
      vertex -10 16.9689 -1.75
    endloop
  endfacet
  facet normal -0.0206917 -0.706888 -0.707023
    outer loop
      vertex 0 17.7768 -2.85064
      vertex -10 18.25 -3.03109
      vertex 0 18.1429 -3.21667
    endloop
  endfacet
  facet normal -0.020696 -0.965727 -0.258734
    outer loop
      vertex 0 16.4197 -0.5
      vertex -10 16.9689 -1.75
      vertex 0 16.7833 -1.85714
    endloop
  endfacet
  facet normal -0.0206928 -0.258763 0.965719
    outer loop
      vertex -10 18.25 3.03109
      vertex 0 18.6429 3.35064
      vertex -10 20 3.5
    endloop
  endfacet
  facet normal -0.0206931 -0.258755 0.965721
    outer loop
      vertex 0 18.6429 3.35064
      vertex -10 18.25 3.03109
      vertex 0 18.1429 3.21667
    endloop
  endfacet
  facet normal -0.0206943 0.258774 0.965716
    outer loop
      vertex 0 21.3571 3.35064
      vertex -10 20 3.5
      vertex 0 20 3.71429
    endloop
  endfacet
  facet normal -0.0206951 0.965709 -0.2588
    outer loop
      vertex 0 23.3506 -1.35714
      vertex -10 23.5 0
      vertex 0 23.7143 0
    endloop
  endfacet
  facet normal -0.0206954 0.965755 0.258629
    outer loop
      vertex 0 23.3506 1.35714
      vertex -10 23.0311 1.75
      vertex 0 23.2167 1.85714
    endloop
  endfacet
  facet normal -0.0206892 0.965721 0.258758
    outer loop
      vertex -10 23.0311 1.75
      vertex 0 23.3506 1.35714
      vertex -10 23.5 0
    endloop
  endfacet
  facet normal -0.0206892 0.965721 -0.258758
    outer loop
      vertex 0 23.3506 -1.35714
      vertex -10 23.0311 -1.75
      vertex -10 23.5 0
    endloop
  endfacet
  facet normal -0.0206954 0.965755 -0.258629
    outer loop
      vertex -10 23.0311 -1.75
      vertex 0 23.3506 -1.35714
      vertex 0 23.2167 -1.85714
    endloop
  endfacet
  facet normal -0.020696 -0.965727 0.258734
    outer loop
      vertex 0 16.7833 1.85714
      vertex -10 16.9689 1.75
      vertex 0 16.4197 0.5
    endloop
  endfacet
  facet normal -0.0206954 0.706953 -0.706958
    outer loop
      vertex 0 23.2167 -1.85714
      vertex -10 21.75 -3.03109
      vertex -10 23.0311 -1.75
    endloop
  endfacet
  facet normal -0.0206913 0.706937 -0.706974
    outer loop
      vertex -10 21.75 -3.03109
      vertex 0 23.2167 -1.85714
      vertex 0 21.8571 -3.21667
    endloop
  endfacet
  facet normal -0.0206951 0.965709 0.2588
    outer loop
      vertex 0 23.7143 0
      vertex -10 23.5 0
      vertex 0 23.3506 1.35714
    endloop
  endfacet
  facet normal -0.0206913 0.706937 0.706974
    outer loop
      vertex 0 23.2167 1.85714
      vertex -10 21.75 3.03109
      vertex 0 21.8571 3.21667
    endloop
  endfacet
  facet normal -0.0206954 0.706953 0.706958
    outer loop
      vertex -10 21.75 3.03109
      vertex 0 23.2167 1.85714
      vertex -10 23.0311 1.75
    endloop
  endfacet
  facet normal -0.0206951 -0.965707 -0.258809
    outer loop
      vertex -10 16.5 0
      vertex 0 16.4197 -0.5
      vertex 0 16.2857 0
    endloop
  endfacet
  facet normal -0.0206926 -0.965721 -0.258758
    outer loop
      vertex 0 16.4197 -0.5
      vertex -10 16.5 0
      vertex -10 16.9689 -1.75
    endloop
  endfacet
  facet normal -0.0206926 -0.965721 0.258758
    outer loop
      vertex -10 16.5 0
      vertex 0 16.4197 0.5
      vertex -10 16.9689 1.75
    endloop
  endfacet
  facet normal -0.0206951 -0.965707 0.258809
    outer loop
      vertex 0 16.4197 0.5
      vertex -10 16.5 0
      vertex 0 16.2857 0
    endloop
  endfacet
  facet normal -1 0 0
    outer loop
      vertex -10 23.0311 -1.75
      vertex -10 23.0311 1.75
      vertex -10 23.5 0
    endloop
  endfacet
  facet normal -1 0 0
    outer loop
      vertex -10 21.75 -3.03109
      vertex -10 23.0311 1.75
      vertex -10 23.0311 -1.75
    endloop
  endfacet
  facet normal -1 0 0
    outer loop
      vertex -10 21.75 -3.03109
      vertex -10 21.75 3.03109
      vertex -10 23.0311 1.75
    endloop
  endfacet
  facet normal -1 0 0
    outer loop
      vertex -10 20 -3.5
      vertex -10 21.75 3.03109
      vertex -10 21.75 -3.03109
    endloop
  endfacet
  facet normal -1 0 0
    outer loop
      vertex -10 20 -3.5
      vertex -10 20 3.5
      vertex -10 21.75 3.03109
    endloop
  endfacet
  facet normal -1 0 0
    outer loop
      vertex -10 18.25 -3.03109
      vertex -10 20 3.5
      vertex -10 20 -3.5
    endloop
  endfacet
  facet normal -1 0 0
    outer loop
      vertex -10 18.25 -3.03109
      vertex -10 18.25 3.03109
      vertex -10 20 3.5
    endloop
  endfacet
  facet normal -1 0 0
    outer loop
      vertex -10 16.9689 -1.75
      vertex -10 18.25 3.03109
      vertex -10 18.25 -3.03109
    endloop
  endfacet
  facet normal -1 0 0
    outer loop
      vertex -10 16.9689 -1.75
      vertex -10 16.9689 1.75
      vertex -10 18.25 3.03109
    endloop
  endfacet
  facet normal -1 0 -0
    outer loop
      vertex -10 16.9689 1.75
      vertex -10 16.9689 -1.75
      vertex -10 16.5 0
    endloop
  endfacet
  facet normal -1 0 0
    outer loop
      vertex -10 -16.9689 -1.75
      vertex -10 -16.9689 1.75
      vertex -10 -16.5 0
    endloop
  endfacet
  facet normal -1 0 0
    outer loop
      vertex -10 -18.25 -3.03109
      vertex -10 -16.9689 1.75
      vertex -10 -16.9689 -1.75
    endloop
  endfacet
  facet normal -1 0 0
    outer loop
      vertex -10 -18.25 -3.03109
      vertex -10 -18.25 3.03109
      vertex -10 -16.9689 1.75
    endloop
  endfacet
  facet normal -1 0 0
    outer loop
      vertex -10 -20 -3.5
      vertex -10 -18.25 3.03109
      vertex -10 -18.25 -3.03109
    endloop
  endfacet
  facet normal -1 0 0
    outer loop
      vertex -10 -20 -3.5
      vertex -10 -20 3.5
      vertex -10 -18.25 3.03109
    endloop
  endfacet
  facet normal -1 0 0
    outer loop
      vertex -10 -21.75 -3.03109
      vertex -10 -20 3.5
      vertex -10 -20 -3.5
    endloop
  endfacet
  facet normal -1 0 0
    outer loop
      vertex -10 -21.75 -3.03109
      vertex -10 -21.75 3.03109
      vertex -10 -20 3.5
    endloop
  endfacet
  facet normal -1 0 0
    outer loop
      vertex -10 -23.0311 -1.75
      vertex -10 -21.75 3.03109
      vertex -10 -21.75 -3.03109
    endloop
  endfacet
  facet normal -1 0 0
    outer loop
      vertex -10 -23.0311 -1.75
      vertex -10 -23.0311 1.75
      vertex -10 -21.75 3.03109
    endloop
  endfacet
  facet normal -1 0 -0
    outer loop
      vertex -10 -23.0311 1.75
      vertex -10 -23.0311 -1.75
      vertex -10 -23.5 0
    endloop
  endfacet
  facet normal -0.0206951 -0.965709 -0.2588
    outer loop
      vertex 0 -23.7143 0
      vertex -10 -23.5 0
      vertex 0 -23.3506 -1.35714
    endloop
  endfacet
  facet normal -0.0206943 0.258774 -0.965716
    outer loop
      vertex 0 -20 -3.71429
      vertex -10 -20 -3.5
      vertex 0 -18.6429 -3.35064
    endloop
  endfacet
  facet normal -0.0206928 0.258763 -0.965719
    outer loop
      vertex -10 -18.25 -3.03109
      vertex 0 -18.6429 -3.35064
      vertex -10 -20 -3.5
    endloop
  endfacet
  facet normal -0.0206931 0.258755 -0.965721
    outer loop
      vertex 0 -18.6429 -3.35064
      vertex -10 -18.25 -3.03109
      vertex 0 -18.1429 -3.21667
    endloop
  endfacet
  facet normal -0.0206931 -0.258755 -0.965721
    outer loop
      vertex -10 -21.75 -3.03109
      vertex 0 -21.3571 -3.35064
      vertex 0 -21.8571 -3.21667
    endloop
  endfacet
  facet normal -0.0206928 -0.258763 -0.965719
    outer loop
      vertex 0 -21.3571 -3.35064
      vertex -10 -21.75 -3.03109
      vertex -10 -20 -3.5
    endloop
  endfacet
  facet normal -0.0206954 -0.965755 0.258629
    outer loop
      vertex -10 -23.0311 1.75
      vertex 0 -23.3506 1.35714
      vertex 0 -23.2167 1.85714
    endloop
  endfacet
  facet normal -0.0206892 -0.965721 0.258758
    outer loop
      vertex 0 -23.3506 1.35714
      vertex -10 -23.0311 1.75
      vertex -10 -23.5 0
    endloop
  endfacet
  facet normal -0.0206951 -0.965709 0.2588
    outer loop
      vertex 0 -23.3506 1.35714
      vertex -10 -23.5 0
      vertex 0 -23.7143 0
    endloop
  endfacet
  facet normal -0.0206943 -0.258774 -0.965716
    outer loop
      vertex 0 -21.3571 -3.35064
      vertex -10 -20 -3.5
      vertex 0 -20 -3.71429
    endloop
  endfacet
  facet normal -0.0206928 -0.258763 0.965719
    outer loop
      vertex -10 -21.75 3.03109
      vertex 0 -21.3571 3.35064
      vertex -10 -20 3.5
    endloop
  endfacet
  facet normal -0.0206931 -0.258755 0.965721
    outer loop
      vertex 0 -21.3571 3.35064
      vertex -10 -21.75 3.03109
      vertex 0 -21.8571 3.21667
    endloop
  endfacet
  facet normal -0.0206892 -0.965721 -0.258758
    outer loop
      vertex -10 -23.0311 -1.75
      vertex 0 -23.3506 -1.35714
      vertex -10 -23.5 0
    endloop
  endfacet
  facet normal -0.0206954 -0.965755 -0.258629
    outer loop
      vertex 0 -23.3506 -1.35714
      vertex -10 -23.0311 -1.75
      vertex 0 -23.2167 -1.85714
    endloop
  endfacet
  facet normal -0.020696 0.965727 -0.258734
    outer loop
      vertex 0 -16.7833 -1.85714
      vertex -10 -16.9689 -1.75
      vertex 0 -16.4197 -0.5
    endloop
  endfacet
  facet normal -0.0206954 0.706955 0.706955
    outer loop
      vertex 0 -16.7833 1.85714
      vertex -10 -16.9689 1.75
      vertex 0 -17.7768 2.85064
    endloop
  endfacet
  facet normal -0.0206954 -0.706953 -0.706958
    outer loop
      vertex -10 -21.75 -3.03109
      vertex 0 -23.2167 -1.85714
      vertex -10 -23.0311 -1.75
    endloop
  endfacet
  facet normal -0.0206913 -0.706937 -0.706974
    outer loop
      vertex 0 -23.2167 -1.85714
      vertex -10 -21.75 -3.03109
      vertex 0 -21.8571 -3.21667
    endloop
  endfacet
  facet normal -0.0206943 0.258774 0.965716
    outer loop
      vertex 0 -18.6429 3.35064
      vertex -10 -20 3.5
      vertex 0 -20 3.71429
    endloop
  endfacet
  facet normal -0.0206951 0.965707 0.258809
    outer loop
      vertex -10 -16.5 0
      vertex 0 -16.4197 0.5
      vertex 0 -16.2857 0
    endloop
  endfacet
  facet normal -0.0206926 0.965721 0.258758
    outer loop
      vertex 0 -16.4197 0.5
      vertex -10 -16.5 0
      vertex -10 -16.9689 1.75
    endloop
  endfacet
  facet normal -0.020696 0.965727 0.258734
    outer loop
      vertex 0 -16.4197 0.5
      vertex -10 -16.9689 1.75
      vertex 0 -16.7833 1.85714
    endloop
  endfacet
  facet normal -0.0206931 0.258755 0.965721
    outer loop
      vertex -10 -18.25 3.03109
      vertex 0 -18.6429 3.35064
      vertex 0 -18.1429 3.21667
    endloop
  endfacet
  facet normal -0.0206928 0.258763 0.965719
    outer loop
      vertex 0 -18.6429 3.35064
      vertex -10 -18.25 3.03109
      vertex -10 -20 3.5
    endloop
  endfacet
  facet normal -0.0206913 -0.706937 0.706974
    outer loop
      vertex -10 -21.75 3.03109
      vertex 0 -23.2167 1.85714
      vertex 0 -21.8571 3.21667
    endloop
  endfacet
  facet normal -0.0206954 -0.706953 0.706958
    outer loop
      vertex 0 -23.2167 1.85714
      vertex -10 -21.75 3.03109
      vertex -10 -23.0311 1.75
    endloop
  endfacet
  facet normal -0.0206943 -0.258774 0.965716
    outer loop
      vertex 0 -20 3.71429
      vertex -10 -20 3.5
      vertex 0 -21.3571 3.35064
    endloop
  endfacet
  facet normal -0.0206959 0.706953 0.706958
    outer loop
      vertex -10 -18.25 3.03109
      vertex 0 -17.7768 2.85064
      vertex -10 -16.9689 1.75
    endloop
  endfacet
  facet normal -0.0206917 0.706888 0.707023
    outer loop
      vertex 0 -17.7768 2.85064
      vertex -10 -18.25 3.03109
      vertex 0 -18.1429 3.21667
    endloop
  endfacet
  facet normal -0.0206954 0.706955 -0.706955
    outer loop
      vertex 0 -17.7768 -2.85064
      vertex -10 -16.9689 -1.75
      vertex 0 -16.7833 -1.85714
    endloop
  endfacet
  facet normal -0.0206917 0.706888 -0.707023
    outer loop
      vertex -10 -18.25 -3.03109
      vertex 0 -17.7768 -2.85064
      vertex 0 -18.1429 -3.21667
    endloop
  endfacet
  facet normal -0.0206959 0.706953 -0.706958
    outer loop
      vertex 0 -17.7768 -2.85064
      vertex -10 -18.25 -3.03109
      vertex -10 -16.9689 -1.75
    endloop
  endfacet
  facet normal -0.0206951 0.965707 -0.258809
    outer loop
      vertex 0 -16.4197 -0.5
      vertex -10 -16.5 0
      vertex 0 -16.2857 0
    endloop
  endfacet
  facet normal -0.0206926 0.965721 -0.258758
    outer loop
      vertex -10 -16.5 0
      vertex 0 -16.4197 -0.5
      vertex -10 -16.9689 -1.75
    endloop
  endfacet
endsolid OpenSCAD_Model
