solid OpenSCAD_Model
  facet normal 0 0.5 -0.866026
    outer loop
      vertex 0 27.5674 -9.13545
      vertex 11 29.3779 -8.09017
      vertex 11 27.5674 -9.13545
    endloop
  endfacet
  facet normal 0 0.5 -0.866026
    outer loop
      vertex 11 29.3779 -8.09017
      vertex 0 27.5674 -9.13545
      vertex 0 29.3779 -8.09017
    endloop
  endfacet
  facet normal 0 0.669131 -0.743144
    outer loop
      vertex 0 29.3779 -8.09017
      vertex 11 30.9314 -6.69131
      vertex 11 29.3779 -8.09017
    endloop
  endfacet
  facet normal 0 0.669131 -0.743144
    outer loop
      vertex 11 30.9314 -6.69131
      vertex 0 29.3779 -8.09017
      vertex 0 30.9314 -6.69131
    endloop
  endfacet
  facet normal 0 0.978146 -0.207921
    outer loop
      vertex 4.10273 33.4364 -1.08681
      vertex 0 33.4452 -1.04528
      vertex 4.09616 33.4452 -1.04528
    endloop
  endfacet
  facet normal 1.65531e-07 0.978149 -0.207905
    outer loop
      vertex 4.18222 33.3608 -1.4424
      vertex 0 33.4452 -1.04528
      vertex 4.10273 33.4364 -1.08681
    endloop
  endfacet
  facet normal 2.45549e-06 0.978147 -0.207917
    outer loop
      vertex 0 33.0106 -3.09017
      vertex 4.18222 33.3608 -1.4424
      vertex 4.28387 33.2864 -1.7923
    endloop
  endfacet
  facet normal -1.34743e-07 0.978148 -0.207909
    outer loop
      vertex 0 33.0106 -3.09017
      vertex 4.28387 33.2864 -1.7923
      vertex 4.4073 33.2136 -2.13512
    endloop
  endfacet
  facet normal 1.03908e-06 0.978147 -0.207914
    outer loop
      vertex 0 33.0106 -3.09017
      vertex 4.4073 33.2136 -2.13512
      vertex 4.552 33.1425 -2.46952
    endloop
  endfacet
  facet normal -3.06007e-07 0.978149 -0.207904
    outer loop
      vertex 0 33.0106 -3.09017
      vertex 4.552 33.1425 -2.46952
      vertex 4.71742 33.0735 -2.79417
    endloop
  endfacet
  facet normal 0 0.978148 -0.207909
    outer loop
      vertex 0 33.0106 -3.09017
      vertex 4.71742 33.0735 -2.79417
      vertex 4.89247 33.0106 -3.09017
    endloop
  endfacet
  facet normal -2.98879e-07 0.978148 -0.20791
    outer loop
      vertex 4.18222 33.3608 -1.4424
      vertex 0 33.0106 -3.09017
      vertex 0 33.4452 -1.04528
    endloop
  endfacet
  facet normal -0 0.809017 0.587785
    outer loop
      vertex 9.8 31.579 5.8
      vertex 11 30.9314 6.69131
      vertex 11 31.579 5.8
    endloop
  endfacet
  facet normal 1.69096e-06 0.809018 0.587784
    outer loop
      vertex 9.43581 31.5873 5.78855
      vertex 11 30.9314 6.69131
      vertex 9.8 31.579 5.8
    endloop
  endfacet
  facet normal -2.19197e-06 0.809015 0.587788
    outer loop
      vertex 9.07307 31.6122 5.75426
      vertex 11 30.9314 6.69131
      vertex 9.43581 31.5873 5.78855
    endloop
  endfacet
  facet normal 5.3172e-08 0.809017 0.587785
    outer loop
      vertex 8.71319 31.6537 5.69727
      vertex 11 30.9314 6.69131
      vertex 9.07307 31.6122 5.75426
    endloop
  endfacet
  facet normal 1.45773e-06 0.809019 0.587783
    outer loop
      vertex 8.3576 31.7114 5.61778
      vertex 11 30.9314 6.69131
      vertex 8.71319 31.6537 5.69727
    endloop
  endfacet
  facet normal 0 0.809017 0.587785
    outer loop
      vertex 11 30.9314 6.69131
      vertex 8.3576 31.7114 5.61778
      vertex 0 30.9314 6.69131
    endloop
  endfacet
  facet normal 2.4677e-07 0.809016 0.587787
    outer loop
      vertex 8.0077 31.7853 5.51613
      vertex 0 30.9314 6.69131
      vertex 8.3576 31.7114 5.61778
    endloop
  endfacet
  facet normal -7.74963e-07 0.809019 0.587782
    outer loop
      vertex 7.66488 31.8749 5.3927
      vertex 0 30.9314 6.69131
      vertex 8.0077 31.7853 5.51613
    endloop
  endfacet
  facet normal 9.15868e-07 0.809015 0.587789
    outer loop
      vertex 7.33048 31.9801 5.248
      vertex 0 30.9314 6.69131
      vertex 7.66488 31.8749 5.3927
    endloop
  endfacet
  facet normal -2.03035e-06 0.809022 0.587779
    outer loop
      vertex 7.00583 32.1003 5.08258
      vertex 0 30.9314 6.69131
      vertex 7.33048 31.9801 5.248
    endloop
  endfacet
  facet normal 6.29159e-06 0.809004 0.587802
    outer loop
      vertex 6.86619 32.1603 5
      vertex 0 30.9314 6.69131
      vertex 7.00583 32.1003 5.08258
    endloop
  endfacet
  facet normal 0 0.809017 0.587786
    outer loop
      vertex 0 30.9314 6.69131
      vertex 6.86619 32.1603 5
      vertex 0 32.1603 5
    endloop
  endfacet
  facet normal -0 0.309017 0.951057
    outer loop
      vertex 0 27.5674 9.13545
      vertex 11 25.5791 9.78148
      vertex 11 27.5674 9.13545
    endloop
  endfacet
  facet normal 0 0.309017 0.951057
    outer loop
      vertex 11 25.5791 9.78148
      vertex 0 27.5674 9.13545
      vertex 0 25.5791 9.78148
    endloop
  endfacet
  facet normal -0 0.669131 0.743144
    outer loop
      vertex 0 30.9314 6.69131
      vertex 11 29.3779 8.09017
      vertex 11 30.9314 6.69131
    endloop
  endfacet
  facet normal 0 0.669131 0.743144
    outer loop
      vertex 11 29.3779 8.09017
      vertex 0 30.9314 6.69131
      vertex 0 29.3779 8.09017
    endloop
  endfacet
  facet normal 0 0.309017 -0.951057
    outer loop
      vertex 0 25.5791 -9.78148
      vertex 11 27.5674 -9.13545
      vertex 11 25.5791 -9.78148
    endloop
  endfacet
  facet normal 0 0.309017 -0.951057
    outer loop
      vertex 11 27.5674 -9.13545
      vertex 0 25.5791 -9.78148
      vertex 0 27.5674 -9.13545
    endloop
  endfacet
  facet normal 0 0.809017 -0.587785
    outer loop
      vertex 11 31.579 -5.8
      vertex 11 30.9314 -6.69131
      vertex 9.8 31.579 -5.8
    endloop
  endfacet
  facet normal 9.15686e-07 0.809015 -0.587788
    outer loop
      vertex 0 30.9314 -6.69131
      vertex 6.8662 32.1603 -5
      vertex 7.00583 32.1003 -5.08258
    endloop
  endfacet
  facet normal 6.19183e-07 0.809015 -0.587788
    outer loop
      vertex 0 30.9314 -6.69131
      vertex 7.00583 32.1003 -5.08258
      vertex 7.33048 31.9801 -5.248
    endloop
  endfacet
  facet normal 9.15868e-07 0.809015 -0.587789
    outer loop
      vertex 0 30.9314 -6.69131
      vertex 7.33048 31.9801 -5.248
      vertex 7.66488 31.8749 -5.3927
    endloop
  endfacet
  facet normal -7.74963e-07 0.809019 -0.587782
    outer loop
      vertex 0 30.9314 -6.69131
      vertex 7.66488 31.8749 -5.3927
      vertex 8.0077 31.7853 -5.51613
    endloop
  endfacet
  facet normal 2.4677e-07 0.809016 -0.587787
    outer loop
      vertex 0 30.9314 -6.69131
      vertex 8.0077 31.7853 -5.51613
      vertex 8.3576 31.7114 -5.61778
    endloop
  endfacet
  facet normal 1.45773e-06 0.809019 -0.587783
    outer loop
      vertex 11 30.9314 -6.69131
      vertex 8.3576 31.7114 -5.61778
      vertex 8.71319 31.6537 -5.69727
    endloop
  endfacet
  facet normal 5.3172e-08 0.809017 -0.587785
    outer loop
      vertex 11 30.9314 -6.69131
      vertex 8.71319 31.6537 -5.69727
      vertex 9.07307 31.6122 -5.75426
    endloop
  endfacet
  facet normal -2.19197e-06 0.809015 -0.587788
    outer loop
      vertex 11 30.9314 -6.69131
      vertex 9.07307 31.6122 -5.75426
      vertex 9.43581 31.5873 -5.78855
    endloop
  endfacet
  facet normal 1.69096e-06 0.809018 -0.587784
    outer loop
      vertex 11 30.9314 -6.69131
      vertex 9.43581 31.5873 -5.78855
      vertex 9.8 31.579 -5.8
    endloop
  endfacet
  facet normal 0 0.809017 -0.587785
    outer loop
      vertex 8.3576 31.7114 -5.61778
      vertex 11 30.9314 -6.69131
      vertex 0 30.9314 -6.69131
    endloop
  endfacet
  facet normal 0 0.809016 -0.587786
    outer loop
      vertex 6.8662 32.1603 -5
      vertex 0 30.9314 -6.69131
      vertex 0 32.1603 -5
    endloop
  endfacet
  facet normal 0 0.978148 0.207909
    outer loop
      vertex 4.71742 33.0735 2.79417
      vertex 0 33.0106 3.09017
      vertex 4.89247 33.0106 3.09017
    endloop
  endfacet
  facet normal -3.06007e-07 0.978149 0.207904
    outer loop
      vertex 4.552 33.1425 2.46952
      vertex 0 33.0106 3.09017
      vertex 4.71742 33.0735 2.79417
    endloop
  endfacet
  facet normal 1.03908e-06 0.978147 0.207914
    outer loop
      vertex 4.4073 33.2136 2.13512
      vertex 0 33.0106 3.09017
      vertex 4.552 33.1425 2.46952
    endloop
  endfacet
  facet normal -1.34743e-07 0.978148 0.207909
    outer loop
      vertex 4.28387 33.2864 1.7923
      vertex 0 33.0106 3.09017
      vertex 4.4073 33.2136 2.13512
    endloop
  endfacet
  facet normal 2.45549e-06 0.978147 0.207917
    outer loop
      vertex 4.18222 33.3608 1.4424
      vertex 0 33.0106 3.09017
      vertex 4.28387 33.2864 1.7923
    endloop
  endfacet
  facet normal 1.65531e-07 0.978149 0.207905
    outer loop
      vertex 0 33.4452 1.04528
      vertex 4.18222 33.3608 1.4424
      vertex 4.10273 33.4364 1.08681
    endloop
  endfacet
  facet normal -0 0.978146 0.207921
    outer loop
      vertex 0 33.4452 1.04528
      vertex 4.10273 33.4364 1.08681
      vertex 4.09616 33.4452 1.04528
    endloop
  endfacet
  facet normal -2.98879e-07 0.978148 0.20791
    outer loop
      vertex 4.18222 33.3608 1.4424
      vertex 0 33.4452 1.04528
      vertex 0 33.0106 3.09017
    endloop
  endfacet
  facet normal 5.843e-05 0.91349 -0.406862
    outer loop
      vertex 0 32.1603 -5
      vertex 4.89247 33.0106 -3.09017
      vertex 4.9029 33.0027 -3.10779
    endloop
  endfacet
  facet normal -2.47781e-06 0.913548 -0.40673
    outer loop
      vertex 0 32.1603 -5
      vertex 4.9029 33.0027 -3.10779
      vertex 5.1077 32.8685 -3.40915
    endloop
  endfacet
  facet normal 1.48044e-06 0.913544 -0.406741
    outer loop
      vertex 0 32.1603 -5
      vertex 5.1077 32.8685 -3.40915
      vertex 5.33102 32.7404 -3.69706
    endloop
  endfacet
  facet normal 1.22493e-06 0.913544 -0.40674
    outer loop
      vertex 0 32.1603 -5
      vertex 5.33102 32.7404 -3.69706
      vertex 5.57198 32.6187 -3.97037
    endloop
  endfacet
  facet normal -1.09896e-06 0.913549 -0.406729
    outer loop
      vertex 0 32.1603 -5
      vertex 5.57198 32.6187 -3.97037
      vertex 5.82963 32.504 -4.22802
    endloop
  endfacet
  facet normal 1.40452e-06 0.913542 -0.406745
    outer loop
      vertex 0 32.1603 -5
      vertex 5.82963 32.504 -4.22802
      vertex 6.10294 32.3967 -4.46898
    endloop
  endfacet
  facet normal -4.90416e-07 0.91355 -0.406727
    outer loop
      vertex 0 32.1603 -5
      vertex 6.10294 32.3967 -4.46898
      vertex 6.39085 32.2973 -4.6923
    endloop
  endfacet
  facet normal 5.05347e-07 0.913542 -0.406744
    outer loop
      vertex 0 32.1603 -5
      vertex 6.39085 32.2973 -4.6923
      vertex 6.6922 32.2061 -4.8971
    endloop
  endfacet
  facet normal 0 0.913554 -0.406717
    outer loop
      vertex 0 32.1603 -5
      vertex 6.6922 32.2061 -4.8971
      vertex 6.8662 32.1603 -5
    endloop
  endfacet
  facet normal 0 0.913545 -0.406737
    outer loop
      vertex 4.89247 33.0106 -3.09017
      vertex 0 32.1603 -5
      vertex 0 33.0106 -3.09017
    endloop
  endfacet
  facet normal -0 0.5 0.866026
    outer loop
      vertex 0 29.3779 8.09017
      vertex 11 27.5674 9.13545
      vertex 11 29.3779 8.09017
    endloop
  endfacet
  facet normal 0 0.5 0.866026
    outer loop
      vertex 11 27.5674 9.13545
      vertex 0 29.3779 8.09017
      vertex 0 27.5674 9.13545
    endloop
  endfacet
  facet normal 0 0.913553 0.40672
    outer loop
      vertex 6.6922 32.2061 4.8971
      vertex 0 32.1603 5
      vertex 6.86619 32.1603 5
    endloop
  endfacet
  facet normal 4.48667e-07 0.913542 0.406744
    outer loop
      vertex 6.39085 32.2973 4.6923
      vertex 0 32.1603 5
      vertex 6.6922 32.2061 4.8971
    endloop
  endfacet
  facet normal -5.47563e-07 0.91355 0.406727
    outer loop
      vertex 6.10294 32.3967 4.46898
      vertex 0 32.1603 5
      vertex 6.39085 32.2973 4.6923
    endloop
  endfacet
  facet normal 1.34667e-06 0.913542 0.406745
    outer loop
      vertex 5.82963 32.504 4.22802
      vertex 0 32.1603 5
      vertex 6.10294 32.3967 4.46898
    endloop
  endfacet
  facet normal -1.15772e-06 0.913549 0.406729
    outer loop
      vertex 5.57198 32.6187 3.97037
      vertex 0 32.1603 5
      vertex 5.82963 32.504 4.22802
    endloop
  endfacet
  facet normal 1.16506e-06 0.913544 0.40674
    outer loop
      vertex 5.33102 32.7404 3.69706
      vertex 0 32.1603 5
      vertex 5.57198 32.6187 3.97037
    endloop
  endfacet
  facet normal 1.41928e-06 0.913544 0.406741
    outer loop
      vertex 5.1077 32.8685 3.40915
      vertex 0 32.1603 5
      vertex 5.33102 32.7404 3.69706
    endloop
  endfacet
  facet normal -2.54048e-06 0.913548 0.40673
    outer loop
      vertex 4.9029 33.0027 3.10779
      vertex 0 32.1603 5
      vertex 5.1077 32.8685 3.40915
    endloop
  endfacet
  facet normal 5.83655e-05 0.91349 0.406862
    outer loop
      vertex 4.89247 33.0106 3.09017
      vertex 0 32.1603 5
      vertex 4.9029 33.0027 3.10779
    endloop
  endfacet
  facet normal 0 0.913545 0.406737
    outer loop
      vertex 0 32.1603 5
      vertex 4.89247 33.0106 3.09017
      vertex 0 33.0106 3.09017
    endloop
  endfacet
  facet normal 0 0.104529 -0.994522
    outer loop
      vertex 0 25.4029 -9.8
      vertex 11 25.5791 -9.78148
      vertex 11 25.4029 -9.8
    endloop
  endfacet
  facet normal 0 0.104529 -0.994522
    outer loop
      vertex 11 25.5791 -9.78148
      vertex 0 25.4029 -9.8
      vertex 0 25.5791 -9.78148
    endloop
  endfacet
  facet normal 0 1 -0
    outer loop
      vertex 4.04573 33.4452 0.726933
      vertex 0 33.4452 1.04528
      vertex 4.09616 33.4452 1.04528
    endloop
  endfacet
  facet normal 0 1 -0
    outer loop
      vertex 4.01144 33.4452 0.364184
      vertex 0 33.4452 1.04528
      vertex 4.04573 33.4452 0.726933
    endloop
  endfacet
  facet normal 0 1 -0
    outer loop
      vertex 4 33.4452 0
      vertex 0 33.4452 1.04528
      vertex 4.01144 33.4452 0.364184
    endloop
  endfacet
  facet normal 0 1 0
    outer loop
      vertex 0 33.4452 -1.04528
      vertex 4 33.4452 0
      vertex 4.01144 33.4452 -0.364184
    endloop
  endfacet
  facet normal 0 1 0
    outer loop
      vertex 0 33.4452 -1.04528
      vertex 4.01144 33.4452 -0.364184
      vertex 4.04573 33.4452 -0.726933
    endloop
  endfacet
  facet normal 0 1 0
    outer loop
      vertex 0 33.4452 -1.04528
      vertex 4.04573 33.4452 -0.726933
      vertex 4.09616 33.4452 -1.04528
    endloop
  endfacet
  facet normal 0 1 0
    outer loop
      vertex 4 33.4452 0
      vertex 0 33.4452 -1.04528
      vertex 0 33.4452 1.04528
    endloop
  endfacet
  facet normal 1 0 0
    outer loop
      vertex 11 31.579 -5.8
      vertex 11 29.3779 -8.09017
      vertex 11 30.9314 -6.69131
    endloop
  endfacet
  facet normal 1 0 0
    outer loop
      vertex 11 31.579 -5.8
      vertex 11 27.5674 -9.13545
      vertex 11 29.3779 -8.09017
    endloop
  endfacet
  facet normal 1 0 0
    outer loop
      vertex 11 25.4029 -9.8
      vertex 11 27.5674 -9.13545
      vertex 11 31.579 -5.8
    endloop
  endfacet
  facet normal 1 0 0
    outer loop
      vertex 11 27.5674 -9.13545
      vertex 11 25.4029 -9.8
      vertex 11 25.5791 -9.78148
    endloop
  endfacet
  facet normal 1 0 0
    outer loop
      vertex 11 31.579 -5.8
      vertex 11 21.5971 -9.8
      vertex 11 25.4029 -9.8
    endloop
  endfacet
  facet normal 1 -0 0
    outer loop
      vertex 11 15.421 -5.8
      vertex 11 21.5971 -9.8
      vertex 11 31.579 -5.8
    endloop
  endfacet
  facet normal 1 0 0
    outer loop
      vertex 11 21.5971 -9.8
      vertex 11 19.4326 -9.13545
      vertex 11 21.4209 -9.78148
    endloop
  endfacet
  facet normal 1 0 0
    outer loop
      vertex 11 21.5971 -9.8
      vertex 11 15.421 -5.8
      vertex 11 19.4326 -9.13545
    endloop
  endfacet
  facet normal 1 0 0
    outer loop
      vertex 11 19.4326 -9.13545
      vertex 11 15.421 -5.8
      vertex 11 17.6221 -8.09017
    endloop
  endfacet
  facet normal 1 0 0
    outer loop
      vertex 11 17.6221 -8.09017
      vertex 11 15.421 -5.8
      vertex 11 16.0686 -6.69131
    endloop
  endfacet
  facet normal 1 0 0
    outer loop
      vertex 11 23.5 5.8
      vertex 11 30.9314 6.69131
      vertex 11 29.3779 8.09017
    endloop
  endfacet
  facet normal 1 0 0
    outer loop
      vertex 11 23.5 5.8
      vertex 11 29.3779 8.09017
      vertex 11 27.5674 9.13545
    endloop
  endfacet
  facet normal 1 0 0
    outer loop
      vertex 11 23.5 5.8
      vertex 11 27.5674 9.13545
      vertex 11 25.5791 9.78148
    endloop
  endfacet
  facet normal 1 0 0
    outer loop
      vertex 11 23.5 5.8
      vertex 11 25.5791 9.78148
      vertex 11 25.4029 9.8
    endloop
  endfacet
  facet normal 1 0 0
    outer loop
      vertex 11 23.5 5.8
      vertex 11 25.4029 9.8
      vertex 11 23.5 9.8
    endloop
  endfacet
  facet normal 1 0 0
    outer loop
      vertex 11 30.9314 6.69131
      vertex 11 23.5 5.8
      vertex 11 31.579 5.8
    endloop
  endfacet
  facet normal -0 0.104529 0.994522
    outer loop
      vertex 0 25.5791 9.78148
      vertex 11 25.4029 9.8
      vertex 11 25.5791 9.78148
    endloop
  endfacet
  facet normal 0 0.104529 0.994522
    outer loop
      vertex 11 25.4029 9.8
      vertex 0 25.5791 9.78148
      vertex 0 25.4029 9.8
    endloop
  endfacet
  facet normal 0 -0.104529 -0.994522
    outer loop
      vertex 0 -25.5791 -9.78148
      vertex 11 -25.4029 -9.8
      vertex 11 -25.5791 -9.78148
    endloop
  endfacet
  facet normal -0 -0.104529 -0.994522
    outer loop
      vertex 11 -25.4029 -9.8
      vertex 0 -25.5791 -9.78148
      vertex 0 -25.4029 -9.8
    endloop
  endfacet
  facet normal 0 -0.978148 0.207909
    outer loop
      vertex 0 -33.0106 3.09017
      vertex 4.71742 -33.0735 2.79417
      vertex 4.89247 -33.0106 3.09017
    endloop
  endfacet
  facet normal -3.06007e-07 -0.978149 0.207904
    outer loop
      vertex 0 -33.0106 3.09017
      vertex 4.552 -33.1425 2.46952
      vertex 4.71742 -33.0735 2.79417
    endloop
  endfacet
  facet normal 1.03908e-06 -0.978147 0.207914
    outer loop
      vertex 0 -33.0106 3.09017
      vertex 4.4073 -33.2136 2.13512
      vertex 4.552 -33.1425 2.46952
    endloop
  endfacet
  facet normal -1.34743e-07 -0.978148 0.207909
    outer loop
      vertex 0 -33.0106 3.09017
      vertex 4.28387 -33.2864 1.7923
      vertex 4.4073 -33.2136 2.13512
    endloop
  endfacet
  facet normal 2.45549e-06 -0.978147 0.207917
    outer loop
      vertex 0 -33.0106 3.09017
      vertex 4.18222 -33.3608 1.4424
      vertex 4.28387 -33.2864 1.7923
    endloop
  endfacet
  facet normal -2.98879e-07 -0.978148 0.20791
    outer loop
      vertex 0 -33.4452 1.04528
      vertex 4.18222 -33.3608 1.4424
      vertex 0 -33.0106 3.09017
    endloop
  endfacet
  facet normal 1.65531e-07 -0.978149 0.207905
    outer loop
      vertex 4.18222 -33.3608 1.4424
      vertex 0 -33.4452 1.04528
      vertex 4.10273 -33.4364 1.08681
    endloop
  endfacet
  facet normal 0 -0.978146 0.207921
    outer loop
      vertex 4.10273 -33.4364 1.08681
      vertex 0 -33.4452 1.04528
      vertex 4.09616 -33.4452 1.04528
    endloop
  endfacet
  facet normal 0 -0.809016 -0.587786
    outer loop
      vertex 0 -30.9314 -6.69131
      vertex 6.8662 -32.1603 -5
      vertex 0 -32.1603 -5
    endloop
  endfacet
  facet normal 9.15686e-07 -0.809015 -0.587788
    outer loop
      vertex 6.8662 -32.1603 -5
      vertex 0 -30.9314 -6.69131
      vertex 7.00583 -32.1003 -5.08258
    endloop
  endfacet
  facet normal 6.19183e-07 -0.809015 -0.587788
    outer loop
      vertex 7.00583 -32.1003 -5.08258
      vertex 0 -30.9314 -6.69131
      vertex 7.33048 -31.9801 -5.248
    endloop
  endfacet
  facet normal 9.15868e-07 -0.809015 -0.587789
    outer loop
      vertex 7.33048 -31.9801 -5.248
      vertex 0 -30.9314 -6.69131
      vertex 7.66488 -31.8749 -5.3927
    endloop
  endfacet
  facet normal -7.74963e-07 -0.809019 -0.587782
    outer loop
      vertex 7.66488 -31.8749 -5.3927
      vertex 0 -30.9314 -6.69131
      vertex 8.0077 -31.7853 -5.51613
    endloop
  endfacet
  facet normal 2.4677e-07 -0.809016 -0.587787
    outer loop
      vertex 8.0077 -31.7853 -5.51613
      vertex 0 -30.9314 -6.69131
      vertex 8.3576 -31.7114 -5.61778
    endloop
  endfacet
  facet normal -0 -0.809017 -0.587785
    outer loop
      vertex 11 -30.9314 -6.69131
      vertex 8.3576 -31.7114 -5.61778
      vertex 0 -30.9314 -6.69131
    endloop
  endfacet
  facet normal 1.45773e-06 -0.809019 -0.587783
    outer loop
      vertex 8.3576 -31.7114 -5.61778
      vertex 11 -30.9314 -6.69131
      vertex 8.71319 -31.6537 -5.69727
    endloop
  endfacet
  facet normal 5.3172e-08 -0.809017 -0.587785
    outer loop
      vertex 8.71319 -31.6537 -5.69727
      vertex 11 -30.9314 -6.69131
      vertex 9.07307 -31.6122 -5.75426
    endloop
  endfacet
  facet normal -2.19197e-06 -0.809015 -0.587788
    outer loop
      vertex 9.07307 -31.6122 -5.75426
      vertex 11 -30.9314 -6.69131
      vertex 9.43581 -31.5873 -5.78855
    endloop
  endfacet
  facet normal 1.69096e-06 -0.809018 -0.587784
    outer loop
      vertex 9.43581 -31.5873 -5.78855
      vertex 11 -30.9314 -6.69131
      vertex 9.8 -31.579 -5.8
    endloop
  endfacet
  facet normal 0 -0.809017 -0.587785
    outer loop
      vertex 9.8 -31.579 -5.8
      vertex 11 -30.9314 -6.69131
      vertex 11 -31.579 -5.8
    endloop
  endfacet
  facet normal 1 0 0
    outer loop
      vertex 11 -15.421 -5.8
      vertex 11 -17.6221 -8.09017
      vertex 11 -16.0686 -6.69131
    endloop
  endfacet
  facet normal 1 0 0
    outer loop
      vertex 11 -15.421 -5.8
      vertex 11 -19.4326 -9.13545
      vertex 11 -17.6221 -8.09017
    endloop
  endfacet
  facet normal 1 0 0
    outer loop
      vertex 11 -21.5971 -9.8
      vertex 11 -19.4326 -9.13545
      vertex 11 -15.421 -5.8
    endloop
  endfacet
  facet normal 1 0 0
    outer loop
      vertex 11 -19.4326 -9.13545
      vertex 11 -21.5971 -9.8
      vertex 11 -21.4209 -9.78148
    endloop
  endfacet
  facet normal 1 0 0
    outer loop
      vertex 11 -15.421 -5.8
      vertex 11 -25.4029 -9.8
      vertex 11 -21.5971 -9.8
    endloop
  endfacet
  facet normal 1 -0 0
    outer loop
      vertex 11 -31.579 -5.8
      vertex 11 -25.4029 -9.8
      vertex 11 -15.421 -5.8
    endloop
  endfacet
  facet normal 1 0 0
    outer loop
      vertex 11 -25.4029 -9.8
      vertex 11 -27.5674 -9.13545
      vertex 11 -25.5791 -9.78148
    endloop
  endfacet
  facet normal 1 0 0
    outer loop
      vertex 11 -25.4029 -9.8
      vertex 11 -31.579 -5.8
      vertex 11 -27.5674 -9.13545
    endloop
  endfacet
  facet normal 1 0 0
    outer loop
      vertex 11 -27.5674 -9.13545
      vertex 11 -31.579 -5.8
      vertex 11 -29.3779 -8.09017
    endloop
  endfacet
  facet normal 1 0 0
    outer loop
      vertex 11 -29.3779 -8.09017
      vertex 11 -31.579 -5.8
      vertex 11 -30.9314 -6.69131
    endloop
  endfacet
  facet normal 1 -0 0
    outer loop
      vertex 11 -25.4029 9.8
      vertex 11 -23.5 5.8
      vertex 11 -23.5 9.8
    endloop
  endfacet
  facet normal 1 -0 0
    outer loop
      vertex 11 -25.5791 9.78148
      vertex 11 -23.5 5.8
      vertex 11 -25.4029 9.8
    endloop
  endfacet
  facet normal 1 -0 0
    outer loop
      vertex 11 -27.5674 9.13545
      vertex 11 -23.5 5.8
      vertex 11 -25.5791 9.78148
    endloop
  endfacet
  facet normal 1 -0 0
    outer loop
      vertex 11 -29.3779 8.09017
      vertex 11 -23.5 5.8
      vertex 11 -27.5674 9.13545
    endloop
  endfacet
  facet normal 1 -0 0
    outer loop
      vertex 11 -30.9314 6.69131
      vertex 11 -23.5 5.8
      vertex 11 -29.3779 8.09017
    endloop
  endfacet
  facet normal 1 0 0
    outer loop
      vertex 11 -23.5 5.8
      vertex 11 -30.9314 6.69131
      vertex 11 -31.579 5.8
    endloop
  endfacet
  facet normal 0 -0.309017 -0.951057
    outer loop
      vertex 0 -27.5674 -9.13545
      vertex 11 -25.5791 -9.78148
      vertex 11 -27.5674 -9.13545
    endloop
  endfacet
  facet normal -0 -0.309017 -0.951057
    outer loop
      vertex 11 -25.5791 -9.78148
      vertex 0 -27.5674 -9.13545
      vertex 0 -25.5791 -9.78148
    endloop
  endfacet
  facet normal 0 -0.5 -0.866026
    outer loop
      vertex 0 -29.3779 -8.09017
      vertex 11 -27.5674 -9.13545
      vertex 11 -29.3779 -8.09017
    endloop
  endfacet
  facet normal -0 -0.5 -0.866026
    outer loop
      vertex 11 -27.5674 -9.13545
      vertex 0 -29.3779 -8.09017
      vertex 0 -27.5674 -9.13545
    endloop
  endfacet
  facet normal 0 -0.104529 0.994522
    outer loop
      vertex 0 -25.4029 9.8
      vertex 11 -25.5791 9.78148
      vertex 11 -25.4029 9.8
    endloop
  endfacet
  facet normal 0 -0.104529 0.994522
    outer loop
      vertex 11 -25.5791 9.78148
      vertex 0 -25.4029 9.8
      vertex 0 -25.5791 9.78148
    endloop
  endfacet
  facet normal 0 -0.5 0.866026
    outer loop
      vertex 0 -27.5674 9.13545
      vertex 11 -29.3779 8.09017
      vertex 11 -27.5674 9.13545
    endloop
  endfacet
  facet normal 0 -0.5 0.866026
    outer loop
      vertex 11 -29.3779 8.09017
      vertex 0 -27.5674 9.13545
      vertex 0 -29.3779 8.09017
    endloop
  endfacet
  facet normal 0 -0.978146 -0.207921
    outer loop
      vertex 0 -33.4452 -1.04528
      vertex 4.10273 -33.4364 -1.08681
      vertex 4.09616 -33.4452 -1.04528
    endloop
  endfacet
  facet normal 1.65531e-07 -0.978149 -0.207905
    outer loop
      vertex 0 -33.4452 -1.04528
      vertex 4.18222 -33.3608 -1.4424
      vertex 4.10273 -33.4364 -1.08681
    endloop
  endfacet
  facet normal -2.98879e-07 -0.978148 -0.20791
    outer loop
      vertex 0 -33.0106 -3.09017
      vertex 4.18222 -33.3608 -1.4424
      vertex 0 -33.4452 -1.04528
    endloop
  endfacet
  facet normal 2.45549e-06 -0.978147 -0.207917
    outer loop
      vertex 4.18222 -33.3608 -1.4424
      vertex 0 -33.0106 -3.09017
      vertex 4.28387 -33.2864 -1.7923
    endloop
  endfacet
  facet normal -1.34743e-07 -0.978148 -0.207909
    outer loop
      vertex 4.28387 -33.2864 -1.7923
      vertex 0 -33.0106 -3.09017
      vertex 4.4073 -33.2136 -2.13512
    endloop
  endfacet
  facet normal 1.03908e-06 -0.978147 -0.207914
    outer loop
      vertex 4.4073 -33.2136 -2.13512
      vertex 0 -33.0106 -3.09017
      vertex 4.552 -33.1425 -2.46952
    endloop
  endfacet
  facet normal -3.06007e-07 -0.978149 -0.207904
    outer loop
      vertex 4.552 -33.1425 -2.46952
      vertex 0 -33.0106 -3.09017
      vertex 4.71742 -33.0735 -2.79417
    endloop
  endfacet
  facet normal 0 -0.978148 -0.207909
    outer loop
      vertex 4.71742 -33.0735 -2.79417
      vertex 0 -33.0106 -3.09017
      vertex 4.89247 -33.0106 -3.09017
    endloop
  endfacet
  facet normal 0 -0.913545 -0.406737
    outer loop
      vertex 0 -32.1603 -5
      vertex 4.89247 -33.0106 -3.09017
      vertex 0 -33.0106 -3.09017
    endloop
  endfacet
  facet normal 5.843e-05 -0.91349 -0.406862
    outer loop
      vertex 4.89247 -33.0106 -3.09017
      vertex 0 -32.1603 -5
      vertex 4.9029 -33.0027 -3.10779
    endloop
  endfacet
  facet normal -2.47781e-06 -0.913548 -0.40673
    outer loop
      vertex 4.9029 -33.0027 -3.10779
      vertex 0 -32.1603 -5
      vertex 5.1077 -32.8685 -3.40915
    endloop
  endfacet
  facet normal 1.48044e-06 -0.913544 -0.406741
    outer loop
      vertex 5.1077 -32.8685 -3.40915
      vertex 0 -32.1603 -5
      vertex 5.33102 -32.7404 -3.69706
    endloop
  endfacet
  facet normal 1.22493e-06 -0.913544 -0.40674
    outer loop
      vertex 5.33102 -32.7404 -3.69706
      vertex 0 -32.1603 -5
      vertex 5.57198 -32.6187 -3.97037
    endloop
  endfacet
  facet normal -1.09896e-06 -0.913549 -0.406729
    outer loop
      vertex 5.57198 -32.6187 -3.97037
      vertex 0 -32.1603 -5
      vertex 5.82963 -32.504 -4.22802
    endloop
  endfacet
  facet normal 1.40452e-06 -0.913542 -0.406745
    outer loop
      vertex 5.82963 -32.504 -4.22802
      vertex 0 -32.1603 -5
      vertex 6.10294 -32.3967 -4.46898
    endloop
  endfacet
  facet normal -4.90416e-07 -0.91355 -0.406727
    outer loop
      vertex 6.10294 -32.3967 -4.46898
      vertex 0 -32.1603 -5
      vertex 6.39085 -32.2973 -4.6923
    endloop
  endfacet
  facet normal 5.05347e-07 -0.913542 -0.406744
    outer loop
      vertex 6.39085 -32.2973 -4.6923
      vertex 0 -32.1603 -5
      vertex 6.6922 -32.2061 -4.8971
    endloop
  endfacet
  facet normal 0 -0.913554 -0.406717
    outer loop
      vertex 6.6922 -32.2061 -4.8971
      vertex 0 -32.1603 -5
      vertex 6.8662 -32.1603 -5
    endloop
  endfacet
  facet normal 0 -0.669131 -0.743144
    outer loop
      vertex 0 -30.9314 -6.69131
      vertex 11 -29.3779 -8.09017
      vertex 11 -30.9314 -6.69131
    endloop
  endfacet
  facet normal -0 -0.669131 -0.743144
    outer loop
      vertex 11 -29.3779 -8.09017
      vertex 0 -30.9314 -6.69131
      vertex 0 -29.3779 -8.09017
    endloop
  endfacet
  facet normal 0 -0.913554 0.406717
    outer loop
      vertex 0 -32.1603 5
      vertex 6.6922 -32.2061 4.8971
      vertex 6.8662 -32.1603 5
    endloop
  endfacet
  facet normal 5.05347e-07 -0.913542 0.406744
    outer loop
      vertex 0 -32.1603 5
      vertex 6.39085 -32.2973 4.6923
      vertex 6.6922 -32.2061 4.8971
    endloop
  endfacet
  facet normal -4.90416e-07 -0.91355 0.406727
    outer loop
      vertex 0 -32.1603 5
      vertex 6.10294 -32.3967 4.46898
      vertex 6.39085 -32.2973 4.6923
    endloop
  endfacet
  facet normal 1.40452e-06 -0.913542 0.406745
    outer loop
      vertex 0 -32.1603 5
      vertex 5.82963 -32.504 4.22802
      vertex 6.10294 -32.3967 4.46898
    endloop
  endfacet
  facet normal -1.09896e-06 -0.913549 0.406729
    outer loop
      vertex 0 -32.1603 5
      vertex 5.57198 -32.6187 3.97037
      vertex 5.82963 -32.504 4.22802
    endloop
  endfacet
  facet normal 1.22493e-06 -0.913544 0.40674
    outer loop
      vertex 0 -32.1603 5
      vertex 5.33102 -32.7404 3.69706
      vertex 5.57198 -32.6187 3.97037
    endloop
  endfacet
  facet normal 1.48044e-06 -0.913544 0.406741
    outer loop
      vertex 0 -32.1603 5
      vertex 5.1077 -32.8685 3.40915
      vertex 5.33102 -32.7404 3.69706
    endloop
  endfacet
  facet normal -2.47781e-06 -0.913548 0.40673
    outer loop
      vertex 0 -32.1603 5
      vertex 4.9029 -33.0027 3.10779
      vertex 5.1077 -32.8685 3.40915
    endloop
  endfacet
  facet normal 0 -0.913545 0.406737
    outer loop
      vertex 4.89247 -33.0106 3.09017
      vertex 0 -32.1603 5
      vertex 0 -33.0106 3.09017
    endloop
  endfacet
  facet normal 5.843e-05 -0.91349 0.406862
    outer loop
      vertex 0 -32.1603 5
      vertex 4.89247 -33.0106 3.09017
      vertex 4.9029 -33.0027 3.10779
    endloop
  endfacet
  facet normal 0 -1 0
    outer loop
      vertex 0 -33.4452 1.04528
      vertex 4.04573 -33.4452 0.726933
      vertex 4.09616 -33.4452 1.04528
    endloop
  endfacet
  facet normal 0 -1 0
    outer loop
      vertex 0 -33.4452 1.04528
      vertex 4.01144 -33.4452 0.364184
      vertex 4.04573 -33.4452 0.726933
    endloop
  endfacet
  facet normal 0 -1 0
    outer loop
      vertex 0 -33.4452 1.04528
      vertex 4 -33.4452 0
      vertex 4.01144 -33.4452 0.364184
    endloop
  endfacet
  facet normal 0 -1 0
    outer loop
      vertex 0 -33.4452 -1.04528
      vertex 4 -33.4452 0
      vertex 0 -33.4452 1.04528
    endloop
  endfacet
  facet normal 0 -1 -0
    outer loop
      vertex 4 -33.4452 0
      vertex 0 -33.4452 -1.04528
      vertex 4.01144 -33.4452 -0.364184
    endloop
  endfacet
  facet normal 0 -1 -0
    outer loop
      vertex 4.01144 -33.4452 -0.364184
      vertex 0 -33.4452 -1.04528
      vertex 4.04573 -33.4452 -0.726933
    endloop
  endfacet
  facet normal 0 -1 -0
    outer loop
      vertex 4.04573 -33.4452 -0.726933
      vertex 0 -33.4452 -1.04528
      vertex 4.09616 -33.4452 -1.04528
    endloop
  endfacet
  facet normal 0 -0.309017 0.951057
    outer loop
      vertex 0 -25.5791 9.78148
      vertex 11 -27.5674 9.13545
      vertex 11 -25.5791 9.78148
    endloop
  endfacet
  facet normal 0 -0.309017 0.951057
    outer loop
      vertex 11 -27.5674 9.13545
      vertex 0 -25.5791 9.78148
      vertex 0 -27.5674 9.13545
    endloop
  endfacet
  facet normal 0 -0.669131 0.743144
    outer loop
      vertex 0 -29.3779 8.09017
      vertex 11 -30.9314 6.69131
      vertex 11 -29.3779 8.09017
    endloop
  endfacet
  facet normal 0 -0.669131 0.743144
    outer loop
      vertex 11 -30.9314 6.69131
      vertex 0 -29.3779 8.09017
      vertex 0 -30.9314 6.69131
    endloop
  endfacet
  facet normal 0 -0.809017 0.587785
    outer loop
      vertex 8.3576 -31.7114 5.61778
      vertex 11 -30.9314 6.69131
      vertex 0 -30.9314 6.69131
    endloop
  endfacet
  facet normal 1.69096e-06 -0.809018 0.587784
    outer loop
      vertex 11 -30.9314 6.69131
      vertex 9.43581 -31.5873 5.78855
      vertex 9.8 -31.579 5.8
    endloop
  endfacet
  facet normal -2.19197e-06 -0.809015 0.587788
    outer loop
      vertex 11 -30.9314 6.69131
      vertex 9.07307 -31.6122 5.75426
      vertex 9.43581 -31.5873 5.78855
    endloop
  endfacet
  facet normal 5.3172e-08 -0.809017 0.587785
    outer loop
      vertex 11 -30.9314 6.69131
      vertex 8.71319 -31.6537 5.69727
      vertex 9.07307 -31.6122 5.75426
    endloop
  endfacet
  facet normal 1.45773e-06 -0.809019 0.587783
    outer loop
      vertex 11 -30.9314 6.69131
      vertex 8.3576 -31.7114 5.61778
      vertex 8.71319 -31.6537 5.69727
    endloop
  endfacet
  facet normal 2.4677e-07 -0.809016 0.587787
    outer loop
      vertex 0 -30.9314 6.69131
      vertex 8.0077 -31.7853 5.51613
      vertex 8.3576 -31.7114 5.61778
    endloop
  endfacet
  facet normal -7.74963e-07 -0.809019 0.587782
    outer loop
      vertex 0 -30.9314 6.69131
      vertex 7.66488 -31.8749 5.3927
      vertex 8.0077 -31.7853 5.51613
    endloop
  endfacet
  facet normal 9.15868e-07 -0.809015 0.587789
    outer loop
      vertex 0 -30.9314 6.69131
      vertex 7.33048 -31.9801 5.248
      vertex 7.66488 -31.8749 5.3927
    endloop
  endfacet
  facet normal 6.19183e-07 -0.809015 0.587788
    outer loop
      vertex 0 -30.9314 6.69131
      vertex 7.00583 -32.1003 5.08258
      vertex 7.33048 -31.9801 5.248
    endloop
  endfacet
  facet normal 0 -0.809016 0.587786
    outer loop
      vertex 6.8662 -32.1603 5
      vertex 0 -30.9314 6.69131
      vertex 0 -32.1603 5
    endloop
  endfacet
  facet normal 9.15686e-07 -0.809015 0.587788
    outer loop
      vertex 0 -30.9314 6.69131
      vertex 6.8662 -32.1603 5
      vertex 7.00583 -32.1003 5.08258
    endloop
  endfacet
  facet normal 0 -0.809017 0.587785
    outer loop
      vertex 11 -30.9314 6.69131
      vertex 9.8 -31.579 5.8
      vertex 11 -31.579 5.8
    endloop
  endfacet
  facet normal 1 -0 0
    outer loop
      vertex 11 -15.421 -5.8
      vertex 11 16.0686 -6.69131
      vertex 11 15.421 -5.8
    endloop
  endfacet
  facet normal 1 0 0
    outer loop
      vertex 11 -16.0686 -6.69131
      vertex 11 16.0686 -6.69131
      vertex 11 -15.421 -5.8
    endloop
  endfacet
  facet normal 1 0 0
    outer loop
      vertex 11 16.0686 -6.69131
      vertex 11 -16.0686 -6.69131
      vertex 11 17.6221 -8.09017
    endloop
  endfacet
  facet normal 1 0 0
    outer loop
      vertex 11 -17.6221 -8.09017
      vertex 11 17.6221 -8.09017
      vertex 11 -16.0686 -6.69131
    endloop
  endfacet
  facet normal 1 0 0
    outer loop
      vertex 11 17.6221 -8.09017
      vertex 11 -17.6221 -8.09017
      vertex 11 19.4326 -9.13545
    endloop
  endfacet
  facet normal 1 0 0
    outer loop
      vertex 11 -19.4326 -9.13545
      vertex 11 19.4326 -9.13545
      vertex 11 -17.6221 -8.09017
    endloop
  endfacet
  facet normal 1 0 0
    outer loop
      vertex 11 19.4326 -9.13545
      vertex 11 -19.4326 -9.13545
      vertex 11 21.4209 -9.78148
    endloop
  endfacet
  facet normal 1 0 0
    outer loop
      vertex 11 -21.4209 -9.78148
      vertex 11 21.4209 -9.78148
      vertex 11 -19.4326 -9.13545
    endloop
  endfacet
  facet normal 1 0 0
    outer loop
      vertex 11 21.4209 -9.78148
      vertex 11 -21.4209 -9.78148
      vertex 11 21.5971 -9.8
    endloop
  endfacet
  facet normal 1 0 0
    outer loop
      vertex 11 21.5971 -9.8
      vertex 11 -21.4209 -9.78148
      vertex 11 -21.5971 -9.8
    endloop
  endfacet
  facet normal 1 -0 0
    outer loop
      vertex 11 -23.5 9.8
      vertex 11 23.5 5.8
      vertex 11 23.5 9.8
    endloop
  endfacet
  facet normal 1 0 0
    outer loop
      vertex 11 23.5 5.8
      vertex 11 -23.5 9.8
      vertex 11 -23.5 5.8
    endloop
  endfacet
  facet normal 0 0 -1
    outer loop
      vertex 9.8 -31.579 5.8
      vertex 11 -23.5 5.8
      vertex 11 -31.579 5.8
    endloop
  endfacet
  facet normal -0 0 -1
    outer loop
      vertex 11 -23.5 5.8
      vertex 9.8 -31.579 5.8
      vertex 11 23.5 5.8
    endloop
  endfacet
  facet normal 0 0 -1
    outer loop
      vertex 9.8 31.579 5.8
      vertex 11 23.5 5.8
      vertex 9.8 -31.579 5.8
    endloop
  endfacet
  facet normal 0 0 -1
    outer loop
      vertex 11 23.5 5.8
      vertex 9.8 31.579 5.8
      vertex 11 31.579 5.8
    endloop
  endfacet
  facet normal -0 0 1
    outer loop
      vertex 9.8 31.579 -5.8
      vertex 11 15.421 -5.8
      vertex 11 31.579 -5.8
    endloop
  endfacet
  facet normal 0 0 1
    outer loop
      vertex 11 15.421 -5.8
      vertex 9.8 31.579 -5.8
      vertex 11 -15.421 -5.8
    endloop
  endfacet
  facet normal 0 0 1
    outer loop
      vertex 9.8 -31.579 -5.8
      vertex 11 -15.421 -5.8
      vertex 9.8 31.579 -5.8
    endloop
  endfacet
  facet normal 0 0 1
    outer loop
      vertex 11 -15.421 -5.8
      vertex 9.8 -31.579 -5.8
      vertex 11 -31.579 -5.8
    endloop
  endfacet
  facet normal 0.031411 0 -0.999507
    outer loop
      vertex 9.43581 -31.5873 5.78855
      vertex 9.8 31.579 5.8
      vertex 9.8 -31.579 5.8
    endloop
  endfacet
  facet normal 0.031411 0 -0.999507
    outer loop
      vertex 9.8 31.579 5.8
      vertex 9.43581 -31.5873 5.78855
      vertex 9.43581 31.5873 5.78855
    endloop
  endfacet
  facet normal 0.707107 0 -0.707107
    outer loop
      vertex 5.82963 -32.504 4.22802
      vertex 5.57198 32.6187 3.97037
      vertex 5.82963 32.504 4.22802
    endloop
  endfacet
  facet normal 0.707107 0 -0.707107
    outer loop
      vertex 5.57198 32.6187 3.97037
      vertex 5.82963 -32.504 4.22802
      vertex 5.57198 -32.6187 3.97037
    endloop
  endfacet
  facet normal 0.987688 -2.38314e-05 -0.156435
    outer loop
      vertex 4.10273 33.4364 1.08681
      vertex 4.04573 33.4452 0.726933
      vertex 4.09616 33.4452 1.04528
    endloop
  endfacet
  facet normal 0.987688 0 -0.156435
    outer loop
      vertex 4.10273 -33.4364 1.08681
      vertex 4.04573 33.4452 0.726933
      vertex 4.10273 33.4364 1.08681
    endloop
  endfacet
  facet normal 0.987688 2.38314e-05 -0.156435
    outer loop
      vertex 4.04573 -33.4452 0.726933
      vertex 4.10273 -33.4364 1.08681
      vertex 4.09616 -33.4452 1.04528
    endloop
  endfacet
  facet normal 0.987688 0 -0.156435
    outer loop
      vertex 4.10273 -33.4364 1.08681
      vertex 4.04573 -33.4452 0.726933
      vertex 4.04573 33.4452 0.726933
    endloop
  endfacet
  facet normal 0.860738 -3.20933e-05 -0.509047
    outer loop
      vertex 4.9029 33.0027 3.10779
      vertex 4.71742 33.0735 2.79417
      vertex 4.89247 33.0106 3.09017
    endloop
  endfacet
  facet normal 0.860742 0 -0.509042
    outer loop
      vertex 4.9029 -33.0027 3.10779
      vertex 4.71742 33.0735 2.79417
      vertex 4.9029 33.0027 3.10779
    endloop
  endfacet
  facet normal 0.860738 3.20933e-05 -0.509047
    outer loop
      vertex 4.71742 -33.0735 2.79417
      vertex 4.9029 -33.0027 3.10779
      vertex 4.89247 -33.0106 3.09017
    endloop
  endfacet
  facet normal 0.860742 0 -0.509042
    outer loop
      vertex 4.9029 -33.0027 3.10779
      vertex 4.71742 -33.0735 2.79417
      vertex 4.71742 33.0735 2.79417
    endloop
  endfacet
  facet normal 0.940881 0 -0.338739
    outer loop
      vertex 4.4073 -33.2136 2.13512
      vertex 4.28387 33.2864 1.7923
      vertex 4.4073 33.2136 2.13512
    endloop
  endfacet
  facet normal 0.940881 0 -0.338739
    outer loop
      vertex 4.28387 33.2864 1.7923
      vertex 4.4073 -33.2136 2.13512
      vertex 4.28387 -33.2864 1.7923
    endloop
  endfacet
  facet normal 0.891007 0 -0.45399
    outer loop
      vertex 4.71742 -33.0735 2.79417
      vertex 4.552 33.1425 2.46952
      vertex 4.71742 33.0735 2.79417
    endloop
  endfacet
  facet normal 0.891007 0 -0.45399
    outer loop
      vertex 4.552 33.1425 2.46952
      vertex 4.71742 -33.0735 2.79417
      vertex 4.552 -33.1425 2.46952
    endloop
  endfacet
  facet normal 0.562083 0 -0.827081
    outer loop
      vertex 6.39085 -32.2973 4.6923
      vertex 6.6922 32.2061 4.8971
      vertex 6.6922 -32.2061 4.8971
    endloop
  endfacet
  facet normal 0.562083 0 -0.827081
    outer loop
      vertex 6.6922 32.2061 4.8971
      vertex 6.39085 -32.2973 4.6923
      vertex 6.39085 32.2973 4.6923
    endloop
  endfacet
  facet normal 0.66131 0 -0.750112
    outer loop
      vertex 5.82963 -32.504 4.22802
      vertex 6.10294 32.3967 4.46898
      vertex 6.10294 -32.3967 4.46898
    endloop
  endfacet
  facet normal 0.66131 0 -0.750112
    outer loop
      vertex 6.10294 32.3967 4.46898
      vertex 5.82963 -32.504 4.22802
      vertex 5.82963 32.504 4.22802
    endloop
  endfacet
  facet normal 0.0941071 0 -0.995562
    outer loop
      vertex 9.07307 -31.6122 5.75426
      vertex 9.43581 31.5873 5.78855
      vertex 9.43581 -31.5873 5.78855
    endloop
  endfacet
  facet normal 0.0941071 0 -0.995562
    outer loop
      vertex 9.43581 31.5873 5.78855
      vertex 9.07307 -31.6122 5.75426
      vertex 9.07307 31.6122 5.75426
    endloop
  endfacet
  facet normal 0.790156 0 0.612906
    outer loop
      vertex 5.1077 32.8685 -3.40915
      vertex 5.33102 -32.7404 -3.69706
      vertex 5.33102 32.7404 -3.69706
    endloop
  endfacet
  facet normal 0.790156 0 0.612906
    outer loop
      vertex 5.33102 -32.7404 -3.69706
      vertex 5.1077 32.8685 -3.40915
      vertex 5.1077 -32.8685 -3.40915
    endloop
  endfacet
  facet normal 0.917755 0 0.397148
    outer loop
      vertex 4.4073 33.2136 -2.13512
      vertex 4.552 -33.1425 -2.46952
      vertex 4.552 33.1425 -2.46952
    endloop
  endfacet
  facet normal 0.917755 0 0.397148
    outer loop
      vertex 4.552 -33.1425 -2.46952
      vertex 4.4073 33.2136 -2.13512
      vertex 4.4073 -33.2136 -2.13512
    endloop
  endfacet
  facet normal 0.995562 0 -0.0941097
    outer loop
      vertex 4.04573 -33.4452 0.726933
      vertex 4.01144 33.4452 0.364184
      vertex 4.04573 33.4452 0.726933
    endloop
  endfacet
  facet normal 0.995562 0 -0.0941097
    outer loop
      vertex 4.01144 33.4452 0.364184
      vertex 4.04573 -33.4452 0.726933
      vertex 4.01144 -33.4452 0.364184
    endloop
  endfacet
  facet normal 0.917755 0 -0.397148
    outer loop
      vertex 4.552 -33.1425 2.46952
      vertex 4.4073 33.2136 2.13512
      vertex 4.552 33.1425 2.46952
    endloop
  endfacet
  facet normal 0.917755 0 -0.397148
    outer loop
      vertex 4.4073 33.2136 2.13512
      vertex 4.552 -33.1425 2.46952
      vertex 4.4073 -33.2136 2.13512
    endloop
  endfacet
  facet normal 0.960294 0 -0.27899
    outer loop
      vertex 4.28387 -33.2864 1.7923
      vertex 4.18222 33.3608 1.4424
      vertex 4.28387 33.2864 1.7923
    endloop
  endfacet
  facet normal 0.960294 0 -0.27899
    outer loop
      vertex 4.18222 33.3608 1.4424
      vertex 4.28387 -33.2864 1.7923
      vertex 4.18222 -33.3608 1.4424
    endloop
  endfacet
  facet normal 0.975917 0 -0.218144
    outer loop
      vertex 4.18222 -33.3608 1.4424
      vertex 4.10273 33.4364 1.08681
      vertex 4.18222 33.3608 1.4424
    endloop
  endfacet
  facet normal 0.975917 0 -0.218144
    outer loop
      vertex 4.10273 33.4364 1.08681
      vertex 4.18222 -33.3608 1.4424
      vertex 4.10273 -33.4364 1.08681
    endloop
  endfacet
  facet normal 0.612907 0 -0.790155
    outer loop
      vertex 6.10294 -32.3967 4.46898
      vertex 6.39085 32.2973 4.6923
      vertex 6.39085 -32.2973 4.6923
    endloop
  endfacet
  facet normal 0.612907 0 -0.790155
    outer loop
      vertex 6.39085 32.2973 4.6923
      vertex 6.10294 -32.3967 4.46898
      vertex 6.10294 32.3967 4.46898
    endloop
  endfacet
  facet normal 0.453989 0 -0.891007
    outer loop
      vertex 7.00583 -32.1003 5.08258
      vertex 7.33048 31.9801 5.248
      vertex 7.33048 -31.9801 5.248
    endloop
  endfacet
  facet normal 0.453989 0 -0.891007
    outer loop
      vertex 7.33048 31.9801 5.248
      vertex 7.00583 -32.1003 5.08258
      vertex 7.00583 32.1003 5.08258
    endloop
  endfacet
  facet normal 0.397148 0 -0.917755
    outer loop
      vertex 7.33048 -31.9801 5.248
      vertex 7.66488 31.8749 5.3927
      vertex 7.66488 -31.8749 5.3927
    endloop
  endfacet
  facet normal 0.397148 0 -0.917755
    outer loop
      vertex 7.66488 31.8749 5.3927
      vertex 7.33048 -31.9801 5.248
      vertex 7.33048 31.9801 5.248
    endloop
  endfacet
  facet normal 0.27899 0 -0.960294
    outer loop
      vertex 8.0077 -31.7853 5.51613
      vertex 8.3576 31.7114 5.61778
      vertex 8.3576 -31.7114 5.61778
    endloop
  endfacet
  facet normal 0.27899 0 -0.960294
    outer loop
      vertex 8.3576 31.7114 5.61778
      vertex 8.0077 -31.7853 5.51613
      vertex 8.0077 31.7853 5.51613
    endloop
  endfacet
  facet normal 0.218144 0 -0.975917
    outer loop
      vertex 8.3576 -31.7114 5.61778
      vertex 8.71319 31.6537 5.69727
      vertex 8.71319 -31.6537 5.69727
    endloop
  endfacet
  facet normal 0.218144 0 -0.975917
    outer loop
      vertex 8.71319 31.6537 5.69727
      vertex 8.3576 -31.7114 5.61778
      vertex 8.3576 31.7114 5.61778
    endloop
  endfacet
  facet normal 0.707107 0 0.707107
    outer loop
      vertex 5.57198 32.6187 -3.97037
      vertex 5.82963 -32.504 -4.22802
      vertex 5.82963 32.504 -4.22802
    endloop
  endfacet
  facet normal 0.707107 0 0.707107
    outer loop
      vertex 5.82963 -32.504 -4.22802
      vertex 5.57198 32.6187 -3.97037
      vertex 5.57198 -32.6187 -3.97037
    endloop
  endfacet
  facet normal 0.891007 0 0.45399
    outer loop
      vertex 4.552 33.1425 -2.46952
      vertex 4.71742 -33.0735 -2.79417
      vertex 4.71742 33.0735 -2.79417
    endloop
  endfacet
  facet normal 0.891007 0 0.45399
    outer loop
      vertex 4.71742 -33.0735 -2.79417
      vertex 4.552 33.1425 -2.46952
      vertex 4.552 -33.1425 -2.46952
    endloop
  endfacet
  facet normal 0.975917 0 0.218144
    outer loop
      vertex 4.10273 33.4364 -1.08681
      vertex 4.18222 -33.3608 -1.4424
      vertex 4.18222 33.3608 -1.4424
    endloop
  endfacet
  facet normal 0.975917 0 0.218144
    outer loop
      vertex 4.18222 -33.3608 -1.4424
      vertex 4.10273 33.4364 -1.08681
      vertex 4.10273 -33.4364 -1.08681
    endloop
  endfacet
  facet normal 0.960294 0 0.27899
    outer loop
      vertex 4.18222 33.3608 -1.4424
      vertex 4.28387 -33.2864 -1.7923
      vertex 4.28387 33.2864 -1.7923
    endloop
  endfacet
  facet normal 0.960294 0 0.27899
    outer loop
      vertex 4.28387 -33.2864 -1.7923
      vertex 4.18222 33.3608 -1.4424
      vertex 4.18222 -33.3608 -1.4424
    endloop
  endfacet
  facet normal 0.940881 0 0.338739
    outer loop
      vertex 4.28387 33.2864 -1.7923
      vertex 4.4073 -33.2136 -2.13512
      vertex 4.4073 33.2136 -2.13512
    endloop
  endfacet
  facet normal 0.940881 0 0.338739
    outer loop
      vertex 4.4073 -33.2136 -2.13512
      vertex 4.28387 33.2864 -1.7923
      vertex 4.28387 -33.2864 -1.7923
    endloop
  endfacet
  facet normal 0.827081 0 -0.562083
    outer loop
      vertex 5.1077 -32.8685 3.40915
      vertex 4.9029 33.0027 3.10779
      vertex 5.1077 32.8685 3.40915
    endloop
  endfacet
  facet normal 0.827081 0 -0.562083
    outer loop
      vertex 4.9029 33.0027 3.10779
      vertex 5.1077 -32.8685 3.40915
      vertex 4.9029 -33.0027 3.10779
    endloop
  endfacet
  facet normal 0.750111 0 -0.661312
    outer loop
      vertex 5.57198 -32.6187 3.97037
      vertex 5.33102 32.7404 3.69706
      vertex 5.57198 32.6187 3.97037
    endloop
  endfacet
  facet normal 0.750111 0 -0.661312
    outer loop
      vertex 5.33102 32.7404 3.69706
      vertex 5.57198 -32.6187 3.97037
      vertex 5.33102 -32.7404 3.69706
    endloop
  endfacet
  facet normal 0.999507 0 -0.0314084
    outer loop
      vertex 4.01144 -33.4452 0.364184
      vertex 4 33.4452 0
      vertex 4.01144 33.4452 0.364184
    endloop
  endfacet
  facet normal 0.999507 0 -0.0314084
    outer loop
      vertex 4 33.4452 0
      vertex 4.01144 -33.4452 0.364184
      vertex 4 -33.4452 0
    endloop
  endfacet
  facet normal 0.999507 -0 0.0314084
    outer loop
      vertex 4 -33.4452 0
      vertex 4.01144 33.4452 -0.364184
      vertex 4 33.4452 0
    endloop
  endfacet
  facet normal 0.999507 0 0.0314084
    outer loop
      vertex 4.01144 33.4452 -0.364184
      vertex 4 -33.4452 0
      vertex 4.01144 -33.4452 -0.364184
    endloop
  endfacet
  facet normal 0.509043 2.22706e-08 -0.860741
    outer loop
      vertex 6.6922 -32.2061 4.8971
      vertex 7.00583 -32.1003 5.08258
      vertex 6.8662 -32.1603 5
    endloop
  endfacet
  facet normal 0.509043 0 -0.860741
    outer loop
      vertex 7.00583 -32.1003 5.08258
      vertex 6.6922 -32.2061 4.8971
      vertex 7.00583 32.1003 5.08258
    endloop
  endfacet
  facet normal 0.509043 0 -0.860741
    outer loop
      vertex 6.6922 32.2061 4.8971
      vertex 7.00583 32.1003 5.08258
      vertex 6.6922 -32.2061 4.8971
    endloop
  endfacet
  facet normal 0.509041 -7.21137e-06 -0.860742
    outer loop
      vertex 7.00583 32.1003 5.08258
      vertex 6.6922 32.2061 4.8971
      vertex 6.86619 32.1603 5
    endloop
  endfacet
  facet normal 0.338739 0 -0.940881
    outer loop
      vertex 7.66488 -31.8749 5.3927
      vertex 8.0077 31.7853 5.51613
      vertex 8.0077 -31.7853 5.51613
    endloop
  endfacet
  facet normal 0.338739 0 -0.940881
    outer loop
      vertex 8.0077 31.7853 5.51613
      vertex 7.66488 -31.8749 5.3927
      vertex 7.66488 31.8749 5.3927
    endloop
  endfacet
  facet normal 0.156435 0 -0.987688
    outer loop
      vertex 8.71319 -31.6537 5.69727
      vertex 9.07307 31.6122 5.75426
      vertex 9.07307 -31.6122 5.75426
    endloop
  endfacet
  facet normal 0.156435 0 -0.987688
    outer loop
      vertex 9.07307 31.6122 5.75426
      vertex 8.71319 -31.6537 5.69727
      vertex 8.71319 31.6537 5.69727
    endloop
  endfacet
  facet normal 0.156435 0 0.987688
    outer loop
      vertex 8.71319 31.6537 -5.69727
      vertex 9.07307 -31.6122 -5.75426
      vertex 9.07307 31.6122 -5.75426
    endloop
  endfacet
  facet normal 0.156435 0 0.987688
    outer loop
      vertex 9.07307 -31.6122 -5.75426
      vertex 8.71319 31.6537 -5.69727
      vertex 8.71319 -31.6537 -5.69727
    endloop
  endfacet
  facet normal 0.27899 0 0.960294
    outer loop
      vertex 8.0077 31.7853 -5.51613
      vertex 8.3576 -31.7114 -5.61778
      vertex 8.3576 31.7114 -5.61778
    endloop
  endfacet
  facet normal 0.27899 0 0.960294
    outer loop
      vertex 8.3576 -31.7114 -5.61778
      vertex 8.0077 31.7853 -5.51613
      vertex 8.0077 -31.7853 -5.51613
    endloop
  endfacet
  facet normal 0.750111 0 0.661312
    outer loop
      vertex 5.33102 32.7404 -3.69706
      vertex 5.57198 -32.6187 -3.97037
      vertex 5.57198 32.6187 -3.97037
    endloop
  endfacet
  facet normal 0.750111 0 0.661312
    outer loop
      vertex 5.57198 -32.6187 -3.97037
      vertex 5.33102 32.7404 -3.69706
      vertex 5.33102 -32.7404 -3.69706
    endloop
  endfacet
  facet normal 0.827081 0 0.562083
    outer loop
      vertex 4.9029 33.0027 -3.10779
      vertex 5.1077 -32.8685 -3.40915
      vertex 5.1077 32.8685 -3.40915
    endloop
  endfacet
  facet normal 0.827081 0 0.562083
    outer loop
      vertex 5.1077 -32.8685 -3.40915
      vertex 4.9029 33.0027 -3.10779
      vertex 4.9029 -33.0027 -3.10779
    endloop
  endfacet
  facet normal 0.860738 -3.20933e-05 0.509047
    outer loop
      vertex 4.71742 33.0735 -2.79417
      vertex 4.9029 33.0027 -3.10779
      vertex 4.89247 33.0106 -3.09017
    endloop
  endfacet
  facet normal 0.860742 0 0.509042
    outer loop
      vertex 4.71742 33.0735 -2.79417
      vertex 4.9029 -33.0027 -3.10779
      vertex 4.9029 33.0027 -3.10779
    endloop
  endfacet
  facet normal 0.860742 -0 0.509042
    outer loop
      vertex 4.71742 -33.0735 -2.79417
      vertex 4.9029 -33.0027 -3.10779
      vertex 4.71742 33.0735 -2.79417
    endloop
  endfacet
  facet normal 0.860738 3.20933e-05 0.509047
    outer loop
      vertex 4.9029 -33.0027 -3.10779
      vertex 4.71742 -33.0735 -2.79417
      vertex 4.89247 -33.0106 -3.09017
    endloop
  endfacet
  facet normal 0.987688 -2.38314e-05 0.156435
    outer loop
      vertex 4.04573 33.4452 -0.726933
      vertex 4.10273 33.4364 -1.08681
      vertex 4.09616 33.4452 -1.04528
    endloop
  endfacet
  facet normal 0.987688 0 0.156435
    outer loop
      vertex 4.04573 33.4452 -0.726933
      vertex 4.10273 -33.4364 -1.08681
      vertex 4.10273 33.4364 -1.08681
    endloop
  endfacet
  facet normal 0.987688 -0 0.156435
    outer loop
      vertex 4.04573 -33.4452 -0.726933
      vertex 4.10273 -33.4364 -1.08681
      vertex 4.04573 33.4452 -0.726933
    endloop
  endfacet
  facet normal 0.987688 2.38314e-05 0.156435
    outer loop
      vertex 4.10273 -33.4364 -1.08681
      vertex 4.04573 -33.4452 -0.726933
      vertex 4.09616 -33.4452 -1.04528
    endloop
  endfacet
  facet normal 0.995562 -0 0.0941097
    outer loop
      vertex 4.01144 -33.4452 -0.364184
      vertex 4.04573 33.4452 -0.726933
      vertex 4.01144 33.4452 -0.364184
    endloop
  endfacet
  facet normal 0.995562 0 0.0941097
    outer loop
      vertex 4.04573 33.4452 -0.726933
      vertex 4.01144 -33.4452 -0.364184
      vertex 4.04573 -33.4452 -0.726933
    endloop
  endfacet
  facet normal 0.790156 0 -0.612906
    outer loop
      vertex 5.33102 -32.7404 3.69706
      vertex 5.1077 32.8685 3.40915
      vertex 5.33102 32.7404 3.69706
    endloop
  endfacet
  facet normal 0.790156 0 -0.612906
    outer loop
      vertex 5.1077 32.8685 3.40915
      vertex 5.33102 -32.7404 3.69706
      vertex 5.1077 -32.8685 3.40915
    endloop
  endfacet
  facet normal 0.562083 0 0.827081
    outer loop
      vertex 6.39085 32.2973 -4.6923
      vertex 6.6922 -32.2061 -4.8971
      vertex 6.6922 32.2061 -4.8971
    endloop
  endfacet
  facet normal 0.562083 0 0.827081
    outer loop
      vertex 6.6922 -32.2061 -4.8971
      vertex 6.39085 32.2973 -4.6923
      vertex 6.39085 -32.2973 -4.6923
    endloop
  endfacet
  facet normal 0.338739 0 0.940881
    outer loop
      vertex 7.66488 31.8749 -5.3927
      vertex 8.0077 -31.7853 -5.51613
      vertex 8.0077 31.7853 -5.51613
    endloop
  endfacet
  facet normal 0.338739 0 0.940881
    outer loop
      vertex 8.0077 -31.7853 -5.51613
      vertex 7.66488 31.8749 -5.3927
      vertex 7.66488 -31.8749 -5.3927
    endloop
  endfacet
  facet normal 0.509043 -2.22706e-08 0.860741
    outer loop
      vertex 6.6922 32.2061 -4.8971
      vertex 7.00583 32.1003 -5.08258
      vertex 6.8662 32.1603 -5
    endloop
  endfacet
  facet normal 0.509043 0 0.860741
    outer loop
      vertex 7.00583 32.1003 -5.08258
      vertex 6.6922 32.2061 -4.8971
      vertex 7.00583 -32.1003 -5.08258
    endloop
  endfacet
  facet normal 0.509043 -0 0.860741
    outer loop
      vertex 6.6922 -32.2061 -4.8971
      vertex 7.00583 -32.1003 -5.08258
      vertex 6.6922 32.2061 -4.8971
    endloop
  endfacet
  facet normal 0.509043 2.22706e-08 0.860741
    outer loop
      vertex 7.00583 -32.1003 -5.08258
      vertex 6.6922 -32.2061 -4.8971
      vertex 6.8662 -32.1603 -5
    endloop
  endfacet
  facet normal 0.66131 0 0.750112
    outer loop
      vertex 5.82963 32.504 -4.22802
      vertex 6.10294 -32.3967 -4.46898
      vertex 6.10294 32.3967 -4.46898
    endloop
  endfacet
  facet normal 0.66131 0 0.750112
    outer loop
      vertex 6.10294 -32.3967 -4.46898
      vertex 5.82963 32.504 -4.22802
      vertex 5.82963 -32.504 -4.22802
    endloop
  endfacet
  facet normal 0.612907 0 0.790155
    outer loop
      vertex 6.10294 32.3967 -4.46898
      vertex 6.39085 -32.2973 -4.6923
      vertex 6.39085 32.2973 -4.6923
    endloop
  endfacet
  facet normal 0.612907 0 0.790155
    outer loop
      vertex 6.39085 -32.2973 -4.6923
      vertex 6.10294 32.3967 -4.46898
      vertex 6.10294 -32.3967 -4.46898
    endloop
  endfacet
  facet normal 0.218144 0 0.975917
    outer loop
      vertex 8.3576 31.7114 -5.61778
      vertex 8.71319 -31.6537 -5.69727
      vertex 8.71319 31.6537 -5.69727
    endloop
  endfacet
  facet normal 0.218144 0 0.975917
    outer loop
      vertex 8.71319 -31.6537 -5.69727
      vertex 8.3576 31.7114 -5.61778
      vertex 8.3576 -31.7114 -5.61778
    endloop
  endfacet
  facet normal 0.0941071 0 0.995562
    outer loop
      vertex 9.07307 31.6122 -5.75426
      vertex 9.43581 -31.5873 -5.78855
      vertex 9.43581 31.5873 -5.78855
    endloop
  endfacet
  facet normal 0.0941071 0 0.995562
    outer loop
      vertex 9.43581 -31.5873 -5.78855
      vertex 9.07307 31.6122 -5.75426
      vertex 9.07307 -31.6122 -5.75426
    endloop
  endfacet
  facet normal 0.031411 0 0.999507
    outer loop
      vertex 9.43581 31.5873 -5.78855
      vertex 9.8 -31.579 -5.8
      vertex 9.8 31.579 -5.8
    endloop
  endfacet
  facet normal 0.031411 0 0.999507
    outer loop
      vertex 9.8 -31.579 -5.8
      vertex 9.43581 31.5873 -5.78855
      vertex 9.43581 -31.5873 -5.78855
    endloop
  endfacet
  facet normal 0.453989 0 0.891007
    outer loop
      vertex 7.00583 32.1003 -5.08258
      vertex 7.33048 -31.9801 -5.248
      vertex 7.33048 31.9801 -5.248
    endloop
  endfacet
  facet normal 0.453989 0 0.891007
    outer loop
      vertex 7.33048 -31.9801 -5.248
      vertex 7.00583 32.1003 -5.08258
      vertex 7.00583 -32.1003 -5.08258
    endloop
  endfacet
  facet normal 0.397148 0 0.917755
    outer loop
      vertex 7.33048 31.9801 -5.248
      vertex 7.66488 -31.8749 -5.3927
      vertex 7.66488 31.8749 -5.3927
    endloop
  endfacet
  facet normal 0.397148 0 0.917755
    outer loop
      vertex 7.66488 -31.8749 -5.3927
      vertex 7.33048 31.9801 -5.248
      vertex 7.33048 -31.9801 -5.248
    endloop
  endfacet
  facet normal -1 0 0
    outer loop
      vertex 0 23.7143 0
      vertex 0 33.4452 -1.04528
      vertex 0 33.0106 -3.09017
    endloop
  endfacet
  facet normal -1 0 0
    outer loop
      vertex 0 33.4452 -1.04528
      vertex 0 23.7143 0
      vertex 0 33.4452 1.04528
    endloop
  endfacet
  facet normal -1 0 0
    outer loop
      vertex 0 23.3506 -1.35714
      vertex 0 33.0106 -3.09017
      vertex 0 32.1603 -5
    endloop
  endfacet
  facet normal -1 -0 0
    outer loop
      vertex 0 33.4452 1.04528
      vertex 0 23.7143 0
      vertex 0 33.0106 3.09017
    endloop
  endfacet
  facet normal -1 0 0
    outer loop
      vertex 0 23.2167 -1.85714
      vertex 0 32.1603 -5
      vertex 0 30.9314 -6.69131
    endloop
  endfacet
  facet normal -1 0 0
    outer loop
      vertex 0 23.3506 1.35714
      vertex 0 33.0106 3.09017
      vertex 0 23.7143 0
    endloop
  endfacet
  facet normal -1 0 0
    outer loop
      vertex 0 23.2167 -1.85714
      vertex 0 30.9314 -6.69131
      vertex 0 29.3779 -8.09017
    endloop
  endfacet
  facet normal -1 -0 0
    outer loop
      vertex 0 33.0106 3.09017
      vertex 0 23.3506 1.35714
      vertex 0 32.1603 5
    endloop
  endfacet
  facet normal -1 0 0
    outer loop
      vertex 0 23.2167 -1.85714
      vertex 0 29.3779 -8.09017
      vertex 0 27.5674 -9.13545
    endloop
  endfacet
  facet normal -1 0 0
    outer loop
      vertex 0 23.2167 1.85714
      vertex 0 32.1603 5
      vertex 0 23.3506 1.35714
    endloop
  endfacet
  facet normal -1 0 0
    outer loop
      vertex 0 21.8571 -3.21667
      vertex 0 27.5674 -9.13545
      vertex 0 25.5791 -9.78148
    endloop
  endfacet
  facet normal -1 -0 0
    outer loop
      vertex 0 32.1603 5
      vertex 0 23.2167 1.85714
      vertex 0 30.9314 6.69131
    endloop
  endfacet
  facet normal -1 0 0
    outer loop
      vertex 0 21.8571 -3.21667
      vertex 0 25.5791 -9.78148
      vertex 0 25.4029 -9.8
    endloop
  endfacet
  facet normal -1 -0 0
    outer loop
      vertex 0 30.9314 6.69131
      vertex 0 23.2167 1.85714
      vertex 0 29.3779 8.09017
    endloop
  endfacet
  facet normal -1 -0 0
    outer loop
      vertex 0 29.3779 8.09017
      vertex 0 23.2167 1.85714
      vertex 0 27.5674 9.13545
    endloop
  endfacet
  facet normal -1 0 0
    outer loop
      vertex 0 33.0106 -3.09017
      vertex 0 23.3506 -1.35714
      vertex 0 23.7143 0
    endloop
  endfacet
  facet normal -1 0 0
    outer loop
      vertex 0 32.1603 -5
      vertex 0 23.2167 -1.85714
      vertex 0 23.3506 -1.35714
    endloop
  endfacet
  facet normal -1 0 0
    outer loop
      vertex 0 27.5674 -9.13545
      vertex 0 21.8571 -3.21667
      vertex 0 23.2167 -1.85714
    endloop
  endfacet
  facet normal -1 0 0
    outer loop
      vertex 0 25.4029 -9.8
      vertex 0 21.3571 -3.35064
      vertex 0 21.8571 -3.21667
    endloop
  endfacet
  facet normal -1 0 0
    outer loop
      vertex 0 25.4029 -9.8
      vertex 0 20 -3.71429
      vertex 0 21.3571 -3.35064
    endloop
  endfacet
  facet normal -1 0 0
    outer loop
      vertex 0 25.4029 -9.8
      vertex 0 18.6429 -3.35064
      vertex 0 20 -3.71429
    endloop
  endfacet
  facet normal -1 0 0
    outer loop
      vertex 0 25.4029 -9.8
      vertex 0 18.1429 -3.21667
      vertex 0 18.6429 -3.35064
    endloop
  endfacet
  facet normal -1 0 0
    outer loop
      vertex 0 -16.4197 -0.5
      vertex 0 16.4197 -0.5
      vertex 0 16.7833 -1.85714
    endloop
  endfacet
  facet normal -1 0 0
    outer loop
      vertex 0 16.4197 -0.5
      vertex 0 -16.4197 -0.5
      vertex 0 16.2857 0
    endloop
  endfacet
  facet normal -1 0 0
    outer loop
      vertex 0 -16.7833 -1.85714
      vertex 0 16.7833 -1.85714
      vertex 0 17.7768 -2.85064
    endloop
  endfacet
  facet normal -1 0 0
    outer loop
      vertex 0 -17.7768 -2.85064
      vertex 0 17.7768 -2.85064
      vertex 0 18.1429 -3.21667
    endloop
  endfacet
  facet normal -1 0 0
    outer loop
      vertex 0 -18.1429 -3.21667
      vertex 0 18.1429 -3.21667
      vertex 0 25.4029 -9.8
    endloop
  endfacet
  facet normal -1 -0 0
    outer loop
      vertex 0 16.2857 0
      vertex 0 -16.4197 -0.5
      vertex 0 -16.2857 0
    endloop
  endfacet
  facet normal -1 0 0
    outer loop
      vertex 0 16.7833 -1.85714
      vertex 0 -16.7833 -1.85714
      vertex 0 -16.4197 -0.5
    endloop
  endfacet
  facet normal -1 0 0
    outer loop
      vertex 0 17.7768 -2.85064
      vertex 0 -17.7768 -2.85064
      vertex 0 -16.7833 -1.85714
    endloop
  endfacet
  facet normal -1 0 0
    outer loop
      vertex 0 18.1429 -3.21667
      vertex 0 -18.1429 -3.21667
      vertex 0 -17.7768 -2.85064
    endloop
  endfacet
  facet normal -1 0 0
    outer loop
      vertex 0 -25.4029 -9.8
      vertex 0 -18.1429 -3.21667
      vertex 0 25.4029 -9.8
    endloop
  endfacet
  facet normal -1 0 0
    outer loop
      vertex 0 -18.1429 -3.21667
      vertex 0 -25.4029 -9.8
      vertex 0 -18.6429 -3.35064
    endloop
  endfacet
  facet normal -1 0 0
    outer loop
      vertex 0 -32.1603 -5
      vertex 0 -23.3506 -1.35714
      vertex 0 -23.2167 -1.85714
    endloop
  endfacet
  facet normal -1 0 0
    outer loop
      vertex 0 -27.5674 -9.13545
      vertex 0 -21.8571 -3.21667
      vertex 0 -25.5791 -9.78148
    endloop
  endfacet
  facet normal -1 0 0
    outer loop
      vertex 0 -25.5791 -9.78148
      vertex 0 -21.8571 -3.21667
      vertex 0 -25.4029 -9.8
    endloop
  endfacet
  facet normal -1 -0 0
    outer loop
      vertex 0 -21.3571 -3.35064
      vertex 0 -25.4029 -9.8
      vertex 0 -21.8571 -3.21667
    endloop
  endfacet
  facet normal -1 -0 0
    outer loop
      vertex 0 -20 -3.71429
      vertex 0 -25.4029 -9.8
      vertex 0 -21.3571 -3.35064
    endloop
  endfacet
  facet normal -1 0 0
    outer loop
      vertex 0 -18.6429 -3.35064
      vertex 0 -25.4029 -9.8
      vertex 0 -20 -3.71429
    endloop
  endfacet
  facet normal -1 0 0
    outer loop
      vertex 0 22.8506 2.22317
      vertex 0 27.5674 9.13545
      vertex 0 23.2167 1.85714
    endloop
  endfacet
  facet normal -1 -0 0
    outer loop
      vertex 0 27.5674 9.13545
      vertex 0 22.8506 2.22317
      vertex 0 25.5791 9.78148
    endloop
  endfacet
  facet normal -1 0 0
    outer loop
      vertex 0 21.8571 3.21667
      vertex 0 25.5791 9.78148
      vertex 0 22.8506 2.22317
    endloop
  endfacet
  facet normal -1 -0 0
    outer loop
      vertex 0 25.5791 9.78148
      vertex 0 21.8571 3.21667
      vertex 0 25.4029 9.8
    endloop
  endfacet
  facet normal -1 0 0
    outer loop
      vertex 0 20.5 3.58031
      vertex 0 25.4029 9.8
      vertex 0 21.8571 3.21667
    endloop
  endfacet
  facet normal -1 0 0
    outer loop
      vertex 0 20 3.71428
      vertex 0 25.4029 9.8
      vertex 0 20.5 3.58031
    endloop
  endfacet
  facet normal -1 0 0
    outer loop
      vertex 0 19.5 3.58031
      vertex 0 25.4029 9.8
      vertex 0 20 3.71428
    endloop
  endfacet
  facet normal -1 0 0
    outer loop
      vertex 0 18.1429 3.21667
      vertex 0 25.4029 9.8
      vertex 0 19.5 3.58031
    endloop
  endfacet
  facet normal -1 0 0
    outer loop
      vertex 0 -16.4197 0.5
      vertex 0 16.4197 0.5
      vertex 0 16.2857 0
    endloop
  endfacet
  facet normal -1 0 0
    outer loop
      vertex 0 -16.4197 0.5
      vertex 0 16.2857 0
      vertex 0 -16.2857 0
    endloop
  endfacet
  facet normal -1 -0 0
    outer loop
      vertex 0 16.4197 0.5
      vertex 0 -16.4197 0.5
      vertex 0 16.7833 1.85714
    endloop
  endfacet
  facet normal -1 0 0
    outer loop
      vertex 0 -16.7833 1.85714
      vertex 0 16.7833 1.85714
      vertex 0 -16.4197 0.5
    endloop
  endfacet
  facet normal -1 -0 0
    outer loop
      vertex 0 16.7833 1.85714
      vertex 0 -16.7833 1.85714
      vertex 0 17.7768 2.85064
    endloop
  endfacet
  facet normal -1 0 0
    outer loop
      vertex 0 -17.7768 2.85064
      vertex 0 17.7768 2.85064
      vertex 0 -16.7833 1.85714
    endloop
  endfacet
  facet normal -1 -0 0
    outer loop
      vertex 0 17.7768 2.85064
      vertex 0 -17.7768 2.85064
      vertex 0 18.1429 3.21667
    endloop
  endfacet
  facet normal -1 0 0
    outer loop
      vertex 0 -18.1429 3.21667
      vertex 0 18.1429 3.21667
      vertex 0 -17.7768 2.85064
    endloop
  endfacet
  facet normal -1 0 0
    outer loop
      vertex 0 18.1429 3.21667
      vertex 0 -18.1429 3.21667
      vertex 0 25.4029 9.8
    endloop
  endfacet
  facet normal -1 0 0
    outer loop
      vertex 0 -25.4029 9.8
      vertex 0 -18.1429 3.21667
      vertex 0 -19.5 3.58031
    endloop
  endfacet
  facet normal -1 0 0
    outer loop
      vertex 0 -25.4029 9.8
      vertex 0 -19.5 3.58031
      vertex 0 -20 3.71428
    endloop
  endfacet
  facet normal -1 0 0
    outer loop
      vertex 0 -27.5674 9.13545
      vertex 0 -22.2232 2.85064
      vertex 0 -23.2167 1.85714
    endloop
  endfacet
  facet normal -1 0 0
    outer loop
      vertex 0 -33.0106 3.09017
      vertex 0 -23.3506 1.35714
      vertex 0 -23.7143 0
    endloop
  endfacet
  facet normal -1 0 0
    outer loop
      vertex 0 -18.1429 3.21667
      vertex 0 -25.4029 9.8
      vertex 0 25.4029 9.8
    endloop
  endfacet
  facet normal -1 0 0
    outer loop
      vertex 0 -20.5 3.58031
      vertex 0 -25.4029 9.8
      vertex 0 -20 3.71428
    endloop
  endfacet
  facet normal -1 0 0
    outer loop
      vertex 0 -21.8571 3.21667
      vertex 0 -25.4029 9.8
      vertex 0 -20.5 3.58031
    endloop
  endfacet
  facet normal -1 0 -0
    outer loop
      vertex 0 -25.5791 9.78148
      vertex 0 -22.2232 2.85064
      vertex 0 -27.5674 9.13545
    endloop
  endfacet
  facet normal -1 0 0
    outer loop
      vertex 0 -23.3506 1.35714
      vertex 0 -32.1603 5
      vertex 0 -23.2167 1.85714
    endloop
  endfacet
  facet normal -1 -0 0
    outer loop
      vertex 0 -21.8571 -3.21667
      vertex 0 -27.5674 -9.13545
      vertex 0 -23.2167 -1.85714
    endloop
  endfacet
  facet normal -1 0 0
    outer loop
      vertex 0 -29.3779 -8.09017
      vertex 0 -23.2167 -1.85714
      vertex 0 -27.5674 -9.13545
    endloop
  endfacet
  facet normal -1 0 0
    outer loop
      vertex 0 -30.9314 -6.69131
      vertex 0 -23.2167 -1.85714
      vertex 0 -29.3779 -8.09017
    endloop
  endfacet
  facet normal -1 0 -0
    outer loop
      vertex 0 -25.4029 9.8
      vertex 0 -22.2232 2.85064
      vertex 0 -25.5791 9.78148
    endloop
  endfacet
  facet normal -1 0 0
    outer loop
      vertex 0 -22.2232 2.85064
      vertex 0 -25.4029 9.8
      vertex 0 -21.8571 3.21667
    endloop
  endfacet
  facet normal -1 0 0
    outer loop
      vertex 0 -32.1603 -5
      vertex 0 -23.2167 -1.85714
      vertex 0 -30.9314 -6.69131
    endloop
  endfacet
  facet normal -1 0 0
    outer loop
      vertex 0 -23.2167 1.85714
      vertex 0 -29.3779 8.09017
      vertex 0 -27.5674 9.13545
    endloop
  endfacet
  facet normal -1 0 0
    outer loop
      vertex 0 -33.0106 -3.09017
      vertex 0 -23.3506 -1.35714
      vertex 0 -32.1603 -5
    endloop
  endfacet
  facet normal -1 0 0
    outer loop
      vertex 0 -23.2167 1.85714
      vertex 0 -30.9314 6.69131
      vertex 0 -29.3779 8.09017
    endloop
  endfacet
  facet normal -1 -0 0
    outer loop
      vertex 0 -23.3506 -1.35714
      vertex 0 -33.0106 -3.09017
      vertex 0 -23.7143 0
    endloop
  endfacet
  facet normal -1 0 0
    outer loop
      vertex 0 -23.2167 1.85714
      vertex 0 -32.1603 5
      vertex 0 -30.9314 6.69131
    endloop
  endfacet
  facet normal -1 0 0
    outer loop
      vertex 0 -33.4452 -1.04528
      vertex 0 -23.7143 0
      vertex 0 -33.0106 -3.09017
    endloop
  endfacet
  facet normal -1 0 0
    outer loop
      vertex 0 -23.3506 1.35714
      vertex 0 -33.0106 3.09017
      vertex 0 -32.1603 5
    endloop
  endfacet
  facet normal -1 0 0
    outer loop
      vertex 0 -33.4452 1.04528
      vertex 0 -23.7143 0
      vertex 0 -33.4452 -1.04528
    endloop
  endfacet
  facet normal -1 0 0
    outer loop
      vertex 0 -23.7143 0
      vertex 0 -33.4452 1.04528
      vertex 0 -33.0106 3.09017
    endloop
  endfacet
  facet normal -0 0 1
    outer loop
      vertex 0 25.4029 9.8
      vertex 11 23.5 9.8
      vertex 11 25.4029 9.8
    endloop
  endfacet
  facet normal 0 0 1
    outer loop
      vertex 11 23.5 9.8
      vertex 0 25.4029 9.8
      vertex 11 -23.5 9.8
    endloop
  endfacet
  facet normal 0 0 1
    outer loop
      vertex 0 -25.4029 9.8
      vertex 11 -23.5 9.8
      vertex 0 25.4029 9.8
    endloop
  endfacet
  facet normal 0 0 1
    outer loop
      vertex 11 -23.5 9.8
      vertex 0 -25.4029 9.8
      vertex 11 -25.4029 9.8
    endloop
  endfacet
  facet normal 0 0 -1
    outer loop
      vertex 0 -25.4029 -9.8
      vertex 11 -21.5971 -9.8
      vertex 11 -25.4029 -9.8
    endloop
  endfacet
  facet normal -0 0 -1
    outer loop
      vertex 11 -21.5971 -9.8
      vertex 0 -25.4029 -9.8
      vertex 11 21.5971 -9.8
    endloop
  endfacet
  facet normal 0 0 -1
    outer loop
      vertex 0 25.4029 -9.8
      vertex 11 21.5971 -9.8
      vertex 0 -25.4029 -9.8
    endloop
  endfacet
  facet normal 0 0 -1
    outer loop
      vertex 11 21.5971 -9.8
      vertex 0 25.4029 -9.8
      vertex 11 25.4029 -9.8
    endloop
  endfacet
  facet normal -0.020694 -0.706955 -0.706955
    outer loop
      vertex 0 16.7833 -1.85714
      vertex -10 16.9689 -1.75
      vertex 0 17.7768 -2.85064
    endloop
  endfacet
  facet normal -0.0206941 -0.965718 -0.258766
    outer loop
      vertex -10 16.5 0
      vertex 0 16.4197 -0.5
      vertex 0 16.2857 0
    endloop
  endfacet
  facet normal -0.0206939 -0.965719 -0.258763
    outer loop
      vertex 0 16.4197 -0.5
      vertex -10 16.5 0
      vertex -10 16.9689 -1.75
    endloop
  endfacet
  facet normal -0.0206939 0.258763 -0.965719
    outer loop
      vertex 0 20 -3.71429
      vertex -10 20 -3.5
      vertex 0 21.3571 -3.35064
    endloop
  endfacet
  facet normal -0.020694 0.258764 -0.965719
    outer loop
      vertex -10 21.75 -3.03109
      vertex 0 21.3571 -3.35064
      vertex -10 20 -3.5
    endloop
  endfacet
  facet normal -0.020694 0.258764 -0.965719
    outer loop
      vertex 0 21.3571 -3.35064
      vertex -10 21.75 -3.03109
      vertex 0 21.8571 -3.21667
    endloop
  endfacet
  facet normal -0.020694 -0.258764 -0.965719
    outer loop
      vertex -10 18.25 -3.03109
      vertex 0 18.6429 -3.35064
      vertex 0 18.1429 -3.21667
    endloop
  endfacet
  facet normal -0.020694 -0.258764 -0.965719
    outer loop
      vertex 0 18.6429 -3.35064
      vertex -10 18.25 -3.03109
      vertex -10 20 -3.5
    endloop
  endfacet
  facet normal -0.0206939 -0.258763 -0.965719
    outer loop
      vertex 0 18.6429 -3.35064
      vertex -10 20 -3.5
      vertex 0 20 -3.71429
    endloop
  endfacet
  facet normal -0.020694 -0.706955 0.706956
    outer loop
      vertex -10 18.25 3.03109
      vertex 0 17.7768 2.85064
      vertex 0 18.1429 3.21667
    endloop
  endfacet
  facet normal -0.020694 -0.706955 0.706956
    outer loop
      vertex 0 17.7768 2.85064
      vertex -10 18.25 3.03109
      vertex -10 16.9689 1.75
    endloop
  endfacet
  facet normal -0.020694 -0.706955 -0.706956
    outer loop
      vertex -10 18.25 -3.03109
      vertex 0 17.7768 -2.85064
      vertex -10 16.9689 -1.75
    endloop
  endfacet
  facet normal -0.020694 -0.706955 -0.706956
    outer loop
      vertex 0 17.7768 -2.85064
      vertex -10 18.25 -3.03109
      vertex 0 18.1429 -3.21667
    endloop
  endfacet
  facet normal -0.020694 -0.965719 -0.258763
    outer loop
      vertex 0 16.4197 -0.5
      vertex -10 16.9689 -1.75
      vertex 0 16.7833 -1.85714
    endloop
  endfacet
  facet normal -0.020694 -0.965719 0.258763
    outer loop
      vertex 0 16.7833 1.85714
      vertex -10 16.9689 1.75
      vertex 0 16.4197 0.5
    endloop
  endfacet
  facet normal -0.020694 -0.706955 0.706955
    outer loop
      vertex 0 17.7768 2.85064
      vertex -10 16.9689 1.75
      vertex 0 16.7833 1.85714
    endloop
  endfacet
  facet normal -0.020694 -0.258763 0.965719
    outer loop
      vertex -10 20 3.5
      vertex 0 19.5 3.58031
      vertex 0 20 3.71428
    endloop
  endfacet
  facet normal -0.020694 -0.258763 0.965719
    outer loop
      vertex 0 19.5 3.58031
      vertex -10 20 3.5
      vertex -10 18.25 3.03109
    endloop
  endfacet
  facet normal -0.0206939 0.965719 0.258763
    outer loop
      vertex 0 23.3506 1.35714
      vertex -10 23.0311 1.75
      vertex 0 23.2167 1.85714
    endloop
  endfacet
  facet normal -0.0206938 0.965719 0.258763
    outer loop
      vertex -10 23.0311 1.75
      vertex 0 23.3506 1.35714
      vertex -10 23.5 0
    endloop
  endfacet
  facet normal -0.020694 0.258763 0.965719
    outer loop
      vertex 0 21.8571 3.21667
      vertex -10 21.75 3.03109
      vertex 0 20.5 3.58031
    endloop
  endfacet
  facet normal -0.0206939 -0.965719 0.258763
    outer loop
      vertex -10 16.5 0
      vertex 0 16.4197 0.5
      vertex -10 16.9689 1.75
    endloop
  endfacet
  facet normal -0.0206941 -0.965718 0.258766
    outer loop
      vertex 0 16.4197 0.5
      vertex -10 16.5 0
      vertex 0 16.2857 0
    endloop
  endfacet
  facet normal -1 0 0
    outer loop
      vertex -10 23.0311 -1.75
      vertex -10 23.0311 1.75
      vertex -10 23.5 0
    endloop
  endfacet
  facet normal -1 0 0
    outer loop
      vertex -10 21.75 -3.03109
      vertex -10 23.0311 1.75
      vertex -10 23.0311 -1.75
    endloop
  endfacet
  facet normal -1 0 0
    outer loop
      vertex -10 21.75 -3.03109
      vertex -10 21.75 3.03109
      vertex -10 23.0311 1.75
    endloop
  endfacet
  facet normal -1 0 0
    outer loop
      vertex -10 20 -3.5
      vertex -10 21.75 3.03109
      vertex -10 21.75 -3.03109
    endloop
  endfacet
  facet normal -1 0 0
    outer loop
      vertex -10 20 -3.5
      vertex -10 20 3.5
      vertex -10 21.75 3.03109
    endloop
  endfacet
  facet normal -1 0 0
    outer loop
      vertex -10 18.25 -3.03109
      vertex -10 20 3.5
      vertex -10 20 -3.5
    endloop
  endfacet
  facet normal -1 0 0
    outer loop
      vertex -10 18.25 -3.03109
      vertex -10 18.25 3.03109
      vertex -10 20 3.5
    endloop
  endfacet
  facet normal -1 0 0
    outer loop
      vertex -10 16.9689 -1.75
      vertex -10 18.25 3.03109
      vertex -10 18.25 -3.03109
    endloop
  endfacet
  facet normal -1 0 0
    outer loop
      vertex -10 16.9689 -1.75
      vertex -10 16.9689 1.75
      vertex -10 18.25 3.03109
    endloop
  endfacet
  facet normal -1 0 -0
    outer loop
      vertex -10 16.9689 1.75
      vertex -10 16.9689 -1.75
      vertex -10 16.5 0
    endloop
  endfacet
  facet normal -0.020694 0.706956 0.706955
    outer loop
      vertex 0 22.8506 2.22317
      vertex -10 21.75 3.03109
      vertex 0 21.8571 3.21667
    endloop
  endfacet
  facet normal -0.020694 -0.258763 0.965719
    outer loop
      vertex 0 19.5 3.58031
      vertex -10 18.25 3.03109
      vertex 0 18.1429 3.21667
    endloop
  endfacet
  facet normal -0.0206939 0.706955 0.706956
    outer loop
      vertex -10 23.0311 1.75
      vertex 0 22.8506 2.22317
      vertex 0 23.2167 1.85714
    endloop
  endfacet
  facet normal -0.0206939 0.706955 0.706955
    outer loop
      vertex 0 22.8506 2.22317
      vertex -10 23.0311 1.75
      vertex -10 21.75 3.03109
    endloop
  endfacet
  facet normal -0.020694 0.258763 0.965719
    outer loop
      vertex -10 20 3.5
      vertex 0 20.5 3.58031
      vertex -10 21.75 3.03109
    endloop
  endfacet
  facet normal -0.020694 0.258763 0.965719
    outer loop
      vertex 0 20.5 3.58031
      vertex -10 20 3.5
      vertex 0 20 3.71428
    endloop
  endfacet
  facet normal -0.0206939 0.965719 -0.258764
    outer loop
      vertex 0 23.3506 -1.35714
      vertex -10 23.5 0
      vertex 0 23.7143 0
    endloop
  endfacet
  facet normal -0.0206939 0.965719 0.258764
    outer loop
      vertex 0 23.7143 0
      vertex -10 23.5 0
      vertex 0 23.3506 1.35714
    endloop
  endfacet
  facet normal -0.0206938 0.965719 -0.258763
    outer loop
      vertex 0 23.3506 -1.35714
      vertex -10 23.0311 -1.75
      vertex -10 23.5 0
    endloop
  endfacet
  facet normal -0.0206938 0.965719 -0.258763
    outer loop
      vertex -10 23.0311 -1.75
      vertex 0 23.3506 -1.35714
      vertex 0 23.2167 -1.85714
    endloop
  endfacet
  facet normal -0.0206939 0.706955 -0.706956
    outer loop
      vertex 0 23.2167 -1.85714
      vertex -10 21.75 -3.03109
      vertex -10 23.0311 -1.75
    endloop
  endfacet
  facet normal -0.020694 0.706956 -0.706955
    outer loop
      vertex -10 21.75 -3.03109
      vertex 0 23.2167 -1.85714
      vertex 0 21.8571 -3.21667
    endloop
  endfacet
  facet normal -0.020694 -0.258763 0.965719
    outer loop
      vertex 0 -20.5 3.58031
      vertex -10 -21.75 3.03109
      vertex 0 -21.8571 3.21667
    endloop
  endfacet
  facet normal -0.0206939 0.258763 -0.965719
    outer loop
      vertex 0 -20 -3.71429
      vertex -10 -20 -3.5
      vertex 0 -18.6429 -3.35064
    endloop
  endfacet
  facet normal -0.020694 0.258764 -0.965719
    outer loop
      vertex -10 -18.25 -3.03109
      vertex 0 -18.6429 -3.35064
      vertex -10 -20 -3.5
    endloop
  endfacet
  facet normal -0.020694 0.258764 -0.965719
    outer loop
      vertex 0 -18.6429 -3.35064
      vertex -10 -18.25 -3.03109
      vertex 0 -18.1429 -3.21667
    endloop
  endfacet
  facet normal -0.020694 -0.258764 -0.965719
    outer loop
      vertex -10 -21.75 -3.03109
      vertex 0 -21.3571 -3.35064
      vertex 0 -21.8571 -3.21667
    endloop
  endfacet
  facet normal -0.020694 -0.258764 -0.965719
    outer loop
      vertex 0 -21.3571 -3.35064
      vertex -10 -21.75 -3.03109
      vertex -10 -20 -3.5
    endloop
  endfacet
  facet normal -0.0206939 -0.706955 -0.706956
    outer loop
      vertex -10 -21.75 -3.03109
      vertex 0 -23.2167 -1.85714
      vertex -10 -23.0311 -1.75
    endloop
  endfacet
  facet normal -0.020694 -0.706956 -0.706955
    outer loop
      vertex 0 -23.2167 -1.85714
      vertex -10 -21.75 -3.03109
      vertex 0 -21.8571 -3.21667
    endloop
  endfacet
  facet normal -0.0206939 -0.258763 -0.965719
    outer loop
      vertex 0 -21.3571 -3.35064
      vertex -10 -20 -3.5
      vertex 0 -20 -3.71429
    endloop
  endfacet
  facet normal -0.020694 0.258763 0.965719
    outer loop
      vertex 0 -18.1429 3.21667
      vertex -10 -18.25 3.03109
      vertex 0 -19.5 3.58031
    endloop
  endfacet
  facet normal -0.0206938 -0.965719 -0.258763
    outer loop
      vertex -10 -23.0311 -1.75
      vertex 0 -23.3506 -1.35714
      vertex -10 -23.5 0
    endloop
  endfacet
  facet normal -0.0206938 -0.965719 -0.258763
    outer loop
      vertex 0 -23.3506 -1.35714
      vertex -10 -23.0311 -1.75
      vertex 0 -23.2167 -1.85714
    endloop
  endfacet
  facet normal -1 0 0
    outer loop
      vertex -10 -16.9689 -1.75
      vertex -10 -16.9689 1.75
      vertex -10 -16.5 0
    endloop
  endfacet
  facet normal -1 0 0
    outer loop
      vertex -10 -18.25 -3.03109
      vertex -10 -16.9689 1.75
      vertex -10 -16.9689 -1.75
    endloop
  endfacet
  facet normal -1 0 0
    outer loop
      vertex -10 -18.25 -3.03109
      vertex -10 -18.25 3.03109
      vertex -10 -16.9689 1.75
    endloop
  endfacet
  facet normal -1 0 0
    outer loop
      vertex -10 -20 -3.5
      vertex -10 -18.25 3.03109
      vertex -10 -18.25 -3.03109
    endloop
  endfacet
  facet normal -1 0 0
    outer loop
      vertex -10 -20 -3.5
      vertex -10 -20 3.5
      vertex -10 -18.25 3.03109
    endloop
  endfacet
  facet normal -1 0 0
    outer loop
      vertex -10 -21.75 -3.03109
      vertex -10 -20 3.5
      vertex -10 -20 -3.5
    endloop
  endfacet
  facet normal -1 0 0
    outer loop
      vertex -10 -21.75 -3.03109
      vertex -10 -21.75 3.03109
      vertex -10 -20 3.5
    endloop
  endfacet
  facet normal -1 0 0
    outer loop
      vertex -10 -23.0311 -1.75
      vertex -10 -21.75 3.03109
      vertex -10 -21.75 -3.03109
    endloop
  endfacet
  facet normal -1 0 0
    outer loop
      vertex -10 -23.0311 -1.75
      vertex -10 -23.0311 1.75
      vertex -10 -21.75 3.03109
    endloop
  endfacet
  facet normal -1 0 -0
    outer loop
      vertex -10 -23.0311 1.75
      vertex -10 -23.0311 -1.75
      vertex -10 -23.5 0
    endloop
  endfacet
  facet normal -0.0206939 -0.965719 0.258764
    outer loop
      vertex 0 -23.3506 1.35714
      vertex -10 -23.5 0
      vertex 0 -23.7143 0
    endloop
  endfacet
  facet normal -0.0206939 -0.965719 -0.258764
    outer loop
      vertex 0 -23.7143 0
      vertex -10 -23.5 0
      vertex 0 -23.3506 -1.35714
    endloop
  endfacet
  facet normal -0.0206938 -0.965719 0.258763
    outer loop
      vertex -10 -23.0311 1.75
      vertex 0 -23.3506 1.35714
      vertex 0 -23.2167 1.85714
    endloop
  endfacet
  facet normal -0.0206938 -0.965719 0.258763
    outer loop
      vertex 0 -23.3506 1.35714
      vertex -10 -23.0311 1.75
      vertex -10 -23.5 0
    endloop
  endfacet
  facet normal -0.0206939 -0.706955 0.706955
    outer loop
      vertex 0 -22.2232 2.85064
      vertex -10 -23.0311 1.75
      vertex 0 -23.2167 1.85714
    endloop
  endfacet
  facet normal -0.020694 0.965719 0.258763
    outer loop
      vertex 0 -16.4197 0.5
      vertex -10 -16.9689 1.75
      vertex 0 -16.7833 1.85714
    endloop
  endfacet
  facet normal -0.020694 0.258763 0.965719
    outer loop
      vertex -10 -20 3.5
      vertex 0 -19.5 3.58031
      vertex -10 -18.25 3.03109
    endloop
  endfacet
  facet normal -0.020694 0.258763 0.965719
    outer loop
      vertex 0 -19.5 3.58031
      vertex -10 -20 3.5
      vertex 0 -20 3.71428
    endloop
  endfacet
  facet normal -0.020694 0.706955 0.706955
    outer loop
      vertex 0 -16.7833 1.85714
      vertex -10 -16.9689 1.75
      vertex 0 -17.7768 2.85064
    endloop
  endfacet
  facet normal -0.020694 -0.706957 0.706954
    outer loop
      vertex -10 -21.75 3.03109
      vertex 0 -22.2232 2.85064
      vertex 0 -21.8571 3.21667
    endloop
  endfacet
  facet normal -0.0206939 -0.706955 0.706956
    outer loop
      vertex 0 -22.2232 2.85064
      vertex -10 -21.75 3.03109
      vertex -10 -23.0311 1.75
    endloop
  endfacet
  facet normal -0.0206941 0.965718 0.258766
    outer loop
      vertex -10 -16.5 0
      vertex 0 -16.4197 0.5
      vertex 0 -16.2857 0
    endloop
  endfacet
  facet normal -0.0206939 0.965719 0.258763
    outer loop
      vertex 0 -16.4197 0.5
      vertex -10 -16.5 0
      vertex -10 -16.9689 1.75
    endloop
  endfacet
  facet normal -0.020694 0.965719 -0.258763
    outer loop
      vertex 0 -16.7833 -1.85714
      vertex -10 -16.9689 -1.75
      vertex 0 -16.4197 -0.5
    endloop
  endfacet
  facet normal -0.020694 -0.258763 0.965719
    outer loop
      vertex -10 -20 3.5
      vertex 0 -20.5 3.58031
      vertex 0 -20 3.71428
    endloop
  endfacet
  facet normal -0.020694 -0.258763 0.965719
    outer loop
      vertex 0 -20.5 3.58031
      vertex -10 -20 3.5
      vertex -10 -21.75 3.03109
    endloop
  endfacet
  facet normal -0.020694 0.706955 0.706956
    outer loop
      vertex 0 -17.7768 2.85064
      vertex -10 -18.25 3.03109
      vertex 0 -18.1429 3.21667
    endloop
  endfacet
  facet normal -0.020694 0.706955 0.706955
    outer loop
      vertex -10 -18.25 3.03109
      vertex 0 -17.7768 2.85064
      vertex -10 -16.9689 1.75
    endloop
  endfacet
  facet normal -0.020694 0.706955 -0.706955
    outer loop
      vertex 0 -17.7768 -2.85064
      vertex -10 -16.9689 -1.75
      vertex 0 -16.7833 -1.85714
    endloop
  endfacet
  facet normal -0.020694 0.706955 -0.706956
    outer loop
      vertex -10 -18.25 -3.03109
      vertex 0 -17.7768 -2.85064
      vertex 0 -18.1429 -3.21667
    endloop
  endfacet
  facet normal -0.020694 0.706955 -0.706956
    outer loop
      vertex 0 -17.7768 -2.85064
      vertex -10 -18.25 -3.03109
      vertex -10 -16.9689 -1.75
    endloop
  endfacet
  facet normal -0.0206941 0.965718 -0.258766
    outer loop
      vertex 0 -16.4197 -0.5
      vertex -10 -16.5 0
      vertex 0 -16.2857 0
    endloop
  endfacet
  facet normal -0.0206939 0.965719 -0.258763
    outer loop
      vertex -10 -16.5 0
      vertex 0 -16.4197 -0.5
      vertex -10 -16.9689 -1.75
    endloop
  endfacet
endsolid OpenSCAD_Model
