solid OpenSCAD_Model
  facet normal 0 0.309014 -0.951058
    outer loop
      vertex -2.25 37.0791 -9.78148
      vertex 2.25 39.0674 -9.13545
      vertex 2.25 37.0791 -9.78148
    endloop
  endfacet
  facet normal 0 0.309014 -0.951058
    outer loop
      vertex 2.25 39.0674 -9.13545
      vertex -2.25 37.0791 -9.78148
      vertex -2.25 39.0674 -9.13545
    endloop
  endfacet
  facet normal 0 0.104528 -0.994522
    outer loop
      vertex -2.25 35.5 -9.94745
      vertex 2.25 37.0791 -9.78148
      vertex 2.25 35.5 -9.94745
    endloop
  endfacet
  facet normal 0 0.104528 -0.994522
    outer loop
      vertex 2.25 37.0791 -9.78148
      vertex -2.25 35.5 -9.94745
      vertex -2.25 37.0791 -9.78148
    endloop
  endfacet
  facet normal 0 0.499995 -0.866028
    outer loop
      vertex -2.25 39.0674 -9.13545
      vertex 2.25 40.8779 -8.09017
      vertex 2.25 39.0674 -9.13545
    endloop
  endfacet
  facet normal 0 0.499995 -0.866028
    outer loop
      vertex 2.25 40.8779 -8.09017
      vertex -2.25 39.0674 -9.13545
      vertex -2.25 40.8779 -8.09017
    endloop
  endfacet
  facet normal -0 0.104528 0.994522
    outer loop
      vertex -2.25 37.0791 9.78148
      vertex 2.25 35.5 9.94745
      vertex 2.25 37.0791 9.78148
    endloop
  endfacet
  facet normal 0 0.104528 0.994522
    outer loop
      vertex 2.25 35.5 9.94745
      vertex -2.25 37.0791 9.78148
      vertex -2.25 35.5 9.94745
    endloop
  endfacet
  facet normal 0 0.808996 0.587814
    outer loop
      vertex 2.25 43.6603 5
      vertex -2.25 42.4314 6.69131
      vertex 2.25 42.4314 6.69131
    endloop
  endfacet
  facet normal 0 0.808996 0.587814
    outer loop
      vertex -2.25 42.4314 6.69131
      vertex 2.25 43.6603 5
      vertex -2.25 43.6603 5
    endloop
  endfacet
  facet normal 0 0.669152 -0.743125
    outer loop
      vertex -2.25 40.8779 -8.09017
      vertex 2.25 42.4314 -6.69131
      vertex 2.25 40.8779 -8.09017
    endloop
  endfacet
  facet normal 0 0.669152 -0.743125
    outer loop
      vertex 2.25 42.4314 -6.69131
      vertex -2.25 40.8779 -8.09017
      vertex -2.25 42.4314 -6.69131
    endloop
  endfacet
  facet normal -0 0.309014 0.951058
    outer loop
      vertex -2.25 39.0674 9.13545
      vertex 2.25 37.0791 9.78148
      vertex 2.25 39.0674 9.13545
    endloop
  endfacet
  facet normal 0 0.309014 0.951058
    outer loop
      vertex 2.25 37.0791 9.78148
      vertex -2.25 39.0674 9.13545
      vertex -2.25 37.0791 9.78148
    endloop
  endfacet
  facet normal 0 0.978153 -0.207887
    outer loop
      vertex 2.25 44.5106 -3.09017
      vertex -2.25 44.9452 -1.04528
      vertex 2.25 44.9452 -1.04528
    endloop
  endfacet
  facet normal 0 0.978153 -0.207887
    outer loop
      vertex -2.25 44.9452 -1.04528
      vertex 2.25 44.5106 -3.09017
      vertex -2.25 44.5106 -3.09017
    endloop
  endfacet
  facet normal 0 0.913547 0.406732
    outer loop
      vertex 2.25 44.5106 3.09017
      vertex -2.25 43.6603 5
      vertex 2.25 43.6603 5
    endloop
  endfacet
  facet normal 0 0.913547 0.406732
    outer loop
      vertex -2.25 43.6603 5
      vertex 2.25 44.5106 3.09017
      vertex -2.25 44.5106 3.09017
    endloop
  endfacet
  facet normal 0 0.978153 0.207887
    outer loop
      vertex 2.25 44.9452 1.04528
      vertex -2.25 44.5106 3.09017
      vertex 2.25 44.5106 3.09017
    endloop
  endfacet
  facet normal 0 0.978153 0.207887
    outer loop
      vertex -2.25 44.5106 3.09017
      vertex 2.25 44.9452 1.04528
      vertex -2.25 44.9452 1.04528
    endloop
  endfacet
  facet normal 0 0.808996 -0.587814
    outer loop
      vertex 2.25 42.4314 -6.69131
      vertex -2.25 43.6603 -5
      vertex 2.25 43.6603 -5
    endloop
  endfacet
  facet normal 0 0.808996 -0.587814
    outer loop
      vertex -2.25 43.6603 -5
      vertex 2.25 42.4314 -6.69131
      vertex -2.25 42.4314 -6.69131
    endloop
  endfacet
  facet normal 0 1 -0
    outer loop
      vertex 2.25 44.9452 -1.04528
      vertex -2.25 44.9452 1.04528
      vertex 2.25 44.9452 1.04528
    endloop
  endfacet
  facet normal 0 1 0
    outer loop
      vertex -2.25 44.9452 1.04528
      vertex 2.25 44.9452 -1.04528
      vertex -2.25 44.9452 -1.04528
    endloop
  endfacet
  facet normal 0 0.913547 -0.406732
    outer loop
      vertex 2.25 43.6603 -5
      vertex -2.25 44.5106 -3.09017
      vertex 2.25 44.5106 -3.09017
    endloop
  endfacet
  facet normal 0 0.913547 -0.406732
    outer loop
      vertex -2.25 44.5106 -3.09017
      vertex 2.25 43.6603 -5
      vertex -2.25 43.6603 -5
    endloop
  endfacet
  facet normal -0 0.669152 0.743125
    outer loop
      vertex -2.25 42.4314 6.69131
      vertex 2.25 40.8779 8.09017
      vertex 2.25 42.4314 6.69131
    endloop
  endfacet
  facet normal 0 0.669152 0.743125
    outer loop
      vertex 2.25 40.8779 8.09017
      vertex -2.25 42.4314 6.69131
      vertex -2.25 40.8779 8.09017
    endloop
  endfacet
  facet normal 1 0 0
    outer loop
      vertex 2.25 -33.6525 2.99404
      vertex 2.25 -40.8779 8.09017
      vertex 2.25 -34.7401 1.41842
    endloop
  endfacet
  facet normal 1 -0 0
    outer loop
      vertex 2.25 -42.4314 6.69131
      vertex 2.25 -34.7401 1.41842
      vertex 2.25 -40.8779 8.09017
    endloop
  endfacet
  facet normal 1 -0 0
    outer loop
      vertex 2.25 -43.6603 5
      vertex 2.25 -34.7401 1.41842
      vertex 2.25 -42.4314 6.69131
    endloop
  endfacet
  facet normal 1 0 0
    outer loop
      vertex 2.25 -34.9708 -0.482146
      vertex 2.25 -37.0791 -9.78148
      vertex 2.25 -35.5 -9.94745
    endloop
  endfacet
  facet normal 1 0 -0
    outer loop
      vertex 2.25 -39.0674 -9.13545
      vertex 2.25 -34.9708 -0.482146
      vertex 2.25 -40.8779 -8.09017
    endloop
  endfacet
  facet normal 1 0 -0
    outer loop
      vertex 2.25 -37.0791 -9.78148
      vertex 2.25 -34.9708 -0.482146
      vertex 2.25 -39.0674 -9.13545
    endloop
  endfacet
  facet normal 1 -0 0
    outer loop
      vertex 2.25 -44.5106 3.09017
      vertex 2.25 -34.7401 1.41842
      vertex 2.25 -43.6603 5
    endloop
  endfacet
  facet normal 1 0 0
    outer loop
      vertex 2.25 -34.9708 -0.482146
      vertex 2.25 -42.4314 -6.69131
      vertex 2.25 -40.8779 -8.09017
    endloop
  endfacet
  facet normal 1 0 0
    outer loop
      vertex 2.25 -34.7401 1.41842
      vertex 2.25 -44.5106 3.09017
      vertex 2.25 -34.9708 -0.482146
    endloop
  endfacet
  facet normal 1 0 0
    outer loop
      vertex 2.25 -34.9708 -0.482146
      vertex 2.25 -43.6603 -5
      vertex 2.25 -42.4314 -6.69131
    endloop
  endfacet
  facet normal 1 -0 0
    outer loop
      vertex 2.25 -44.9452 1.04528
      vertex 2.25 -34.9708 -0.482146
      vertex 2.25 -44.5106 3.09017
    endloop
  endfacet
  facet normal 1 0 0
    outer loop
      vertex 2.25 -34.9708 -0.482146
      vertex 2.25 -44.5106 -3.09017
      vertex 2.25 -43.6603 -5
    endloop
  endfacet
  facet normal 1 0 0
    outer loop
      vertex 2.25 -44.9452 -1.04528
      vertex 2.25 -34.9708 -0.482146
      vertex 2.25 -44.9452 1.04528
    endloop
  endfacet
  facet normal 1 0 0
    outer loop
      vertex 2.25 -34.9708 -0.482146
      vertex 2.25 -44.9452 -1.04528
      vertex 2.25 -44.5106 -3.09017
    endloop
  endfacet
  facet normal 1 0 0
    outer loop
      vertex 2.25 30.0427 3.88377
      vertex 2.25 35.5 9.94745
      vertex 2.25 35.5 10
    endloop
  endfacet
  facet normal 1 0 0
    outer loop
      vertex 2.25 35.5 9.94745
      vertex 2.25 34.9708 -0.482146
      vertex 2.25 35.5 -9.94745
    endloop
  endfacet
  facet normal 1 -0 0
    outer loop
      vertex 2.25 34.2919 -2.27226
      vertex 2.25 35.5 -9.94745
      vertex 2.25 34.9708 -0.482146
    endloop
  endfacet
  facet normal 1 0 0
    outer loop
      vertex 2.25 35.5 9.94745
      vertex 2.25 34.7401 1.41842
      vertex 2.25 34.9708 -0.482146
    endloop
  endfacet
  facet normal 1 0 0
    outer loop
      vertex 2.25 35.5 9.94745
      vertex 2.25 33.6525 2.99404
      vertex 2.25 34.7401 1.41842
    endloop
  endfacet
  facet normal 1 0 0
    outer loop
      vertex 2.25 35.5 9.94745
      vertex 2.25 31.9573 3.88377
      vertex 2.25 33.6525 2.99404
    endloop
  endfacet
  facet normal 1 0 0
    outer loop
      vertex 2.25 35.5 9.94745
      vertex 2.25 30.0427 3.88377
      vertex 2.25 31.9573 3.88377
    endloop
  endfacet
  facet normal 1 0 0
    outer loop
      vertex 2.25 35.5 10
      vertex 2.25 28.3475 2.99404
      vertex 2.25 30.0427 3.88377
    endloop
  endfacet
  facet normal 1 0 0
    outer loop
      vertex 2.25 27.2599 1.41842
      vertex 2.25 -27.0292 -0.482146
      vertex 2.25 27.0292 -0.482146
    endloop
  endfacet
  facet normal 1 0 0
    outer loop
      vertex 2.25 -27.2599 1.41842
      vertex 2.25 27.2599 1.41842
      vertex 2.25 28.3475 2.99404
    endloop
  endfacet
  facet normal 1 0 0
    outer loop
      vertex 2.25 -28.3475 2.99404
      vertex 2.25 28.3475 2.99404
      vertex 2.25 35.5 10
    endloop
  endfacet
  facet normal 1 0 0
    outer loop
      vertex 2.25 27.2599 1.41842
      vertex 2.25 -27.2599 1.41842
      vertex 2.25 -27.0292 -0.482146
    endloop
  endfacet
  facet normal 1 0 0
    outer loop
      vertex 2.25 28.3475 2.99404
      vertex 2.25 -28.3475 2.99404
      vertex 2.25 -27.2599 1.41842
    endloop
  endfacet
  facet normal 1 -0 0
    outer loop
      vertex 2.25 -35.5 10
      vertex 2.25 -28.3475 2.99404
      vertex 2.25 35.5 10
    endloop
  endfacet
  facet normal 1 0 0
    outer loop
      vertex 2.25 -28.3475 2.99404
      vertex 2.25 -35.5 10
      vertex 2.25 -30.0427 3.88377
    endloop
  endfacet
  facet normal 1 -0 0
    outer loop
      vertex 2.25 -37.0791 9.78148
      vertex 2.25 -33.6525 2.99404
      vertex 2.25 -35.5 9.94745
    endloop
  endfacet
  facet normal 1 0 0
    outer loop
      vertex 2.25 -31.9573 3.88377
      vertex 2.25 -35.5 9.94745
      vertex 2.25 -33.6525 2.99404
    endloop
  endfacet
  facet normal 1 0 0
    outer loop
      vertex 2.25 -30.0427 3.88377
      vertex 2.25 -35.5 9.94745
      vertex 2.25 -31.9573 3.88377
    endloop
  endfacet
  facet normal 1 -0 0
    outer loop
      vertex 2.25 -35.5 9.94745
      vertex 2.25 -30.0427 3.88377
      vertex 2.25 -35.5 10
    endloop
  endfacet
  facet normal 1 0 0
    outer loop
      vertex 2.25 44.5106 3.09017
      vertex 2.25 44.9452 -1.04528
      vertex 2.25 44.9452 1.04528
    endloop
  endfacet
  facet normal 1 0 0
    outer loop
      vertex 2.25 44.5106 3.09017
      vertex 2.25 44.5106 -3.09017
      vertex 2.25 44.9452 -1.04528
    endloop
  endfacet
  facet normal 1 0 0
    outer loop
      vertex 2.25 43.6603 5
      vertex 2.25 44.5106 -3.09017
      vertex 2.25 44.5106 3.09017
    endloop
  endfacet
  facet normal 1 0 0
    outer loop
      vertex 2.25 43.6603 5
      vertex 2.25 43.6603 -5
      vertex 2.25 44.5106 -3.09017
    endloop
  endfacet
  facet normal 1 0 0
    outer loop
      vertex 2.25 42.4314 6.69131
      vertex 2.25 43.6603 -5
      vertex 2.25 43.6603 5
    endloop
  endfacet
  facet normal 1 0 0
    outer loop
      vertex 2.25 42.4314 6.69131
      vertex 2.25 42.4314 -6.69131
      vertex 2.25 43.6603 -5
    endloop
  endfacet
  facet normal 1 0 0
    outer loop
      vertex 2.25 40.8779 8.09017
      vertex 2.25 42.4314 -6.69131
      vertex 2.25 42.4314 6.69131
    endloop
  endfacet
  facet normal 1 0 0
    outer loop
      vertex 2.25 40.8779 8.09017
      vertex 2.25 40.8779 -8.09017
      vertex 2.25 42.4314 -6.69131
    endloop
  endfacet
  facet normal 1 0 0
    outer loop
      vertex 2.25 35.5 9.94745
      vertex 2.25 40.8779 8.09017
      vertex 2.25 39.0674 9.13545
    endloop
  endfacet
  facet normal 1 0 0
    outer loop
      vertex 2.25 40.8779 8.09017
      vertex 2.25 35.5 9.94745
      vertex 2.25 40.8779 -8.09017
    endloop
  endfacet
  facet normal 1 0 0
    outer loop
      vertex 2.25 35.5 9.94745
      vertex 2.25 39.0674 9.13545
      vertex 2.25 37.0791 9.78148
    endloop
  endfacet
  facet normal 1 0 0
    outer loop
      vertex 2.25 35.5 -9.94745
      vertex 2.25 40.8779 -8.09017
      vertex 2.25 35.5 9.94745
    endloop
  endfacet
  facet normal 1 0 0
    outer loop
      vertex 2.25 40.8779 -8.09017
      vertex 2.25 35.5 -9.94745
      vertex 2.25 39.0674 -9.13545
    endloop
  endfacet
  facet normal 1 0 0
    outer loop
      vertex 2.25 39.0674 -9.13545
      vertex 2.25 35.5 -9.94745
      vertex 2.25 37.0791 -9.78148
    endloop
  endfacet
  facet normal 1 -0 0
    outer loop
      vertex 2.25 32.8589 -3.54182
      vertex 2.25 35.5 -9.94745
      vertex 2.25 34.2919 -2.27226
    endloop
  endfacet
  facet normal 1 -0 0
    outer loop
      vertex 2.25 31 -4
      vertex 2.25 35.5 -9.94745
      vertex 2.25 32.8589 -3.54182
    endloop
  endfacet
  facet normal 1 0 0
    outer loop
      vertex 2.25 35.5 -9.94745
      vertex 2.25 31 -4
      vertex 2.25 35.5 -10
    endloop
  endfacet
  facet normal 1 0 0
    outer loop
      vertex 2.25 29.1411 -3.54182
      vertex 2.25 35.5 -10
      vertex 2.25 31 -4
    endloop
  endfacet
  facet normal 1 0 0
    outer loop
      vertex 2.25 -29.1411 -3.54182
      vertex 2.25 29.1411 -3.54182
      vertex 2.25 27.7081 -2.27226
    endloop
  endfacet
  facet normal 1 -0 0
    outer loop
      vertex 2.25 -27.0292 -0.482146
      vertex 2.25 27.7081 -2.27226
      vertex 2.25 27.0292 -0.482146
    endloop
  endfacet
  facet normal 1 0 0
    outer loop
      vertex 2.25 -27.7081 -2.27226
      vertex 2.25 27.7081 -2.27226
      vertex 2.25 -27.0292 -0.482146
    endloop
  endfacet
  facet normal 1 0 0
    outer loop
      vertex 2.25 -29.1411 -3.54182
      vertex 2.25 27.7081 -2.27226
      vertex 2.25 -27.7081 -2.27226
    endloop
  endfacet
  facet normal 1 0 0
    outer loop
      vertex 2.25 29.1411 -3.54182
      vertex 2.25 -29.1411 -3.54182
      vertex 2.25 35.5 -10
    endloop
  endfacet
  facet normal 1 0 0
    outer loop
      vertex 2.25 -35.5 -10
      vertex 2.25 -29.1411 -3.54182
      vertex 2.25 -31 -4
    endloop
  endfacet
  facet normal 1 -0 0
    outer loop
      vertex 2.25 -39.0674 9.13545
      vertex 2.25 -33.6525 2.99404
      vertex 2.25 -37.0791 9.78148
    endloop
  endfacet
  facet normal 1 -0 0
    outer loop
      vertex 2.25 -40.8779 8.09017
      vertex 2.25 -33.6525 2.99404
      vertex 2.25 -39.0674 9.13545
    endloop
  endfacet
  facet normal 1 0 0
    outer loop
      vertex 2.25 -35.5 -9.94745
      vertex 2.25 -34.2919 -2.27226
      vertex 2.25 -34.9708 -0.482146
    endloop
  endfacet
  facet normal 1 0 0
    outer loop
      vertex 2.25 -35.5 -9.94745
      vertex 2.25 -32.8589 -3.54182
      vertex 2.25 -34.2919 -2.27226
    endloop
  endfacet
  facet normal 1 0 0
    outer loop
      vertex 2.25 -35.5 -9.94745
      vertex 2.25 -31 -4
      vertex 2.25 -32.8589 -3.54182
    endloop
  endfacet
  facet normal 1 0 0
    outer loop
      vertex 2.25 -35.5 -10
      vertex 2.25 -31 -4
      vertex 2.25 -35.5 -9.94745
    endloop
  endfacet
  facet normal 1 0 0
    outer loop
      vertex 2.25 -29.1411 -3.54182
      vertex 2.25 -35.5 -10
      vertex 2.25 35.5 -10
    endloop
  endfacet
  facet normal -1 0 0
    outer loop
      vertex -2.25 -40.8779 -8.09017
      vertex -2.25 -34.2919 -2.27226
      vertex -2.25 -39.0674 -9.13545
    endloop
  endfacet
  facet normal -1 0 0
    outer loop
      vertex -2.25 -42.4314 -6.69131
      vertex -2.25 -34.2919 -2.27226
      vertex -2.25 -40.8779 -8.09017
    endloop
  endfacet
  facet normal -1 -0 0
    outer loop
      vertex -2.25 -34.2919 -2.27226
      vertex -2.25 -42.4314 -6.69131
      vertex -2.25 -34.9708 -0.482146
    endloop
  endfacet
  facet normal -1 0 0
    outer loop
      vertex -2.25 -34.9708 -0.482146
      vertex -2.25 -37.0791 9.78148
      vertex -2.25 -35.5 9.94745
    endloop
  endfacet
  facet normal -1 0 -0
    outer loop
      vertex -2.25 -39.0674 9.13545
      vertex -2.25 -34.9708 -0.482146
      vertex -2.25 -40.8779 8.09017
    endloop
  endfacet
  facet normal -1 0 -0
    outer loop
      vertex -2.25 -37.0791 9.78148
      vertex -2.25 -34.9708 -0.482146
      vertex -2.25 -39.0674 9.13545
    endloop
  endfacet
  facet normal -1 0 0
    outer loop
      vertex -2.25 -43.6603 -5
      vertex -2.25 -34.9708 -0.482146
      vertex -2.25 -42.4314 -6.69131
    endloop
  endfacet
  facet normal -1 0 0
    outer loop
      vertex -2.25 -34.9708 -0.482146
      vertex -2.25 -42.4314 6.69131
      vertex -2.25 -40.8779 8.09017
    endloop
  endfacet
  facet normal -1 0 0
    outer loop
      vertex -2.25 -44.5106 -3.09017
      vertex -2.25 -34.9708 -0.482146
      vertex -2.25 -43.6603 -5
    endloop
  endfacet
  facet normal -1 0 0
    outer loop
      vertex -2.25 -34.9708 -0.482146
      vertex -2.25 -43.6603 5
      vertex -2.25 -42.4314 6.69131
    endloop
  endfacet
  facet normal -1 0 0
    outer loop
      vertex -2.25 -44.9452 -1.04528
      vertex -2.25 -34.9708 -0.482146
      vertex -2.25 -44.5106 -3.09017
    endloop
  endfacet
  facet normal -1 0 0
    outer loop
      vertex -2.25 -34.9708 -0.482146
      vertex -2.25 -44.5106 3.09017
      vertex -2.25 -43.6603 5
    endloop
  endfacet
  facet normal -1 0 0
    outer loop
      vertex -2.25 -44.9452 1.04528
      vertex -2.25 -34.9708 -0.482146
      vertex -2.25 -44.9452 -1.04528
    endloop
  endfacet
  facet normal -1 0 0
    outer loop
      vertex -2.25 -34.9708 -0.482146
      vertex -2.25 -44.9452 1.04528
      vertex -2.25 -44.5106 3.09017
    endloop
  endfacet
  facet normal -1 0 0
    outer loop
      vertex -2.25 31 -4
      vertex -2.25 35.5 -9.94745
      vertex -2.25 35.5 -10
    endloop
  endfacet
  facet normal -1 0 0
    outer loop
      vertex -2.25 35.5 -9.94745
      vertex -2.25 34.9708 -0.482146
      vertex -2.25 35.5 9.94745
    endloop
  endfacet
  facet normal -1 0 0
    outer loop
      vertex -2.25 34.7401 1.41842
      vertex -2.25 35.5 9.94745
      vertex -2.25 34.9708 -0.482146
    endloop
  endfacet
  facet normal -1 0 0
    outer loop
      vertex -2.25 35.5 -9.94745
      vertex -2.25 34.2919 -2.27226
      vertex -2.25 34.9708 -0.482146
    endloop
  endfacet
  facet normal -1 0 0
    outer loop
      vertex -2.25 35.5 -9.94745
      vertex -2.25 32.8589 -3.54182
      vertex -2.25 34.2919 -2.27226
    endloop
  endfacet
  facet normal -1 0 0
    outer loop
      vertex -2.25 35.5 -9.94745
      vertex -2.25 31 -4
      vertex -2.25 32.8589 -3.54182
    endloop
  endfacet
  facet normal -1 0 0
    outer loop
      vertex -2.25 35.5 -10
      vertex -2.25 29.1411 -3.54182
      vertex -2.25 31 -4
    endloop
  endfacet
  facet normal -1 0 0
    outer loop
      vertex -2.25 -29.1411 -3.54182
      vertex -2.25 29.1411 -3.54182
      vertex -2.25 35.5 -10
    endloop
  endfacet
  facet normal -1 0 0
    outer loop
      vertex -2.25 27.7081 -2.27226
      vertex -2.25 -27.0292 -0.482146
      vertex -2.25 27.0292 -0.482146
    endloop
  endfacet
  facet normal -1 0 0
    outer loop
      vertex -2.25 29.1411 -3.54182
      vertex -2.25 -29.1411 -3.54182
      vertex -2.25 27.7081 -2.27226
    endloop
  endfacet
  facet normal -1 0 0
    outer loop
      vertex -2.25 27.7081 -2.27226
      vertex -2.25 -27.7081 -2.27226
      vertex -2.25 -27.0292 -0.482146
    endloop
  endfacet
  facet normal -1 -0 0
    outer loop
      vertex -2.25 27.7081 -2.27226
      vertex -2.25 -29.1411 -3.54182
      vertex -2.25 -27.7081 -2.27226
    endloop
  endfacet
  facet normal -1 0 0
    outer loop
      vertex -2.25 -35.5 -10
      vertex -2.25 -29.1411 -3.54182
      vertex -2.25 35.5 -10
    endloop
  endfacet
  facet normal -1 0 0
    outer loop
      vertex -2.25 -37.0791 -9.78148
      vertex -2.25 -32.8589 -3.54182
      vertex -2.25 -35.5 -9.94745
    endloop
  endfacet
  facet normal -1 -0 0
    outer loop
      vertex -2.25 -31 -4
      vertex -2.25 -35.5 -9.94745
      vertex -2.25 -32.8589 -3.54182
    endloop
  endfacet
  facet normal -1 0 0
    outer loop
      vertex -2.25 -35.5 -9.94745
      vertex -2.25 -31 -4
      vertex -2.25 -35.5 -10
    endloop
  endfacet
  facet normal -1 0 0
    outer loop
      vertex -2.25 -29.1411 -3.54182
      vertex -2.25 -35.5 -10
      vertex -2.25 -31 -4
    endloop
  endfacet
  facet normal -1 0 0
    outer loop
      vertex -2.25 44.5106 -3.09017
      vertex -2.25 44.9452 1.04528
      vertex -2.25 44.9452 -1.04528
    endloop
  endfacet
  facet normal -1 0 0
    outer loop
      vertex -2.25 44.5106 -3.09017
      vertex -2.25 44.5106 3.09017
      vertex -2.25 44.9452 1.04528
    endloop
  endfacet
  facet normal -1 0 0
    outer loop
      vertex -2.25 43.6603 -5
      vertex -2.25 44.5106 3.09017
      vertex -2.25 44.5106 -3.09017
    endloop
  endfacet
  facet normal -1 0 0
    outer loop
      vertex -2.25 43.6603 -5
      vertex -2.25 43.6603 5
      vertex -2.25 44.5106 3.09017
    endloop
  endfacet
  facet normal -1 0 0
    outer loop
      vertex -2.25 42.4314 -6.69131
      vertex -2.25 43.6603 5
      vertex -2.25 43.6603 -5
    endloop
  endfacet
  facet normal -1 0 0
    outer loop
      vertex -2.25 42.4314 -6.69131
      vertex -2.25 42.4314 6.69131
      vertex -2.25 43.6603 5
    endloop
  endfacet
  facet normal -1 0 0
    outer loop
      vertex -2.25 40.8779 -8.09017
      vertex -2.25 42.4314 6.69131
      vertex -2.25 42.4314 -6.69131
    endloop
  endfacet
  facet normal -1 0 0
    outer loop
      vertex -2.25 40.8779 -8.09017
      vertex -2.25 40.8779 8.09017
      vertex -2.25 42.4314 6.69131
    endloop
  endfacet
  facet normal -1 0 0
    outer loop
      vertex -2.25 35.5 -9.94745
      vertex -2.25 40.8779 -8.09017
      vertex -2.25 39.0674 -9.13545
    endloop
  endfacet
  facet normal -1 -0 0
    outer loop
      vertex -2.25 40.8779 -8.09017
      vertex -2.25 35.5 -9.94745
      vertex -2.25 40.8779 8.09017
    endloop
  endfacet
  facet normal -1 0 0
    outer loop
      vertex -2.25 35.5 -9.94745
      vertex -2.25 39.0674 -9.13545
      vertex -2.25 37.0791 -9.78148
    endloop
  endfacet
  facet normal -1 0 0
    outer loop
      vertex -2.25 35.5 9.94745
      vertex -2.25 40.8779 8.09017
      vertex -2.25 35.5 -9.94745
    endloop
  endfacet
  facet normal -1 0 0
    outer loop
      vertex -2.25 40.8779 8.09017
      vertex -2.25 35.5 9.94745
      vertex -2.25 39.0674 9.13545
    endloop
  endfacet
  facet normal -1 0 0
    outer loop
      vertex -2.25 39.0674 9.13545
      vertex -2.25 35.5 9.94745
      vertex -2.25 37.0791 9.78148
    endloop
  endfacet
  facet normal -1 0 0
    outer loop
      vertex -2.25 33.6525 2.99404
      vertex -2.25 35.5 9.94745
      vertex -2.25 34.7401 1.41842
    endloop
  endfacet
  facet normal -1 0 0
    outer loop
      vertex -2.25 31.9573 3.88377
      vertex -2.25 35.5 9.94745
      vertex -2.25 33.6525 2.99404
    endloop
  endfacet
  facet normal -1 0 0
    outer loop
      vertex -2.25 30.0427 3.88377
      vertex -2.25 35.5 9.94745
      vertex -2.25 31.9573 3.88377
    endloop
  endfacet
  facet normal -1 -0 0
    outer loop
      vertex -2.25 35.5 9.94745
      vertex -2.25 30.0427 3.88377
      vertex -2.25 35.5 10
    endloop
  endfacet
  facet normal -1 0 0
    outer loop
      vertex -2.25 28.3475 2.99404
      vertex -2.25 35.5 10
      vertex -2.25 30.0427 3.88377
    endloop
  endfacet
  facet normal -1 0 0
    outer loop
      vertex -2.25 -27.0292 -0.482146
      vertex -2.25 27.2599 1.41842
      vertex -2.25 27.0292 -0.482146
    endloop
  endfacet
  facet normal -1 0 0
    outer loop
      vertex -2.25 -27.2599 1.41842
      vertex -2.25 27.2599 1.41842
      vertex -2.25 -27.0292 -0.482146
    endloop
  endfacet
  facet normal -1 0 0
    outer loop
      vertex -2.25 27.2599 1.41842
      vertex -2.25 -27.2599 1.41842
      vertex -2.25 28.3475 2.99404
    endloop
  endfacet
  facet normal -1 0 0
    outer loop
      vertex -2.25 -28.3475 2.99404
      vertex -2.25 28.3475 2.99404
      vertex -2.25 -27.2599 1.41842
    endloop
  endfacet
  facet normal -1 0 0
    outer loop
      vertex -2.25 28.3475 2.99404
      vertex -2.25 -28.3475 2.99404
      vertex -2.25 35.5 10
    endloop
  endfacet
  facet normal -1 0 0
    outer loop
      vertex -2.25 -35.5 10
      vertex -2.25 -28.3475 2.99404
      vertex -2.25 -30.0427 3.88377
    endloop
  endfacet
  facet normal -1 0 0
    outer loop
      vertex -2.25 -35.5 9.94745
      vertex -2.25 -30.0427 3.88377
      vertex -2.25 -31.9573 3.88377
    endloop
  endfacet
  facet normal -1 -0 0
    outer loop
      vertex -2.25 -32.8589 -3.54182
      vertex -2.25 -37.0791 -9.78148
      vertex -2.25 -34.2919 -2.27226
    endloop
  endfacet
  facet normal -1 0 0
    outer loop
      vertex -2.25 -39.0674 -9.13545
      vertex -2.25 -34.2919 -2.27226
      vertex -2.25 -37.0791 -9.78148
    endloop
  endfacet
  facet normal -1 0 0
    outer loop
      vertex -2.25 -35.5 9.94745
      vertex -2.25 -34.7401 1.41842
      vertex -2.25 -34.9708 -0.482146
    endloop
  endfacet
  facet normal -1 0 0
    outer loop
      vertex -2.25 -35.5 9.94745
      vertex -2.25 -33.6525 2.99404
      vertex -2.25 -34.7401 1.41842
    endloop
  endfacet
  facet normal -1 0 0
    outer loop
      vertex -2.25 -35.5 9.94745
      vertex -2.25 -31.9573 3.88377
      vertex -2.25 -33.6525 2.99404
    endloop
  endfacet
  facet normal -1 0 0
    outer loop
      vertex -2.25 -30.0427 3.88377
      vertex -2.25 -35.5 9.94745
      vertex -2.25 -35.5 10
    endloop
  endfacet
  facet normal -1 0 0
    outer loop
      vertex -2.25 -28.3475 2.99404
      vertex -2.25 -35.5 10
      vertex -2.25 35.5 10
    endloop
  endfacet
  facet normal -0 0.499995 0.866028
    outer loop
      vertex -2.25 40.8779 8.09017
      vertex 2.25 39.0674 9.13545
      vertex 2.25 40.8779 8.09017
    endloop
  endfacet
  facet normal 0 0.499995 0.866028
    outer loop
      vertex 2.25 39.0674 9.13545
      vertex -2.25 40.8779 8.09017
      vertex -2.25 39.0674 9.13545
    endloop
  endfacet
  facet normal 0 -0.669152 0.743125
    outer loop
      vertex -2.25 -40.8779 8.09017
      vertex 2.25 -42.4314 6.69131
      vertex 2.25 -40.8779 8.09017
    endloop
  endfacet
  facet normal 0 -0.669152 0.743125
    outer loop
      vertex 2.25 -42.4314 6.69131
      vertex -2.25 -40.8779 8.09017
      vertex -2.25 -42.4314 6.69131
    endloop
  endfacet
  facet normal 0 -0.309014 -0.951058
    outer loop
      vertex -2.25 -39.0674 -9.13545
      vertex 2.25 -37.0791 -9.78148
      vertex 2.25 -39.0674 -9.13545
    endloop
  endfacet
  facet normal -0 -0.309014 -0.951058
    outer loop
      vertex 2.25 -37.0791 -9.78148
      vertex -2.25 -39.0674 -9.13545
      vertex -2.25 -37.0791 -9.78148
    endloop
  endfacet
  facet normal 0 -0.808996 -0.587814
    outer loop
      vertex -2.25 -42.4314 -6.69131
      vertex 2.25 -43.6603 -5
      vertex -2.25 -43.6603 -5
    endloop
  endfacet
  facet normal 0 -0.808996 -0.587814
    outer loop
      vertex 2.25 -43.6603 -5
      vertex -2.25 -42.4314 -6.69131
      vertex 2.25 -42.4314 -6.69131
    endloop
  endfacet
  facet normal 0 -0.669152 -0.743125
    outer loop
      vertex -2.25 -42.4314 -6.69131
      vertex 2.25 -40.8779 -8.09017
      vertex 2.25 -42.4314 -6.69131
    endloop
  endfacet
  facet normal -0 -0.669152 -0.743125
    outer loop
      vertex 2.25 -40.8779 -8.09017
      vertex -2.25 -42.4314 -6.69131
      vertex -2.25 -40.8779 -8.09017
    endloop
  endfacet
  facet normal 0 -0.104528 -0.994522
    outer loop
      vertex -2.25 -37.0791 -9.78148
      vertex 2.25 -35.5 -9.94745
      vertex 2.25 -37.0791 -9.78148
    endloop
  endfacet
  facet normal -0 -0.104528 -0.994522
    outer loop
      vertex 2.25 -35.5 -9.94745
      vertex -2.25 -37.0791 -9.78148
      vertex -2.25 -35.5 -9.94745
    endloop
  endfacet
  facet normal 0 -0.913547 0.406732
    outer loop
      vertex -2.25 -44.5106 3.09017
      vertex 2.25 -43.6603 5
      vertex -2.25 -43.6603 5
    endloop
  endfacet
  facet normal 0 -0.913547 0.406732
    outer loop
      vertex 2.25 -43.6603 5
      vertex -2.25 -44.5106 3.09017
      vertex 2.25 -44.5106 3.09017
    endloop
  endfacet
  facet normal 0 -0.808996 0.587814
    outer loop
      vertex -2.25 -43.6603 5
      vertex 2.25 -42.4314 6.69131
      vertex -2.25 -42.4314 6.69131
    endloop
  endfacet
  facet normal 0 -0.808996 0.587814
    outer loop
      vertex 2.25 -42.4314 6.69131
      vertex -2.25 -43.6603 5
      vertex 2.25 -43.6603 5
    endloop
  endfacet
  facet normal 0 -0.913547 -0.406732
    outer loop
      vertex -2.25 -43.6603 -5
      vertex 2.25 -44.5106 -3.09017
      vertex -2.25 -44.5106 -3.09017
    endloop
  endfacet
  facet normal 0 -0.913547 -0.406732
    outer loop
      vertex 2.25 -44.5106 -3.09017
      vertex -2.25 -43.6603 -5
      vertex 2.25 -43.6603 -5
    endloop
  endfacet
  facet normal 0 -0.978153 -0.207887
    outer loop
      vertex -2.25 -44.5106 -3.09017
      vertex 2.25 -44.9452 -1.04528
      vertex -2.25 -44.9452 -1.04528
    endloop
  endfacet
  facet normal 0 -0.978153 -0.207887
    outer loop
      vertex 2.25 -44.9452 -1.04528
      vertex -2.25 -44.5106 -3.09017
      vertex 2.25 -44.5106 -3.09017
    endloop
  endfacet
  facet normal 0 -0.309014 0.951058
    outer loop
      vertex -2.25 -37.0791 9.78148
      vertex 2.25 -39.0674 9.13545
      vertex 2.25 -37.0791 9.78148
    endloop
  endfacet
  facet normal 0 -0.309014 0.951058
    outer loop
      vertex 2.25 -39.0674 9.13545
      vertex -2.25 -37.0791 9.78148
      vertex -2.25 -39.0674 9.13545
    endloop
  endfacet
  facet normal 0 -0.978153 0.207887
    outer loop
      vertex -2.25 -44.9452 1.04528
      vertex 2.25 -44.5106 3.09017
      vertex -2.25 -44.5106 3.09017
    endloop
  endfacet
  facet normal 0 -0.978153 0.207887
    outer loop
      vertex 2.25 -44.5106 3.09017
      vertex -2.25 -44.9452 1.04528
      vertex 2.25 -44.9452 1.04528
    endloop
  endfacet
  facet normal 0 -0.104528 0.994522
    outer loop
      vertex -2.25 -35.5 9.94745
      vertex 2.25 -37.0791 9.78148
      vertex 2.25 -35.5 9.94745
    endloop
  endfacet
  facet normal 0 -0.104528 0.994522
    outer loop
      vertex 2.25 -37.0791 9.78148
      vertex -2.25 -35.5 9.94745
      vertex -2.25 -37.0791 9.78148
    endloop
  endfacet
  facet normal 0 -0.499995 0.866028
    outer loop
      vertex -2.25 -39.0674 9.13545
      vertex 2.25 -40.8779 8.09017
      vertex 2.25 -39.0674 9.13545
    endloop
  endfacet
  facet normal 0 -0.499995 0.866028
    outer loop
      vertex 2.25 -40.8779 8.09017
      vertex -2.25 -39.0674 9.13545
      vertex -2.25 -40.8779 8.09017
    endloop
  endfacet
  facet normal 0 -0.499995 -0.866028
    outer loop
      vertex -2.25 -40.8779 -8.09017
      vertex 2.25 -39.0674 -9.13545
      vertex 2.25 -40.8779 -8.09017
    endloop
  endfacet
  facet normal -0 -0.499995 -0.866028
    outer loop
      vertex 2.25 -39.0674 -9.13545
      vertex -2.25 -40.8779 -8.09017
      vertex -2.25 -39.0674 -9.13545
    endloop
  endfacet
  facet normal 0 -1 0
    outer loop
      vertex -2.25 -44.9452 -1.04528
      vertex 2.25 -44.9452 1.04528
      vertex -2.25 -44.9452 1.04528
    endloop
  endfacet
  facet normal 0 -1 -0
    outer loop
      vertex 2.25 -44.9452 1.04528
      vertex -2.25 -44.9452 -1.04528
      vertex 2.25 -44.9452 -1.04528
    endloop
  endfacet
  facet normal -0 0 1
    outer loop
      vertex -2.25 35.5 10
      vertex 2.25 -35.5 10
      vertex 2.25 35.5 10
    endloop
  endfacet
  facet normal 0 0 1
    outer loop
      vertex 2.25 -35.5 10
      vertex -2.25 35.5 10
      vertex -2.25 -35.5 10
    endloop
  endfacet
  facet normal 0 0 -1
    outer loop
      vertex -2.25 -35.5 -10
      vertex 2.25 35.5 -10
      vertex 2.25 -35.5 -10
    endloop
  endfacet
  facet normal -0 0 -1
    outer loop
      vertex 2.25 35.5 -10
      vertex -2.25 -35.5 -10
      vertex -2.25 35.5 -10
    endloop
  endfacet
  facet normal 0 1 -0
    outer loop
      vertex 2.25 35.5 9.94745
      vertex -2.25 35.5 10
      vertex 2.25 35.5 10
    endloop
  endfacet
  facet normal 0 1 0
    outer loop
      vertex -2.25 35.5 10
      vertex 2.25 35.5 9.94745
      vertex -2.25 35.5 9.94745
    endloop
  endfacet
  facet normal 0 1 -0
    outer loop
      vertex 2.25 35.5 -10
      vertex -2.25 35.5 -9.94745
      vertex 2.25 35.5 -9.94745
    endloop
  endfacet
  facet normal 0 1 0
    outer loop
      vertex -2.25 35.5 -9.94745
      vertex 2.25 35.5 -10
      vertex -2.25 35.5 -10
    endloop
  endfacet
  facet normal 0 -1 0
    outer loop
      vertex -2.25 -35.5 9.94745
      vertex 2.25 -35.5 10
      vertex -2.25 -35.5 10
    endloop
  endfacet
  facet normal 0 -1 -0
    outer loop
      vertex 2.25 -35.5 10
      vertex -2.25 -35.5 9.94745
      vertex 2.25 -35.5 9.94745
    endloop
  endfacet
  facet normal 0 -1 0
    outer loop
      vertex -2.25 -35.5 -10
      vertex 2.25 -35.5 -9.94745
      vertex -2.25 -35.5 -9.94745
    endloop
  endfacet
  facet normal 0 -1 -0
    outer loop
      vertex 2.25 -35.5 -9.94745
      vertex -2.25 -35.5 -10
      vertex 2.25 -35.5 -10
    endloop
  endfacet
  facet normal 0 -0.822977 -0.568075
    outer loop
      vertex -2.25 34.7401 1.41842
      vertex 2.25 33.6525 2.99404
      vertex -2.25 33.6525 2.99404
    endloop
  endfacet
  facet normal 0 -0.822977 -0.568075
    outer loop
      vertex 2.25 33.6525 2.99404
      vertex -2.25 34.7401 1.41842
      vertex 2.25 34.7401 1.41842
    endloop
  endfacet
  facet normal 0 -0.663132 0.748502
    outer loop
      vertex -2.25 34.2919 -2.27226
      vertex 2.25 32.8589 -3.54182
      vertex 2.25 34.2919 -2.27226
    endloop
  endfacet
  facet normal 0 -0.663132 0.748502
    outer loop
      vertex 2.25 32.8589 -3.54182
      vertex -2.25 34.2919 -2.27226
      vertex -2.25 32.8589 -3.54182
    endloop
  endfacet
  facet normal 0 -0.239317 0.970942
    outer loop
      vertex -2.25 32.8589 -3.54182
      vertex 2.25 31 -4
      vertex 2.25 32.8589 -3.54182
    endloop
  endfacet
  facet normal 0 -0.239317 0.970942
    outer loop
      vertex 2.25 31 -4
      vertex -2.25 32.8589 -3.54182
      vertex -2.25 31 -4
    endloop
  endfacet
  facet normal 0 0 -1
    outer loop
      vertex -2.25 30.0427 3.88377
      vertex 2.25 31.9573 3.88377
      vertex 2.25 30.0427 3.88377
    endloop
  endfacet
  facet normal -0 0 -1
    outer loop
      vertex 2.25 31.9573 3.88377
      vertex -2.25 30.0427 3.88377
      vertex -2.25 31.9573 3.88377
    endloop
  endfacet
  facet normal 0 -0.464732 -0.885452
    outer loop
      vertex -2.25 31.9573 3.88377
      vertex 2.25 33.6525 2.99404
      vertex 2.25 31.9573 3.88377
    endloop
  endfacet
  facet normal -0 -0.464732 -0.885452
    outer loop
      vertex 2.25 33.6525 2.99404
      vertex -2.25 31.9573 3.88377
      vertex -2.25 33.6525 2.99404
    endloop
  endfacet
  facet normal -0 0.239317 0.970942
    outer loop
      vertex -2.25 31 -4
      vertex 2.25 29.1411 -3.54182
      vertex 2.25 31 -4
    endloop
  endfacet
  facet normal 0 0.239317 0.970942
    outer loop
      vertex 2.25 29.1411 -3.54182
      vertex -2.25 31 -4
      vertex -2.25 29.1411 -3.54182
    endloop
  endfacet
  facet normal 0 0.992713 -0.1205
    outer loop
      vertex 2.25 27.0292 -0.482146
      vertex -2.25 27.2599 1.41842
      vertex 2.25 27.2599 1.41842
    endloop
  endfacet
  facet normal 0 0.992713 -0.1205
    outer loop
      vertex -2.25 27.2599 1.41842
      vertex 2.25 27.0292 -0.482146
      vertex -2.25 27.0292 -0.482146
    endloop
  endfacet
  facet normal -0 0.663132 0.748502
    outer loop
      vertex -2.25 29.1411 -3.54182
      vertex 2.25 27.7081 -2.27226
      vertex 2.25 29.1411 -3.54182
    endloop
  endfacet
  facet normal 0 0.663132 0.748502
    outer loop
      vertex 2.25 27.7081 -2.27226
      vertex -2.25 29.1411 -3.54182
      vertex -2.25 27.7081 -2.27226
    endloop
  endfacet
  facet normal 0 0.935016 0.354605
    outer loop
      vertex 2.25 27.7081 -2.27226
      vertex -2.25 27.0292 -0.482146
      vertex 2.25 27.0292 -0.482146
    endloop
  endfacet
  facet normal 0 0.935016 0.354605
    outer loop
      vertex -2.25 27.0292 -0.482146
      vertex 2.25 27.7081 -2.27226
      vertex -2.25 27.7081 -2.27226
    endloop
  endfacet
  facet normal 0 -0.992713 -0.1205
    outer loop
      vertex -2.25 34.9708 -0.482146
      vertex 2.25 34.7401 1.41842
      vertex -2.25 34.7401 1.41842
    endloop
  endfacet
  facet normal 0 -0.992713 -0.1205
    outer loop
      vertex 2.25 34.7401 1.41842
      vertex -2.25 34.9708 -0.482146
      vertex 2.25 34.9708 -0.482146
    endloop
  endfacet
  facet normal 0 -0.935016 0.354605
    outer loop
      vertex -2.25 34.2919 -2.27226
      vertex 2.25 34.9708 -0.482146
      vertex -2.25 34.9708 -0.482146
    endloop
  endfacet
  facet normal 0 -0.935016 0.354605
    outer loop
      vertex 2.25 34.9708 -0.482146
      vertex -2.25 34.2919 -2.27226
      vertex 2.25 34.2919 -2.27226
    endloop
  endfacet
  facet normal 0 0.822977 -0.568075
    outer loop
      vertex 2.25 27.2599 1.41842
      vertex -2.25 28.3475 2.99404
      vertex 2.25 28.3475 2.99404
    endloop
  endfacet
  facet normal 0 0.822977 -0.568075
    outer loop
      vertex -2.25 28.3475 2.99404
      vertex 2.25 27.2599 1.41842
      vertex -2.25 27.2599 1.41842
    endloop
  endfacet
  facet normal 0 0.464732 -0.885452
    outer loop
      vertex -2.25 28.3475 2.99404
      vertex 2.25 30.0427 3.88377
      vertex 2.25 28.3475 2.99404
    endloop
  endfacet
  facet normal 0 0.464732 -0.885452
    outer loop
      vertex 2.25 30.0427 3.88377
      vertex -2.25 28.3475 2.99404
      vertex -2.25 30.0427 3.88377
    endloop
  endfacet
  facet normal 0 -0.822977 -0.568075
    outer loop
      vertex -2.25 -27.2599 1.41842
      vertex 2.25 -28.3475 2.99404
      vertex -2.25 -28.3475 2.99404
    endloop
  endfacet
  facet normal 0 -0.822977 -0.568075
    outer loop
      vertex 2.25 -28.3475 2.99404
      vertex -2.25 -27.2599 1.41842
      vertex 2.25 -27.2599 1.41842
    endloop
  endfacet
  facet normal 0 -0.663132 0.748502
    outer loop
      vertex -2.25 -27.7081 -2.27226
      vertex 2.25 -29.1411 -3.54182
      vertex 2.25 -27.7081 -2.27226
    endloop
  endfacet
  facet normal 0 -0.663132 0.748502
    outer loop
      vertex 2.25 -29.1411 -3.54182
      vertex -2.25 -27.7081 -2.27226
      vertex -2.25 -29.1411 -3.54182
    endloop
  endfacet
  facet normal 0 -0.239317 0.970942
    outer loop
      vertex -2.25 -29.1411 -3.54182
      vertex 2.25 -31 -4
      vertex 2.25 -29.1411 -3.54182
    endloop
  endfacet
  facet normal 0 -0.239317 0.970942
    outer loop
      vertex 2.25 -31 -4
      vertex -2.25 -29.1411 -3.54182
      vertex -2.25 -31 -4
    endloop
  endfacet
  facet normal -0 0.663132 0.748502
    outer loop
      vertex -2.25 -32.8589 -3.54182
      vertex 2.25 -34.2919 -2.27226
      vertex 2.25 -32.8589 -3.54182
    endloop
  endfacet
  facet normal 0 0.663132 0.748502
    outer loop
      vertex 2.25 -34.2919 -2.27226
      vertex -2.25 -32.8589 -3.54182
      vertex -2.25 -34.2919 -2.27226
    endloop
  endfacet
  facet normal 0 0.464732 -0.885452
    outer loop
      vertex -2.25 -33.6525 2.99404
      vertex 2.25 -31.9573 3.88377
      vertex 2.25 -33.6525 2.99404
    endloop
  endfacet
  facet normal 0 0.464732 -0.885452
    outer loop
      vertex 2.25 -31.9573 3.88377
      vertex -2.25 -33.6525 2.99404
      vertex -2.25 -31.9573 3.88377
    endloop
  endfacet
  facet normal -0 0.239317 0.970942
    outer loop
      vertex -2.25 -31 -4
      vertex 2.25 -32.8589 -3.54182
      vertex 2.25 -31 -4
    endloop
  endfacet
  facet normal 0 0.239317 0.970942
    outer loop
      vertex 2.25 -32.8589 -3.54182
      vertex -2.25 -31 -4
      vertex -2.25 -32.8589 -3.54182
    endloop
  endfacet
  facet normal 0 -0.935016 0.354605
    outer loop
      vertex -2.25 -27.7081 -2.27226
      vertex 2.25 -27.0292 -0.482146
      vertex -2.25 -27.0292 -0.482146
    endloop
  endfacet
  facet normal 0 -0.935016 0.354605
    outer loop
      vertex 2.25 -27.0292 -0.482146
      vertex -2.25 -27.7081 -2.27226
      vertex 2.25 -27.7081 -2.27226
    endloop
  endfacet
  facet normal 0 0.935016 0.354605
    outer loop
      vertex 2.25 -34.2919 -2.27226
      vertex -2.25 -34.9708 -0.482146
      vertex 2.25 -34.9708 -0.482146
    endloop
  endfacet
  facet normal 0 0.935016 0.354605
    outer loop
      vertex -2.25 -34.9708 -0.482146
      vertex 2.25 -34.2919 -2.27226
      vertex -2.25 -34.2919 -2.27226
    endloop
  endfacet
  facet normal 0 -0.464732 -0.885452
    outer loop
      vertex -2.25 -30.0427 3.88377
      vertex 2.25 -28.3475 2.99404
      vertex 2.25 -30.0427 3.88377
    endloop
  endfacet
  facet normal -0 -0.464732 -0.885452
    outer loop
      vertex 2.25 -28.3475 2.99404
      vertex -2.25 -30.0427 3.88377
      vertex -2.25 -28.3475 2.99404
    endloop
  endfacet
  facet normal 0 -0.992713 -0.1205
    outer loop
      vertex -2.25 -27.0292 -0.482146
      vertex 2.25 -27.2599 1.41842
      vertex -2.25 -27.2599 1.41842
    endloop
  endfacet
  facet normal 0 -0.992713 -0.1205
    outer loop
      vertex 2.25 -27.2599 1.41842
      vertex -2.25 -27.0292 -0.482146
      vertex 2.25 -27.0292 -0.482146
    endloop
  endfacet
  facet normal 0 0.992713 -0.1205
    outer loop
      vertex 2.25 -34.9708 -0.482146
      vertex -2.25 -34.7401 1.41842
      vertex 2.25 -34.7401 1.41842
    endloop
  endfacet
  facet normal 0 0.992713 -0.1205
    outer loop
      vertex -2.25 -34.7401 1.41842
      vertex 2.25 -34.9708 -0.482146
      vertex -2.25 -34.9708 -0.482146
    endloop
  endfacet
  facet normal 0 0.822977 -0.568075
    outer loop
      vertex 2.25 -34.7401 1.41842
      vertex -2.25 -33.6525 2.99404
      vertex 2.25 -33.6525 2.99404
    endloop
  endfacet
  facet normal 0 0.822977 -0.568075
    outer loop
      vertex -2.25 -33.6525 2.99404
      vertex 2.25 -34.7401 1.41842
      vertex -2.25 -34.7401 1.41842
    endloop
  endfacet
  facet normal 0 0 -1
    outer loop
      vertex -2.25 -31.9573 3.88377
      vertex 2.25 -30.0427 3.88377
      vertex 2.25 -31.9573 3.88377
    endloop
  endfacet
  facet normal -0 0 -1
    outer loop
      vertex 2.25 -30.0427 3.88377
      vertex -2.25 -31.9573 3.88377
      vertex -2.25 -30.0427 3.88377
    endloop
  endfacet
endsolid OpenSCAD_Model
