solid OpenSCAD_Model
  facet normal -0 0.669152 0.743125
    outer loop
      vertex -2.25 42.4314 6.69131
      vertex 2.25 40.8779 8.09017
      vertex 2.25 42.4314 6.69131
    endloop
  endfacet
  facet normal 0 0.669152 0.743125
    outer loop
      vertex 2.25 40.8779 8.09017
      vertex -2.25 42.4314 6.69131
      vertex -2.25 40.8779 8.09017
    endloop
  endfacet
  facet normal 0 0.499995 -0.866028
    outer loop
      vertex -2.25 39.0674 -9.13545
      vertex 2.25 40.8779 -8.09017
      vertex 2.25 39.0674 -9.13545
    endloop
  endfacet
  facet normal 0 0.499995 -0.866028
    outer loop
      vertex 2.25 40.8779 -8.09017
      vertex -2.25 39.0674 -9.13545
      vertex -2.25 40.8779 -8.09017
    endloop
  endfacet
  facet normal 0 0.978153 0.207887
    outer loop
      vertex 2.25 44.9452 1.04528
      vertex -2.25 44.5106 3.09017
      vertex 2.25 44.5106 3.09017
    endloop
  endfacet
  facet normal 0 0.978153 0.207887
    outer loop
      vertex -2.25 44.5106 3.09017
      vertex 2.25 44.9452 1.04528
      vertex -2.25 44.9452 1.04528
    endloop
  endfacet
  facet normal 0 0.104528 -0.994522
    outer loop
      vertex -2.25 35.5 -9.94745
      vertex 2.25 37.0791 -9.78148
      vertex 2.25 35.5 -9.94745
    endloop
  endfacet
  facet normal 0 0.104528 -0.994522
    outer loop
      vertex 2.25 37.0791 -9.78148
      vertex -2.25 35.5 -9.94745
      vertex -2.25 37.0791 -9.78148
    endloop
  endfacet
  facet normal -1 0 0
    outer loop
      vertex -2.25 -40.8779 -8.09017
      vertex -2.25 -34.6194 -1.91342
      vertex -2.25 -39.0674 -9.13545
    endloop
  endfacet
  facet normal -1 0 0
    outer loop
      vertex -2.25 -42.4314 -6.69131
      vertex -2.25 -34.6194 -1.91342
      vertex -2.25 -40.8779 -8.09017
    endloop
  endfacet
  facet normal -1 0 0
    outer loop
      vertex -2.25 -43.6603 -5
      vertex -2.25 -34.6194 -1.91342
      vertex -2.25 -42.4314 -6.69131
    endloop
  endfacet
  facet normal -1 0 0
    outer loop
      vertex -2.25 -35 0
      vertex -2.25 -37.0791 9.78148
      vertex -2.25 -35.5 9.94745
    endloop
  endfacet
  facet normal -1 0 -0
    outer loop
      vertex -2.25 -39.0674 9.13545
      vertex -2.25 -35 0
      vertex -2.25 -40.8779 8.09017
    endloop
  endfacet
  facet normal -1 0 -0
    outer loop
      vertex -2.25 -37.0791 9.78148
      vertex -2.25 -35 0
      vertex -2.25 -39.0674 9.13545
    endloop
  endfacet
  facet normal -1 0 0
    outer loop
      vertex -2.25 -44.5106 -3.09017
      vertex -2.25 -34.6194 -1.91342
      vertex -2.25 -43.6603 -5
    endloop
  endfacet
  facet normal -1 0 0
    outer loop
      vertex -2.25 -35 0
      vertex -2.25 -42.4314 6.69131
      vertex -2.25 -40.8779 8.09017
    endloop
  endfacet
  facet normal -1 -0 0
    outer loop
      vertex -2.25 -34.6194 -1.91342
      vertex -2.25 -44.5106 -3.09017
      vertex -2.25 -35 0
    endloop
  endfacet
  facet normal -1 0 0
    outer loop
      vertex -2.25 -35 0
      vertex -2.25 -43.6603 5
      vertex -2.25 -42.4314 6.69131
    endloop
  endfacet
  facet normal -1 0 0
    outer loop
      vertex -2.25 -44.9452 -1.04528
      vertex -2.25 -35 0
      vertex -2.25 -44.5106 -3.09017
    endloop
  endfacet
  facet normal -1 0 0
    outer loop
      vertex -2.25 -35 0
      vertex -2.25 -44.5106 3.09017
      vertex -2.25 -43.6603 5
    endloop
  endfacet
  facet normal -1 0 0
    outer loop
      vertex -2.25 -44.9452 1.04528
      vertex -2.25 -35 0
      vertex -2.25 -44.9452 -1.04528
    endloop
  endfacet
  facet normal -1 0 0
    outer loop
      vertex -2.25 -35 0
      vertex -2.25 -44.9452 1.04528
      vertex -2.25 -44.5106 3.09017
    endloop
  endfacet
  facet normal -1 0 0
    outer loop
      vertex -2.25 30 -5
      vertex -2.25 35.5 -9.94745
      vertex -2.25 35.5 -10
    endloop
  endfacet
  facet normal -1 0 0
    outer loop
      vertex -2.25 35.5 -9.94745
      vertex -2.25 35 0
      vertex -2.25 35.5 9.94745
    endloop
  endfacet
  facet normal -1 0 0
    outer loop
      vertex -2.25 34.6194 1.91342
      vertex -2.25 35.5 9.94745
      vertex -2.25 35 0
    endloop
  endfacet
  facet normal -1 0 0
    outer loop
      vertex -2.25 35.5 -9.94745
      vertex -2.25 34.6194 -1.91342
      vertex -2.25 35 0
    endloop
  endfacet
  facet normal -1 0 0
    outer loop
      vertex -2.25 35.5 -9.94745
      vertex -2.25 33.5355 -3.53553
      vertex -2.25 34.6194 -1.91342
    endloop
  endfacet
  facet normal -1 0 0
    outer loop
      vertex -2.25 35.5 -9.94745
      vertex -2.25 31.9134 -4.6194
      vertex -2.25 33.5355 -3.53553
    endloop
  endfacet
  facet normal -1 0 0
    outer loop
      vertex -2.25 35.5 -9.94745
      vertex -2.25 30 -5
      vertex -2.25 31.9134 -4.6194
    endloop
  endfacet
  facet normal -1 0 0
    outer loop
      vertex -2.25 35.5 -10
      vertex -2.25 28.0866 -4.6194
      vertex -2.25 30 -5
    endloop
  endfacet
  facet normal -1 0 0
    outer loop
      vertex -2.25 -28.0866 -4.6194
      vertex -2.25 28.0866 -4.6194
      vertex -2.25 35.5 -10
    endloop
  endfacet
  facet normal -1 0 0
    outer loop
      vertex -2.25 25.3806 -1.91342
      vertex -2.25 -25 0
      vertex -2.25 25 0
    endloop
  endfacet
  facet normal -1 0 0
    outer loop
      vertex -2.25 -25.3806 -1.91342
      vertex -2.25 25.3806 -1.91342
      vertex -2.25 26.4645 -3.53553
    endloop
  endfacet
  facet normal -1 0 0
    outer loop
      vertex -2.25 28.0866 -4.6194
      vertex -2.25 -28.0866 -4.6194
      vertex -2.25 26.4645 -3.53553
    endloop
  endfacet
  facet normal -1 0 0
    outer loop
      vertex -2.25 25.3806 -1.91342
      vertex -2.25 -25.3806 -1.91342
      vertex -2.25 -25 0
    endloop
  endfacet
  facet normal -1 0 0
    outer loop
      vertex -2.25 26.4645 -3.53553
      vertex -2.25 -26.4645 -3.53553
      vertex -2.25 -25.3806 -1.91342
    endloop
  endfacet
  facet normal -1 -0 0
    outer loop
      vertex -2.25 26.4645 -3.53553
      vertex -2.25 -28.0866 -4.6194
      vertex -2.25 -26.4645 -3.53553
    endloop
  endfacet
  facet normal -1 0 0
    outer loop
      vertex -2.25 -35.5 -10
      vertex -2.25 -28.0866 -4.6194
      vertex -2.25 35.5 -10
    endloop
  endfacet
  facet normal -1 0 0
    outer loop
      vertex -2.25 -37.0791 -9.78148
      vertex -2.25 -33.5355 -3.53553
      vertex -2.25 -35.5 -9.94745
    endloop
  endfacet
  facet normal -1 -0 0
    outer loop
      vertex -2.25 -31.9134 -4.6194
      vertex -2.25 -35.5 -9.94745
      vertex -2.25 -33.5355 -3.53553
    endloop
  endfacet
  facet normal -1 -0 0
    outer loop
      vertex -2.25 -30 -5
      vertex -2.25 -35.5 -9.94745
      vertex -2.25 -31.9134 -4.6194
    endloop
  endfacet
  facet normal -1 0 0
    outer loop
      vertex -2.25 -35.5 -9.94745
      vertex -2.25 -30 -5
      vertex -2.25 -35.5 -10
    endloop
  endfacet
  facet normal -1 0 0
    outer loop
      vertex -2.25 -28.0866 -4.6194
      vertex -2.25 -35.5 -10
      vertex -2.25 -30 -5
    endloop
  endfacet
  facet normal -1 0 0
    outer loop
      vertex -2.25 44.5106 -3.09017
      vertex -2.25 44.9452 1.04528
      vertex -2.25 44.9452 -1.04528
    endloop
  endfacet
  facet normal -1 0 0
    outer loop
      vertex -2.25 44.5106 -3.09017
      vertex -2.25 44.5106 3.09017
      vertex -2.25 44.9452 1.04528
    endloop
  endfacet
  facet normal -1 0 0
    outer loop
      vertex -2.25 43.6603 -5
      vertex -2.25 44.5106 3.09017
      vertex -2.25 44.5106 -3.09017
    endloop
  endfacet
  facet normal -1 0 0
    outer loop
      vertex -2.25 43.6603 -5
      vertex -2.25 43.6603 5
      vertex -2.25 44.5106 3.09017
    endloop
  endfacet
  facet normal -1 0 0
    outer loop
      vertex -2.25 42.4314 -6.69131
      vertex -2.25 43.6603 5
      vertex -2.25 43.6603 -5
    endloop
  endfacet
  facet normal -1 0 0
    outer loop
      vertex -2.25 42.4314 -6.69131
      vertex -2.25 42.4314 6.69131
      vertex -2.25 43.6603 5
    endloop
  endfacet
  facet normal -1 0 0
    outer loop
      vertex -2.25 40.8779 -8.09017
      vertex -2.25 42.4314 6.69131
      vertex -2.25 42.4314 -6.69131
    endloop
  endfacet
  facet normal -1 0 0
    outer loop
      vertex -2.25 40.8779 -8.09017
      vertex -2.25 40.8779 8.09017
      vertex -2.25 42.4314 6.69131
    endloop
  endfacet
  facet normal -1 0 0
    outer loop
      vertex -2.25 35.5 -9.94745
      vertex -2.25 40.8779 -8.09017
      vertex -2.25 39.0674 -9.13545
    endloop
  endfacet
  facet normal -1 -0 0
    outer loop
      vertex -2.25 40.8779 -8.09017
      vertex -2.25 35.5 -9.94745
      vertex -2.25 40.8779 8.09017
    endloop
  endfacet
  facet normal -1 0 0
    outer loop
      vertex -2.25 35.5 -9.94745
      vertex -2.25 39.0674 -9.13545
      vertex -2.25 37.0791 -9.78148
    endloop
  endfacet
  facet normal -1 0 0
    outer loop
      vertex -2.25 35.5 9.94745
      vertex -2.25 40.8779 8.09017
      vertex -2.25 35.5 -9.94745
    endloop
  endfacet
  facet normal -1 0 0
    outer loop
      vertex -2.25 40.8779 8.09017
      vertex -2.25 35.5 9.94745
      vertex -2.25 39.0674 9.13545
    endloop
  endfacet
  facet normal -1 0 0
    outer loop
      vertex -2.25 39.0674 9.13545
      vertex -2.25 35.5 9.94745
      vertex -2.25 37.0791 9.78148
    endloop
  endfacet
  facet normal -1 0 0
    outer loop
      vertex -2.25 33.5355 3.53553
      vertex -2.25 35.5 9.94745
      vertex -2.25 34.6194 1.91342
    endloop
  endfacet
  facet normal -1 0 0
    outer loop
      vertex -2.25 31.9134 4.6194
      vertex -2.25 35.5 9.94745
      vertex -2.25 33.5355 3.53553
    endloop
  endfacet
  facet normal -1 0 0
    outer loop
      vertex -2.25 30 5
      vertex -2.25 35.5 9.94745
      vertex -2.25 31.9134 4.6194
    endloop
  endfacet
  facet normal -1 -0 0
    outer loop
      vertex -2.25 35.5 9.94745
      vertex -2.25 30 5
      vertex -2.25 35.5 10
    endloop
  endfacet
  facet normal -1 0 0
    outer loop
      vertex -2.25 28.0866 4.6194
      vertex -2.25 35.5 10
      vertex -2.25 30 5
    endloop
  endfacet
  facet normal -1 0 0
    outer loop
      vertex -2.25 -28.0866 4.6194
      vertex -2.25 28.0866 4.6194
      vertex -2.25 26.4645 3.53553
    endloop
  endfacet
  facet normal -1 0 0
    outer loop
      vertex -2.25 -25 0
      vertex -2.25 25.3806 1.91342
      vertex -2.25 25 0
    endloop
  endfacet
  facet normal -1 0 0
    outer loop
      vertex -2.25 -25.3806 1.91342
      vertex -2.25 25.3806 1.91342
      vertex -2.25 -25 0
    endloop
  endfacet
  facet normal -1 0 0
    outer loop
      vertex -2.25 25.3806 1.91342
      vertex -2.25 -25.3806 1.91342
      vertex -2.25 26.4645 3.53553
    endloop
  endfacet
  facet normal -1 0 0
    outer loop
      vertex -2.25 -26.4645 3.53553
      vertex -2.25 26.4645 3.53553
      vertex -2.25 -25.3806 1.91342
    endloop
  endfacet
  facet normal -1 0 0
    outer loop
      vertex -2.25 -28.0866 4.6194
      vertex -2.25 26.4645 3.53553
      vertex -2.25 -26.4645 3.53553
    endloop
  endfacet
  facet normal -1 0 0
    outer loop
      vertex -2.25 28.0866 4.6194
      vertex -2.25 -28.0866 4.6194
      vertex -2.25 35.5 10
    endloop
  endfacet
  facet normal -1 0 0
    outer loop
      vertex -2.25 -35.5 10
      vertex -2.25 -28.0866 4.6194
      vertex -2.25 -30 5
    endloop
  endfacet
  facet normal -1 0 0
    outer loop
      vertex -2.25 -39.0674 -9.13545
      vertex -2.25 -33.5355 -3.53553
      vertex -2.25 -37.0791 -9.78148
    endloop
  endfacet
  facet normal -1 -0 0
    outer loop
      vertex -2.25 -33.5355 -3.53553
      vertex -2.25 -39.0674 -9.13545
      vertex -2.25 -34.6194 -1.91342
    endloop
  endfacet
  facet normal -1 0 0
    outer loop
      vertex -2.25 -35.5 9.94745
      vertex -2.25 -34.6194 1.91342
      vertex -2.25 -35 0
    endloop
  endfacet
  facet normal -1 0 0
    outer loop
      vertex -2.25 -35.5 9.94745
      vertex -2.25 -33.5355 3.53553
      vertex -2.25 -34.6194 1.91342
    endloop
  endfacet
  facet normal -1 0 0
    outer loop
      vertex -2.25 -35.5 9.94745
      vertex -2.25 -31.9134 4.6194
      vertex -2.25 -33.5355 3.53553
    endloop
  endfacet
  facet normal -1 0 0
    outer loop
      vertex -2.25 -35.5 9.94745
      vertex -2.25 -30 5
      vertex -2.25 -31.9134 4.6194
    endloop
  endfacet
  facet normal -1 0 0
    outer loop
      vertex -2.25 -35.5 10
      vertex -2.25 -30 5
      vertex -2.25 -35.5 9.94745
    endloop
  endfacet
  facet normal -1 0 0
    outer loop
      vertex -2.25 -28.0866 4.6194
      vertex -2.25 -35.5 10
      vertex -2.25 35.5 10
    endloop
  endfacet
  facet normal 0 0.808996 0.587814
    outer loop
      vertex 2.25 43.6603 5
      vertex -2.25 42.4314 6.69131
      vertex 2.25 42.4314 6.69131
    endloop
  endfacet
  facet normal 0 0.808996 0.587814
    outer loop
      vertex -2.25 42.4314 6.69131
      vertex 2.25 43.6603 5
      vertex -2.25 43.6603 5
    endloop
  endfacet
  facet normal 0 0.808996 -0.587814
    outer loop
      vertex 2.25 42.4314 -6.69131
      vertex -2.25 43.6603 -5
      vertex 2.25 43.6603 -5
    endloop
  endfacet
  facet normal 0 0.808996 -0.587814
    outer loop
      vertex -2.25 43.6603 -5
      vertex 2.25 42.4314 -6.69131
      vertex -2.25 42.4314 -6.69131
    endloop
  endfacet
  facet normal -0 0.104528 0.994522
    outer loop
      vertex -2.25 37.0791 9.78148
      vertex 2.25 35.5 9.94745
      vertex 2.25 37.0791 9.78148
    endloop
  endfacet
  facet normal 0 0.104528 0.994522
    outer loop
      vertex 2.25 35.5 9.94745
      vertex -2.25 37.0791 9.78148
      vertex -2.25 35.5 9.94745
    endloop
  endfacet
  facet normal 0 0.309014 -0.951058
    outer loop
      vertex -2.25 37.0791 -9.78148
      vertex 2.25 39.0674 -9.13545
      vertex 2.25 37.0791 -9.78148
    endloop
  endfacet
  facet normal 0 0.309014 -0.951058
    outer loop
      vertex 2.25 39.0674 -9.13545
      vertex -2.25 37.0791 -9.78148
      vertex -2.25 39.0674 -9.13545
    endloop
  endfacet
  facet normal 0 0.978153 -0.207887
    outer loop
      vertex 2.25 44.5106 -3.09017
      vertex -2.25 44.9452 -1.04528
      vertex 2.25 44.9452 -1.04528
    endloop
  endfacet
  facet normal 0 0.978153 -0.207887
    outer loop
      vertex -2.25 44.9452 -1.04528
      vertex 2.25 44.5106 -3.09017
      vertex -2.25 44.5106 -3.09017
    endloop
  endfacet
  facet normal 1 -0 0
    outer loop
      vertex 2.25 -40.8779 8.09017
      vertex 2.25 -34.6194 1.91342
      vertex 2.25 -39.0674 9.13545
    endloop
  endfacet
  facet normal 1 -0 0
    outer loop
      vertex 2.25 -42.4314 6.69131
      vertex 2.25 -34.6194 1.91342
      vertex 2.25 -40.8779 8.09017
    endloop
  endfacet
  facet normal 1 -0 0
    outer loop
      vertex 2.25 -43.6603 5
      vertex 2.25 -34.6194 1.91342
      vertex 2.25 -42.4314 6.69131
    endloop
  endfacet
  facet normal 1 0 0
    outer loop
      vertex 2.25 -35 0
      vertex 2.25 -37.0791 -9.78148
      vertex 2.25 -35.5 -9.94745
    endloop
  endfacet
  facet normal 1 0 -0
    outer loop
      vertex 2.25 -39.0674 -9.13545
      vertex 2.25 -35 0
      vertex 2.25 -40.8779 -8.09017
    endloop
  endfacet
  facet normal 1 0 -0
    outer loop
      vertex 2.25 -37.0791 -9.78148
      vertex 2.25 -35 0
      vertex 2.25 -39.0674 -9.13545
    endloop
  endfacet
  facet normal 1 -0 0
    outer loop
      vertex 2.25 -44.5106 3.09017
      vertex 2.25 -34.6194 1.91342
      vertex 2.25 -43.6603 5
    endloop
  endfacet
  facet normal 1 0 0
    outer loop
      vertex 2.25 -35 0
      vertex 2.25 -42.4314 -6.69131
      vertex 2.25 -40.8779 -8.09017
    endloop
  endfacet
  facet normal 1 0 0
    outer loop
      vertex 2.25 -34.6194 1.91342
      vertex 2.25 -44.5106 3.09017
      vertex 2.25 -35 0
    endloop
  endfacet
  facet normal 1 0 0
    outer loop
      vertex 2.25 -35 0
      vertex 2.25 -43.6603 -5
      vertex 2.25 -42.4314 -6.69131
    endloop
  endfacet
  facet normal 1 -0 0
    outer loop
      vertex 2.25 -44.9452 1.04528
      vertex 2.25 -35 0
      vertex 2.25 -44.5106 3.09017
    endloop
  endfacet
  facet normal 1 0 0
    outer loop
      vertex 2.25 -35 0
      vertex 2.25 -44.5106 -3.09017
      vertex 2.25 -43.6603 -5
    endloop
  endfacet
  facet normal 1 0 0
    outer loop
      vertex 2.25 -44.9452 -1.04528
      vertex 2.25 -35 0
      vertex 2.25 -44.9452 1.04528
    endloop
  endfacet
  facet normal 1 0 0
    outer loop
      vertex 2.25 -35 0
      vertex 2.25 -44.9452 -1.04528
      vertex 2.25 -44.5106 -3.09017
    endloop
  endfacet
  facet normal 1 0 0
    outer loop
      vertex 2.25 30 5
      vertex 2.25 35.5 9.94745
      vertex 2.25 35.5 10
    endloop
  endfacet
  facet normal 1 0 0
    outer loop
      vertex 2.25 35.5 9.94745
      vertex 2.25 35 0
      vertex 2.25 35.5 -9.94745
    endloop
  endfacet
  facet normal 1 -0 0
    outer loop
      vertex 2.25 34.6194 -1.91342
      vertex 2.25 35.5 -9.94745
      vertex 2.25 35 0
    endloop
  endfacet
  facet normal 1 0 0
    outer loop
      vertex 2.25 35.5 9.94745
      vertex 2.25 34.6194 1.91342
      vertex 2.25 35 0
    endloop
  endfacet
  facet normal 1 0 0
    outer loop
      vertex 2.25 35.5 9.94745
      vertex 2.25 33.5355 3.53553
      vertex 2.25 34.6194 1.91342
    endloop
  endfacet
  facet normal 1 0 0
    outer loop
      vertex 2.25 35.5 9.94745
      vertex 2.25 31.9134 4.6194
      vertex 2.25 33.5355 3.53553
    endloop
  endfacet
  facet normal 1 0 0
    outer loop
      vertex 2.25 35.5 9.94745
      vertex 2.25 30 5
      vertex 2.25 31.9134 4.6194
    endloop
  endfacet
  facet normal 1 0 0
    outer loop
      vertex 2.25 35.5 10
      vertex 2.25 28.0866 4.6194
      vertex 2.25 30 5
    endloop
  endfacet
  facet normal 1 0 0
    outer loop
      vertex 2.25 -28.0866 4.6194
      vertex 2.25 28.0866 4.6194
      vertex 2.25 35.5 10
    endloop
  endfacet
  facet normal 1 0 0
    outer loop
      vertex 2.25 25.3806 1.91342
      vertex 2.25 -25 0
      vertex 2.25 25 0
    endloop
  endfacet
  facet normal 1 0 0
    outer loop
      vertex 2.25 -25.3806 1.91342
      vertex 2.25 25.3806 1.91342
      vertex 2.25 26.4645 3.53553
    endloop
  endfacet
  facet normal 1 0 0
    outer loop
      vertex 2.25 28.0866 4.6194
      vertex 2.25 -28.0866 4.6194
      vertex 2.25 26.4645 3.53553
    endloop
  endfacet
  facet normal 1 0 0
    outer loop
      vertex 2.25 25.3806 1.91342
      vertex 2.25 -25.3806 1.91342
      vertex 2.25 -25 0
    endloop
  endfacet
  facet normal 1 0 0
    outer loop
      vertex 2.25 26.4645 3.53553
      vertex 2.25 -26.4645 3.53553
      vertex 2.25 -25.3806 1.91342
    endloop
  endfacet
  facet normal 1 0 0
    outer loop
      vertex 2.25 26.4645 3.53553
      vertex 2.25 -28.0866 4.6194
      vertex 2.25 -26.4645 3.53553
    endloop
  endfacet
  facet normal 1 -0 0
    outer loop
      vertex 2.25 -35.5 10
      vertex 2.25 -28.0866 4.6194
      vertex 2.25 35.5 10
    endloop
  endfacet
  facet normal 1 -0 0
    outer loop
      vertex 2.25 -37.0791 9.78148
      vertex 2.25 -33.5355 3.53553
      vertex 2.25 -35.5 9.94745
    endloop
  endfacet
  facet normal 1 0 0
    outer loop
      vertex 2.25 -31.9134 4.6194
      vertex 2.25 -35.5 9.94745
      vertex 2.25 -33.5355 3.53553
    endloop
  endfacet
  facet normal 1 0 0
    outer loop
      vertex 2.25 -30 5
      vertex 2.25 -35.5 9.94745
      vertex 2.25 -31.9134 4.6194
    endloop
  endfacet
  facet normal 1 -0 0
    outer loop
      vertex 2.25 -35.5 9.94745
      vertex 2.25 -30 5
      vertex 2.25 -35.5 10
    endloop
  endfacet
  facet normal 1 0 0
    outer loop
      vertex 2.25 -28.0866 4.6194
      vertex 2.25 -35.5 10
      vertex 2.25 -30 5
    endloop
  endfacet
  facet normal 1 0 0
    outer loop
      vertex 2.25 44.5106 3.09017
      vertex 2.25 44.9452 -1.04528
      vertex 2.25 44.9452 1.04528
    endloop
  endfacet
  facet normal 1 0 0
    outer loop
      vertex 2.25 44.5106 3.09017
      vertex 2.25 44.5106 -3.09017
      vertex 2.25 44.9452 -1.04528
    endloop
  endfacet
  facet normal 1 0 0
    outer loop
      vertex 2.25 43.6603 5
      vertex 2.25 44.5106 -3.09017
      vertex 2.25 44.5106 3.09017
    endloop
  endfacet
  facet normal 1 0 0
    outer loop
      vertex 2.25 43.6603 5
      vertex 2.25 43.6603 -5
      vertex 2.25 44.5106 -3.09017
    endloop
  endfacet
  facet normal 1 0 0
    outer loop
      vertex 2.25 42.4314 6.69131
      vertex 2.25 43.6603 -5
      vertex 2.25 43.6603 5
    endloop
  endfacet
  facet normal 1 0 0
    outer loop
      vertex 2.25 42.4314 6.69131
      vertex 2.25 42.4314 -6.69131
      vertex 2.25 43.6603 -5
    endloop
  endfacet
  facet normal 1 0 0
    outer loop
      vertex 2.25 40.8779 8.09017
      vertex 2.25 42.4314 -6.69131
      vertex 2.25 42.4314 6.69131
    endloop
  endfacet
  facet normal 1 0 0
    outer loop
      vertex 2.25 40.8779 8.09017
      vertex 2.25 40.8779 -8.09017
      vertex 2.25 42.4314 -6.69131
    endloop
  endfacet
  facet normal 1 0 0
    outer loop
      vertex 2.25 35.5 9.94745
      vertex 2.25 40.8779 8.09017
      vertex 2.25 39.0674 9.13545
    endloop
  endfacet
  facet normal 1 0 0
    outer loop
      vertex 2.25 40.8779 8.09017
      vertex 2.25 35.5 9.94745
      vertex 2.25 40.8779 -8.09017
    endloop
  endfacet
  facet normal 1 0 0
    outer loop
      vertex 2.25 35.5 9.94745
      vertex 2.25 39.0674 9.13545
      vertex 2.25 37.0791 9.78148
    endloop
  endfacet
  facet normal 1 0 0
    outer loop
      vertex 2.25 35.5 -9.94745
      vertex 2.25 40.8779 -8.09017
      vertex 2.25 35.5 9.94745
    endloop
  endfacet
  facet normal 1 0 0
    outer loop
      vertex 2.25 40.8779 -8.09017
      vertex 2.25 35.5 -9.94745
      vertex 2.25 39.0674 -9.13545
    endloop
  endfacet
  facet normal 1 0 0
    outer loop
      vertex 2.25 39.0674 -9.13545
      vertex 2.25 35.5 -9.94745
      vertex 2.25 37.0791 -9.78148
    endloop
  endfacet
  facet normal 1 -0 0
    outer loop
      vertex 2.25 33.5355 -3.53553
      vertex 2.25 35.5 -9.94745
      vertex 2.25 34.6194 -1.91342
    endloop
  endfacet
  facet normal 1 -0 0
    outer loop
      vertex 2.25 31.9134 -4.6194
      vertex 2.25 35.5 -9.94745
      vertex 2.25 33.5355 -3.53553
    endloop
  endfacet
  facet normal 1 -0 0
    outer loop
      vertex 2.25 30 -5
      vertex 2.25 35.5 -9.94745
      vertex 2.25 31.9134 -4.6194
    endloop
  endfacet
  facet normal 1 0 0
    outer loop
      vertex 2.25 35.5 -9.94745
      vertex 2.25 30 -5
      vertex 2.25 35.5 -10
    endloop
  endfacet
  facet normal 1 0 0
    outer loop
      vertex 2.25 28.0866 -4.6194
      vertex 2.25 35.5 -10
      vertex 2.25 30 -5
    endloop
  endfacet
  facet normal 1 0 0
    outer loop
      vertex 2.25 -28.0866 -4.6194
      vertex 2.25 28.0866 -4.6194
      vertex 2.25 26.4645 -3.53553
    endloop
  endfacet
  facet normal 1 -0 0
    outer loop
      vertex 2.25 -25 0
      vertex 2.25 25.3806 -1.91342
      vertex 2.25 25 0
    endloop
  endfacet
  facet normal 1 0 0
    outer loop
      vertex 2.25 -25.3806 -1.91342
      vertex 2.25 25.3806 -1.91342
      vertex 2.25 -25 0
    endloop
  endfacet
  facet normal 1 0 0
    outer loop
      vertex 2.25 25.3806 -1.91342
      vertex 2.25 -25.3806 -1.91342
      vertex 2.25 26.4645 -3.53553
    endloop
  endfacet
  facet normal 1 0 0
    outer loop
      vertex 2.25 -26.4645 -3.53553
      vertex 2.25 26.4645 -3.53553
      vertex 2.25 -25.3806 -1.91342
    endloop
  endfacet
  facet normal 1 0 0
    outer loop
      vertex 2.25 -28.0866 -4.6194
      vertex 2.25 26.4645 -3.53553
      vertex 2.25 -26.4645 -3.53553
    endloop
  endfacet
  facet normal 1 0 0
    outer loop
      vertex 2.25 28.0866 -4.6194
      vertex 2.25 -28.0866 -4.6194
      vertex 2.25 35.5 -10
    endloop
  endfacet
  facet normal 1 0 0
    outer loop
      vertex 2.25 -35.5 -10
      vertex 2.25 -28.0866 -4.6194
      vertex 2.25 -30 -5
    endloop
  endfacet
  facet normal 1 -0 0
    outer loop
      vertex 2.25 -39.0674 9.13545
      vertex 2.25 -33.5355 3.53553
      vertex 2.25 -37.0791 9.78148
    endloop
  endfacet
  facet normal 1 0 0
    outer loop
      vertex 2.25 -33.5355 3.53553
      vertex 2.25 -39.0674 9.13545
      vertex 2.25 -34.6194 1.91342
    endloop
  endfacet
  facet normal 1 0 0
    outer loop
      vertex 2.25 -35.5 -9.94745
      vertex 2.25 -34.6194 -1.91342
      vertex 2.25 -35 0
    endloop
  endfacet
  facet normal 1 0 0
    outer loop
      vertex 2.25 -35.5 -9.94745
      vertex 2.25 -33.5355 -3.53553
      vertex 2.25 -34.6194 -1.91342
    endloop
  endfacet
  facet normal 1 0 0
    outer loop
      vertex 2.25 -35.5 -9.94745
      vertex 2.25 -31.9134 -4.6194
      vertex 2.25 -33.5355 -3.53553
    endloop
  endfacet
  facet normal 1 0 0
    outer loop
      vertex 2.25 -35.5 -9.94745
      vertex 2.25 -30 -5
      vertex 2.25 -31.9134 -4.6194
    endloop
  endfacet
  facet normal 1 0 0
    outer loop
      vertex 2.25 -35.5 -10
      vertex 2.25 -30 -5
      vertex 2.25 -35.5 -9.94745
    endloop
  endfacet
  facet normal 1 0 0
    outer loop
      vertex 2.25 -28.0866 -4.6194
      vertex 2.25 -35.5 -10
      vertex 2.25 35.5 -10
    endloop
  endfacet
  facet normal -0 0.309014 0.951058
    outer loop
      vertex -2.25 39.0674 9.13545
      vertex 2.25 37.0791 9.78148
      vertex 2.25 39.0674 9.13545
    endloop
  endfacet
  facet normal 0 0.309014 0.951058
    outer loop
      vertex 2.25 37.0791 9.78148
      vertex -2.25 39.0674 9.13545
      vertex -2.25 37.0791 9.78148
    endloop
  endfacet
  facet normal 0 1 -0
    outer loop
      vertex 2.25 44.9452 -1.04528
      vertex -2.25 44.9452 1.04528
      vertex 2.25 44.9452 1.04528
    endloop
  endfacet
  facet normal 0 1 0
    outer loop
      vertex -2.25 44.9452 1.04528
      vertex 2.25 44.9452 -1.04528
      vertex -2.25 44.9452 -1.04528
    endloop
  endfacet
  facet normal 0 0.913547 0.406732
    outer loop
      vertex 2.25 44.5106 3.09017
      vertex -2.25 43.6603 5
      vertex 2.25 43.6603 5
    endloop
  endfacet
  facet normal 0 0.913547 0.406732
    outer loop
      vertex -2.25 43.6603 5
      vertex 2.25 44.5106 3.09017
      vertex -2.25 44.5106 3.09017
    endloop
  endfacet
  facet normal 0 0.669152 -0.743125
    outer loop
      vertex -2.25 40.8779 -8.09017
      vertex 2.25 42.4314 -6.69131
      vertex 2.25 40.8779 -8.09017
    endloop
  endfacet
  facet normal 0 0.669152 -0.743125
    outer loop
      vertex 2.25 42.4314 -6.69131
      vertex -2.25 40.8779 -8.09017
      vertex -2.25 42.4314 -6.69131
    endloop
  endfacet
  facet normal 0 0.913547 -0.406732
    outer loop
      vertex 2.25 43.6603 -5
      vertex -2.25 44.5106 -3.09017
      vertex 2.25 44.5106 -3.09017
    endloop
  endfacet
  facet normal 0 0.913547 -0.406732
    outer loop
      vertex -2.25 44.5106 -3.09017
      vertex 2.25 43.6603 -5
      vertex -2.25 43.6603 -5
    endloop
  endfacet
  facet normal -0 0.499995 0.866028
    outer loop
      vertex -2.25 40.8779 8.09017
      vertex 2.25 39.0674 9.13545
      vertex 2.25 40.8779 8.09017
    endloop
  endfacet
  facet normal 0 0.499995 0.866028
    outer loop
      vertex 2.25 39.0674 9.13545
      vertex -2.25 40.8779 8.09017
      vertex -2.25 39.0674 9.13545
    endloop
  endfacet
  facet normal 0 -0.104528 0.994522
    outer loop
      vertex -2.25 -35.5 9.94745
      vertex 2.25 -37.0791 9.78148
      vertex 2.25 -35.5 9.94745
    endloop
  endfacet
  facet normal 0 -0.104528 0.994522
    outer loop
      vertex 2.25 -37.0791 9.78148
      vertex -2.25 -35.5 9.94745
      vertex -2.25 -37.0791 9.78148
    endloop
  endfacet
  facet normal 0 -0.104528 -0.994522
    outer loop
      vertex -2.25 -37.0791 -9.78148
      vertex 2.25 -35.5 -9.94745
      vertex 2.25 -37.0791 -9.78148
    endloop
  endfacet
  facet normal -0 -0.104528 -0.994522
    outer loop
      vertex 2.25 -35.5 -9.94745
      vertex -2.25 -37.0791 -9.78148
      vertex -2.25 -35.5 -9.94745
    endloop
  endfacet
  facet normal 0 -1 0
    outer loop
      vertex -2.25 -44.9452 -1.04528
      vertex 2.25 -44.9452 1.04528
      vertex -2.25 -44.9452 1.04528
    endloop
  endfacet
  facet normal 0 -1 -0
    outer loop
      vertex 2.25 -44.9452 1.04528
      vertex -2.25 -44.9452 -1.04528
      vertex 2.25 -44.9452 -1.04528
    endloop
  endfacet
  facet normal 0 -0.808996 -0.587814
    outer loop
      vertex -2.25 -42.4314 -6.69131
      vertex 2.25 -43.6603 -5
      vertex -2.25 -43.6603 -5
    endloop
  endfacet
  facet normal 0 -0.808996 -0.587814
    outer loop
      vertex 2.25 -43.6603 -5
      vertex -2.25 -42.4314 -6.69131
      vertex 2.25 -42.4314 -6.69131
    endloop
  endfacet
  facet normal 0 -0.808996 0.587814
    outer loop
      vertex -2.25 -43.6603 5
      vertex 2.25 -42.4314 6.69131
      vertex -2.25 -42.4314 6.69131
    endloop
  endfacet
  facet normal 0 -0.808996 0.587814
    outer loop
      vertex 2.25 -42.4314 6.69131
      vertex -2.25 -43.6603 5
      vertex 2.25 -43.6603 5
    endloop
  endfacet
  facet normal 0 -0.913547 -0.406732
    outer loop
      vertex -2.25 -43.6603 -5
      vertex 2.25 -44.5106 -3.09017
      vertex -2.25 -44.5106 -3.09017
    endloop
  endfacet
  facet normal 0 -0.913547 -0.406732
    outer loop
      vertex 2.25 -44.5106 -3.09017
      vertex -2.25 -43.6603 -5
      vertex 2.25 -43.6603 -5
    endloop
  endfacet
  facet normal 0 -0.309014 -0.951058
    outer loop
      vertex -2.25 -39.0674 -9.13545
      vertex 2.25 -37.0791 -9.78148
      vertex 2.25 -39.0674 -9.13545
    endloop
  endfacet
  facet normal -0 -0.309014 -0.951058
    outer loop
      vertex 2.25 -37.0791 -9.78148
      vertex -2.25 -39.0674 -9.13545
      vertex -2.25 -37.0791 -9.78148
    endloop
  endfacet
  facet normal 0 -0.978153 -0.207887
    outer loop
      vertex -2.25 -44.5106 -3.09017
      vertex 2.25 -44.9452 -1.04528
      vertex -2.25 -44.9452 -1.04528
    endloop
  endfacet
  facet normal 0 -0.978153 -0.207887
    outer loop
      vertex 2.25 -44.9452 -1.04528
      vertex -2.25 -44.5106 -3.09017
      vertex 2.25 -44.5106 -3.09017
    endloop
  endfacet
  facet normal 0 -0.669152 0.743125
    outer loop
      vertex -2.25 -40.8779 8.09017
      vertex 2.25 -42.4314 6.69131
      vertex 2.25 -40.8779 8.09017
    endloop
  endfacet
  facet normal 0 -0.669152 0.743125
    outer loop
      vertex 2.25 -42.4314 6.69131
      vertex -2.25 -40.8779 8.09017
      vertex -2.25 -42.4314 6.69131
    endloop
  endfacet
  facet normal 0 -0.499995 0.866028
    outer loop
      vertex -2.25 -39.0674 9.13545
      vertex 2.25 -40.8779 8.09017
      vertex 2.25 -39.0674 9.13545
    endloop
  endfacet
  facet normal 0 -0.499995 0.866028
    outer loop
      vertex 2.25 -40.8779 8.09017
      vertex -2.25 -39.0674 9.13545
      vertex -2.25 -40.8779 8.09017
    endloop
  endfacet
  facet normal 0 -0.499995 -0.866028
    outer loop
      vertex -2.25 -40.8779 -8.09017
      vertex 2.25 -39.0674 -9.13545
      vertex 2.25 -40.8779 -8.09017
    endloop
  endfacet
  facet normal -0 -0.499995 -0.866028
    outer loop
      vertex 2.25 -39.0674 -9.13545
      vertex -2.25 -40.8779 -8.09017
      vertex -2.25 -39.0674 -9.13545
    endloop
  endfacet
  facet normal 0 -0.913547 0.406732
    outer loop
      vertex -2.25 -44.5106 3.09017
      vertex 2.25 -43.6603 5
      vertex -2.25 -43.6603 5
    endloop
  endfacet
  facet normal 0 -0.913547 0.406732
    outer loop
      vertex 2.25 -43.6603 5
      vertex -2.25 -44.5106 3.09017
      vertex 2.25 -44.5106 3.09017
    endloop
  endfacet
  facet normal 0 -0.978153 0.207887
    outer loop
      vertex -2.25 -44.9452 1.04528
      vertex 2.25 -44.5106 3.09017
      vertex -2.25 -44.5106 3.09017
    endloop
  endfacet
  facet normal 0 -0.978153 0.207887
    outer loop
      vertex 2.25 -44.5106 3.09017
      vertex -2.25 -44.9452 1.04528
      vertex 2.25 -44.9452 1.04528
    endloop
  endfacet
  facet normal 0 -0.309014 0.951058
    outer loop
      vertex -2.25 -37.0791 9.78148
      vertex 2.25 -39.0674 9.13545
      vertex 2.25 -37.0791 9.78148
    endloop
  endfacet
  facet normal 0 -0.309014 0.951058
    outer loop
      vertex 2.25 -39.0674 9.13545
      vertex -2.25 -37.0791 9.78148
      vertex -2.25 -39.0674 9.13545
    endloop
  endfacet
  facet normal 0 -0.669152 -0.743125
    outer loop
      vertex -2.25 -42.4314 -6.69131
      vertex 2.25 -40.8779 -8.09017
      vertex 2.25 -42.4314 -6.69131
    endloop
  endfacet
  facet normal -0 -0.669152 -0.743125
    outer loop
      vertex 2.25 -40.8779 -8.09017
      vertex -2.25 -42.4314 -6.69131
      vertex -2.25 -40.8779 -8.09017
    endloop
  endfacet
  facet normal -0 0 1
    outer loop
      vertex -2.25 35.5 10
      vertex 2.25 -35.5 10
      vertex 2.25 35.5 10
    endloop
  endfacet
  facet normal 0 0 1
    outer loop
      vertex 2.25 -35.5 10
      vertex -2.25 35.5 10
      vertex -2.25 -35.5 10
    endloop
  endfacet
  facet normal 0 0 -1
    outer loop
      vertex -2.25 -35.5 -10
      vertex 2.25 35.5 -10
      vertex 2.25 -35.5 -10
    endloop
  endfacet
  facet normal -0 0 -1
    outer loop
      vertex 2.25 35.5 -10
      vertex -2.25 -35.5 -10
      vertex -2.25 35.5 -10
    endloop
  endfacet
  facet normal 0 1 -0
    outer loop
      vertex 2.25 35.5 9.94745
      vertex -2.25 35.5 10
      vertex 2.25 35.5 10
    endloop
  endfacet
  facet normal 0 1 0
    outer loop
      vertex -2.25 35.5 10
      vertex 2.25 35.5 9.94745
      vertex -2.25 35.5 9.94745
    endloop
  endfacet
  facet normal 0 1 -0
    outer loop
      vertex 2.25 35.5 -10
      vertex -2.25 35.5 -9.94745
      vertex 2.25 35.5 -9.94745
    endloop
  endfacet
  facet normal 0 1 0
    outer loop
      vertex -2.25 35.5 -9.94745
      vertex 2.25 35.5 -10
      vertex -2.25 35.5 -10
    endloop
  endfacet
  facet normal 0 -1 0
    outer loop
      vertex -2.25 -35.5 9.94745
      vertex 2.25 -35.5 10
      vertex -2.25 -35.5 10
    endloop
  endfacet
  facet normal 0 -1 -0
    outer loop
      vertex 2.25 -35.5 10
      vertex -2.25 -35.5 9.94745
      vertex 2.25 -35.5 9.94745
    endloop
  endfacet
  facet normal 0 -1 0
    outer loop
      vertex -2.25 -35.5 -10
      vertex 2.25 -35.5 -9.94745
      vertex -2.25 -35.5 -9.94745
    endloop
  endfacet
  facet normal 0 -1 -0
    outer loop
      vertex 2.25 -35.5 -9.94745
      vertex -2.25 -35.5 -10
      vertex 2.25 -35.5 -10
    endloop
  endfacet
  facet normal 0 -0.195091 -0.980785
    outer loop
      vertex -2.25 30 5
      vertex 2.25 31.9134 4.6194
      vertex 2.25 30 5
    endloop
  endfacet
  facet normal -0 -0.195091 -0.980785
    outer loop
      vertex 2.25 31.9134 4.6194
      vertex -2.25 30 5
      vertex -2.25 31.9134 4.6194
    endloop
  endfacet
  facet normal 0 -0.195091 0.980785
    outer loop
      vertex -2.25 31.9134 -4.6194
      vertex 2.25 30 -5
      vertex 2.25 31.9134 -4.6194
    endloop
  endfacet
  facet normal 0 -0.195091 0.980785
    outer loop
      vertex 2.25 30 -5
      vertex -2.25 31.9134 -4.6194
      vertex -2.25 30 -5
    endloop
  endfacet
  facet normal 0 -0.83146 -0.555585
    outer loop
      vertex -2.25 34.6194 1.91342
      vertex 2.25 33.5355 3.53553
      vertex -2.25 33.5355 3.53553
    endloop
  endfacet
  facet normal 0 -0.83146 -0.555585
    outer loop
      vertex 2.25 33.5355 3.53553
      vertex -2.25 34.6194 1.91342
      vertex 2.25 34.6194 1.91342
    endloop
  endfacet
  facet normal 0 -0.980786 0.195089
    outer loop
      vertex -2.25 34.6194 -1.91342
      vertex 2.25 35 0
      vertex -2.25 35 0
    endloop
  endfacet
  facet normal 0 -0.980786 0.195089
    outer loop
      vertex 2.25 35 0
      vertex -2.25 34.6194 -1.91342
      vertex 2.25 34.6194 -1.91342
    endloop
  endfacet
  facet normal 0 -0.555576 0.831465
    outer loop
      vertex -2.25 33.5355 -3.53553
      vertex 2.25 31.9134 -4.6194
      vertex 2.25 33.5355 -3.53553
    endloop
  endfacet
  facet normal 0 -0.555576 0.831465
    outer loop
      vertex 2.25 31.9134 -4.6194
      vertex -2.25 33.5355 -3.53553
      vertex -2.25 31.9134 -4.6194
    endloop
  endfacet
  facet normal 0 0.83146 0.555585
    outer loop
      vertex 2.25 26.4645 -3.53553
      vertex -2.25 25.3806 -1.91342
      vertex 2.25 25.3806 -1.91342
    endloop
  endfacet
  facet normal 0 0.83146 0.555585
    outer loop
      vertex -2.25 25.3806 -1.91342
      vertex 2.25 26.4645 -3.53553
      vertex -2.25 26.4645 -3.53553
    endloop
  endfacet
  facet normal 0 -0.83146 0.555585
    outer loop
      vertex -2.25 33.5355 -3.53553
      vertex 2.25 34.6194 -1.91342
      vertex -2.25 34.6194 -1.91342
    endloop
  endfacet
  facet normal 0 -0.83146 0.555585
    outer loop
      vertex 2.25 34.6194 -1.91342
      vertex -2.25 33.5355 -3.53553
      vertex 2.25 33.5355 -3.53553
    endloop
  endfacet
  facet normal 0 0.555576 -0.831465
    outer loop
      vertex -2.25 26.4645 3.53553
      vertex 2.25 28.0866 4.6194
      vertex 2.25 26.4645 3.53553
    endloop
  endfacet
  facet normal 0 0.555576 -0.831465
    outer loop
      vertex 2.25 28.0866 4.6194
      vertex -2.25 26.4645 3.53553
      vertex -2.25 28.0866 4.6194
    endloop
  endfacet
  facet normal 0 0.195091 -0.980785
    outer loop
      vertex -2.25 28.0866 4.6194
      vertex 2.25 30 5
      vertex 2.25 28.0866 4.6194
    endloop
  endfacet
  facet normal 0 0.195091 -0.980785
    outer loop
      vertex 2.25 30 5
      vertex -2.25 28.0866 4.6194
      vertex -2.25 30 5
    endloop
  endfacet
  facet normal 0 -0.980786 -0.195089
    outer loop
      vertex -2.25 35 0
      vertex 2.25 34.6194 1.91342
      vertex -2.25 34.6194 1.91342
    endloop
  endfacet
  facet normal 0 -0.980786 -0.195089
    outer loop
      vertex 2.25 34.6194 1.91342
      vertex -2.25 35 0
      vertex 2.25 35 0
    endloop
  endfacet
  facet normal 0 0.980786 -0.195089
    outer loop
      vertex 2.25 25 0
      vertex -2.25 25.3806 1.91342
      vertex 2.25 25.3806 1.91342
    endloop
  endfacet
  facet normal 0 0.980786 -0.195089
    outer loop
      vertex -2.25 25.3806 1.91342
      vertex 2.25 25 0
      vertex -2.25 25 0
    endloop
  endfacet
  facet normal 0 0.980786 0.195089
    outer loop
      vertex 2.25 25.3806 -1.91342
      vertex -2.25 25 0
      vertex 2.25 25 0
    endloop
  endfacet
  facet normal 0 0.980786 0.195089
    outer loop
      vertex -2.25 25 0
      vertex 2.25 25.3806 -1.91342
      vertex -2.25 25.3806 -1.91342
    endloop
  endfacet
  facet normal 0 -0.555576 -0.831465
    outer loop
      vertex -2.25 31.9134 4.6194
      vertex 2.25 33.5355 3.53553
      vertex 2.25 31.9134 4.6194
    endloop
  endfacet
  facet normal -0 -0.555576 -0.831465
    outer loop
      vertex 2.25 33.5355 3.53553
      vertex -2.25 31.9134 4.6194
      vertex -2.25 33.5355 3.53553
    endloop
  endfacet
  facet normal 0 0.83146 -0.555585
    outer loop
      vertex 2.25 25.3806 1.91342
      vertex -2.25 26.4645 3.53553
      vertex 2.25 26.4645 3.53553
    endloop
  endfacet
  facet normal 0 0.83146 -0.555585
    outer loop
      vertex -2.25 26.4645 3.53553
      vertex 2.25 25.3806 1.91342
      vertex -2.25 25.3806 1.91342
    endloop
  endfacet
  facet normal -0 0.555576 0.831465
    outer loop
      vertex -2.25 28.0866 -4.6194
      vertex 2.25 26.4645 -3.53553
      vertex 2.25 28.0866 -4.6194
    endloop
  endfacet
  facet normal 0 0.555576 0.831465
    outer loop
      vertex 2.25 26.4645 -3.53553
      vertex -2.25 28.0866 -4.6194
      vertex -2.25 26.4645 -3.53553
    endloop
  endfacet
  facet normal -0 0.195091 0.980785
    outer loop
      vertex -2.25 30 -5
      vertex 2.25 28.0866 -4.6194
      vertex 2.25 30 -5
    endloop
  endfacet
  facet normal 0 0.195091 0.980785
    outer loop
      vertex 2.25 28.0866 -4.6194
      vertex -2.25 30 -5
      vertex -2.25 28.0866 -4.6194
    endloop
  endfacet
  facet normal 0 -0.195091 0.980785
    outer loop
      vertex -2.25 -28.0866 -4.6194
      vertex 2.25 -30 -5
      vertex 2.25 -28.0866 -4.6194
    endloop
  endfacet
  facet normal 0 -0.195091 0.980785
    outer loop
      vertex 2.25 -30 -5
      vertex -2.25 -28.0866 -4.6194
      vertex -2.25 -30 -5
    endloop
  endfacet
  facet normal 0 0.195091 -0.980785
    outer loop
      vertex -2.25 -31.9134 4.6194
      vertex 2.25 -30 5
      vertex 2.25 -31.9134 4.6194
    endloop
  endfacet
  facet normal 0 0.195091 -0.980785
    outer loop
      vertex 2.25 -30 5
      vertex -2.25 -31.9134 4.6194
      vertex -2.25 -30 5
    endloop
  endfacet
  facet normal 0 -0.555576 0.831465
    outer loop
      vertex -2.25 -26.4645 -3.53553
      vertex 2.25 -28.0866 -4.6194
      vertex 2.25 -26.4645 -3.53553
    endloop
  endfacet
  facet normal 0 -0.555576 0.831465
    outer loop
      vertex 2.25 -28.0866 -4.6194
      vertex -2.25 -26.4645 -3.53553
      vertex -2.25 -28.0866 -4.6194
    endloop
  endfacet
  facet normal 0 0.980786 0.195089
    outer loop
      vertex 2.25 -34.6194 -1.91342
      vertex -2.25 -35 0
      vertex 2.25 -35 0
    endloop
  endfacet
  facet normal 0 0.980786 0.195089
    outer loop
      vertex -2.25 -35 0
      vertex 2.25 -34.6194 -1.91342
      vertex -2.25 -34.6194 -1.91342
    endloop
  endfacet
  facet normal 0 -0.83146 0.555585
    outer loop
      vertex -2.25 -26.4645 -3.53553
      vertex 2.25 -25.3806 -1.91342
      vertex -2.25 -25.3806 -1.91342
    endloop
  endfacet
  facet normal 0 -0.83146 0.555585
    outer loop
      vertex 2.25 -25.3806 -1.91342
      vertex -2.25 -26.4645 -3.53553
      vertex 2.25 -26.4645 -3.53553
    endloop
  endfacet
  facet normal 0 -0.83146 -0.555585
    outer loop
      vertex -2.25 -25.3806 1.91342
      vertex 2.25 -26.4645 3.53553
      vertex -2.25 -26.4645 3.53553
    endloop
  endfacet
  facet normal 0 -0.83146 -0.555585
    outer loop
      vertex 2.25 -26.4645 3.53553
      vertex -2.25 -25.3806 1.91342
      vertex 2.25 -25.3806 1.91342
    endloop
  endfacet
  facet normal 0 -0.980786 0.195089
    outer loop
      vertex -2.25 -25.3806 -1.91342
      vertex 2.25 -25 0
      vertex -2.25 -25 0
    endloop
  endfacet
  facet normal 0 -0.980786 0.195089
    outer loop
      vertex 2.25 -25 0
      vertex -2.25 -25.3806 -1.91342
      vertex 2.25 -25.3806 -1.91342
    endloop
  endfacet
  facet normal 0 -0.555576 -0.831465
    outer loop
      vertex -2.25 -28.0866 4.6194
      vertex 2.25 -26.4645 3.53553
      vertex 2.25 -28.0866 4.6194
    endloop
  endfacet
  facet normal -0 -0.555576 -0.831465
    outer loop
      vertex 2.25 -26.4645 3.53553
      vertex -2.25 -28.0866 4.6194
      vertex -2.25 -26.4645 3.53553
    endloop
  endfacet
  facet normal 0 -0.195091 -0.980785
    outer loop
      vertex -2.25 -30 5
      vertex 2.25 -28.0866 4.6194
      vertex 2.25 -30 5
    endloop
  endfacet
  facet normal -0 -0.195091 -0.980785
    outer loop
      vertex 2.25 -28.0866 4.6194
      vertex -2.25 -30 5
      vertex -2.25 -28.0866 4.6194
    endloop
  endfacet
  facet normal 0 0.980786 -0.195089
    outer loop
      vertex 2.25 -35 0
      vertex -2.25 -34.6194 1.91342
      vertex 2.25 -34.6194 1.91342
    endloop
  endfacet
  facet normal 0 0.980786 -0.195089
    outer loop
      vertex -2.25 -34.6194 1.91342
      vertex 2.25 -35 0
      vertex -2.25 -35 0
    endloop
  endfacet
  facet normal 0 0.83146 0.555585
    outer loop
      vertex 2.25 -33.5355 -3.53553
      vertex -2.25 -34.6194 -1.91342
      vertex 2.25 -34.6194 -1.91342
    endloop
  endfacet
  facet normal 0 0.83146 0.555585
    outer loop
      vertex -2.25 -34.6194 -1.91342
      vertex 2.25 -33.5355 -3.53553
      vertex -2.25 -33.5355 -3.53553
    endloop
  endfacet
  facet normal 0 0.83146 -0.555585
    outer loop
      vertex 2.25 -34.6194 1.91342
      vertex -2.25 -33.5355 3.53553
      vertex 2.25 -33.5355 3.53553
    endloop
  endfacet
  facet normal 0 0.83146 -0.555585
    outer loop
      vertex -2.25 -33.5355 3.53553
      vertex 2.25 -34.6194 1.91342
      vertex -2.25 -34.6194 1.91342
    endloop
  endfacet
  facet normal 0 -0.980786 -0.195089
    outer loop
      vertex -2.25 -25 0
      vertex 2.25 -25.3806 1.91342
      vertex -2.25 -25.3806 1.91342
    endloop
  endfacet
  facet normal 0 -0.980786 -0.195089
    outer loop
      vertex 2.25 -25.3806 1.91342
      vertex -2.25 -25 0
      vertex 2.25 -25 0
    endloop
  endfacet
  facet normal 0 0.555576 -0.831465
    outer loop
      vertex -2.25 -33.5355 3.53553
      vertex 2.25 -31.9134 4.6194
      vertex 2.25 -33.5355 3.53553
    endloop
  endfacet
  facet normal 0 0.555576 -0.831465
    outer loop
      vertex 2.25 -31.9134 4.6194
      vertex -2.25 -33.5355 3.53553
      vertex -2.25 -31.9134 4.6194
    endloop
  endfacet
  facet normal -0 0.555576 0.831465
    outer loop
      vertex -2.25 -31.9134 -4.6194
      vertex 2.25 -33.5355 -3.53553
      vertex 2.25 -31.9134 -4.6194
    endloop
  endfacet
  facet normal 0 0.555576 0.831465
    outer loop
      vertex 2.25 -33.5355 -3.53553
      vertex -2.25 -31.9134 -4.6194
      vertex -2.25 -33.5355 -3.53553
    endloop
  endfacet
  facet normal -0 0.195091 0.980785
    outer loop
      vertex -2.25 -30 -5
      vertex 2.25 -31.9134 -4.6194
      vertex 2.25 -30 -5
    endloop
  endfacet
  facet normal 0 0.195091 0.980785
    outer loop
      vertex 2.25 -31.9134 -4.6194
      vertex -2.25 -30 -5
      vertex -2.25 -31.9134 -4.6194
    endloop
  endfacet
endsolid OpenSCAD_Model
